<svg id="Layer_1" data-name="Layer 1" xmlns="http://www.w3.org/2000/svg" viewBox="0 0 552 83"><defs><style>.cls-1{fill:#019cdb;}.cls-1,.cls-2,.cls-3,.cls-4,.cls-5{fill-rule:evenodd;}.cls-2{fill:#de3439;}.cls-3{fill:#ffcf3d;}.cls-4{fill:#f4f7f9;}.cls-5{fill:#27588d;}</style></defs><path class="cls-1" d="M423.87,36H269V26.25A26.19,26.19,0,0,1,295.13,0H450V9.75A26.19,26.19,0,0,1,423.87,36"/><path class="cls-2" d="M525.71,36H461V26.25A26.27,26.27,0,0,1,487.29,0H552V9.75A26.27,26.27,0,0,1,525.71,36"/><path class="cls-3" d="M231.85,36H51V26.25A26.2,26.2,0,0,1,77.15,0H258V9.75A26.2,26.2,0,0,1,231.85,36"/><path class="cls-4" d="M269.86,83H0V73.25A26.19,26.19,0,0,1,26.14,47H296v9.75A26.19,26.19,0,0,1,269.86,83"/><path class="cls-5" d="M456.82,83H307V73.25A26.21,26.21,0,0,1,333.18,47H483v9.75A26.21,26.21,0,0,1,456.82,83"/></svg>