<?xml version="1.0" encoding="UTF-8"?>
<svg width="493px" height="83px" viewBox="0 0 493 83" version="1.1" xmlns="http://www.w3.org/2000/svg" xmlns:xlink="http://www.w3.org/1999/xlink">
    <!-- Generator: Sketch 63.1 (92452) - https://sketch.com -->
    <title>Group 25 Copy</title>
    <desc>Created with Sketch.</desc>
    <g id="Designs" stroke="none" stroke-width="1" fill="none" fill-rule="evenodd">
        <g id="Homepage-2020-07" transform="translate(-947.000000, -2161.000000)">
            <g id="Solutions" transform="translate(80.000000, 2161.000000)">
                <g id="Group-25-Copy" style="mix-blend-mode: multiply;" transform="translate(867.000000, 0.000000)">
                    <path d="M423.874065,36 L269,36 L269,26.2540095 C269,11.7546597 280.696454,0 295.125072,0 L450,0 L450,9.74599046 C450,24.2453403 438.302683,36 423.874065,36" id="Fill-1" fill="#F4F7F9"></path>
                    <path d="M525.709799,36 L461,36 L461,26.2540095 C461,11.7546597 472.770864,0 487.290201,0 L552,0 L552,9.74599046 C552,24.2453403 540.229136,36 525.709799,36" id="Fill-4" fill="#F4F7F9"></path>
                    <path d="M231.852159,36 L51,36 L51,26.2540095 C51,11.7546597 62.7062617,0 77.1469776,0 L258,0 L258,9.74599046 C258,24.2453403 246.292875,36 231.852159,36" id="Fill-7" fill="#FFCF3D"></path>
                    <path d="M269.859758,83 L0,83 L0,73.2540095 C0,58.7546597 11.7028595,47 26.1393786,47 L296,47 L296,56.7459905 C296,71.2453403 284.296277,83 269.859758,83" id="Fill-10" fill="#F4F7F9"></path>
                    <path d="M307,83 L307,73.2540095 C307,58.7546597 318.7191,47 333.176518,47 L483,47 L483,56.7459905 C483,71.2453403 471.280036,83 456.823482,83 L307,83 Z" id="Fill-13" fill="#DE3439"></path>
                </g>
            </g>
        </g>
    </g>
</svg>