<?xml version="1.0" encoding="UTF-8"?>
<svg width="851px" height="103px" viewBox="0 0 851 103" version="1.1" xmlns="http://www.w3.org/2000/svg" xmlns:xlink="http://www.w3.org/1999/xlink">
    <!-- Generator: Sketch 56.2 (81672) - https://sketch.com -->
    <title>motion-grid-4</title>
    <desc>Created with Sketch.</desc>
    <defs>
        <rect id="path-1" x="0.669829222" y="0.281736314" width="851" height="104"></rect>
    </defs>
    <g id="Page-1" stroke="none" stroke-width="1" fill="none" fill-rule="evenodd">
        <g id="motion-grid-4" transform="translate(-1.000000, -1.000000)">
            <g id="Group" transform="translate(0.330171, 0.718264)">
                <mask id="mask-2" fill="white">
                    <use xlink:href="#path-1"></use>
                </mask>
                <g id="Mask"></g>
                <path d="M90.6698292,45.2817363 L1,45.2754087 L1,33.2895338 C1,15.454948 15.8842238,1 34.2435015,1 L123.913331,1.00632761 L123.913331,12.9922025 C123.913331,30.8246357 108.029107,45.2817363 89.6698292,45.2817363" id="Fill-7" fill="#DEE4E8" mask="url(#mask-2)"></path>
                <path d="M877.333349,45.2754087 L534.13852,45.2754087 L534.13852,33.2895338 C534.13852,15.454948 549.022744,1 567.382021,1 L910.57685,1 L910.57685,12.9858749 C910.57685,30.8183081 895.692626,45.2754087 877.333349,45.2754087" id="Fill-7-Copy" fill="#DEE4E8" mask="url(#mask-2)"></path>
                <path d="M332.902056,45.2754087 L142.669829,45.2754087 L142.669829,33.2895338 C142.669829,15.454948 157.548686,1 175.906293,1 L366.13852,1 L366.13852,12.9858749 C366.13852,30.8183081 351.257447,45.2754087 332.902056,45.2754087" id="Fill-9" fill="#FFCF3D" mask="url(#mask-2)"></path>
                <path d="M384.669829,45.2754087 L384.669829,33.2895338 C384.669829,15.454948 399.548686,1 417.906293,1 L515.268709,1 L515.268709,12.9858749 C515.268709,30.8183081 500.38661,45.2754087 482.031219,45.2754087 L384.669829,45.2754087 Z" id="Fill-9-Copy-3" fill="#E6EAED" mask="url(#mask-2)"></path>
                <path d="M760.513141,102.438687 L429.669829,102.572996 L429.669829,90.5871215 C429.669829,72.7525357 444.512973,58.2975877 462.826517,58.2975877 L793.669829,58.1632783 L793.669829,70.1491532 C793.669829,87.9815864 778.981163,102.310217 760.669829,102.310217" id="Fill-11" fill="#DE3439" mask="url(#mask-2)"></path>
                <path d="M198.669829,102.572996 L198.669829,90.5871215 C198.669829,72.7525357 213.56092,58.2975877 231.928667,58.2975877 L410.019749,58.2975877 L410.019749,70.2834627 C410.019749,88.1158959 395.130876,102.572996 376.760911,102.572996 L198.669829,102.572996 Z" id="Fill-13" fill="#E6EAED" mask="url(#mask-2)"></path>
                <path d="M812.669829,102.572996 L812.669829,90.5871215 C812.669829,72.7525357 827.56092,58.2975877 845.928667,58.2975877 L1024.01975,58.2975877 L1024.01975,70.2834627 C1024.01975,88.1158959 1009.13088,102.572996 990.760911,102.572996 L812.669829,102.572996 Z" id="Fill-13-Copy" fill="#E6EAED" mask="url(#mask-2)"></path>
            </g>
        </g>
    </g>
</svg>