<?xml version="1.0" encoding="UTF-8"?>
<svg width="851px" height="105px" viewBox="0 0 851 105" version="1.1" xmlns="http://www.w3.org/2000/svg" xmlns:xlink="http://www.w3.org/1999/xlink">
    <!-- Generator: Sketch 56.2 (81672) - https://sketch.com -->
    <title>motion-grid-1</title>
    <desc>Created with Sketch.</desc>
    <defs>
        <rect id="path-1" x="0" y="0" width="851" height="105"></rect>
    </defs>
    <g id="Page-1" stroke="none" stroke-width="1" fill="none" fill-rule="evenodd">
        <g id="motion-grid-1">
            <mask id="mask-2" fill="white">
                <use xlink:href="#path-1"></use>
            </mask>
            <g id="Mask" opacity="0.194266183"></g>
            <g id="sep-3" mask="url(#mask-2)" fill-rule="nonzero">
                <path d="M633.426328,45.8630952 L290.231499,45.8630952 L290.231499,33.6456145 C290.231499,15.466407 305.115723,0.732142857 323.475001,0.732142857 L666.669829,0.732142857 L666.669829,12.9496235 C666.669829,31.1266368 651.785605,45.8630952 633.426328,45.8630952" id="Fill-7" fill="#FFCF3D" transform="translate(478.450664, 23.297619) scale(-1, 1) translate(-478.450664, -23.297619) "></path>
                <path d="M238.372645,45.8630952 L48.140418,45.8630952 L48.140418,33.6456145 C48.140418,15.466407 63.0192751,0.732142857 81.3768822,0.732142857 L271.609109,0.732142857 L271.609109,12.9496235 C271.609109,31.1266368 256.728036,45.8630952 238.372645,45.8630952" id="Fill-9" fill="#E6EAED" transform="translate(159.874763, 23.297619) scale(-1, 1) translate(-159.874763, -23.297619) "></path>
                <path d="M437.978036,104.267857 L260.967741,104.267857 L260.967741,92.0503765 C260.967741,73.8711689 275.810885,59.1369048 294.124429,59.1369048 L471.134724,59.1369048 L471.134724,71.3543855 C471.134724,89.5313988 456.289369,104.267857 437.978036,104.267857" id="Fill-11" fill="#BAC3C9" transform="translate(366.051232, 81.702381) scale(-1, 1) translate(-366.051232, -81.702381) "></path>
                <path d="M209.086513,104.267857 L0.254269,104.267857 L0.254269,92.0503765 C0.254269,73.8711689 15.1453593,59.1369048 33.513107,59.1369048 L242.345351,59.1369048 L242.345351,71.3543855 C242.345351,89.5313988 227.456478,104.267857 209.086513,104.267857" id="Fill-13" fill="#E6EAED" transform="translate(121.299810, 81.702381) scale(-1, 1) translate(-121.299810, -81.702381) "></path>
                <path d="M580.172724,104.267857 L488.426946,104.267857 L488.426946,92.0503765 C488.426946,73.8711689 503.329892,59.1369048 521.717221,59.1369048 L613.462999,59.1369048 L613.462999,71.3543855 C613.462999,89.5313988 598.560053,104.267857 580.172724,104.267857" id="Fill-15" fill="#E6EAED" transform="translate(550.944972, 81.702381) scale(-1, 1) translate(-550.944972, -81.702381) "></path>
                <path d="M897.372645,45.8630952 L707.140418,45.8630952 L707.140418,33.6456145 C707.140418,15.466407 722.019276,0.732142857 740.376883,0.732142857 L930.609109,0.732142857 L930.609109,12.9496235 C930.609109,31.1266368 915.728036,45.8630952 897.372645,45.8630952" id="Fill-9" fill="#E6EAED" transform="translate(818.874764, 23.297619) scale(-1, 1) translate(-818.874764, -23.297619) "></path>
                <path d="M642.694683,104.267857 L642.694683,92.0503765 C642.694683,73.8711689 657.585774,59.1369048 675.953521,59.1369048 L901.345352,59.1369048 L901.345352,71.3543855 C901.345352,89.5313988 886.456479,104.267857 868.086514,104.267857 L642.694683,104.267857 Z" id="Fill-13" fill="#D7DFE3" transform="translate(772.020018, 81.702381) scale(-1, 1) translate(-772.020018, -81.702381) "></path>
            </g>
        </g>
    </g>
</svg>