<?xml version="1.0" encoding="UTF-8"?>
<svg width="851px" height="104px" viewBox="0 0 851 104" version="1.1" xmlns="http://www.w3.org/2000/svg" xmlns:xlink="http://www.w3.org/1999/xlink">
    <!-- Generator: Sketch 56.2 (81672) - https://sketch.com -->
    <title>motion-grid-3</title>
    <desc>Created with Sketch.</desc>
    <defs>
        <rect id="path-1" x="0" y="0" width="851" height="105"></rect>
    </defs>
    <g id="Page-1" stroke="none" stroke-width="1" fill="none" fill-rule="evenodd">
        <g id="motion-grid-3">
            <mask id="mask-2" fill="white">
                <use xlink:href="#path-1"></use>
            </mask>
            <g id="Mask" opacity="0.194266183"></g>
            <g id="sep-2" mask="url(#mask-2)" fill-rule="nonzero">
                <path d="M633.426328,103.863095 L290.231499,103.863095 L290.231499,91.6456145 C290.231499,73.466407 305.115723,58.7321429 323.475001,58.7321429 L666.669829,58.7321429 L666.669829,70.9496235 C666.669829,89.1266368 651.785605,103.863095 633.426328,103.863095" id="Fill-7" fill="#DE3439" transform="translate(478.450664, 81.297619) scale(-1, 1) translate(-478.450664, -81.297619) "></path>
                <path d="M117.763536,103.863095 L117.763536,91.6456145 C117.763536,73.466407 132.642393,58.7321429 151,58.7321429 L271.609108,58.8690477 L271.609108,71.0865283 C271.609108,89.2635416 256.728035,104 238.372644,104 L117.763536,103.863095 Z" id="Fill-9" fill="#E6EAED" transform="translate(194.686322, 81.366071) scale(-1, 1) translate(-194.686322, -81.366071) "></path>
                <path d="M437.978036,45.1309522 L260.967741,45.1309522 L260.967741,32.9134717 C260.967741,14.7342641 275.810885,-3.19744231e-14 294.124429,-3.19744231e-14 L471.134724,-3.19744231e-14 L471.134724,12.2174807 C471.134724,30.394494 456.289369,45.1309522 437.978036,45.1309522" id="Fill-11" fill="#DEE4E8" transform="translate(366.051232, 22.565476) scale(-1, 1) translate(-366.051232, -22.565476) "></path>
                <path d="M209.086513,45.1309522 L0.254269,45.1309522 L0.254269,32.9134717 C0.254269,14.7342641 15.1453593,-3.19744231e-14 33.5131069,-3.19744231e-14 L242.345351,-3.19744231e-14 L242.345351,12.2174807 C242.345351,30.394494 227.456478,45.1309522 209.086513,45.1309522" id="Fill-13" fill="#E6EAED" transform="translate(121.299810, 22.565476) scale(-1, 1) translate(-121.299810, -22.565476) "></path>
                <path d="M488.426945,45.1309522 L488.426945,32.9134717 C488.426945,14.7342641 503.329891,-3.19744231e-14 521.71722,-3.19744231e-14 L623.673087,-3.19744231e-14 L623.673087,12.2174807 C623.673087,30.394494 608.770141,45.1309522 590.382813,45.1309522 L488.426945,45.1309522 Z" id="Fill-15" fill="#BAC3C9" transform="translate(556.050016, 22.565476) scale(-1, 1) translate(-556.050016, -22.565476) "></path>
                <path d="M686.294786,103.863095 L686.294786,91.6456145 C686.294786,73.466407 701.173643,58.7321429 719.53125,58.7321429 L929.609108,58.7321429 L929.609108,70.9496235 C929.609108,89.1266368 914.728035,103.863095 896.372644,103.863095 L686.294786,103.863095 Z" id="Fill-9" fill="#DEE4E8" transform="translate(807.951947, 81.297619) scale(-1, 1) translate(-807.951947, -81.297619) "></path>
                <path d="M642.694683,45.1309522 L642.694683,32.9134717 C642.694683,14.7342641 657.585774,-3.19744231e-14 675.953521,-3.19744231e-14 L901.345352,-3.19744231e-14 L901.345352,12.2174807 C901.345352,30.394494 886.456479,45.1309522 868.086514,45.1309522 L642.694683,45.1309522 Z" id="Fill-13" fill="#FFCF3D" transform="translate(772.020018, 22.565476) scale(-1, 1) translate(-772.020018, -22.565476) "></path>
            </g>
        </g>
    </g>
</svg>