<?xml version="1.0" encoding="UTF-8"?>
<svg id="Layer_1" data-name="Layer 1" xmlns="http://www.w3.org/2000/svg" xmlns:xlink="http://www.w3.org/1999/xlink" viewBox="0 0 439.36 429.12">
  <defs>
    <style>
      .cls-1, .cls-2 {
        fill: none;
      }

      .cls-3 {
        clip-path: url(#clippath);
      }

      .cls-4, .cls-5, .cls-6 {
        fill: #de3439;
      }

      .cls-7, .cls-8, .cls-9 {
        fill: #d3d6d9;
      }

      .cls-10 {
        clip-path: url(#clippath-1);
      }

      .cls-11 {
        clip-path: url(#clippath-4);
      }

      .cls-12 {
        clip-path: url(#clippath-3);
      }

      .cls-13 {
        clip-path: url(#clippath-2);
      }

      .cls-14 {
        clip-path: url(#clippath-7);
      }

      .cls-15 {
        clip-path: url(#clippath-8);
      }

      .cls-16 {
        clip-path: url(#clippath-6);
      }

      .cls-17 {
        clip-path: url(#clippath-5);
      }

      .cls-18 {
        clip-path: url(#clippath-9);
      }

      .cls-5, .cls-8, .cls-2, .cls-9 {
        stroke-linejoin: round;
      }

      .cls-5, .cls-2 {
        stroke: #f4f7f9;
        stroke-width: .5px;
      }

      .cls-6 {
        fill-rule: evenodd;
      }

      .cls-8, .cls-9 {
        stroke: #fff;
      }

      .cls-9 {
        stroke-linecap: round;
        stroke-width: 1.36px;
      }
    </style>
    <clipPath id="clippath">
      <path class="cls-1" d="m249.99,87.29c1,0,1.9-.8,1.9-1.9,0-1-.8-1.9-1.9-1.9s-1.9.8-1.9,1.9.9,1.9,1.9,1.9Zm.5,4.9c-.3.3-.8.3-1.1,0-1.2-1.3-4.2-4.7-4.2-6.8,0-2.6,2.1-4.7,4.7-4.7s4.7,2.1,4.7,4.7c.1,2.1-2.8,5.5-4.1,6.8Z"/>
    </clipPath>
    <clipPath id="clippath-1">
      <rect class="cls-1" x="56.89" y="-824.91" width="676" height="2829.9"/>
    </clipPath>
    <clipPath id="clippath-2">
      <path class="cls-1" d="m273.75,142.74c1,0,1.9-.8,1.9-1.9,0-1-.8-1.9-1.9-1.9s-1.9.8-1.9,1.9.9,1.9,1.9,1.9Zm.5,4.9c-.3.3-.8.3-1.1,0-1.2-1.3-4.2-4.7-4.2-6.8,0-2.6,2.1-4.7,4.7-4.7s4.7,2.1,4.7,4.7c.1,2.1-2.8,5.5-4.1,6.8Z"/>
    </clipPath>
    <clipPath id="clippath-3">
      <rect class="cls-1" x="80.65" y="-769.46" width="676" height="2829.9"/>
    </clipPath>
    <clipPath id="clippath-4">
      <path class="cls-1" d="m62.1,263.96c1,0,1.9-.8,1.9-1.9,0-1-.8-1.9-1.9-1.9s-1.9.8-1.9,1.9.9,1.9,1.9,1.9Zm.5,4.9c-.3.3-.8.3-1.1,0-1.2-1.3-4.2-4.7-4.2-6.8,0-2.6,2.1-4.7,4.7-4.7s4.7,2.1,4.7,4.7c.1,2.1-2.8,5.5-4.1,6.8Z"/>
    </clipPath>
    <clipPath id="clippath-5">
      <rect class="cls-1" x="-131" y="-648.24" width="676" height="2829.9"/>
    </clipPath>
    <clipPath id="clippath-6">
      <path class="cls-1" d="m273.97,255.82c1,0,1.9-.8,1.9-1.9,0-1-.8-1.9-1.9-1.9s-1.9.8-1.9,1.9.9,1.9,1.9,1.9Zm.5,4.9c-.3.3-.8.3-1.1,0-1.2-1.3-4.2-4.7-4.2-6.8,0-2.6,2.1-4.7,4.7-4.7s4.7,2.1,4.7,4.7c.1,2.1-2.8,5.5-4.1,6.8Z"/>
    </clipPath>
    <clipPath id="clippath-7">
      <rect class="cls-1" x="80.87" y="-656.38" width="676" height="2829.9"/>
    </clipPath>
    <clipPath id="clippath-8">
      <path class="cls-1" d="m199.82,395.75c1,0,1.9-.8,1.9-1.9,0-1-.8-1.9-1.9-1.9s-1.9.8-1.9,1.9.9,1.9,1.9,1.9Zm.5,4.9c-.3.3-.8.3-1.1,0-1.2-1.3-4.2-4.7-4.2-6.8,0-2.6,2.1-4.7,4.7-4.7s4.7,2.1,4.7,4.7c.1,2.1-2.8,5.5-4.1,6.8Z"/>
    </clipPath>
    <clipPath id="clippath-9">
      <rect class="cls-1" x="6.72" y="-516.45" width="676" height="2829.9"/>
    </clipPath>
  </defs>
  <polygon class="cls-7" points="48.9 162.76 77.5 144.28 123.26 156.16 132.5 186.08 69.58 190.48 48.9 162.76"/>
  <path class="cls-9" d="m204.24,259.84l-6.4,6.21-5.5.11-2.75-2.97-23.65-22.22-.77-15.51-1.21-8.69,5.61-9.02,4.95-.28c.24.41.15.66.84.47,1.06-.3,1.06.53,1.56,1.19.53.7,1.15,1.36,1.72,2.02.43.51.22,1.65.87,1.88.33-.35.45-.74.36-1.18.06.7.8.55.84,1.34.04.78-.51,1.7-.42,2.61.26,2.65,2.71,2.77,4.28,3.97.52-.66.44-1.27,1.26-1.63.98-.42,1.6-.03,2.27.58.39.35.97.75.97,1.41,0,.58-.92.57-1.13,1.15.43.21,1.3.06,1.39.74.07.52.42.5.74.72,1.38.91.8,1.08-.12,2.36.97.33-1.18,1.7-1.89,1.58-.17-.03-1.88-.65-2.06-.23-.17.4.49,1.1.25,1.8-.58,0-1.26.74-.48,1.03,1.31.48,2.59,1.95,3.68,2.91.43.38,2.71.43,2.53,1.37-.13.74-.57.95-.08,1.66.36.52.98,1.33,1.48,1.34.51.01.73,1.04.86,1.45.31.96.84,1.66,1.4,2.42.32.44,1.43,2.5,2,2.31.56-.18.78,1.84,1.29,2.1.6.31.19,1.79.53,2.38.11.2.35.96.58,1.01.28.05.63-.3.9-.11.54.38.27,1.01.99,1.21.68.19,1.31,1.38,2.05,1.71-.33.67-1.15.97-1.44,1.67-.32.75,1.39,1.72,1.59,2.27.31.84,1.17.83.62,2.05-.17.36-.56.75-.61,1.16-.05.38.11,1.65.06,2.1"/>
  <path id="path2206" class="cls-7" d="m145.89,343.17c.21.17.97.26.87-.33-.05-.29-.88-.88-1.07-1.12-.24-.29-.54-.55-.92-.46.21-.62-.52-1.1-.89-1.29-.2-.1-.35-.57-.62-.32-.5.46-.51.93-.03,1.42.79.82,2.23.82,2.66,2.09"/>
  <path id="path2348" class="cls-7" d="m265.03,394.09c-.18.95.29,1.81.22,2.75.74-.41,1.25,1.27,2.07.55.56-.5.56-.59,1.31-.49.71.09,1.13-.83,1.84-.23-.13-1.32-1.09-2.45-.73-3.8.44-1.65.66-2.73.39-4.54-.22-1.51.02-2.7.07-4.17.02-.67-.04-1.34.02-2.01.1-1.13-.34-1.13-.59-2.08-.48-1.86,2.31-3.38,3.54-2.94,1.11.4.78,3.24.2,3.99-1.62,2.09,1.24,4.47,2.85,5.44.68.41-.85,3.27-.12,4.44.39.63,1.61.95,2.23,1.05.76.13.5-1.28.56-1.78.13-1.12,1.52-.92,2.19-1.24.4-.19,2.09.78,1.08-.59.81,1.44,1.66-1.48.35-1.91-.17,1.37-.58-.52-1.19-.51.12-.21.24-.41.36-.62-.54-.03-1.24-.84-1.57-1.29-.53-.74.12-1.34-.33-2.08.24.07.48.13.73.17-.56-.39-.41-1.34.29-1.3-.13-.29-.3-.54-.51-.75-.39-.49-.11-1.01-.38-1.55-.22-.45-.73-.48-.97-.9-.28-.47-.37-1.22-.6-1.75-.35-.79-.64-1.57-1.36-1.97-.59-.33-.88-1.76-1.66-1.33.03-.49.05-.97.04-1.46.83.8,1.48,1.54,2.31.21.72-1.15,1.47-1.17,2.49-1.83,1.4-.9,2.41-4.69,4.25-4.62.52.02.63,1.77,1.23,1.03.36-.44,1.05-1.56.68-2.19-.62-1.04-3-.72-3.73-.02.4.05.74.24,1.02.56-.96.04-3.72-.74-4.05.7-.22.96-2.72.92-2.57-.41-.83.59-1.69,1.57-2.11,2.59-.45,1.12-.66,1.78-1.78,1.5-.74-.18-1.44-.4-1.64-1.36-.1-.48-.14-.97-.38-1.41-.43-.8-.72-.15-1.19-.54-1.52-1.27-1.6-5.21-.95-6.97.37-1,1-2.13,1.85-2.66.71-.44,2.46.29,3.2.6.53.22,1.53-.29,2.01-.54.97-.52,1.24.27,2.19.44,1.05.18,2.45-.47,3.57-.44,1.34.04,2.21.13,3.29,1.02,1.34,1.11,5.49.36,6.57-1.11.74-1.01,1-2.14,1.9-3.07.96-1,.91-2.71,1.95-3.6-.37-.27-.58-.74-.44-1.23-.38.11-.92-.2-1.24.12-.48.47-.45,1.4-1.11,1.63-1.01.36-.37.72-.84,1.45-.27.42-.95.26-1.14.84-.48,1.45-2.4,1.7-3.47,1.44-.91-.22-1.98-.46-2.91-.41-.52.03-1.02.7-1.45.5-1.35-.63-2.3-.92-3.74-1.1-.74-.09-1.18-.34-1.96-.25-.9.1-1.17-1.31-1.63-1.3-.59.01-2.78-1.23-2.89.18-.16,1.92-1.66,3.75-2.89,1.73-.11.63-.29,1.11-.71,1.54-.57.58-.45,1.48-1,1.99-1.05.99.34,2.7-.75,3.6-.09-.44-.37-.74-.78-.62.27,1.19,1.07.9.75,2.27-.29,1.25.7,2.4.4,3.68-.23-.48-.32-1.02-.69-1.4-.6,1.9-1.89,2.89-1.97,5.05-.04.97.04,1.99-.01,2.93-.07,1.1-.96,1.82-1.02,2.99-.08,1.56-2.29,2.28-1.94,3.58.2.74.7.28.16,1.32-.47.9.16,2.85.48,3.77.44-.57,1.57-.78,2.19-.82,1.34-.08.31,1.42.79,2.32.8,1.5.68,2.78.53,4.5-.12,1.41-.33,3.61-1.11,4.71"/>
  <path id="path2366" class="cls-7" d="m278.46,393.47c-1.54.63-.03,2.66.04,2.57.4-.44.28-2.07-.04-2.57"/>
  <path id="path2368" class="cls-7" d="m278.33,362.37c-.27-.56-.96-.59-.97.17.35.15.68.1.97-.17"/>
  <path id="path2370" class="cls-7" d="m279.05,361.75c-.31-.51-.7-.5-1.02,0,.32.26.7.25,1.02,0"/>
  <path id="path2372" class="cls-7" d="m281.4,395.89c.19-.29.66-.91.46-1.33-.37-.77.28-1.12.43-1.79.08-.36.37-2.85-.47-2.31-.42.27-.97.62-1.32.97-.67.67.43,1.53-.03,2.24-.18.27-.64,1.23-.46,1.59.29.59,1.14.41,1.1-.28.09.3.19.61.29.9"/>
  <path id="path2378" class="cls-7" d="m284.09,388.93c-1.25.03-1.56,3.13-1.56,4.24,0,1.15-.37,1.64-.69,2.69-.39,1.3.29.95.96,1.72.28-.48.28-1.12.58-1.58.3-.46.91-.21,1.19-.65.41-.63-.55-1.73-1.06-1.09.11-.68.05-1.4.18-2.08.09-.45.74-1.94.96-.62.49-1.04-.58-1.64-.57-2.63"/>
  <path id="path2386" class="cls-7" d="m285.18,370.28c-.02-.4,0-.79.09-1.18,1.87,1.11,1.38-3.12-.1-.51-.49-.83.48-1.06-.5-1.41-.34-.12-.73-.17-1.05.06-.71.53-.54,1.91-.35,2.7.55-.32.85-.96,1.11-1.57.54.44.03,1.84.79,1.9"/>
  <path id="path2388" class="cls-7" d="m283.9,386.06c-.54.27-.42,1.44.14,1.69.83.37,1.21-1.48-.14-1.69"/>
  <path id="path2394" class="cls-7" d="m285.61,367.31c-.16.24-.26.18-.1.56.03-.19.07-.37.1-.56"/>
  <path id="path2396" class="cls-7" d="m285.86,370.62c-.21.1-.33.28-.34.56.11-.19.22-.38.34-.56"/>
  <path id="path2408" class="cls-7" d="m291.27,370.4c-.85,1.43-.16,2.68,1.32,2.13.23-.17.48-.32.73-.45.28.06.57.1.86.1.54-.31,1.48-.06,1.72-.88-.39.06-.65-.18-.73-.62-.62,1.02-2.96-.67-3.9-.28"/>
  <path id="path2416" class="cls-7" d="m297.63,336.6c.32-.7-.46-2.95-1.25-1.97.79.25.47,1.58,1.25,1.97"/>
  <path id="path2418" class="cls-7" d="m296.39,371.24c-.7.85,1.1.89,1.45.9.95.02,2.36.19,3.08-.67-1.49-.25-3.07.38-4.53-.23"/>
  <path id="path2422" class="cls-7" d="m299.16,372.53c-1.04.26-.08,3,.46,3.43.21-.43-.21-2.99-.46-3.43"/>
  <path id="path2424" class="cls-7" d="m302.7,385.05c.7-.41,2.25-.68,2.67-1.47.57-.99.25-1.72-.66-1.95.71-.93-.84-1.5-1.38-1.66-1.01-.29-1.9.07-2.9.2-1.22.15-1.47.85-.92,2.21.6,1.43,2.02,1.97,3.19,2.67"/>
  <path id="path2426" class="cls-7" d="m303,333.63c.15-.45.02-.9-.29-1.18.08.4.18.79.29,1.18"/>
  <path id="path2428" class="cls-7" d="m303.25,332.34c.56-.63.72-1.62.65-2.47-.04-.43-.32-1.72-.7-.69-.27.72.43,1.28.18,1.82-.23.5-.68.87-.13,1.33"/>
  <path id="path2432" class="cls-7" d="m305.88,361.02c-.61-.3-1.09,1.28-.68,1.68.71.7.77-1.26.68-1.68"/>
  <path id="path2434" class="cls-7" d="m305.89,363.33c-.58.35-.28,1.41.4,1.18-.07-.42-.21-.81-.4-1.18"/>
  <path id="path2438" class="cls-7" d="m306.33,353.44c-.15.27-.06.37.15.62-.05-.21-.1-.41-.15-.62"/>
  <path id="path2440" class="cls-7" d="m307.39,361.3c-.16.24-.32.49-.48.73-.17-.18-.33-.37-.49-.56-.44,1.56.22.99.64,2.07.1.24-.53,1.27.14,1.09.36-.1.75-.34.88.21.15.63,2.09-.43.47-.94-.66-.21-.82-.65-.47-1.31.22-.41-.49-1.06-.7-1.28"/>
  <path id="path2442" class="cls-7" d="m306.69,356.7c-.12.26-.22.19,0,.56v-.56"/>
  <path id="path2444" class="cls-7" d="m306.99,368.88c-.75.67-.35,1.89.54,2.03.38.06.71-.28,1.09-.28.41,0,.81.15,1.22.18,1.39.09.02-1.45-.4-1.69-.91-.54-1.56-1.04-2.45-.23"/>
  <path id="path2446" class="cls-7" d="m306.87,354.23c-.11-.02-.23-.04-.34-.05.09.22.2.43.34.62v-.56"/>
  <path id="path2452" class="cls-7" d="m308.16,359.17c.05.7-.19,1.43.24,2.03.42.58.85.87,1.1,1.61.27.81,1.58,2.57,2.2,2.14-1.77-2.08-1.99-4.59-2.35-7.26-.16-1.16-.12-2.11,1.14-1.38,1.07.62,2.61,1.01,3.8,1.13-.75-.42-.77-1.47-1.37-2.02-.61-.55-2.32-.46-1.59-1.89.49-.96,1.8-.99,2.04-2.17.16-.8-.33-2.15-.04-2.73-1.25-.37-2.61,1.06-3.11,2.25,1.17.06.03.76-.29.91-.7.32-.39,1.19-.72,1.79-.34.62-1.08-.02-1.3-.43-.39-.73.41-1.21.84-1.53.89-.68,1.46-2.76.97-3.94-.21-.51-.95-.69-.78-1.37.18-.65.97-1.05.78-1.83-1.19,0-1.79,1.74-2.07,2.81-.3,1.13-1.07,3.14-.89,4.26.09.55.3,1.13.57,1.59.11.22.26.38.46.49-.32.47-.44,1.04-.38,1.63.07.77.3,1.21.7,1.78.4.58.13,1.51.05,2.15"/>
  <path id="path2456" class="cls-7" d="m307.33,381.23c-.29.47-.16.65.39.56-.13-.19-.26-.37-.39-.56"/>
  <path id="path2458" class="cls-7" d="m308.06,380.51c-.12.2-.16.42-.14.67.19,0,.36-.03.54-.11-.11-.2-.25-.39-.4-.56"/>
  <path id="path2462" class="cls-7" d="m309.32,378.88c-.15.29-.31.57-.48.84.38-.09.57-.39.48-.84"/>
  <path id="path2464" class="cls-7" d="m319.81,382.63c1.09.72,2.23,1.23,3.27,2.12,1.21,1.04,1.3-.52,1.06-1.56-.12-.64-.87-.85-.98-1.46-.12-.63-.12-1.33-.66-1.71-.5-.34-.69-.79-1.35-.65-.66.15-1.29.04-1.82-.45-.52-.48-1.19-.84-1.87-.81-.68.02-.99.66-1.59.81-.53.13-.73-.19-1.01-.57-.1-.14-1.76.1-1.99.08-2.28-.19-4.67,1.67-3.72,4.58.02-.59.71-3,1.45-2.81-.23.79,1,2.06,1.58,2.18.24.05,2.97-2.57,2.32-.55.43-.11,2.96,1.06,3.1.06.12-.86,2.08-.15,2.22.72"/>
  <path id="path2466" class="cls-7" d="m309.64,383.42c-.38.21-.65.66-.53,1.18.57-.08.94-.6,1.48-.78-.47,1.01.7.05.56-.9-.55.04-.92.64-1.51.51"/>
  <path id="path2468" class="cls-7" d="m310.32,343.73c.16-.26.26-.17.07-.56-.02.19-.05.37-.07.56"/>
  <path id="path2470" class="cls-7" d="m311.03,345.58c1.85-.47,2.59-2.27,1.57-4.15-.24.61-.84.76-1.22,1.21-.65.78-.71,2.04-.35,2.94"/>
  <path id="path2474" class="cls-7" d="m311.78,382.92c-.14.21-.16.43-.05.68.2-.11.38-.26.53-.45-.17-.08-.33-.15-.49-.23"/>
  <path id="path2478" class="cls-7" d="m312.51,382.75c-.18.58.24,1.08.74.79-.07-.44-.34-.77-.74-.79"/>
  <path id="path2346" class="cls-7" d="m263.71,414.07c-.33.15-.43.44-.29.84.45-.05.54-.41.29-.84"/>
  <path id="path2278" class="cls-7" d="m192.11,403.29c-.2.1-.37.26-.51.45.49.3.66.15.51-.45"/>
  <path id="path2280" class="cls-7" d="m199.67,400.09c-.45-.39-2.64-.85-3.04-.39-.12-1.59-1.32.49-1.47,1.01-.16.53-.04,3.08-1.07,2.07-.12.84-.53,1.51-.75,2.3-.33-.79-.94-.57-1.42-.22,1.62.88,3.42-.17,4.9.96.46.35,1.1.38,1.6.65.8.42-.24,1.08-.32,1.69-.21,1.66,3.93,1.37,4.71,1.53,1.5.31,2.81,1.55,4.32,1.99.47.14,1.13.32,1.57.05.47-.29.33-.79,1.03-.81,1.8-.06,3.65.43,5.36,1.07,2.12.79,4.2,2.07,6.36,2.63.9.23,2.14.02,2.96.46.84.46,1.52.04,2.41.14,1.83.2,3.94,1.5,5.53.19,1.29-1.07,2.99.88,4.2,1.58.41.24,2.84.41,2.81.73-.05.58.73.93,1.12.7.29-.17-.59-1.34-.69-1.5-.91-1.45,0-2.89.02-4.39.02-.94-.8-1.11-1.41-1.33-1.03-.37-1.31.14-2.26.03-.9-.1-2.07.64-2.87.21-.51-.28-1.95-.82-2.21-1.44-.23-.53.47-3.04-.59-1.94.17-.83-.51-1.64-.5-2.47-.63.39-1.53.12-2.23.2-.28-.03-.51-.18-.71-.43-.52-.49-1-.12-1.54-.44-.28-.17-.82-1.47-1.26-.82-.43.65-1.38.54-1.79-.19-.96-1.74-1.98-1.95-2.56.21-.19.73-.51,2.38-1.49,2.01-.55-.2-.68-.53-1.28-.48-.49.04-.98.19-1.48.06-.97-.24-1.37-.18-2.29-.12-.53.04-1.44-.77-1.89-.47-1.86,1.2-2.45-1.91-3.26-3.09-.73-1.1-.56-.08-1.17-.08-.72,0-1.39-1.2-2.12-.77-.69.41-1.22-.66-1.67-1.09-.75-.69-1.27-.41-2.09-.95-.11.79-.75,1.87-1.47.95"/>
  <path id="path2308" class="cls-7" d="m231.83,405.71c-.5-.09-1.7,1.04-1.08,1.6.59.53,1.94.99,1.96.08.87,1.09,1.85.46,2.78.07.38-.16.8-.29,1.22-.18-.13-.76.6-.74,1.02-.9-.24-1.12-1.53-.86-2.21-.75-1.21.19-2.51-.3-3.69.08"/>
  <path id="path2314" class="cls-7" d="m239.85,413.79c-.55,1.38,1.1,2.06,1.96,2.51.54.29.97.58,1.36,1.11.7.97-.11.71-.11,1.4,0,.46,1.47-1.63,1.54-1.66.64-.27,2.26-1.02,1.36-2.03-.65-.73-1.91-1.76-2.77-1.19-.99.65-2.28.67-3.34-.15"/>
  <path id="path2318" class="cls-7" d="m243.95,405.32c-.39.25-.46.68-.08,1.07.34-.53.96-.61,1.5-.34-.27-.68-.88-.69-1.42-.73"/>
  <path id="path2320" class="cls-7" d="m245.63,418.63c.14-.3.12-.6-.06-.9-.18.13-.34.3-.46.51.17.13.34.27.51.4"/>
  <path id="path2322" class="cls-7" d="m249.48,414.63c-.68.41-1.5,1.16-1.35,2.19.12.82-.04,2.15-1.01,1.3-.67,1.34,3.23.97,3.4,1.18-.38-.82.55-2.4.85-3.06.46-1.02-1.23-1.89-1.89-1.6"/>
  <path id="path2328" class="cls-7" d="m257.6,419.41c1.01-.62,2.03-.83,2.55-2.13.25.43-.2,1.33.2,1.56.43.25.71.06,1.08-.11.47-.22.88.1,1.37.18-.27-.37-.61-.58-1.01-.62.89-.65,2.31.57,2.46-1.18-.77,1.21-.81-1.03-1.04-1.5-.57-1.13-1.52.03-1.44.88-.2-.85-.86-2.28-1.63-1.21-.58.81-1.21-.78-1.56-1.19-.51-.6-2.43-.14-1.8.86.77,1.23,1.69,1.52,2.79,2.22-.3.51-1.17.79-1.68.92-.86.22-1.03-.7-1.44-1.34-.96-1.48-3.61-.96-4.43.22-.39.57.11,1.45-.25,2.02-.48.77.51,1.39,1.06,1.55.34.1.63.12.9-.14.5-.47.5-.16,1.19-.19.97-.04,1.69-1.16,2.68-.8"/>
  <path id="path2330" class="cls-7" d="m255.66,415.82c.31-.48.47-1.06.73-1.57-1.06-.54-.88.84-.73,1.57"/>
  <path id="path2342" class="cls-7" d="m262.96,423.56c.56,1.39,1.68,1.35,2.79,1.49,1.31.17,2.44,1.55,3.29,2.62,1.6,2.01,4.86.19,2.94-2.05-.6-.7-1.05-1.28-1.86-1.28.04,0-1.39-1.8-1.57-1.97-.13-.13-2.3-.09-2.4-.01-.96.75-2.45-.44-3.19,1.21"/>
  <path id="path2350" class="cls-7" d="m265.6,416.09c-.24.52-.54,1.14-.04,1.69-.03-.78,1.27-1.15.04-1.69"/>
  <path id="path2352" class="cls-7" d="m266.5,417.21c.17.44.15.86-.06,1.24.67.19.5-.68.6-1.12-.18-.04-.36-.08-.54-.12"/>
  <path id="path2354" class="cls-7" d="m268.41,418.68c.5-.32,1.53.04,2.13-.04.56-.07,1.41.07,1.97.2.61.14.98.92,1.65.56.46-.25,1.63.23,1.37-.83,1.57.73,2.18.25,3.61-.36.95-.41,4.41.15,3.75-2.11.69.15.54-.81,1.17-.83-.34-.93-1.3-2.31-1.41-.51.29-.22.62-.26.97-.12-.62.9-1.83.96-2.27,2.06-.53,1.33-1.64.45-2.34-.25-.66-.66-1.36.43-2.04.13-.36-.16-.31.16-.52.4-.32.38-1.03-.28-1.3-.49-.89-.7-2.26-1.14-3.28-1.41-1.61-.42-2.07.27-3.33,1.02-.63.38-1.06.37-1.07,1.42,0,.54.29,2.16.92,1.18"/>
  <path id="path2356" class="cls-7" d="m270.79,398.24c-.82.32-.24,3.88-.01,4.6.08-1.54.31-3.04.01-4.6"/>
  <path id="path2380" class="cls-7" d="m283.47,416.66c.06.17.12.33.18.5.18-.42.43-.75.77-1.01-.4-.02-.71.15-.94.51"/>
  <path id="path2382" class="cls-7" d="m284.39,415.09c-.21.22-.31.5-.28.84.41-.06,1.37.15,1.48-.51.13-.83-.88-.56-1.2-.34"/>
  <path id="path2390" class="cls-7" d="m286,415.03c.14.17.27.36.38.56-.37.18-.95.5-1.05,1-.17.88,1.23.22,1.54.46-.17-1.06,1.18-1.91,1.91-2.07-1.03-1.21-1.42.36-2.05.73.27-.81-.22-.76-.72-.67"/>
  <path id="path2402" class="cls-7" d="m289.01,415.48c-.19.23-.27.51-.24.84.41-.11.8.13,1.02.56.36-.48,1.1-1.62.52-2.3-.22.63-.79.73-1.3.9"/>
  <path id="path2406" class="cls-7" d="m291.55,414.07c-.26.37-.58,1.29.29.73-.49.26-.89.79-.88,1.46,1.2-.13,2.59-.02,3.68-.6.69-.37.39-1.23-.33-1.37-.42-.08-.77.12-1.19.07-.53-.06-1.04-.37-1.57-.29"/>
  <path id="path2410" class="cls-7" d="m297.61,414.19c-.38-.05-.61.7-.66,1.01.35-.19.6-.56.66-1.01"/>
  <path id="path2420" class="cls-7" d="m298.28,413.29c.95-.98,1.96-.76,3.19-.52.65.13,1.2-1.3,2.01-1.29-1.17-1.5-1.68-.97-3.16-.28-.42.19-.74-.26-1.1-.08-.64.33-.9,1.42-.94,2.16"/>
  <path id="path2430" class="cls-7" d="m306.69,409.86c-.19.3-.26.63-.23,1.01.42-.17.6-.57.23-1.01"/>
  <path id="path2436" class="cls-7" d="m308.03,414.3c-.07.66.09.7.5.12-.17-.04-.33-.08-.5-.12"/>
  <path id="path2450" class="cls-7" d="m308.68,413.86c-.15.98,1.49,1.3,1.58.22-.52.11-1.06-.05-1.58-.22"/>
  <path id="path2460" class="cls-7" d="m310.34,414.58c.03.17.06.34.09.51.17-.14.32-.31.45-.51h-.54"/>
  <path id="path2480" class="cls-7" d="m318.16,411.83c-.4.44-.1,1.5.53,1.49,1.21-.02.54-1.63-.53-1.49"/>
  <path id="path2492" class="cls-7" d="m324.09,415.54c.78-.31,1.47-.89,2.09-1.47-.82.38-1.66.28-2.09,1.47"/>
  <path id="path2504" class="cls-7" d="m328.51,407.23c-.8.06-2.84,3.16-2,3.98-1.64-.83-.21,3.73.44,1.62.29-.93,1.13-1.39,1.51-2.28.31-.74-.24-2.4.54-2.71-.14-.23-.3-.43-.49-.62"/>
  <path id="path2230" class="cls-7" d="m177.18,396.22c.11-.76-.88-1.63-1.35-.9.48.26.72,1.18,1.35.9"/>
  <path id="path2202" class="cls-7" d="m140.62,320.1c.72.27.39-.81-.32-.56.11.19.21.37.32.56"/>
  <path id="path2204" class="cls-7" d="m152.03,323.75c-.44.29-1.02.72-1.54.55-.5-.16-.62-.69-1.2-.71-.96-.03-1.82.55-2.81.44-1.16-.13-1.91-.57-2.63-1.58-.54-.75-2.07-1.8-2.96-1.1-3.29,2.57,4.19,9.76,5.36,11.64.45.72,1.07.75,1.78.89,1.17.25,1.5,1.76,2.01,2.76.39.77,1.17,2.68,1.87,3.03,1.22.6.7,1.98,1.01,3.25.29,1.19,1.37.9,2.14,1.53.5.4.98.84,1.47,1.26.61.51,1.24,1.04,1.77,1.67.75.88.04.98.27,1.96.27,1.18.72,2.31,1,3.5.3,1.26,1.08,2.57,1.01,3.9-.08,1.4.86.54,1.33,1.17.76,1.03,1.87.79,2.08,2.47.28,2.19,2.79,3.62,3.22,5.92.06.33-.41.37-.19.72.31.48.58.99.82,1.52.53,1.21,1.63,2.79,1.68,4.16.04,1.33.02,2.17.73,3.31.54.86,1.35,1.48,1.8,2.41.54,1.11.82,2.23,1.67,3.11.84.87,2.02,1.46,2.57,2.69.56,1.21.49,1.92,1.5,2.84,1.02.93,1.94,2,2.92,2.98.85.85,1.67,1.66,2.68,2.25,1,.59,1.15,1.02,1.67,2.02.28.53.63,1.03.98,1.51.29.34.6.65.94.94.21.21-.02.43.24.64.19.15,1.91,2.58,1.86,1.29-.03-.75-.67-1.33-.77-2.07-.14-1.05,1.34.3,1.52.48,1.27,1.24,2.45,1.25,2.21-1.11.79.75,1.36,2.29,2.45,2.53.65.14.54-2.1.54-2.48,0-1.46.13-2.91.16-4.37.02-.78.41-1.88.08-2.63-.25-.58-.43-.9-.29-1.52.16-.75.65-1.76.54-2.56-.09-.6-.67-.62-.57-1.43.11-.7.48-1.31.78-1.91.33-.65.58-.93.46-1.74-.12-.77-.67-.46-1.05-.91-.51-.62-1.34-2.67-1.04-3.48-.59-.11-3.42-.97-3.65-.28-.09-.2-.17-.41-.25-.61-.61.89-.69,2.13-1.6,2.75.27-.46,1.5-2.02.29-2.03.66-.31,1.44-.97,1.32-1.9-.08-.7-.72-.46-1.1-.72-.39-.27-.6-1.42-.69-1.87-.26-1.32-.54-2.57-.69-3.92-.09-.83-2.2-.92-2.82-.75-.49.13-1.42-.98-1.77-1.32-.6-.57-.37-1.78-.63-2.6.27.38.68.45,1.02.16-.14-.65-.68-.74-1.17-.78.39-.03.68-.35.78-.79-.33-.02-.65.01-.97.11.57-.19.91-.78,1.33-1.22.32-.34,1.17-.24,1.37-.62.32-.63-.88-1.98-1.19-2.39-.87-1.12-1.51-1.03-2.5-.21-.77.63-2.71,2.23-3.55.96,1.73,1.14,5.03-2.39,1.89-3.21-.5-.13-1.02.12-1.51-.11-.56-.26-.79-.99-1.24-1.4-.93-.85-.42-2.58-1.43-3.48-.37-.33-.76-.84-1.17-1.11-.43-.29-1-.04-1.48-.33-.77-.46-.72-1.84-1.19-2.6-.23-.37-1.92-2.33-2.33-1.16-.31.87.58,1.98.68,2.83-.32-.37-.41-.88-.66-1.29-.41-.69-1.18-.79-1.68-1.35-.83-.93-.87-2.4-1.66-3.37-.24.36-.3.76-.17,1.18-.13-.28-.92-2.19-.66-.67-.53-.73.32-1.63-.49-2.25-.74-.56-1.29-1.55-2.01-2.18-.83-.73-1.48-1.9-2.45-2.4-.35-.18-.72-.27-1.06-.45-.59-.32-.49-.83-.86-1.3-.49-.62-1.4-.66-1.9-1.24-.63-.72.27-1.98-.41-2.63-.81-.79-.97-.79-1.31-2.03-.27-1.05-1.76-2.45-2.46-3.2"/>
  <path id="path2208" class="cls-7" d="m153.1,355.02c1.01,1.25,1.35-2.23.9-2.93-.53-.83-1.38-2.39-2.22-2.81-.62-.31-.97.7-1.62.24.11,1.05.91,1.82,1.31,2.72.24.56.8.75,1.09,1.27.26.47.31,1.04.55,1.51"/>
  <path id="path2210" class="cls-7" d="m151.19,345.36c0-.56-.32-1.49-.95-.95.36.26.68.58.95.95"/>
  <path id="path2212" class="cls-7" d="m157.32,362.37c.13-.5-.05-.99-.4-1.29-.27.42-.46,1.07-.57,1.58-.14.68,1.16.7.96-.28"/>
  <path id="path2214" class="cls-7" d="m156.43,359.17c.26.83.64,1.6,1.03,2.35.16-.62-.27-2.46-1.03-2.35"/>
  <path id="path2216" class="cls-7" d="m157.6,348.22c.07-.44-.09-.44-.49,0h.49"/>
  <path id="path2218" class="cls-7" d="m158.91,358.56c-.13-.74-1.15-.62-1.51-.23.45.35.99.39,1.51.23"/>
  <path id="path2220" class="cls-7" d="m160.46,371.35c2.02-.33-1.15-4.87-1.1-5.95-.33.21-.89.11-1.13.49-.34.55-.55,1.6-.19,2.19.69,1.11,1.09,2.95,2.41,3.28"/>
  <path id="path2222" class="cls-7" d="m164.23,375.23c-.13-.6-.8-2.72-1.52-2.15-.79.62,1.16,1.91,1.52,2.15"/>
  <path id="path2224" class="cls-7" d="m164.92,377.92c.16.67.83.36,1.03-.06.31-.63-.7-1.59-1.09-1.84-.2.64.16,1.26.06,1.91"/>
  <path id="path2226" class="cls-7" d="m167.22,381.68c.02-.43-.33-.75-.26-1.17.08-.55.36-.42.22-.96-.1-.4-.53-1.62-1.05-1.39-.78.34.72,3.17,1.09,3.52"/>
  <path id="path2228" class="cls-7" d="m174.11,346.09c-.17-1.11-1.51-1.45-1.89-.25-.19.67.18,1.62.82,1.77.77.18.8-1,1.07-1.52"/>
  <path id="path2232" class="cls-7" d="m177.72,349.01c-.73-.35-1.56-.3-2.25-.79-.13.82.47,1.19,1.07,1.32.58.12.9.74,1.33,1.15,0-.57.04-1.14-.15-1.68"/>
  <path id="path2234" class="cls-7" d="m177.82,351.08c-.3-.58-.74-1.24-1.37-1.35-.16,1.03-.06,2.86,1.08,3.09.18-.56.09-1.18.28-1.74"/>
  <path id="path2236" class="cls-7" d="m180.8,353.89c-.34-.74-1-1.24-1.68-1.47-.38-.13-.73-.75-.97-.81-.28-.06-.53,1.8-.19,2.07.8.62,1.95-.02,2.75.77.03-.19.06-.37.09-.56"/>
  <path id="path2238" class="cls-7" d="m181.39,353.44c-.21-.96-2.87-2.82-2.49-1.12,1.01-.52,1.46,1.5,2.49,1.12"/>
  <path id="path2240" class="cls-7" d="m182.08,355.24c-.07-.4-.29-.63-.64-.68-.24.42-.2.8.15,1.12.18-.12.34-.27.49-.44"/>
  <path id="path2242" class="cls-7" d="m182.74,352.26c-.14-.23-.32-.39-.53-.5-.06.47.14.66.53.5"/>
  <path id="path2244" class="cls-7" d="m183.14,354.23c-.12-.44-.42-.74-.83-.56.02.47.26.87.59,1.12.08-.19.16-.37.24-.56"/>
  <path id="path2248" class="cls-7" d="m184.29,361.02c-.36-.28-1.68-.12-1.14.61.33.45,1.08-.18,1.14-.61"/>
  <path id="path2252" class="cls-7" d="m185.38,352.94c.14-.59-.04-.7-.54-.34.18.11.36.22.54.34"/>
  <path id="path2256" class="cls-7" d="m186.44,351.54c-.36-.94-1.02.13-1.02.68,0,.67,1.09-.05,1.02-.68"/>
  <path id="path2258" class="cls-7" d="m186.6,353.84c.27-.56.13-.75-.39-.56.13.19.26.37.39.56"/>
  <path id="path2262" class="cls-7" d="m189.12,352.26c-.7-1.96-2.65-.12-1.83.23.54.23.78-.37.96.67.18,1.04.89-.46.87-.9"/>
  <path id="path2264" class="cls-7" d="m187.13,354.46c0-.22-.05-.42-.14-.62.05.21.1.41.14.62"/>
  <path id="path2266" class="cls-7" d="m188.23,361.53c-.23.22-.69.32-.97.43-.54.2.38,1.43.44,1.76.03-.56.28-.74.68-.39.13-.67.55-1.33-.15-1.8"/>
  <path id="path2268" class="cls-7" d="m187.93,358.1c-.28.35-.17.56.34.62-.11-.21-.23-.41-.34-.62"/>
  <path id="path2270" class="cls-7" d="m188.42,359.17c.07.4-.54,1.87.2,1.77.41-.06.66-.32,1.07-.08.42.24.78.64,1.27.33-.26-.47-2.06-2.08-2.54-2.02"/>
  <path id="path2272" class="cls-7" d="m188.88,354c-.17-.01-.33.03-.49.12.16-.04.33-.08.49-.12"/>
  <path id="path2274" class="cls-7" d="m188.61,357.77c-.22.55.49.99.79,1.18-.25-.4-.51-.8-.79-1.18"/>
  <path id="path2282" class="cls-7" d="m192.7,370.79c.58.9-.87,1.31-1.16,1.91.6.56,1.06,1.01,1.86.68.54-.23,1.44.3,1.6.94.14.57.52,1.25.6,1.74.19,1.15-.39,1.63.74,2.34.49.31,2.7,2.26,3.22,1.7.52-.55-.28-.81-.45-1.26-.25-.72.51-2.02,1.12-2.16-.77-.54-1.83-.28-2.54-.95-.66-.62-.89-2.17-.83-3.08.04-.55-.28-2.31-.6-2.76-.9-1.27-2.05.19-1.22,1.35-.35.06-2.28-3-2.34-.45"/>
  <path id="path2286" class="cls-7" d="m200.18,378.77c-.15.05-.29.11-.44.16.1.46.41.67.78.4-.09-.2-.21-.39-.34-.56"/>
  <path id="path2290" class="cls-7" d="m203.59,378.26c-.23.1-.42.24-.59.44.38.21.6.04.59-.44"/>
  <path id="path2292" class="cls-7" d="m204.79,376.46c-.64.75-.79,2.06-.71,3.05.08,1.06,1.44,1.62,1.21.49.4.03,1,1.31,1.4.86.54-.62,1.09-1.87,1-2.78-.14-1.33-1.97-1.84-2.9-1.62"/>
  <path id="path2294" class="cls-7" d="m206.64,333.23c.42.08.79.35,1.05.73-.39-.29-.66-.05-.7.45,1.2.2,1.59-1.2,1.15-2.26-.78-1.87-1.86-.39-1.5,1.08"/>
  <path id="path2302" class="cls-7" d="m211.34,369.78c-.27-.25-.55-.25-.83,0,.11.22.26.41.44.56.15-.17.27-.36.38-.56"/>
  <path id="path2306" class="cls-7" d="m215.47,366.19c-.77-1.25-2.31.71-1.35,1.79.46-.53,1.66-.77,1.35-1.79"/>
  <path id="path2336" class="cls-7" d="m256.01,331.55c-.03.48.23.81.66.56-.03-.45-.27-.67-.66-.56"/>
  <path id="path2340" class="cls-7" d="m256.91,335.09c0,.4.17.67.51.79.03-.41-.18-.68-.51-.79"/>
  <path id="path2344" class="cls-7" d="m260.86,343.56c.02.4.17.72.45.95-.14-.33-.29-.65-.45-.95"/>
  <path id="path2554" class="cls-8" d="m210.99,353.33c.63-.49.2-1,.33-1.66.17-.85,1.25-.91,1.36-1.88-.22.42-.5.8-.82,1.12-.6-1.01.13-2,.69-2.75.36-.49.47-.94.66-1.53.25-.76,1.1-.94,1.58-1.45-.11.69-.91,1.55,0,1.96.13.06.46,1.7.72,2.02.75.94,2.09,1.67,2.57,2.87.19.46,1.02.86,1.41,1.1.75.45,1.79-.43,2.44-.76,1.28-.66,2.49.21,3.86.06.54-.06,1.04-.54,1.52-.84.72-.44.51-1.52,1.05-2.2.56-.71,3.44-1.43,3.89-.34.43,1.04,3.06,2.02,3.9,1.42.72-.52.88-1.34,1.86-.95.49.19.87-.27,1.28-.46.34-.16.75.36,1.1.34-.19-1.08,1.79-3.43,1.26-4.13-.9-1.2,1.26-2.74,2.06-3.05-.44-.66-1.23-3.08.22-3.28,1.82-.25.51-1.55,1.58-2.69.42-.44-.04-2.24.05-3,.08-.7.27-1.59.56-2.22.25-.54.75-.8.89-1.44.94.41,1.18.63,2.22.12.35-.17,1.16,1.31,1.29-.24.64.74,1.9.55,2.72.46,1.06-.11,1.66,1.21,2.69,1.11-.32.25-.66.4-1.04.45.18.18,1.95,1.94.74,1.24.24.2.89.34,1,.68.12.34.1.68.45.83-.61.86-1.55.32-1.78-.56.11.38.14.77.1,1.18-.51-.38-1.44-.34-2-.06.69.31,1.02,1.13,1.76,1.35-.21.44-.33,1.42-.96,1.07.45.72,1.15,1.01,1.86,1.29-.62.78.53.86-.43,1.01.32.01.63.11.92.28-.98.3.21.94.56,1.46.4.6.75,1.25,1.07,1.9.41.82-.57,2.45-1.4,2.42.54.22.27.85.7,1.26.62.59,1.23,1.19,1.87,1.74.52.44.82,1.2,1.43,1.45.81.34,1.38,1.28,1.92,2.01.23.31.81.07.41.8-.5.91-1.33.46-2.02.87-1.15.67-2.53-1.18-3.45-1.61.43.71.76,1.61-.23,1.67-.89.06-1.17,1.63-1.4,2.41-.6,2.07-.88,4.43-.77,6.59.26-.34.58-.53.97-.56-.12.46-.77,1.02-.29,1.23-.46.33-.46.79,0,1.12-.63.21-1.33,1.08-1.51.05-.19,1.45-2.51,4.5-2.87,1.58-.48,1.02.35,1.83-.65,2.63-.46.37-.23.95-.55,1.41-.37.54-1.07.52-1.41,1.12,1.53-.67,1.03,1.78.3,2.42.38.43,1.15-.17,1.47.28.31.43-.3,2.1-.53,2.47-.27-.36-.59-.46-.97-.28.96.96-.28,4.02-.96,2.46-.18.68.32,1.27.64,1.75-1.34.28-.92,2.63-2.03,3.16-1.21.58-2.42,1.54-3.64,2.18-.32.17-2.84,2.21-2.78,1.06.04-.7-.07-1.46-.07-2.17,0-1.01-.59-1.85-.37-2.88-.98,1.12-1.66.7-.98-.84-.44.87-1.44,1.44-1.22-.11-.1.82-1.97,2.73-2.53,1.46-.19-.44.33-.77-.03-1.23-.67-.84-1.38.69-1.58-.46.23,1.3-1.23-1.01-1.37-1.57.01,1.18-1.08,2.49-1.95,3-.9.53-1.69-.97-2.57-.24-.32.26-1.51,2.3-1.78.98-.3-1.61.17-3.04-.58-4.63-.58,1.74-.78.93-1.9.89-.47-.01-.85.46-1.22.72-.69.5-1.15.05-1.84-.09.22-.28.47-.55.73-.79-.56.1-.75.94-1.36.84.25-1.71-1.24-.76-1.85-.23-.71-1.02-.15-2.71-.47-3.89-.22-.8-.09-1.65-.22-2.46-.11-.69-1.05-1.24-.98-1.84.01-.14.52-.87.58-1.08.22-.75.33-1.4-.07-2.09-.28-.47-.34-.98-.57-1.43-.29-.55-.89-.76-.86-1.52-.14.19-.28.38-.44.56-.52-1.15-1.06-.09-1.77-.58-.4-.28-.15-.79.02-1.11.18-.32.83.05,1.06.06-.38-.24-.61-.84-1.03-.96-.31-.09-.72-.02-.92-.39-.29-.51-.47-2.58.43-1.96-.24-.72-.63-1.6.14-1.68-.66-.99-1.52-1.85-1.76-3.11-.1-.53-.52-2.23-.12-2.68"/>
  <path id="path2558" class="cls-7" d="m256.41,331.1c.6-.09,1.37-.22,1.19.79-.57.14-.83-.45-1.19-.79"/>
  <path id="path2392" class="cls-7" d="m286.94,426.65c.28.23.26.47.66.28.19.83-1.13,1.1-1.17,2.19.57-.21,1.18-.03,1.76-.15.76-.17,1.27-1.12,2.05-1.14,1.26-.04,1.66-.46,2.42-1.53.49-.69,1.34-1.57,1.5-2.44.25-1.32,1.7-1.59,2.68-1.98l-1.52-1.65-1.17-.99c-1.96.94-.37,1.47-2.71,2,.71-.19.01,2.06-.39,2.37-.4.3-.58-.73-.84-.28-.26.44-1.35-1.13-1.52-.59-.17.54-1.61,3.31-1.74,3.91"/>
  <path id="path2746" class="cls-7" d="m269.07,200.52c.04.56.23,1.03-.02,1.62-.21.49-.42.91-.11,1.33.57.76.6,2.01.88,3,.33,1.15,1.39,1.48,1.88,2.47.16.32.27,2.37.84,2.07.73-.4.55-1.69.58-2.33.04-1.02.42-1.78,1.07-2.61,1.55-1.99,2.37-5.69,2.61-8.04.05-.49-.11-1.22.12-1.7.23-.48.5-.76.65-1.29.33-1.23.11-2.14.32-3.33.11-.62.74-1.12.33-1.62-.25-.31-1.59-1.71-2.06-1.27-.75.7-2.03.88-2.56,1.87-.54,1.02-.54,1.62-1.34,2.49-.73.8-1.06,1.94-1.47,2.91-.6,1.43-1.75,2.88-1.7,4.43"/>
  <path id="path3340" class="cls-8" d="m104.59,180.48c.05-.25.13-.5.24-.73.51.46,1.43.76,1.62,1.55.17.72,1.24.69,1.74.92-.09-.46-.27-.85-.56-1.18.86-.17.93.68,1.14,1.34.33.98,1.46,1.2,2.19,1.69.23-.47.41-.93.22-1.4,1.57-.15,1.49,3.26,1.41,4.32-.05.7-.3,1.33.38,1.6,1.03.41,2.28.76,3.43.76,2.42,0,4.92-.25,7.32.02,1.11.12,3.96,2.29,1.28,2.01.59,1.73-1.48,3.3-1.81,4.72-.42-.48-1.01.42-1.28-.17-.02.93-.92.75-1.43.67.12.77-.86,2.06-1.01,2.89-.22,1.18.61,2.89.89,3.95.14-.37.2-.74.18-1.12.47.25.97,3.15,2.09,1.45.42-.64-.13-1.71.28-2.51.41-.8.6-.95.47-1.85.6.67,1.51-1.02,1.81.18.35,1.42.42,3.08.62,4.56.26,1.91.63,3.73.83,5.67.19,1.87.04,3.93.48,5.71-.61.2-1.18-.97-1.87-.85-1.05.19-.05,3.6-.12,4.27-.37-.84-1.1-1.87-1.24-2.82-.15-1-.11-1.59-.11-2.57,0-1.81-1.97-3.75-.52-5.61-.35.29-.61.84-.66,1.29-.27-1.54-1.87-2.81-1.55-4.55-.13.72-.88.99-1.3,1.47-.17.18-.23.38-.2.6-.45.16-.82-.07-.99-.51.09.2.07.4-.05.59-.76.46-1.52-2.46-1.69-2.78-.15-.37-.18-.76-.07-1.19.1-.71-.16-.9-.26-1.51-.08-.47.66-.65.44-1.06-.15.43.47.23-.49.34.05-.21.1-.41.17-.62-.27.23-.54.26-.81.11.2.18.92,1.44.12,1.32-.4-.06-1.09-.35-1.33-.42.6.44,1.53.8,1.83,1.59.2.54-.34.91-.74,1.1.43.7.08,1.34-.43,1.97.93.02.51,1.05.39,1.8.14-.2.3-.38.46-.56.69.78.59,2.81-.71,3.09.13-.4.12-.77-.02-1.12,0,.93-.31,1.69-.57,2.58-.3,1.06-1.36.63-.8-.23-.17.18-.33.34-.51.51-.14-1,.91-1.36,1.11-2.25-.34.51-.81.9-1.25,1.29.08-.38.22-.73.42-1.07-.25.36-.51.71-.77,1.07-.19-1.14-.21-2.11.33-3.26-1.15.5-.33,1.65-.81,2.49-.35.6.31.64-.01,1.38-.29.66-.82.3-1.01-.1-.09.35-.14.71-.17,1.07-.78.01-.02-3.28.04-3.82-.35.75-.11,1.49-.36,2.25-.18-.63-.37-1.28-.37-1.96-.12,1.12.67,2.79-.46,3.93-.23-.56.11-1.21-.19-1.74.13.56-.34,1.78-.75,2.19.18-1.07-.74-1.9-.72-3.08.02-1.3-.51-2.3-.61-3.55-.05-.6-.09-1.21-.19-1.8-.13-.8.11-1.18.14-1.93.02-.43-.53-.4-.78-.47-.53-.15-.12-.86-.03-1.28.19-.92-1.33-.98-1.13-2.21.1-.63.75-.85.88-1.43.14-.58.02-1.25-.11-1.78-.22-.87-1.77-.96-2.42-1.51-.39-.32-1.06-.8-1.02-1.46.04-.69.66-1.18.78-1.85.64,1.67,1.36-1.47,1.59-1.52.58-.13,1.76-.25,2.25.06.79-1.16-.62-.74-.6-1.85.02-.76-.96-.13-1.4-.49-.6-.49-.76-1.42-1.48-1.76-1.81-.85-.48-3.37,1.18-4.04-.08-.54-.56-.77-1.01-.79"/>
  <path id="path3482" class="cls-7" d="m288.06,194.57c-.21.28-.36.58-.46.9.34.04.68-.02,1.03-.17.02-.43-.19-.7-.57-.73"/>
  <path id="path3484" class="cls-7" d="m289.6,194.34c-.05.42.12.63.49.62.49-.11.41-.86.46-1.18-.19.46-.57.69-.95.56"/>
  <path id="path3496" class="cls-7" d="m303.05,181.21c-.33.28-.25.47.25.56-.08-.19-.17-.37-.25-.56"/>
  <path id="path3504" class="cls-7" d="m307.95,183.28c.73-.26.8-1.97,1.32-2.55.63-.7,2.05-1.4,1.83-2.5-.69.14-1.55,1.88-2.07.9-.06.83.14,1.05-.5,1.73-.55.59-.94,1.79-.57,2.42"/>
  <path id="path3514" class="cls-7" d="m312.43,174.25c.03.13.07.26.1.39.19-.17.36-.35.5-.56-.2.06-.4.11-.6.17"/>
  <path id="path3516" class="cls-7" d="m314.39,170.99c-.51.5-.19,1.35.4,1.18-.07-.43-.21-.82-.4-1.18"/>
  <path id="path3518" class="cls-7" d="m315.8,169.03c.02.26.14.41.39.45-.13-.15-.26-.3-.39-.45"/>
  <path id="path3520" class="cls-7" d="m318.39,166.84c-.63.46-3.57,1.75-2.11,2.47.9.44.48-.4.91-.95.46-.59,1.64-.62,1.2-1.52"/>
  <path id="path3488" class="cls-7" d="m317.12,127.1c-1.25.26-1.19,2.12-.51,2.36-.13-.67.38-1.61.51-2.36"/>
  <path id="path3490" class="cls-7" d="m316.32,130.19c-.05-.33-.26-.43-.63-.28-.25,1.3.77,1.19.63.28"/>
  <path id="path3492" class="cls-7" d="m313.16,140.52c-.01.25,0,.5.03.73.41-.24.82-.41,1.23-.51-.11-.67-.82-.47-1.24-.79,0,.19-.01.37-.02.56"/>
  <path id="path3494" class="cls-7" d="m315.53,138.05c-.04-.09-.08-.19-.12-.28-.15.53-.67,1.31.02,1.4-.05-.35-.02-.73.1-1.12"/>
  <path id="path3498" class="cls-7" d="m317.64,136.42c-.1-.08-.19-.15-.29-.22-.26.38-.44.77-.53,1.18.43-.16.78-.5.82-.96"/>
  <path id="path3500" class="cls-7" d="m318.74,132.94c-.16.02-.32.04-.48.06-.02.43.2.68.67.5-.06-.19-.13-.37-.19-.56"/>
  <path id="path3502" class="cls-7" d="m319.06,136.31c-.16-.2-.8-.2-1.09,0-.38.27.14,1.12.23,1.27.29.51.95.54,1.45.79.39.2.2.99.49,1.29-.27-.18-.78,0-1-.22-.25-.25-.13-.81-.31-1.12-1.26.84.59,1.71.36,2.58.26-.31,1.88-1.48,1.88-.75,0,.4-.39,1.08.32.92.79-.18.82-2.29-.61-1.47.63-.77.24-1.45-.11-1.91,1.2-1.26,2.05,1.27,2.29,2,.36,1.1.54,2.59-.6,3.97-.68.82-1.19.61-1.2,1.71,0,.58.11,1.01.25,1.51.1.38.78,2.85-.43,2.32.34.62.54,1.06,1.32,1.15.39.05.4.57.87.48.68-.14.39-.7.16-.87-.5-.38-.58-1.75.11-2.46.8-.82,1.4.7.33.3,0,.67.37,1.12.46,1.74.11.76-.27,1.5-.58,2.3.9-.35,1.53-1.18,2.37-1.68-1.08-1.03.01-1.42.97-.79,1.37-1.74.77-4.27,1.51-6.18.13-.34.33-1.78.56-2.05.75-.86,1.93-1.79.91-2.44.18-.19.36-.38.55-.56-.77.04-.64-.54-.95-.99-.38-.56-1.41-.14-1.77-.75.94-.42,1.64-1.9.88-2.36-1.06-.63-2.83,1.53-3.43-.37-.34-1.09.31-1.61-1.09-1.43-.99.13-2.53.94-2.27,2.25-1.24-.05-.72.04-1.85,1.01-.11-1.35-.9.03-.97.79"/>
  <path id="path3506" class="cls-7" d="m320.16,142.32c-.12.58.05,1.08.05,1.63,2.45-1.24-.17-2.84-.05-1.63"/>
  <path id="path3508" class="cls-7" d="m318.52,147.48c.4.13.54-.06.43-.56-.14.19-.29.37-.43.56"/>
  <path id="path3510" class="cls-7" d="m324.67,132.27c.43-1.09,1.43.08,2.35-.23,1.88-.64,2.85-.2,4.04.79-.4-.47.18-3.4,1.24-3.48.59-.04.59.76,1.05.93.33.12,2.31-.81,2.68-1.1-.11.29-.05.46.15.52.21-.2.32-.43.33-.68.29.33.84.22,1.06-.45.43.38,1.22-.36,1.74-.11.75.36,1.92-.99.77-.62,1.07-.27,2.2-.94,3.26-1.12,1.17-.2,1.55.91,2.62.7.8-.16,1.93-.91,2.04.13.09.86-1.23,1.9-2,2.26.41.46.66,1.1.32,1.91-.39.91.48,1.33.96,1.66.53.35.45,1.21,1.05,1.49.46.21.83.56,1.32.72.59.18,2-2.95,2.27-3.41.26-.44.53-1.46.98-1.79.88-.63,1.67-.11,2.53-.52-.31-.91-.56-1.45-1.33-1.95-.94-.6-.26-1.19.2-2.34.21-.52,1.06-1.5,1.08-.52,0,.58-.69,1.92.33,1.72-.2-.31-.13-.68.21-1.12-.32,1.5,1.9.18,1.71,1.35-.44.11-.87.43-1.05.9,2.22-1.12,3.99-.42,5.72-.11-.68-1.26,2.86-4.89,3.54-2.86-.22.07-.45.14-.67.22.14.67-.58,2.09.11,2.42.74.35,1.54-1.15,1.75-1.76.26-.77-.23-1.25.02-2.02.53-1.61,2.51-.35,2.73.13.71-.71-.85-2.04.69-2.36-.35-1.02,2.74-1.44,1.12.48-.42.49-1.75,3.44-1.05,3.66.27.09,2.83-1.76,3.02-2.18.29-.66.03-1.1.27-1.71.38-.97,1.44-1.32,2.23-1.71-1.18-1.18-1.62-2.94-1.29-5.02.12-.76.39-1.62.79-2.4.24-.48.31-.45.76-.64.41-.17.24-.5.35-.75.98-2.27.06-4.06-.1-5.87-.19-2.12,1.67-4.02,3.15-2.5-.36-.94-.05-4.86,1.79-5.22-.34-.5.6-1.47.49-2.1-.09-.51.24-1.11.1-1.65-.17-.61.02-1.42-.15-2.05-.15-.57-.48-.82-.52-1.45-.08-1.35-1.45-2.01-2.05-3-.79-1.29-.78-3.46-.28-5.35-1.23.77-1.98-1.24-2.99-.38-1.44,1.28.24,3.02,1.46,1.22.62.41.85,1.74-.19,2.69-.35-.35-.77-.64-1.21-.9.04.39-.15.79-.57,1.18-.77-.23-.57-1.25-.78-1.91-.22-.69-1.14-.42-1.5-.95-.41.82.35,2.52-.65,3.16-.51.33-1.96.67-1.6,1.45.27.6.97,1.4.83,2.18-.12.7-.9,2.37-1.61,1.57-.17.79.27.67.89.67.82,0,.95.98,1.01,1.63.14,1.67-.98,4.56-2.13,6.46-.89,1.47-.76,4.04-2.64,4.9-2.14.99-2.12,2.72-3.76,4.39-1.35,1.38-2.91,1.45-4.41,2.25-.93.5-2.83,2.81-3.01.87-.03-.53.41-1.25-.23-1.39-.38-.08-.45-.97.06-.86,1.07.23,1.58-1.82,1.95-2.2-.71-.25-2.47.54-3.15,1.41-.92,1.2.38,2.63-.59,4.19-.72,1.25-1.55,2.01-2.63,2.98-1.81,1.62.19,2.56-.45,3.93-.6-.86-.44.59-1.23.22-.39,1.83-2.84-.27-2.28,1.01-.22-.22-.94-.24-.82-.73.13-.55.83-1.38-.14-1.12-.42.11-.85.37-1.26.49-1.03.3-1.87,0-2.93.46-.74.33-1.38.55-2.1.65-.68.1-1.83-.33-2.46.02-.89.5-1.02.14-1.49-.24-.54-.43-2.1.41-2.87.69.59,1.4-5.51,5.23-6.28,6.29-.8,1.12-2.52.14-2.92,1.23-.26.87.06,1.88.2,2.63"/>
  <path id="path3512" class="cls-7" d="m321.39,142.15c-.1.71,1.01.12,1.2-.39-.36-.15-.83.02-1.2.39"/>
  <path id="path3522" class="cls-7" d="m335.9,117.44c-.44-.06-.59.14-.46.62.15-.2.31-.41.46-.62"/>
  <path id="path3524" class="cls-7" d="m322.83,155.73c-.96.18-.58,1.32-.08,1.43.99.23.73-1.31.08-1.43"/>
  <path id="path3526" class="cls-7" d="m336.96,116.1c-.51.23-.83.88-.36,1.01.78.21.73-.83.36-1.01"/>
  <path id="path3528" class="cls-7" d="m332.42,132.43c-.05-.36-.93.16-1.1.22.36-.01.73-.09,1.1-.22"/>
  <path id="path3530" class="cls-7" d="m332.69,130.02c-.68.23-.69.42-.03.56,0-.19.02-.37.03-.56"/>
  <path id="path3532" class="cls-7" d="m332.95,134.29c-.67.93-1.73,1.16-2.51,1.91.63.05,1.24-.6,1.86-.84.01.32-.07,1.31.39,1.27.59-.05.67.41-.17.58.51.21-.05,1.95.77,1.83.72-.1.54.8,1.02,1.03.47.23,1.16-.13,1.46.39-.8-.81.57-3.04,1.34-4.05,1.96-2.59,3.3-.71,4.41.29.34-.59.38-1.21.74-1.8.43-.7,1.19-1.15,1.73-1.77.52-.58-.34-2.14-.11-2.95-1.29.27-1.78-.63-2.82-.84-.85-.18-2.13,1.17-2.66.73.65.92-.03,1.54-1.17,1.85-1.64.44-1.09-.65-2.38-.9-.36.75-1.07,3-1.89,3.26"/>
  <path id="path3534" class="cls-7" d="m333.01,130.64c-.59.31-.38.69.12.56-.04-.19-.08-.37-.12-.56"/>
  <path id="path3536" class="cls-7" d="m325.74,153.15c-.68.33-1.53,3.2-.56,2.86-.06-.92.71-1.96.56-2.86"/>
  <path id="path3538" class="cls-7" d="m335.47,129.85c-.37-.08-.43.1-.18.56.06-.19.12-.37.18-.56"/>
  <path id="path3542" class="cls-7" d="m342.37,128.28c-.29-.23-.7-.04-1.07.34.2.36,1.08.5,1.07-.34"/>
  <path id="path3546" class="cls-7" d="m380.55,55.07c-.02.8-.48,1.72-.18,2.38.44.97,1.04,1.98.84,3.31-.17,1.16-.35,2.47-.68,3.69-.32,1.16-1.77,1.63-1.59,2.63.18,1.03.66,3.46-1.79,3.14-1.1-.14-1.84-1.18-3-1.15-.72.02-.57,1.15-.44,1.31.38.46.88.69.17,1.68-1.29,1.77-2.58.76-3.16,3.1-.44,1.77,1.36,1.69,1.66,2.96.19.81-.86,2.01-.81,2.91.08,1.44.96.48,2.3.04-.38-.61.79-1.35,1.52-1.48.2-.04,2.07.61,2.09-.38.02-.71-1.26-1.1-1.62-1.58-.54-.69-1.87-.58-2.43-1.29-.31-.4-.19-1.26.57-1.93.75-.67,1.44-.05,1.73.18.38.3.53.86.96,1.1.45.25,2.07-1.21,2.82-1.55,2.49-1.1,3.51,1.38,4.79,2,.92.45,2.39,2.12,3.75,1.96.83-.1.93-.94.97-1.38.1-1.04.45-1.82,1.57-2.96,2.36-2.41,3.82-2.48,5.7-1.9-.2-1.31,2.23.17,2.05-1.35.66-.23,1.33-.4,1.83-.28.23-.5.75-.9,1.29-1.07-.2-.86-.84.27-1.5.53-.41.16-.54-.54-.59-.63-.11-.23-.88-2.16.15-1.46-.73-.49-1.77-.73-1.11-2.11.44-.9,1.78-2.61,1.03-3.05-.72.89-1.94,2.42-3.12,2.75-1.42.39-2.03-1.51-3.2-.73.23-.68-.29-.63-.91-.53-.86.14-.63-.46-1.11-.72-1.5-.8-2.89-1.49-4.01-2.67-1.3-1.36-2.32-2.95-3.62-4.32-.43-.45-.81-1.24-1.53-1.41-.52-.12-1.05.8-1.38.28"/>
  <path id="path3548" class="cls-7" d="m345.63,128.11c-.76-.05-1.93,1.67-1.54,2.19.74.95,1.37-1.88,1.54-2.19"/>
  <path id="path3552" class="cls-7" d="m364.17,102.9c-.66.21-1.93,1.5-1.33,1.87.53.34.29.56-.21,1.38.87-.03,1.66-.88,1.6-1.65-.08-.15-.2-.25-.38-.3-.2-.16.29-1.01.32-1.3"/>
  <path id="path3556" class="cls-7" d="m368.48,126.48c-.42.51-.35.7.23.56-.06-.2-.13-.39-.23-.56"/>
  <path id="path3902" class="cls-7" d="m156.29,303.98c-.29.94-.19,1.96.07,2.86.76-.67.75-2.34-.07-2.86"/>
  <path id="path3904" class="cls-7" d="m157.48,304.49c.13.39.29.77.39,1.18.05-.48-.08-.87-.39-1.18"/>
  <path id="path3906" class="cls-7" d="m160.42,308.87c-.04-.45-.18-.84-.44-1.18.02.46.17.85.44,1.18"/>
  <path id="path3908" class="cls-7" d="m163.33,313.98c-.36.4-.43.99.15,1.12-.05-.37-.1-.75-.15-1.12"/>
  <path id="path3914" class="cls-7" d="m176.82,278.22c.16.02.32.04.48.06.04-.45-.18-.82-.51-1.01-.02.32,0,.64.03.96"/>
  <path id="path3916" class="cls-7" d="m178.21,279.9c-.19.44-.13.81.16,1.12.13-.42.08-.8-.16-1.12"/>
  <path id="path3918" class="cls-8" d="m151.3,233.81c.24.67,1.52.64,1.98.15.56-.59-.24-2.19-.01-2.96.13-.43.46-.73.54-1.18.12-.7-.33-1.16-.07-1.9.17-.48,1.13-2.09,1.41-2.03.82.18,1.59.59,2.48.37.42-.1.88-.63,1.29-.62.41,0,.52.47.94-.14.42-.6-.08-1.73.76-1.97.6-.17,2.76.34,1.79-1.4.85-.05,3.36-1.75,3.08.34.48-.15.73-.9,1.25-.72.23.08.9,1.32,1.06,1.58.4.62-.39,1.54-.61,2.16-.31.87.14,1.55.62,2.07.69.72,2.02-.73,2.87-.43.52.18,1.02.19.61,1-.39.79.43,1.92.45,2.65.02.62-.42,1.23-.43,1.89,0,.87-.74,1.32-.78,2.05-.02.35.52.56.53,1.01.02.76,0,1.43-.33,2.15-.78,1.76-1.42,2.76.3,3.5.88-1.32,2.88-2.31,3.13-4.04.78.57,1-.98,1.64-.99.45,0,.94.97,1.32,1.2.3.18,1.02.24,1.18.61.49,1.16,1.38-.54,2.14-.37.41.09.75-1.8,1.43-1.91-1.01-1.45,2.44-.51,2.81-.39,2.08.68,2.49,4.09,4.36,5.28,1.54.98.37,4.44.5,6.17.08,1.05.84,1.59,1.27,2.42.7,1.33,1.08,1.32,2.33,1.9-1.2.87.4,1.46.85,1.91.53.53-.83,2.75-.03,2.58-.27.56-.81,1.09-.54,1.73.15.36.53.52.44,1-.25,1.34.08,2.66-1.17,3.49-.84.55-1.38,1.71-1.86.46-.49-1.28-2.39-.01-3.29-.33-.62-.22-1.26.05-1.89.15-.69.11-.95-.37-1.54-.42-.81-.08-1.87.35-2.65.69-1.24.53-1.49,2.14-2.2,3.23-.33.5-1.1.92-1.1,1.55,0,.67-.74.42-1.1.41.27,1.14.31,2.38.59,3.54.23.97.09,2.27.86,2.92.86.74.58,1.56.57,2.66,0,1.36,1.21,2.46.92,3.84.04-.69-.43-1.06-.65-1.61-.34-.83-.2-1.87-1.16-2.21,0,.34-.01.67-.03,1.01-.22-.74-2.38-1.09-1.02-2.08-.37.24-.6-.02-.71-.39-.09,1.21-1.2-.66-1.38-1.23-.08,1.06-.62-1.09-1.53-.63-.44.22-.91.64-1.4.52-.61-.14-1.3-.54-1.96-.35-1.29.36-.47-1.14-.49-2.03-.01-.52.01-1.05-.01-1.57-.02-.72.5-1.28.44-1.94-.58.49-1.97.04-2.09-.73.09,1.54-3.87.18-2.93,2.57.49,1.19.07,1.95-.23,3.2-.32,1.32.45,2.56.14,3.89-.13.53-.5.93-.76,1.37-.33.54-.19,1.2-.56,1.74-.69,1.01-.9,2.57-1.21,3.75-.38,1.44-.64,2.48-1.26,3.8-.22.47.09,1.77-.68,1.64.83,1.23-.21,3.5.29,4.98.24.71.61,1.18.27,1.89-.39.81.9.99,1.28.77,1.34-.79,2.14-.81,2.25,1.23.04.67.65,5.49,1.57,3.93.46,1.37.48,2.89.81,4.3.3,1.26.78,2.6.74,3.95-.8-.17-.78-4.26-1.69-3.55-.65.51.22,2.11.45,2.52.27.49.6.86.96,1.26.3.33.76.2,1.05.53.67.76.78,1.56,1.94,1.6.86.03,1.83-.36,2.56.3.8.73.91,2.06,1.68,2.84.81.82,1.34,1.21.86,2.51-.22.59-.62,1.8-1.27,1.96-.5.12-.56-.81-.92-.98-.97-.45-1.61,1.56-2.24,1.56-1.22,0-.86-1.39-.4-2.16.5-.84-.3-1.6-.82-1.76-.75-.21-.39-1.46-1.35-1.61-.88-.14-1.4-.18-1.93-1.04-.75-1.2-.55.88-.92,1.42,0-1.59-3.4-3.08-1.94-4.77-1.2.8-.64-1.28-1.2-1.68.03.82-.57.64-.81.15-.31-.64-.19-1.62-.65-2.15-.31-.36-.97.11-1-.48-.03-.53.07-.72-.18-1.17-.38-.67-.34-.62-.94-.75-.38-.08-.28-.8-.38-1.1-.17-.49-.36-1.24-.98-1.07-.66.19-.42.87-.65,1.4-1.62-.39-1.17-3.19-.92-4.55.49-2.73,1.12-5.5,1.74-8.2.24-1.05,1.05-2.44,1.12-3.48.08-1.21.49-1.28.97-2.36.61-1.36,3.99-5.01,3.04-6.51-.4-.64-.65-2.37-.76-3.16-.16-1.19-.51-1.6-.96-2.6-.25-.58-.8-2.21-.66-2.84.38-1.53.43-2.64.02-4.11-.67-2.39-2.6-3.84-3.75-5.89-.5-.9-1-1.78-1.02-2.94-.01-.65.3-2.15,1.05-1.3-.1-.79.7-.62.92-1.18.31-.79.05-2.64.02-3.49-.04-1.4.85-.69,1.36-1.47.33-.5.45-1.59.05-2-.17.44-.4.83-.71,1.18-.72-1.17-.82-2.54-1.04-3.93-.14-.88-1.2-1.76-1.67-2.44-.73-1.06-1.73-2.18-2.32-3.34-.33-.64-.09-1.24-.21-1.93-.11-.62-.64-1.12-.45-1.83-1.06.34-1.36-1.19-1.49-2.02"/>
  <path id="path4584" class="cls-7" d="m154.57,276.25c.15-.17.25-.38.29-.62-.58-.11-.67.1-.29.62"/>
  <path id="path4586" class="cls-7" d="m154.9,280.52c.05-.42-.04-.8-.27-1.12.11.36.2.74.27,1.12"/>
  <path id="path4588" class="cls-7" d="m155,277.09h.29c-.11-.23-.24-.43-.4-.62.03.21.07.41.1.62"/>
  <path id="path4590" class="cls-7" d="m156.07,271.65c.34-.45.2-.91-.21-1.12.07.38.14.75.21,1.12"/>
  <path id="path4592" class="cls-7" d="m156.06,286.86c-.02-.66-.25-1.26-.71-1.63-.14.17-.25.35-.33.56.7-.37.88.56,1.04,1.07"/>
  <path id="path4594" class="cls-7" d="m155.49,281.92c.83-.07.87-1.78.55-2.3-.22.76-.41,1.53-.55,2.3"/>
  <path id="path4596" class="cls-7" d="m156.27,275.75c.22.41,1.51-2.1-.07-1.74.05.58.22,1.14.07,1.74"/>
  <path id="path4598" class="cls-7" d="m155.45,291.75c.02.19.05.37.07.56.31-.22.47-.54.48-.95-.19.11-.38.24-.55.39"/>
  <path id="path4600" class="cls-7" d="m156.79,280.86c.09.32.29.49.6.51.38-1.82-1.37-2.17-.6-.51"/>
  <path id="path4602" class="cls-7" d="m156.92,278.22c.12.26.23.52.34.79.2-.13.38-.3.53-.51-.38-.18-.69-.46-.92-.84.02.19.04.37.06.56"/>
  <path id="path4604" class="cls-7" d="m157.08,275.41c.12-.3.28-.19.09-.62-.03.21-.06.41-.09.62"/>
  <path id="path4608" class="cls-8" d="m124.67,216.24c.1-.43.15-1.52.73-1.6.71-.09,1.02,1.1,1.75.87-.25-1-.38-2.06-.34-3.14.08-.45.09-.88.03-1.31-.1-.42.54-.84.51-1.32.48.2.62,1.42,1.27,1.19.47-.16.38-1.15.51-1.53.96.69.73-1.04.59-1.56-.36-1.45-.12-2.58-.11-4.11.92.86,1.18-.91,1.25-1.64.17-1.8.06-3.35-.28-5.04.24-.02.44.06.61.23.43.36.43.1,1.01-.02.58-.11,2.17.68,2.56,1.08.31-2.58,4.08-7.17,2.57-9.17-.8-1.06,1.4-2.55,1.76-3.61.42-1.24.85-1.95.44-3.05-.33-.9-.24-2.64.73-3.31.3-.21,1.09.07,1.23-.47.14-.5,1.1-.84,1.52-1.21.53-.47.86-.94,1.26-1.53.69-1,1.96-.85,2.85-1,.43-.07,1-.4,1.3,0,.4.53.67,1.77,1.67,1.35.02-.86-.66-1.28-1.01-1.89-.64-1.12.1-1.99,1.03-2.84,1.34-1.23.77-.98,1.03-2.31.09-.47.65-.65.7-1.09.05-.54.35-1.05.46-1.58.72,1.17,2.58,1.35,3.05,2.84.17.54-.04,1.21.1,1.76.19.75.56,1.39.75,2.13.42-.16.7-.51.58-.96,1.88,1.08,1.46,3.48,1.58,5.79.08,1.14.14,2.09-.19,3.26-.13.48.42,2.1-.62,1.61.1.49,1.27,2.37-.08,1.9-.24-.08-.86,1.13-.85,1.36.04.73-.76.25-1.1.23-.16.41-.67,3.49-1.67,2.3-.09,1.04-.69,1.82-.28,2.81-.94.08-1.04.84-1.12,1.66-.08.85.54.86.71,1.52.08.29.38,1.08.22,1.4-.28.56-1.15,1.36-.59,1.93.26.26,2.17-1.25,2.48-1.44,1.37-.8,2.7.48,4.05-.52.07.88-1,1.22-.85,2.1.08.49.35.74.6,1.11.32.46-.22.98.01,1.23.62.69.19,1.96,1.04,2.49,1.16.72,2.3-.19,2.58,1.5-1.28-.06-.8,1.69-.82,2.47-.01.83-1.79,2.46-.53,2.94.86.33,2.86-.35,3.52.43.71.86-.66,2.5,1.01,2.53-.28.39-.19,1.11,0,1.44.31.54.83-.63,1.32-.24,1,.81,2.71-1.17,3.65-1.87-.07.98.52,1.53-.39,2.34-.42.38-1.3.59-1.58,1.02-.21.34-1.65,3.27-.55,2.59-.19.83-1.31.41-1.79.79-.84.65-.75,1.95-1.07,2.86-.86-1.12-1.82.16-3.05.22.26.47.16,1.26-.42,1.53-.57.27-.82-.36-1.32-.32-.63.06-.67,1.59-.85,2.05-.19.52-.45.45-.74.2-.29-.25-1.25.83-1.72.78-.23-.03-2.52-.41-2.51-.49-.11.91-.84,1.52-1.16,2.43-.16.44.07.98.11,1.4.05.56-.51,1.15-.65,1.71-.17.73.7,1.57.17,2.32-.47.68-1.73.88-2.03.07.13.83.43,2.36,1.49,2.02-.14.53.13.95.31,1.37.26.62.02,1.24.17,1.88.24,1.11,1.51,2.43,2.12,3.3.37.53.76,1.06,1.05,1.66.26.56.87.44,1.01,1.32.22,1.39.32,2.76,1.04,3.93.31-.34.54-.74.71-1.18.57.58.23,1.77-.38,2.3-.8.71-1.14-.03-1.02,1.44.07.83.1,2.16-.05,3-.12.67-1.01.61-.91,1.4-.43-.49-.85-.11-1.01.49-.23.86.08,1.94.37,2.67.77,1.96,2.38,3.35,3.55,4.94,1.09,1.5,1.13,3.54,1.11,5.48,0,.9-.47.79-.17,1.8.29.96.3,1.51.91,2.26.58.71.41,1.51.61,2.39.2.9.63,1.66.8,2.59.23,1.32-.98,3.09-1.59,4.29-.64,1.26-1.44,2.71-2.39,3.55-.66.59-.03,1.25-.38,1.94-.49,1.01-.62,2.17-1.19,3.18-.54-1.06-.17-2.61-.34-3.79-.06-.48-.26-.9.18-1.2.54-.36.16-.58.44-1.03.6-.97.8-2.13.68-3.27-.06-.54-.22-2.33.63-2.33-.12-.26-.16-.54-.14-.84-.26.38-.63.67-1.04.79-.07-.8.93-1.24-.07-1.12,1.18-.62-.41-1.6.55-2.19-.42.12-.74-.12-.84-.56.27-.05.53-.16.76-.34-.42-.27-.69-.88.03-1.07-.59-.23-.17-.9-.22-1.53-.08-1.04-.34-2.13-.62-3.1-.27-1.02-.72-2-1.07-2.99-.32-.94-.26-2.08-.74-2.94.19.8.34,2.64-.27,3.37.25-.67-.19-1.26-.18-1.9,0-.6.09-1.59.01-2.14-.07-.52-1.6-4.21-.51-3.48-.03-.22-.09-.43-.19-.62-.17.11-.35.22-.52.34-.62-2.41-.18-5.12-.74-7.52-.11-.47-.45-.72-.59-1.15-.12-.38.1-.84.12-1.24.04-.74-.28-2.17.6-2.56-.56.1-1.56.53-1.9-.08-.63-1.1-1.1-2.32-1.04-3.74-.52.37-.35-.44-.72-.87-.32-.37-.75-.7-.85-1.26-.11.14-.05,1.35-.08,1.63-.1.95.31,1.92-.23,2.92-.39.72-.9,1.72-1.72,1.8-.85.08-1.68-1.21-.98-2.08-1,.28-.24,1.1-.04,1.78.27.94-.71,2.02-1.38,1.14.74.64-.96,1.79-1.49,1.12.12.86-.75,3.78-1.94,3.25-.61-.28.16-2.22.08-2.8-.04.05-.92,2.73-.43.96-.25.48-.37.99-.38,1.52-.58-.34-.61-1.87-.09-2.3-.68-.54-.75,3.37-1.64,2.4-.43-.46.22-3,.64-3.24-.75.32-1.1,2-1.54,2.75-.2-.14-.36-.33-.49-.56.63-.29.78-1,.99-1.63-.34.55-.53,1.38-1.22,1.46.85-1.14.64-2.57.9-3.87-.1.01-.2.01-.29,0,.29.94-1.02,3.04-1.82,3.39-1.15.51.24-4.83.44-5.42.2-.59.21-2.35.52-2.66.81-.79.21-3.02-.05-3.89-.34-1.12-.03-2.83-.68-3.74-.27-.39-.41-.9-.56-1.36-.24-.7-1-1.11-.14-1.3-.53-.46-1.21-.61-1.1-1.58.09-.72.26-1.88,0-2.52.02.52.08,1.73-.67,1.07.32.53.5,1.59.13,2.25-1.13-.55-1.7-1.96-2.26-3.11-.15-.32.49-.64.65-.21.12.32.51.43.78.53.62.21,1.49-.18,1-1.07-.27-.5-1.7-1.15-.72-1.87-.4-.01-.79-.07-1.17-.17.17-.38.26-.77.29-1.18-.48.25-1.04-.36-1.25-.71-.39-.67-.85-.2-1.48-.52.16.6.38,1.17.48,1.8-.17-.39-.32-.78-.46-1.18-.14.41-.12.78.07,1.12-.48-.92-.73-1.5-.09-2.58-.24.05-.47.07-.7.06.18-.4.38-.79.58-1.18-.1.02-.19.08-.26.17-.05-.43,0-.86.15-1.29-.46.94-.53,2-1.04,2.92-.62-.33-.27-.74-.13-1.33.17-.69-.46-1.26-.7-1.76.02.57.24,1.18-.16,1.74-.13-1.04-1.02-1.54-1.44-2.37-.52-.99-.74-2.4-1.09-3.52"/>
  <path id="path3474" class="cls-7" d="m196.5,293.43c.13.6.41,1.21.96,1.4-.38-.41-.71-.88-.96-1.4"/>
  <path id="path3476" class="cls-7" d="m199.97,287.26c.07.61-.36,1.23.16,1.68.3-.59.17-1.22-.16-1.68"/>
  <path id="path3478" class="cls-7" d="m200.72,288.27c-.05.19-.07.37-.04.56.01-.19.03-.37.04-.56"/>
  <path id="path3296" class="cls-7" d="m403.78,61.31c-1.15,1.12-1.55,2.36-2.75,3.49-.77.73-2.03,2.01-.53,1.67.29-1.26,3.69-6.45,5.06-6.07.16-.21.27-.42.35-.62-1.1.36-1.52,1.83-2.13,1.53"/>
  <path id="path3302" class="cls-7" d="m417.41,52.7c-.76-.21-1.64.91-2.43,1.41-1.54.97-1.65-.32-2.07-.79-.37.43-.19.56-.16.85.05.51-1.02.89-1.22,1.46-.17-.04-.35-.08-.52-.11-.31.75-2.98,2.42-2.05,2.75-.94.13-2.06,1.54-1.42,1.85,1.02-1.26,3.72-2.34,3.89-3.82.84.64,2.32-1.08,3.49-1.68.45-.23,4.04-1.03,2.5-1.91"/>
  <path id="path3304" class="cls-7" d="m407.45,63.65c-.43-.03-.99,2.13-1.5,2.48,0,.74,1.16-1.66,1.5-2.48"/>
  <path id="path3308" class="cls-7" d="m423.64,49.17c-1.02,1.05-2.46,1.71-2.77,2.97-.25,1.04,5.02-3.52,5.45-3.86-.51-.66-1.71.58-2.68.9"/>
  <path id="path3316" class="cls-7" d="m434.94,42.04c-.51.46-1.7,1.94-2.34,1.74-.03.24,0,.44.08.62,1.02-.71,1.75-1.53,2.59-2.36h-.34"/>
  <path id="path3324" class="cls-7" d="m438.77,38.11c.19.02.38.04.57.06.03-.21,0-.4-.06-.56-.17.17-.34.34-.51.51"/>
  <path id="path5460" class="cls-7" d="m129.31,277.04c-.15.27-.25.18-.04.56.01-.19.03-.38.04-.56"/>
  <path id="path5450" class="cls-7" d="m126.47,286.47c-.1-.27-.21-.53-.33-.79-.46.41-.77,1.21-.69,1.85.2,1.6,1.43-.09,1.03-1.06"/>
  <path id="path5452" class="cls-7" d="m127.83,272.21c-1.03.93-.24,3.71-.23,4.83-1.2-.26-1.75,4.38-.13,4.21-.67-.57.09-.63.13-1.28.05-.77-.3-1.5-.02-2.28.21-.59.7-1.1.64-1.77-.1-1.05.27-.35.51-1.31.24-.97-.65-1.95-.4-2.69.25-.73,1.56-2.24.35-2.56.55-.46.53-1.16.2-1.68-1.34,1.1-.67,3.08-1.04,4.55"/>
  <path id="path5454" class="cls-7" d="m127.42,271.76h-.24c.04.22.11.43.2.62.01-.21.03-.41.04-.62"/>
  <path id="path5456" class="cls-7" d="m127.7,296.86c-.23.12-.35.32-.36.62.55.18.67-.03.36-.62"/>
  <path id="path5458" class="cls-7" d="m128.55,278.22c.1.2.25.31.46.34-.15-.11-.31-.22-.46-.34"/>
  <path id="path5464" class="cls-7" d="m131.62,303.82c-.7.04-.27.94,0,1.18-.13-.39-.14-.78,0-1.18"/>
  <path id="path5468" class="cls-7" d="m132.48,309.21c-.42.18-.53.72-.34,1.12.4-.24.61-.67.34-1.12"/>
  <path id="path5470" class="cls-7" d="m133.35,310.72c-1.76-1.03-.44,2.19-.12,2.86.6-1.39.09-1.64.12-2.86"/>
  <path id="path5490" class="cls-8" d="m.65,198.84c.05-1.32,1.34-1.35,2.19-1.35,1,0,.67-1.74.68-2.36.64.38,2.11.46,2.85.21,1.36-.45,2.24,1.48,3.6.8.31-.16,2.41-2.56,2.83-1.6.69,1.58,1.64.94,2.88-.03-1.09-.25.05-1.88-.27-2.67-.57-1.4-1.21-2.71-1.9-4.03-.38-.72.35-2.36-.98-1.93-1.12.36-2.22-1.24-2-2.4.15-.83.58-2.66-.02-3.3-.98-1.04-2.98-.24-3.29-2.2-.2-1.42,1.16-2.86,1.98-3.9.6-.75.98-1.62,1.47-2.44.35-.58,1.08-1.88,1.82-1.67.96.27.62,2.14,1.69,2.25.61.06,1.3-.45,1.87-.72.7-.33,1.37-.29,2.08-.4,1.65-.25,1.55-1.71,2.61-2.77,1.29-1.28.86-2.98,2.64-4.01,1.63-.95,2.41-2.12,3.16-3.98.57-1.36.54-3.16,2.12-3.72.54-.19,1.18-.32,1.56-.89.53-.81-.39-.99-.32-1.4.08-.49,1.55-2.23,1.89-2.68.64-.84,1.93-1.29,2.44-2.2-1.08-.02-.62-1.15-.49-1.97.16-.99-.54-1.74-.37-2.59.29-1.49,2.95-1.77,3.87-2.73,1.58-1.65-2.09-1.81-2.69-2.07-.61-.26-.14-1.33-.77-1.75-.43-.28-1-.28-1.45-.52.31-.6.14-.94-.28-1.21-.45-.29-1.72-1.2-1.22-1.92.48-.68.87-1.39.24-1.94-.38-.33-.99-1.04-.26-1.63.29-.24,1.95-1.32.72-1.44-.2-.02-2.13-.04-1.44-.81.86-.96-.08-.89-.55-1.36-.56-.58.9-2.1,1.42-2.41,1.32-.77,2.4-.18,3.53.11,1.28.33,2.55.7,3.82,1.04,1.09.29,1.94-.49,3.04-.88.96-.34,1.89-.29,2.84-.6.29-.1,2.25-1.84,2.18-2.06-.19-.61,1.67-1.54,2.2-1.94.43-.31.89-.66,1.37-.83.4-.14.5.2.84.1,1.11-.34.44,1.11.79,1.78.52,1.01.36,2.42,1.04,3.3.73.95,2.68.66,3.32,2.16.19.42.73.88.12,1.33-1.16.88-.93,1.01-.76,2.32.15,1.17.2,2.29.89,3.17.53.66,1.69.74,2.11,1.37.21.31,0,.84.09,1.21.11.42.38.72.58,1.07.65,1.19-.36,1.43-1.15,2.09-.7.58-1.87,1.77-2.2.27-.25-1.14-1-1.3-2.21-.44.29.46.33.99.37,1.56.05.65.56.97.85,1.44.63,1,.2,2.12.78,2.99.35.51-.77,2.62.5,2.43.56-.08.47-.64.9-.79.66-.24.75.55.92.97.23.6,1.2,1.88,1.81,2.02.73.17,1.32-.37,1.8.42.29.48.96.3,1.3.69.23.26.17.74.18,1.1.02.6.64.61,1.05.83,1.14.61,2.38.89,3.1,2.11-1.42.09-2.18,2.29-3.28,3.04-.11.07-.14,1.18-.3,1.43-.57.93-.07,1.32-.36,2.19-.27.8-1.61,1.64-.94,2.59.4.56,2.06,2.15,2.24,1.02.76.59,1.65,1.43,2.53,1.81,1.03.46,1.37,1.45,2.27,2.12.27.2,1.66,1.64,2.11,1.45,1.06-.44,1.88.46,2.65.94.33.2,1.54.23,1.69.49.53.92.58,1.18,1.72,1.44.6.14,1.3.86,1.99.35.93-.68,1.33-.14,2.18.31-.31-1.76,3.35.03,3.61.12,1.03.37.06,1.98,1.02,2.24.82.22,2.05.7,2.44,1.54.33.67,1.35-.29,1.86-.34,1.26-.12.36,1.97,2.08,1.22.51-.22,2.52.59,2.95.9,1.1.8,1.46,0,2.61-.41,0,.88,1.17,1.76,1.84,1.1.25-.25,2.02,0,2.41.01.83.02,1.01-.04,1.26-1.05.46-1.72-.15-2.38-.49-3.85-.18-.8.08-1.82.3-2.67.26-1.04.18-1.84.3-2.86.95-.07,2.17-.95,3.05-.65,1.73.59-.31,3.12.29,4.19.11.19.72.64.45.97-.42.51-.72.45-.48,1.18.52,1.62,1.61,1.57,2.98,1.77.92.14,1.35,1.07,2.3.96.4-.05,1.03-.06,1.41-.32.4-.27,1.27-1.27,1.71-.87,1.1.99,2.74.67,4.21.6.45-.02,1.3-.65,1.49-.31.29.51,1.67,0,2.24-.07,1.43-.19.07-1.58.37-2.26,1.02-2.24-1.27-1.31-1.94-2.36-.36-.57-.35-1.74.61-1.47.77.22,1.1-.22,1.84-.41,1.12-.28,2.97.34,2.91-1.72-.03-.87,2.37-1.74,2.68-2.92.49-1.87,2.49-.95,3.66-2.01.94-.85,1.58-1.86,2.6-2.63.37-.29.76-.6,1.16-.83.35-.2,1.62,1.03,1.9,1.24-.3-.41-.16-.43.42-.03.46.23.97.63,1.54.6.59-.03.64-.8.93-1.21.51-.73,1.89-1.19,2.62-1.49.16-.06,1.38,1.39,1.52,1.57-1.1.49-1.05.64-.96,1.49.06.6,1.42-.45,1.69-.53-.37.82.84,1.34.48,2-.55.99-.98,1.33-1.35,2.32-.27.71,1.15.09,1.38.02,1-.29,1.49.78,2.51.45.88-.28,1.33.95,1.19,1.73-.06.29.28.53.2.75-.2.52-1.07,1.15-1.46,1.5-2.07,1.9.32,2.67.27,4.47-1.22.51-1.25-1.2-2.1-1.48-.82-.26-3.11.57-3.82,1.38-.55.61-1,1.13-1.63,1.66-.26.35-.57.48-.92.41-.37.29-.1.5-.65.82-.59.35-1-.05-1.33.82-.24.65-.25,1.38-.18,2.02.06.48.35.82.41,1.27.09.6-.69.95-.6,1.6.23,1.59-2.45,2.63-2.07,3.96.13.48.57.64.68,1.18.16.83-.44,1.83-.85,2.56-1.02,1.79-2,3.78-2.25,5.81-.45-.45-1.69-.88-2.29-1.06-.32.02-.64.07-.96.15-.39-.09-.44-.49-.93-.38.32,1.59.44,3,.31,4.68-.05.71-.25,2.95-1.28,2-.01,1.53-.25,2.66.11,4.11.13.52.36,2.25-.6,1.56-.8,2.33-.45.9-1.78.34.03.45-.19.9-.54,1.18-.31-1.18-.23-2.51-.29-3.76-.08-1.5-.75-2.8-.93-4.27-.14-1.14-.39-2.29-.44-3.45-.05-1.01-1.25.53-1.74-.02.1.67.28,1.18-.33,1.72-.65.59-.37,1.28-.34,1.98.03.67-.77,1.48-1.29.99-.51-.47-.22-1.41-.89-1.77.02.38-.04.75-.18,1.12-.3-1.15-.61-2.3-.89-3.46-.28-1.17,1.17-2.34,1.01-3.39.51.08,1.41.26,1.43-.67.26.59.86-.31,1.28.17.35-1.47,2.41-2.96,1.81-4.72.31.03,1.62-.03,1.1-.74-.61-.83-1.88-1.3-2.89-1.28-.9.01-1.8.2-2.67.04-1.14-.21-2.21.17-3.36,0-1.45-.2-5.22.24-4.69-2.26.22-1.06.21-4.61-1.31-4.47.18.48,0,.93-.22,1.4-.65-.43-1.56-.56-1.96-1.33-.34-.64-.42-1.89-1.38-1.7.28.33.47.72.56,1.18-.49-.23-1.08-.24-1.55-.52-.3-.18-.37-.74-.64-1-.36-.36-.8-.61-1.17-.94-.69,1.1.64.58.77,1.52-1.66.67-2.99,3.19-1.18,4.04.72.34.88,1.27,1.48,1.76.44.36,1.42-.27,1.4.49-.03,1.11,1.39.69.6,1.85-.41-.26-1.12-.18-1.59-.13-.64.07-.79.12-.94.77-.15.68-.9,1.88-1.31.82-.2,1.16-1.14,2.07-.22,3.03.68.7,1.56,1.14,2.52,1.22,1.93.16-1.81,5.3.42,5.49.66.06.16.98.24,1.55.03.22.58.3.67.33.51.18-.13,1.03-.13,1.39,0,.72.49,1.18.43,1.91-.09.98-.16,1.53.18,2.41.34.9.66,2.15.13,3.09-.18-.14-.36-.27-.55-.39.11.38,1.11,1.85.66,2.23-.48.4-.97-.32-.93-.77-.16.61-.63,1.14-.88.34-.26-.85.29-1.92.37-2.81-.5.26-.05.8-.65,1.29.19-.59-.08-1.16.25-1.74-1.03.81-.48,3.43-.77,4.55-.13-.74.26-1.94-.31-2.47,0,.08-.08,2.08-.35,1.86-.08-.14-.14-.29-.2-.44-.47-.91-.22,1.35-.52-.35.18.4.15.81-.09,1.23-.6-.7-.41-2.2-.39-3.14.04-1.46-1.01-1.18-1.27-2.36.03,1.18,1.76.95.79,2.47-1.1,1.7-2.02,2.4-3.8,2.98-.94.31-2.24.84-2.58,2.04-.23.81.16,3.47.66,4.08-.38.3-.96.62-1.18,1.11-.34.75.3.81-.57,1.53-1.04.85-1.58,2.5-2.55.79.09.64.72.95,1.16,1.24-1.54.82-3.17,1.65-4.82,1.91.54-.31.84-1.72,0-1.4-.86.32-1.74,1.68-1.56,2.63.14-.36,1.03-1.56,1.25-.96-.52.16-1.46,1.66-2,2.19-1.21,1.2-1.92,2.66-2.83,4.13-.89,1.49-1.91,2.97-3.39,3.71-1.27.63-1.56,2.48-2.81,3.1.75.54-3.28,2.6-3.74,3.04-.45.43-.95,1.06-1.22,1.65-.43.96.67,1.2.21,2.29-.91,2.16-3.15,1.98-4.8,2.07-.67.04-.79.59-.99,1.24-.22.71-.98,1.97-.98,2.63-.51-.3-.47-.91-.63-1.46.17.63-.22,1.22-.43,1.8.51-1.9-1.98-.82-2.48.1-.73,1.35-1.69,3.41-1.34,4.92.29,1.24.64,2.58.56,3.85-.13,2.17.11,3.9.48,6.01-.13-.36-.76-2.11-.79-.67-.36-1.03-.45.31-.13.54.41.3.82.34,1.07.87.46.98-.15,3.53-.35,4.59-.35,1.89-1.41,3.33-2,5.12-.46,1.39,0,3.4-.95,4.55.16-.17.33-.32.52-.45.51.74.45,1.79.39,2.7-.1,1.5.12,2.98,0,4.48-.35-.03-.69-.09-1.02-.17,1.31.49-.04.25-.27.18-.49-.15-1.19-.44-1.52.25-.17.36-.43.8-.26,1.21.26.61-.55,1.21-.81,1.68-.51.91-1.52,2.91-.17,3.58.35.17.8.12,1.15-.04.25-.11.73.9.88,1.06-1.29-1.6-3.56-.6-5.05.22-1.93,1.07-1.13,3.11-2.09,4.75-.49.83-1.41,1.4-2.18,1.79-1.22.61-1.88,0-2.75-.93-.4-.43-3.47-4.3-2.44-4.6-.91.37-1.19-1.7-1.48-2.57-.41-1.24-.85-2.7-.5-4.06.25.49.34,1.06.34,1.63.16-1.35-.11,1.3.59,1.4-.22-.74,0-1.58-.27-2.3-.23-.62-.75-.95-.77-1.68-.02,1.44-.39.05-.36-.26.09-.73-.27-.95-.54-1.74-.45-1.39-.79-2.85-1.18-4.27-.15-.53-2.72-5.87-2.55-6.13-1.67-2.54-2.76-5.6-3.2-8.79-.14-1.13-.2-2.17-.48-3.23-.19-.71-.4-1.36-.6-2.06-.15-.52-.77-1.86.03-1.53-.88-.35-.58-1.79-1.01-2.53-.27-.47-1.73-1.4-.43-1.68-.79.4-1.1-.64-1.28-1.28-.14-.5-.24-1.02-.43-1.49-.19-.49-.86-.71.03-.83-.42-.12-.74-.83-.7-1.31.05-.5-.43-.66-.73-1.2-.73-1.32-1.16-2.88-1.49-4.41-.23-1.06-.4-2.17-.32-3.3.08-1.17-.4-2.26-.48-3.41-.08-1.08-.55-2-.76-3.04-.14-.68-1.06-2.92-.11-2.48-.16-.26-1.39-2.26-.24-1.52-.14-.82-.98-1.35-.56-2.3.15.15.3.3.45.45.07-.48-.04-.87-.34-1.18.74-.32.43-1.1.35-1.68-.08.47-.27.9-.61,1.23-.45-.98-.09-3.18.99-1.63-.15-.55-1.92-.9-1.28-1.67.22-.27-.51-1.38-.57-1.72-.16-.92-.11-1.83.14-2.77.4-1.48,1.31-3.02.93-4.53-.05-.2-.17-2.78-.92-1.82.29-.68.16-.7-.39-.06.69-.83-.35-1.08-.12-1.68.15-.39.29-.82.38-1.23.13-.6,1.95-.98,2.35-1.69-1.41,1.1-4.33.25-2.16-1.4-.72.34-1.48-.2-.9-1.07.5-.74,1.11.01,1.61-.73-.7.2-2.1-.08-2.41-.84-.08.38-.76.53-.74.45-.09.37.39.43.35.99-.05.76-.55.99-1.15,1.2.11.19.23.38.35.56-.39-.12-.7.14-.85.56,1.36.49,1.87,1.53.81,3-.37.52-.26,1.25-.92,1.52-.8.33-1.55.91-2.29,1.39-1.31.84-2.82,1.88-4.27,1.33-1.47-.56-3.13-2.17-3.9-3.64-1.15-2.2-3.02-3.58-4.42-5.51-.37-.51-1.39-2.23-.02-2.45.37-.06.32.74.59.91.5.32,1.5.07,1.67-.7.45.83,3.01-.73,3.54-1.29.47-.49.46-1.24.81-1.8.37-.58,1.24-.98.6-1.68-.39.4-.1,1.33-.78,1.29-.74-.05-1.36.12-2.1.39-.63.23-.93.88-1.62.84-.85-.05-1.65-.51-2.35-.94-.7-.43-1.51-.81-2.13-1.36-.5-.44-.44-1.53-1.06-1.79-2.08-.88.6-2.75,1.29-3.31-1.14-.15-2.1,2.33-3.19,1.74.25-.39.3-.78.15-1.19"/>
  <path id="path2710" class="cls-7" d="m209.73,228.87c-.32.46-.08,2.3-.06,2.81.02.84-.18,2.09.3,2.75.59.81,1.76.65,2.51,1.2.71.52,1.9.62,2.78.59-.22-1.1,1.13-1.75,1.43-1.01-.21-.51,1.62-2.04,1.93-2.32.44-.41,1.26-2.68.7-2.95.7-.38,1.62-2.31,1.59-3.09,1.13,1.08.78-1.73.66-2.27-.2-.91-2.37-1.87-1.7.19-.24-.42-1.65-1.11-1.05.06-.23-1.48-1.74-.56-2.24.11-.24-.96-1.71-.83-2.39-.28.08.21.17.41.26.62-.62.23-.87-.63-1.42-.45-.72.23-.53,1.26,0,1.4-1.28.39-2.27,1.72-3.3,2.64"/>
  <path id="path2708" class="cls-8" d="m28.9,93.12c.74,0,1.36-.39,1.4-1.23.05-1.15-.52-.94.1-2.16.51-.98,1.2-.64,1.96-.93.88-.34,1.49-1.55,2.44-1.57-.07-.36-.01-.74.16-1.12.52.12,1.48.69,2.1.21.47-.36,1.03-.96,1.59-1.04.58-.08.47,1.47.77,1.82.5.6,1.96-.22,2.77-.14,1.48.14,2.16-2.14,2.61-3.26.37-.92.86-1.27,1.77-1.12,1.16.19,2.27.21,3.5-.06.64-.14,1.42.1,2.05-.41.69-.55.88-1.64,1.6-2.29,1.81-1.62,4.43-1.79,6.37-3.1.78-.53,1.19-.81,1.97-.83,1.01-.03.86-.41.8-1.18-.08-.98-.15-1.83-.32-2.77-.22-1.23,1.15-1.5,2.02-1.72-.22-.31-.5-.56-.84-.73.49-.51,1.29-1.28,1.81-.79.76-1.03-.4-1.13-.18-1.98.3-1.12-.5-1.9-.82-2.73-.43-1.14-.91-2.29-.93-3.65-.01-.89.98-2.35.29-2.73-.58-.33-3.51.01-2.32-1.2.68-.69,2.41-.88,3.24-1.12,1.5-.44,2.88-.55,4.41-1.06,1.53-.5,1.5.2,2.46.66.77.37,1.86-.58,2.53.06.77.74,1.21-.49,1.25-1.21.05-1.09-1.48-.46-1.74-1.27-.22-.69.72-2.02,1.04-2.78.49-1.14.64-2.34,1.04-3.49.38-1.09,1.26-2.29,1.41-3.35.19-1.28.96-1.64,1.88-1.09.78.46,1.44.89,2.38,1.14,1.22.32,2.69-.19,3.98-.06.99.1.85,1.48,2.09.67.95-.63,1.99-.71,2.9-1.34,1.67-1.14-.34-4.3-.23-5.54.07-.67.66-2.5,1.52-2.97.82-.45,1.57.01,2.4-.31,2.11-.81,2.32-1.65,2.43-3.33.07-1.1,1.35-1.17,2.03-1.1,1.09.12,1.6.14,2.83-.21.55-.15,1.39.8.85,1.18-.87.62-.22,1.26.42,1.41,1.24.29-.19.96.44,1.33.87.52,2.37.46,2.77,1.48.45,1.14,2.54,2.51,4.13,2.06,1.05-.3,2.48,1.97,3.22.79.44.16.29.63.58.9.4.37.98.4,1.34.85.67.84.55,2.12,1.17,2.99.55.75,1.36,1.27,1.93,2,.95,1.21.05,2.25,0,3.75-.03,1.02.92,1.23-.07,2.51-.83,1.08-1.55,2.07-1.05,3.04.36.69.78,1.87,1.79,1.79,1.29-.1,2.25.7,3.45.76,1.22.06,2.34.45,3.59.4,1.19-.05,2.36-.14,3.5-.05,2.72.22,4,1.89,6.11,2.95.97.48,1.72,1.21,2.7,1.67.71.33,1.6.27,2.43.4,1.04.16-.19.97.42,1.46.83.67,1.35.93,1.62,2.12.21.94.48,1.9.87,2.75.45.99,1.44,1.51,2.07,2.34.44.58.39,1.43,1.22,1.57,1.14.19,2.43-.25,3.66-.38,2.64-.27,4.93.98,7.43,1.14,1.32.08,2.62.3,3.98.26,1.31-.03,2.71-.67,3.99-.57,1.37.1,2.63.41,3.94.61,1.14.18,2.61-.03,3.58.41.92.42,1.18,1.45,1.97,1.99,1.16.79,3.11.78,4.57,1.13,2.21.54,3.8,2.09,6.63,1.43,1.29-.3,1.34-.1,1.69.75.34.83,2.08-.05,2.38.62-.08-.18,7.19-3.56,7.88-3.86,1.38-.6,2.95-.88,4.26-1.04,1.56-.2,3.41-.62,4.89-.65,2.2-.04,4.43.78,6.98-.47,1.2-.59,3.02-.78,4.1-1.64,1.04-.83,1.64-2.07,2.56-3,.85-.87,1.87-1.24,2.87-1.7.57-.26,1.07-.61,1.52-1.1.27-.29.77,0,.96-.27,1.14-1.61-2.22-3.15-2.34-4.38-.12-1.18.97-4.42,2.98-4.81,2.47-.48,4.12,1.52,6.15,1.89.44.08,1.61.51,2.22.08.96-.67,2.14-1.12,2.91-1.94.69-.73,1.32-1.6,2.14-2.24.78-.61,2.14-.08,2.74-.02,1.61.17,3.7-.71,5.4-2.2.83-.72.15-1.77,1.3-2.87,1.07-1.03,1.8-1.27,2.93-1.3.82-.02,1.33.39,1.83-.85.39-.96,1.32-.35,1.66-.21.35.14,2.19-.94,2.87-1.11.56-.14.96-.01,1.42.05.29.05.6.06.93.05.23-.19.45-.38.68-.56.38,0,.97.47,1.37.56.73.16,1.46.3,2.25.37,2.88.24,1.57-2.44.85-3.32-1.7-2.07-3.9-3.87-6.26-5.31-1.06-.65-2.87-1.17-4.74.49-2.27,2.13-2.66-.09-4.64,0-.67.03-1.88-.24-2.6.04-.89.35-1.38,1.28-2.12.69-.47-.38-2.2-1.61-1-2.66.68-.59,1.13-.57,1.08-1.31-.05-.73.29-1.34.77-2.17,1.44-2.49,2.59-4.98,3.78-7.47,1.35.89,3.39.86,4.72,1.66,1.51.9,2.81-.87,4.7-1.99,1.34-.78,3.34-.09,4.18-1.75.47-.89.07-1.09-.58-1.25-.43-.11.15-.89.4-1.33.39-.69,1.07-1.01,1.21-1.72.02-.32.21-.66.58-1.02.76-.73.61-1.14,1.07-1.86.99-1.52,1.21-2.7,3.37-3.78,2.44-1.21.94-2.63,1.05-3.7.1-.94-.64-1.72-2.06-1.27-1.27.39-1.25-.37-1.41-1.01,1.99-.54,3.25-2.96,5.42-3.33,2.59-.43,5.22-1.25,7.5-1.13,2.26.13,4.79-.69,6.78-.09.85.26,1.53.73,2.18,1.17.89.6,2.36.61,3.19,1.24.97-1.38,4.08.21,4.02.77-.06.5,1.4,1.14,1.77,1.45.28.24-.23.72,0,.95.37.37.93.47,1.19.93.29.51,1.08.92.94,1.64-.09.43,1.19.17.7.9-.71,1.07.17,1.6.61,2.13.41.48.21,1.8.9,2.05.93.35.29,1.77.73,2.45.5.76,1.29,1.31,1.72,2.12.37.69-.13,1.76.17,2.48.33.8,1.24.52.8,1.74-.62,2.01,1.66,3.74,3.93,3.36.96-.16,2.18-.44,2.68,0,.83.71,1.95.85,2.92,1.39.09-1.32,1.24.51,1.64.51.96,0,1.21,1.44,1.73,1.92.84.77,2.41.15,3.36.66.28.15-.58,1.27-.51,1.62.08.4.57.69.84.94.81.75.1,1.4-.13,2.55-.17.82,1.1,2.76,2.08,2.65.55-.06,1.13-.29,1.66-.29.78,0,1.14.49,2,.39.96-.11,3.47.06,4.22-1.05.84-1.13,2.67-1.97,3.68-1.85.06,0,.75.43.99.15.57-.65.64-.83,1.47-1.02.77-.17,2.77-1.34,3.15-.89.21.25,1.23.72,1.62.79-.58.76-.77,1.38-.61,1.92.24.79,1.21,2.02-.32,3.35-.33.28-.98.34-1.36.58-.95.6-.34,1.06-.41,1.55-.05.4-.43.87-.6,1.29-.3.78.02,1.43-.54,2.25-.65.95.33,2.35-1.4,3.03.54.73-.44.93-.91,1.8-.35.64.07,1.15-.41,1.82-.66.92-1.51.58-1.68,1.87-.06.46-.03.91-.25,1.42-.35.82-3.93-.5-4.52-.66-.26-.07-1.55-.86-1.83-.6-.63.58-1.17,1.64-1.97,1.99-.64.28-1.64.32-2.19.71-.53.37.39,1.34.46,1.52.61,1.69.65,3.66.45,5.75-.17,1.75.78,2.92-.49,4.99-.55.9.1.78-1.11,1.17-.97.31-1.66.09-2.64,1.01,1.12.39.48,1.14,1.01,1.91-.56-.87-1.81-1.18-1.92-2.38-.1-1-.79-1.28-1.93-1.21-.18.72-.19,2.76-1,3.46-.63.54-1.34-.02-2.03.4-1.01.61-.44,1.87-2.15,2.27-1.53.36-2.76.03-4.28.38.17,1,1.83,2.2.8,3.58-.55.73-3.06.2-3.71.08-.61-.11-1.22-.26-1.61-.62-.46-.42-.47-1.66-1.44-1.55-.5.06-.88.63-1.46.64-.63,1.28-.89,1.97-1.85,3.19-.41.54-.89,1.46-1.52,1.83-.32.19-1.47.24-1.58.66-.15.55-.58.48-1,.88-.38.27-.77.43-1.15.49-.4.17-1.06.99-1.28,1.05-1.31.37-2.77,1.71-3.34,3.08-.67,1.61-3.01,1.67-3.45.72-.24.85-1.32.76-1.79.73-.06.62-.64.74-1.11.82-.98.16-1.96.91-2.91,1.48-.94.57-1.53.81-2.05,1.84-.38.75-1.16.68-1.27,1.41-.24-.26-.58-.37-1.01-.34.23.81-3.02,2.79-2.79.87.12-1,1.93-.98,2.3-1.27.54-.42.22-.77.35-1.19.17-.53,1.06-.8,1.45-1.16-1.96.77-2.32-.42-3.67-.67.43-.4.95-.69,1.44-.79-.31-1.47.25-1.24,1.73-2.32.68-.5,1.49-1.99,1.83-2.67,1.22-2.45-2.57-1.93-1.96-4.1-.42,1.43-1.54.8-2.15.53-.76-.34-3.14.73-2.01,1.32-1.13.22-2.46,1.92-2.8,2.97-.28.86-3.06,1.81-3.77,2.2-.69.38-1.29.66-1.85,1.29-.91,1.04-.17,1.55-.73,2.34-1.32,1.89-2.56,1.25-4.23,2.11-1.14.59-1.46-.95-2.53-.76-1.56.29-1.84,2.81-1.88,3.76-.08,1.67,1.43,2.28,2.31,3.22.27.3,1.17.41,1.69.22.87-.31.58.84,1.17.95.33-.39.49-.79.47-1.18,1.06,0,2.06,1.14,2.15,2.15.13,1.38-1.38,2.72-.44,3.89.63.78,1.7.99,2.93.8.86-.14,2.03-.62,1.47-1.5.56-.28,3.39-2.13,1.86-2.13.81.18,1.95-.65,2.85-.91.85-.24,1.71.6,1.92,1.18.18.51.53.45,1.15.28.35-.1.46.57.54.74.4.79,2.1-.37,2.5.45.18-.24.35-.48.51-.73.76.84,2.55.21,3.26,1.07-.24.11-.47.22-.71.34.73,1.01-1.13,1.29-.38,2.13.3.34.03.85-.65,1.09-1.12.41-.83-.53-.97-1.14-.24.29-.5.57-.77.84.23-.84-.36-.6-.97-.17-.36.25-2.73,1.65-1.22.45-.76.41-2.25,1.5-2.96,1.63-.5.09-1.38-.59-1.48.45,1.03-.73,1.32.36.58,1.12-.01-.59-.64-.63-1.01.06-.32.58.16.92-.16,1.52-.15.27-1.07.67-1.28.61-.67-.19-.02-1.12-.52-1.46.31,1.09-.34.18-.93.28-.25.73.22,1.76.93,1.74-1.56.24-1.71,3.04-3.31,2.58-.25.76-.98,2.35-1.57,3.01-.99,1.09-.74,1.81-.85,2.89,1.02-.77,1.81.33,2.23.8.83.94,2.06,1.28,3.14,1.93.87.51.76,2.18,1.09,3.1.5,1.4.89,3.03,1.72,4.18.57.8,1.01,1.99.73,3.18-.33,1.42,1.57,1.62,2.37,2.08.7.4.17.93.37,1.62.15.52.66.53,1.05.79.65.43,2.1,1.38,1.21,2.64-1.01-.34-1.87-1.55-3.19-1.17-1.77.51-1.34-.76-2.55-1.33-1.22-.57-2.39,1.38-3.36.67-.48-.35-.63-.94-.83-1.52-.25-.71-.92-.67-1.43-1.09.24.27.22.73-.08,1.12.39-.36.71-.38.94-.06-.14-.16-.28-.33-.41-.5.7-.26,1.42,1.54.39.95.65.61,1.22,1.97,2.55,1.39.54-.23.63-.73,1.21-.7.5.03,1.09.28,1.28.74.12.28-.22.63.07.82.47.31,1.11.4,1.62.65,1.11.54,1.83,1.8,2.85,2.51.56.39,1.57,1.94,1.25,2.88-.15.43-.93.27-1.15.29-.89.09-1.59.87-2.38,1.39-.53.35-1.1.53-1.38,1.15-.12.27-.36.94-.73.96-.62.04-.78-.62-1.57-.32-.66.25-1.26.83-1.85,1.27.38-.18,1.93-1.3,2.21-1.02.52.52.12,1.94,1.14,1.92-.17-.15-.35-.28-.55-.39,1.14.2,2.36-1.38,3.41-1.01.73.25.91.97,1.27,1.59.44.73,1.83.88,2.63,1.11-.69.31-1.1.81-1.66,1.35-.22.29-.47.55-.74.79-.39.27-.75.12-1.14.45.03.22.11.41.23.56.46-.49,1.26-1.18,1.65-.62-.2-.33.13-1.22.6-.87.53.39-.22,1-.08,1.57,0,.01.14,1.91-.4,1.43-.3-.26-.1-.94-.34-1.24-.01.37-.05.74-.13,1.12-.46.12-.67-.18-.66-.62-.07,1.04-.18.38-.31,0-.2.45-.47.86-.81,1.23.69-.15,1.49.54,1.41,1.29-.21-.35-.46-.32-.73.11.54-.04.95.78.24,1.19-.88.51-1.69-.49-2.26-.8.27.3.32.94.69,1.12.52.26,1.05-.27,1.22.53.08.38.79,1.35.21,1.81-.53.43-1.06.39-1.03,1.25-.58-.34-.37-1.32-.97-1.63-.28.37-.32.45-.7.62.96.15-1.32,3.46-2.42,1.23.02.82,1.68.66,1.24,1.61-.38.81-1.49,2.29-.71,2.83-.58.27-.66.63-.71,1.17-.13,1.16-.7-.06-.6.74-.26-.33-.51-.67-.76-1.01-.11.41,1.32,1.8-.05,1.46.1.67-.51,1.27-1.11,1.46.38.95.53,2.63-1.15,2.13.58-.24.93-.86.83-1.46-.29.21-.53.48-.71.79-.29-.27-.46-.67-.46-1.12-.31.41-.74.67-1.11.45.18.32.22.7.09,1.12.9-.42,1.57,1.2.42,1.07-.07.69.63,1.06.97.22.5.72-.19.69-.69,1.15-.52.48-.85,1.14-1.16,1.77-.44-.57-1.22-.89-1.87-1.12.48.38.63,1.45,1.43,1.31.79-.14,1.21-1.04,1.66.04-.55.24-.53,1.18-.8,1.77-.44.98.91,1.01.44,2.04-.03-.75-.21-.75-.56,0-.22-.54-.59-1-1.09-1.23-.12.47-.44.89-.84,1.12.33.22,1.22.36.95,1.07-.39,1.01-.85-.45-1.07.84-.01-.58-.34-1.59-1.03-.73.64.27-.15,1.42.65,1.46-.29.62-1.62,1.58-1.44.51-.64.49-.53.63-.13.96.5.41-.16,1.38-.49,1.8-.24-.33-.46-.66-.68-1.01-.3.74-1.24,1.21-1.45.34-.49.62-1.35.23-.94,1.12-.36-.12-.74-.14-1.14-.06.28.43.76.59,1.28.39-.18.45-.03.71.37.73-.21.41-.55.41-.85.66-.47.39-.33,1.14-1.03,1.58.31-.55.2-.75-.35-.62.1.61-.32,1.14-.42,1.74.12-1.13-1.07.06-1.6.06-.13.14-.84,2.1-1.28,1.5-.39-.52-.67-.8-.91.19-.27,1.08-.76,1.33-1.69,1.17.54.25,1.25.23,1.28,1.07-.5-.88-.68.49-1.04-.06-.31.69-.09,1.56-.93,1.84-.55.18-1.5.41-1.96.07.61.89-2.34,1.35-1.49-.06-.52.55-1.05.32-1.5.06.02.48,1.07,1.12.68,1.7-.24.36-.62.06-.78-.09-.51-.44-1.05-.37-.86-1.16-.38.48-1.65,1.26-1.99.96.83.35.14,1.1-.37.94-.59-.19-.44-1.04.04-1.45-.59,0-1.17.34-1.58.9.65.14-.19.91.52,1.12-.17.15-.35.26-.55.34-.13-1.21-2.61-1.1-3.32-.11.18-1.64-1.58-2.07-1.12-3.82-.37,1.12-.24.45-.6.06.42-.63,1.01-.73,1.59-.62-.68-.6-1.51.62-2.23.22,1.03.5-.27,1.47-.97,1.18.26.13,1.24.56,1.24.94-.12.1-.25.1-.38.01.55.46,1.71,2.71.93,3.71-.83,1.05-1.77-2-2.03-2.42-.2,1.01.74,1.91,1.04,2.69-.39.1-.7.42-.83.84-.34-.21-.55-.59-.48-1.07-.97.47-.21,1.63-.9,2.3-.53-.99-1.15-.19-1.71.51-.38.48-1.32-.54-.62-1.19-.46.19-.69-.04-.57-.56-.18.65.14,1.32-.14,1.98-.35.82-2.01-.67-2.38-.8.71,1.28-.4.69-1.05.73,1.05.5-.87,2.41-1.43,1.23-.18.42-.49.84-.9,1.01.5-.86-.5-.34-1.03-.2-.65.17-1.58.4-2.08,1.04.16-.32.35-.62.57-.9-.46.33-.87.89-.65,1.46-1.13.37-.63-.5-1.19-1.07-.35.64.36,1.06-.23,1.64-.41.41-1.24.82-1.03,1.56.12.42.65.44.97.58.45.18.13,1.38-.06.1-.07.99,1.07,1.5.87,2.48-.34,1.65-2.21.84-3.09,1.28.12-.57-.33-1.47.49-.95-.05-.95-1.59-.76-.8-2.08-.71.1-.11-1.02-.69-1.09-.36-.05-.25-1.62.04-1.91.57-.57.02-.97.76-1.43,1.13-.71-.26-1.12-.6-1.52.06.2.11.41.16.62-.8.19-.99-1.1-1.25-1.63-.31.46-.2.9.18,1.12-.34.37-1.46,1.33-1.72.56-.83,1.57-.62-.8-.89-1.07-.32-.31-1.7.34-.77-.84-.17-.07-.34-.13-.52-.17-.11.41-.08.78.09,1.12-.59-.1-.68-1.4-1.31-1.23.33-.39.27-.78-.11-.95-.22.4-.45.97-.43.17-.25.83.79,1.34.26,2.18-.26.41-.81-.54-1.1-.5.12.48-.14.94-.57,1.18.05-.5-1.09-.68-1.61-.94-.73-.38-1.98.8-2.16-.12-.18.11-.36.23-.54.34-.1-.94-1.2-.86-1.69-1.4-.17-.2.29-.48-.04-.6-.49-.17-1.03-.99-1.65-.46-.21-1.49-.78-2.62-.55-4.15,1.18.49,1.18-2.99-.71-2.02-.77.39-1.02-.3-1.53-.61-.61-.37-1.12.72-1.77.09-.97-.94-1.91-1.47-2.58-2.8-.5.94-1.52,1.05-2.24,1.65-.46.38.19,1.15-.4,1.73-.49.48-3.28,1.9-2.8.33-.91.04-1.45,2.41-1.74,2.18-.41-.32-.71-.84-1.02-1.28-.66-.93-.74.08-1.1.78-.8-1.26-.89-1.53-1.85.04-.89,1.45-1.66-.09-2.24-.71-1.25-1.34-1.75.58-2.5,1.63-.41.57-.75-.09-1.14-.05-.27.02-.53.08-.8.17-.35.11-.19-.52-.48-.52-1.3,0-1.05,2.84-.8,3.38.28.61.67,1.2.77,1.92.11.23.21.46.29.71,0,.41-.36.77-.41,1.18-.05.44.63,1.35.22,1.74-.56.52-.98-.66-1.62-.45-.98.32-1.1.4-1.34-.7-.21-.94-.6-1.86-.53-2.89-.94.71-2.64,2.68-3.65,1.87-.48-.39-.72.51-1.15.4-.44-.11-.43-1.24-.17-1.6-1.73-.03-.21-1.95-1.06-2.47-.94-.57-2.19-.49-3.28-.32-1.4.22-.02-2.01.13-2.56.23-.8-.29-3.08,1.02-3.02-.2-1.18-.86-1.29-1.87-1.29-1.34,0-1.06-1.23-1.49-2.19-.04-.09-.43-.67-.32-.82.57-.76-.32-1.27-.53-1.83-.36-.94.91-1.35.83-2.29-1.35,1.01-2.68-.27-4.05.52-.32.18-2.22,1.7-2.48,1.44-.54-.54.18-1.1.45-1.66.27-.55.06-1.42-.15-1.88-.32-.7-.58-.61-.6-1.62-.01-.75.35-1.29,1.07-1.36-.4-.99.19-1.77.29-2.81,1.01,1.19,1.51-1.89,1.67-2.3,1.71.14.58-.69,1.83-1.63.2-.15.76.24.85-.1.17-.68-.52-1.18-.64-1.76.97.45.73-1.63.81-2.2.17-1.24.1-2.68-.05-3.84-.12-.92-.14-1.89-.14-2.85,0-1.13-.56-1.3-1.39-1.78.12.45-.16.8-.58.96-.2-.81-.73-1.62-.79-2.48-.06-.75.09-1.4-.36-1.96-.75-.93-2.12-1.3-2.74-2.3-.17.76-.63,2.98-1.52,1.76-.48-.66-.96-.06-1.51-.37-.5-.28-1.08-.83-1.72-.82-.59,0-.97.84-1.54.56-.41-.2.09-.92.29-1.2.31-.44.82-.89,1.02-1.37.33-.77-.88-1.13-.45-2.1-.48.14-1.08.83-1.57.7-1.08-.29.41-1.46.83-1.65-.37-.46-.86-1.08-1.27-1.48-.41-.4-2.16.83-2.63,1.15-.48.33-.41,1.06-.88,1.36-.41.27-1-.07-1.29-.22-.11-.06-1.42-1.08-.96-.25-.41-.3-1.01-.92-1.47-1.07-.54-.17-1.08.36-1.71.73-.9.53-1.51,1.51-2.24,2.27-.92.97-1.64.94-2.72,1.14-1.19.22-.9,1.09-1.55,1.88-.59.73-1.78,1.05-2.14,1.92-.47,1.13-.63,1.95-2,2-.88.03-1.64.64-2.48.51-.62-.09-1.08-.17-.96-.94.1-.69-1.41-1.25-1.94-1.32-.8-.11-.99.94-1.83.46-.74-.43-1.52-.42-2.41-.44-.88-.01-.11-1.11-.85-1.37-.94-.33-1.84-.27-2.84.39-1.06.69-1.97,1.79-2.64,2.9-.51.85-1.48,2.19-1.71,3.12-1.34-.81,0-2.59-.23-3.93-.36-2.09-2.39-.44-3.72-.34v.62c-1.08-.37-2.76.11-3.97.08-1.08-.02-1.7-.49-2.61-1.06-.32-.2-.85-.62-1.3-.42-.4.18-.27.85-.69.93-.63.12-1.67-.84-1.58-1.55-.17.13-.58,2.44-.94,1.48-.36-.97-1.4-1.55-1.54-2.66-.33.91-3,.53-3.07-.27-.04-.43.48-1.18.23-1.54-.26-.37-1.37.46-1.86.09-.79-.59-2.67-1.34-2.83-2.49-.2-1.42-1.26-2.99-2.87-1.49-.57.54-1.74-1.78-1.93-2.11-.51-.92-1.85-1.11-2.74-1.8-1.39-1.08-2.59-2.28-3.71-3.64-.43-.52-1.17-.44-1.76-.67-.64-.24-.82.72-1.5.4-.1,2.04-1.19,2.3-2.02.99-.75-1.17-1.86-1.71-3.12-2.12-.27-.09-.92-.18-1.07-.45-.23-.42.47-1.09-.15-1.39-.47-.22-.71-.29-1.07-.74-.62-.77-1.23-.22-1.99-.48-1.16-.4-1.39-1.86-2.05-2.75-.67-.9-2.03,1.65-2.22-.14-.07-.63.27-1.27.03-1.86-.24-.6-.29-1.09-.27-1.78.02-.74-.57-1.19-.95-1.65-.57-.68-.22-1.72-.67-2.45,1.6-1.14,1.73-.31,2.34.74.3.52.88.61,1.3.03.53-.73,1.21-.67,1.75-1.3.66-.78.1-1.54-.21-2.08-.25-.43.13-1.61-.25-1.74-1.56-.55-1.49-.42-2.43-1.75-1.07-1.49-.75-4.17-.63-4.54.06-.18,1.95-.76.54-1.29-1.21-.46-1.98-1.56-3.03-2.37-1.44-1.11-.33-3.69-2.74-5.48-1.68.08-6.63-.29-6.17-2.91-.53.14-1.43,1-1.84.49-.33-.4-1.28-1.11-1.38-1.63-.1-.48.16-1.43.14-1.99-.02-.77-.24-1.38-.66-1.92-.58-.76-1.99-.34-2.27-1.12-.31-.85-1.73-1.87-2.67-.62-.19-1.35-1.88-.36-2.14-1.34-.34-1.3,1.8-.75,2.14-.82,1.43-.27,1.21-1.62.56-2.14-.55-.43-.19-.66-.05-1.34.06-.31-.21-1.22-.26-1.55-.08-.46-.59-.51-.63-1.03-.06-.6.28-1.25.31-1.87.05-1.14-1.65-1.45-2.48-1.65-1.1-.27-2.31,1.39-2.92.19-.2-.39-1-2.15.17-2.16-.24-.56-.65-1-.99-1.48-.33-.46.05-1.3,0-1.88"/>
  <path id="path4722" class="cls-8" d="m165.69,315.83c.29-.42.27-1.19.47-1.68.35-.85.99.94,1.36,1.2.45.31.88.1,1.36.26.44.15.45.75.67,1.12.43.74,1.64.58,1.23,2.02-.2.7-1.06,2.66.5,2.24.7-.19.91-1.52,1.72-1.66.67-.12.89,1.38,1.52,1.11.51-.23,1.37-2.71,1.37-3.32.61.23,1.18.3,1.57.95.38.65.51,1.44,1.05,1.96,1.35,1.3,2.54,2.49,3.29,4.37.76,1.89,1.28,3.81,1.13,5.98-.06.83-.18,1.76-.34,2.58-.23,1.16-.05,1.25.22,2.29.41,1.56-.48,3.46.28,5.03.59,1.22,1.99,1.86,2.29,3.33.35,1.74,1.33,3.2,1.72,4.96.52,2.36-1.81,1.07-.74.21-.41.02-.76-.25-.93-.67.07.16.46,1.74-.11,1.27-.57-.47-1.9.57-2.41.86-.56-2.06-2.73-2.63-4.03-3.89-.34-.33-.58-.72-.89-1.06-.5-.54-1.31-.53-1.86-1-.56-.47-1.43-1.48-1.73-2.16-.2-.47-.54-.51-.94-.64-.62-.2-.88-.85-1.38-1.25-.47-.39-.37-.49-.09-.92.3-.47-.05-1.43-.21-1.88-.49-1.39-1.82-2.34-2.27-3.74-.22-.68-1.49-1.05,0-1.59-.87.14-1.68-1.93-1.42-2.66.49-1.42-.12-2.94-.81-4-.61-.93-.35-3.84-.3-5.02.07-1.72-.78-3.08-1.26-4.6"/>
  <path id="path2560" class="cls-7" d="m256.41,331.1c-.02-.21-.05-.41-.07-.62.47-.05.85.27,1.2.56-.38-.02-.75,0-1.13.05"/>
  <path id="path4712" class="cls-7" d="m252.23,310.72c.3-.19.51-.47.63-.84-.39.07-.67.37-.63.84"/>
  <path id="path4714" class="cls-7" d="m253.43,309.99c-.19.37-.19.72,0,1.07,1.07-.42.71-1.87,0-1.07"/>
  <path id="path4718" class="cls-7" d="m260.04,327.68c.27.34.59.4.97.17-.32-.09-.64-.14-.97-.17"/>
  <path id="path4700" class="cls-7" d="m164.28,315.61c-.25.3-.54.54-.86.73.47,1.16,1.63.01.86-.73"/>
  <path id="path4704" class="cls-7" d="m166.62,322.46c-.58-.3-.67.35-.66.84.03,1.05.74-.16.66-.84"/>
  <path id="path4724" class="cls-8" d="m214.79,345.19c-.19,2,3.6,3.7,3.54,1.85.02.52.69.58.65.8-.13.66.96.95,1.36,1.12.62.26,1-.32,1.53.39.49.64,1.23.71,1.92.79-.49-.77-1.52-.1-1.78-1.24-.17-.74.33-1.37.9-.72-.54-.39-.58-1-.4-1.63.11-.31.2-.63.27-.95.17-.78.51-.48.94-.95-.34.04-.68.08-1.03.11.49-.52.05-1.13.21-1.74.51,0,.95.31,1.45.34-1.71-1.52,1-3.34,2.09-3.54,1.74-.32,4.24-.73,5.73-1.91,1.29-1.02,1.4-3.12,2.56-4.28,1.48-1.48,2.36-3.19,2.54-5.43,1.02.03,1.2.63,1.54,1.57.2.55,1.38,2.09,1.9,2.11.93.05,1.27-2.17.9-2.81-.84-1.45.28-2.04,1-2.9.17,1.42-.15,3.41,1.42,3.82.11-1.1-.08-2.34-.53-3.29-.57-1.21.59-.5.99-.85.37-.32,1.64-1.4.69-1.83-1.43-.65.07-1.9.55-2.62-.19,1.42,1.41-.12,1.71-.73.46-.93.64-1.98,1.07-2.92.24-.54.5-.28.76-.62.32-.41.6-1.12.94-1.6.74-1.06.74-2.59,1.67-3.56.63.92-.23,1.88.04,2.86.58-.41,1.22-2.87,1.91-2.72.05,0,1.48,4.37,1.83,2.39.05.81,1.34,1.17,1.19,2.15-.1.65-.86.41-.71,1.29.18,1.03.05,1.29-.85,1.67.57-.36,1.14.04,1.66-.29.43-.27.69-.95,1.25-.67,1.07.53,0,1.41-.55,1.63.05,1.22,1.13.05,1.55-.24.9-.63,1.85.84,1.89,1.7.63-.73,1.58.56,1.8,1.12.52-.76,1.85-.17,1.82.73-.04,1.3-2.56,2.32-3.45,2.24-.61-.06-2.93-1.01-2.3.98.26.78,1.82,1.11,1.65,2.06.49-.35.86.17.56.69-.32.56-1,.44-1.48.48-1.53.14-2.19.59-3.44-.67-.13.4.09,1.25-.27,1.53-.55.42-1.27-.45-1.65-.75-1.14-.88-2.78.5-3.79-.67-.12,1.35-.85.11-1.43.29-.43.13-.54-.33-.86.23-.35.62-.84-.24-1.22-.41-.14.6-.58.79-.82,1.29-.32.65-.5,1.56-.6,2.29-.08.58-.17,1.26-.05,1.82.21.88-.08.99-.27,1.82-.31,1.32.02,1.94-1.29,1.97-1.42.03-.64,2.88-.27,3.44-.8.31-2.96,1.85-2.06,3.05.52.7-1.46,3.05-1.26,4.13-.81.05-.82-.61-1.66,0-.58.42-1.17-.24-1.74.11-.78.48-.97,1.27-2.01,1.08-.69-.13-2.1-.68-2.47-1.41-.51-.99-3.73-.86-4.29.33-.27.56-.42,1.26-.6,1.86.04-.12-1.57.98-1.5.97-.47.04-.94.12-1.41.19-.56.09-1.03-.41-1.61-.45-1.01-.07-1.66.54-2.52,1.01-1.17.65-1.22-.45-2.17-.74-.29-.09-.96-.99-1.24-1.28-.36-.36-.5-.9-.85-1.27-.34-.36-.78-.33-1.02-.85-.21-.48-.1-1.67-.54-1.95-.9-.57-.1-.98.03-1.82"/>
  <path id="path5822" class="cls-7" d="m265.54,327.9c.28-.58.26-1.23.03-1.8.03.6,0,1.2-.03,1.8"/>
  <path id="path5902" class="cls-7" d="m294.2,274.4c.12.14.22.12.3-.06-.1.02-.2.04-.3.06"/>
  <path id="path5800" class="cls-7" d="m253.03,306.57c.36-.61.4-1.33-.1-1.8-.25.6-.22,1.28.1,1.8"/>
  <path id="path5806" class="cls-7" d="m260.89,312.18c.1-.62-.09-.75-.56-.39.18.15.36.28.56.39"/>
  <path id="path5832" class="cls-7" d="m267.62,325.15c.31-.2,2.14-1.3,2.07-1.55-.25-.94-.81-.06-1.24.28-.53.42-1.37.44-.83,1.27"/>
  <path id="path5838" class="cls-7" d="m271.27,316.22c-.13.31-.13.61,0,.9.25-.32.26-.62,0-.9"/>
  <path id="path5840" class="cls-7" d="m275.08,319.7c1.38-.77-.67-1.51-1.32-1.38-.71.15-.66,1.17-.5,1.07.47-.28,1.65-.41,1.81.31"/>
  <path id="path5858" class="cls-7" d="m278.12,315.04c.06.68.6,1.06,1.17.77.58-.3.58-1,.97-1.5-.51.05-.78-.4-1.24-.51-.47-.11-.87.57-1.3.67.12.21.25.39.41.56"/>
  <path id="path5860" class="cls-7" d="m277.55,318.24c.12.43.35.57.71.39-.21-.19-.45-.32-.71-.39"/>
  <path id="path5874" class="cls-7" d="m283.12,310.1c1.85-.82-1.39-1.33,0,0"/>
  <path id="path5882" class="cls-7" d="m286.92,297.87c.85-.05.54-.94.23-1.4-.49.27-.83,1.08-.23,1.4"/>
  <path id="path5888" class="cls-7" d="m287.77,294.83c.47-.03.64-.22.52-.56-.38-.04-.52.15-.52.56"/>
  <path id="path5892" class="cls-7" d="m288.72,290.12c.14-.19.28-.37.42-.56-.45,0-.4.15-.42.56"/>
  <path id="path5900" class="cls-7" d="m293.07,297.98c.26-.58-.12-1.5-.73-.9.08.43.35.78.73.9"/>
  <path id="path5908" class="cls-7" d="m295.92,322.9c.15.1.31.12.49.06-.15-.18-.32-.2-.49-.06"/>
  <path id="path5910" class="cls-7" d="m298.25,312.74c.19-.6.08-1.2,0-1.8-.86.19-.18,1.16,0,1.8"/>
  <path id="path5802" class="cls-7" d="m254.23,301.29c-.29.54-.23,1.16-.38,1.74,1.43-1.89,3.35-2.52,4.64-4.66.48-.8,4.37-3.6,3.09-4.88.78.22.27-.4.35-.96.1-.67,1.04-.77,1.46-.83.71-.11.86-.42,1.02-1.16.22-1.03.85-.77,1.46-1.21,1.3-.92.47-1.82.05-2.87-.51-1.27.65-3.01-.18-4.09-.65.6-.12,2.87-.91,1.96.17.47.62,1.79.62,2.3-.47-.32-1.02-.67-1.15-1.35-.07.71.2,1.28.33,1.93.13.65-.73,2.67-.95,1.27-.09.44-.3.58-.65.69-.27.08-.17.95-.26,1.17-.11.27-.57-.08-.69.17-.19.4.25.67-.06,1.12-.06-1.32-.63.21-.82.56-.32.59-.62,1.2-1.05,1.71-.67.8-1.06,1.9-1.84,2.61-.31.28-.64.15-.95.4-.35.29-.4.79-.76,1.03-1.02.67-1.94,2.13-2.39,3.36"/>
  <path id="path5812" class="cls-7" d="m267.45,282.43c.2-.59.03-.71-.51-.34.17.11.34.22.51.34"/>
  <path id="path5814" class="cls-7" d="m268.32,276.48c-.13-.17-.28-.32-.45-.45-1.03,1.87,1.08,2.19,2.21,2.19.06-.34-.07-.81-.33-.98-.53-.36-.89-.2-1.43-.76"/>
  <path id="path5816" class="cls-7" d="m268.85,265.81c.13.54.58.87.95,1.18.1-.69-.39-1.15-.95-1.18"/>
  <path id="path5818" class="cls-7" d="m268.32,278.72c-.22.06-.44.11-.65.17.05.7.78.75.65,1.52.49-.46.1-1.22,0-1.68"/>
  <path id="path5820" class="cls-7" d="m268.26,288.04c.02-.98-1.17-.07-1.22.56.63.3.6-.66,1.22-.56"/>
  <path id="path5824" class="cls-7" d="m269.98,268.39c.07.32,1.04,1.32,1.27,1.55,1,.99.62,2.29,1.32,3.33.31.46,2.23,5.41,3.02,2.53.17-.61.54-1.13.7-1.74.16-.61-.29-1.15-.24-1.75.13-1.45-.42-2.35-1.16-3.33-.6-.79-4.14-1.56-4.91-.58"/>
  <path id="path5828" class="cls-7" d="m269.71,279.56c.02-.4,0-.79-.04-1.18-.23.43-.21.83.04,1.18"/>
  <path id="path5808" class="cls-7" d="m267.35,250.37c-.37,1.24.52,1.08.55,1.79.04,1.08-.05,2.46.32,3.42.35.92.5,1.72.52,2.74.02.62.73,1.99.77.59.87.39.11,2.43,1.13,2.79,1.5.54.53-1.76.66-2.51.38.17,3.48,1.38,2.1,2.41-.53.39-1.01.87-1.5,1.33-.78.73-.24,2.18-.28,3.12.42-.06.62-.34.49-.79.88.02,1.22.58.95,1.57.42-1.17.94-.14.68.45.51-.1,1.22.26,1.69-.22.4-.41.58-1.03,1.02-1.38.14-.11.95-.76,1.11-.59.55.56,1.34.85,1.83,1.46.65.82,1.95,1.93,2.01,3.14.02.41.59,1,.8.29.04-.38-.01-.74-.15-1.08-.05-.19-.64-1.32-.27-1.18-.72-.56-.37-1.77-.83-2.53,1.08-.19,1.9,1.27,2.31,2.1.56,1.13,1.73,1.19,2.15,2.58.11.36-.31,1.07.14,1.19.49.12.88.53,1.32.79.35.2.62.79,1.06.54.32-.18.83-.72,1.2-.63-.14.69-1.28,1-.87,1.8.07.15.85,1.65,1.16.91.48-1.15.47-5.15-1.58-3.66-.17-.48.09-.79.04-1.26-.05-.59-.69-1.43-1.1-1.72-1.07-.77,1.48-1.52,2.07-1.12-.01-.83-1.14-1.16-1.73-1.22-1-.11-1.05-1.08-1.86-1.25-.3.78.84,1.92-.28,2.36-.82.32-.8-1.83-1.06-2.49-.54-1.36-3.35-2.58-3.6-.03-.09-.23-.2-.46-.31-.67-.75.7.55,1.14.11,1.63-.74.83-1.92-.3-2.32-.85-.36-.49-1.75-4.01-.41-4.1-1.1-.96-2.03-3.74-1.29-5.33.5-1.09.14-2.08.59-3.03.57-1.18,1.97-1.26,2.78-2.13-.12.32-.24.64-.37.96.69-.77.61-1.67,1-2.58.59-1.39,1.34-2.88,1.3-4.38-.73.37-.29-.71-.46-1.07-.49-.99-1.2-1.02-1.41-2.39-.21-1.4-.05-2.48.63-3.8.35-.68-.2-2.55-.86-1.56-.26.4-.41,1.27-.98,1.15-.35-.07-1.06-.54-1.44-.08-.13-.47-.49-.8-.83-1.06-.68-.53-1.56-1.32-2.49-.98-.4.15-.79-.09-1.16-.13-.35-.04-.15.55-.48.55-.95,0-.42.6-.52,1.23-.17,1.14-.66,2.55-.95,3.7-.52,2.11.65,3.97-.01,6.21-.54,1.82-.04,3.18-.03,4.87.01,2.1-2.45-.7-2.54-1.59-.67.36-.7,1.12-.56,1.74"/>
  <path id="path5826" class="cls-7" d="m275.33,228.59c.17.38.44.63.82.73.25-.64-.3-1.07-.82-.73"/>
  <path id="path5830" class="cls-7" d="m275.16,232.07c.18-.02.37-.04.55-.06-.26-.14-.37-.25-.55.06"/>
  <path id="path5836" class="cls-7" d="m277.86,232.24c.37-.28.6-.73.54-1.18-.36.32-.54.72-.54,1.18"/>
  <path id="path5842" class="cls-7" d="m277.87,258.01c.08.69.24,2.01.86,2.3.39-.84.5-3.53-.86-2.3"/>
  <path id="path5844" class="cls-7" d="m279.64,264.74c-.07-.68-.81-1.16-1.31-1.35.26.64.83.97,1.31,1.35"/>
  <path id="path5846" class="cls-7" d="m277.72,268.5c-.17,1.26,1.45,2.2,1.7.4.13-.92-1.32-1.42-1.7-.4"/>
  <path id="path5848" class="cls-7" d="m280.06,259.92c.21-.54.07-.69-.44-.45.15.15.29.3.44.45"/>
  <path id="path5850" class="cls-7" d="m277.92,279.79c1.56.32,1.05,1.74.89,3.13-.11,1.01-.03,1.73-.37,2.74-.34,1.06.1,2.06-.32,3.1.89.22,1.64-1.57,2.63-1.57.65,0,1.95-1.08,1.83-1.82-.1-.65,1.98-.89,1.79-1.81-.26-1.22.66-2.9-1.18-1.48.47-.52-.1-1.24-.61-1.11-.48.12-.84.79-1.19.3-.4-.55-.66-1.18-1.25-1.51-.55-.31-1.3-.45-1.62-1.11-.29.32-.49.69-.59,1.12"/>
  <path id="path5852" class="cls-7" d="m278.76,274.85c-.16,1.01-.6,1.88,0,2.75.23-1.15.41-2.31.72-3.44.18-.64-1.12-.23-.72.69"/>
  <path id="path5854" class="cls-7" d="m280.42,260.2c.17-.02.33-.04.5-.06-.17-.03-.33-.01-.5.06"/>
  <path id="path5856" class="cls-7" d="m280.09,274.85c.42.07.39-.11-.1-.56.03.19.07.37.1.56"/>
  <path id="path5862" class="cls-7" d="m278.34,310.95c-.34,1.59,1.52,2.26,1.76.4.09-.68.45-2.54.91-2.75.37-.16.76-2.62,1.53-1.9.56.52.25,1.64.69,2.22.18-.99.47-.51.69,0,.22-.61.11-1.45.78-1.74.27.41.19.89-.17,1.24.67.03,1.04.98,1.72.84-.19-.34-.41-.8-.37-1.24.02-.25.49-.22.56-.45.18-.61-.41-.47.3-1.06.44-.36.82.28,1.12.5,1.03.78,2,.99,2.27,2.63.14.89-.95,1.73-1.09,2.68-.14.95.24,2.27.36,3.21.19,1.45,1.24,2.32,2.29,2.96.48.29,2.16,1.61,2.73,1.06.45-.44.28-1.46,1.09-1.41.08,0-.4,4.34.8,3.42.84-.63,1.65-2.82,1.59-3.88-.09-1.5-1.04-2.12-1.48-3.33-.26-.73,1.51-4.81,2.04-4.51.41.23,1.21,2.54,1.37,3.11.15.55.01,1.12.03,1.69.01.83.56,1.38.62,2.18.08-1.3.68-2.99-.11-4.1.43-.23.76.06.9.51-.68-.74.43-1.48.82-2.04.74-1.07.35-2.64.23-3.79-.1-.94-1.17-.95-.69-1.97.28-.59.39-2.12-.56-1.64,1.66-1.55-1.19-2.05-1.11-2.86.05-.47.86-.7,1.05-1.16.33-.83-.46-1.17-.63-1.81-.08-.3.29-1.76-.22-1.47-.64.37-.74.11-1.05-.44-.36-.65.06-1.03-.79-1.33-.94-.34-1.06-1.33-1.87-1.75-.58,1.27.22,2.93.49,4.13.06.27.35,1.28-.09,1.43-.58.19-1.34.03-1.55-.67-.55,1.65-.07,1.79-1.36.71-1.21-1.01-.33,2.98-1.39,3.15-.68.11-.76-.83-1.4-.51-.67.34-.56,1.7-.8,2.34-.29.77-1.24.42-1.75.88-.29.26-.81.88-1.2.9-.4.02.54-.71.45-.65.52-.39.64-.6.56-1.34-.07-.57-.6-3.33-1.5-2-.1-.46-.32-1.04-.83-1.01.2,1.54-1.45.95-1.89,1.79-.52.99-.17,1.9-1.27,2.31-1.11.41-2.69.05-3.29,1.63-.26.68-.16,1.47-.27,2.17-.14.94-.61,1.87-.99,2.71"/>
  <path id="path5864" class="cls-7" d="m281.41,274.85c-.19.13-.37.28-.53.45.38.38.78.75,1.12,1.18.53-.74.2-1.63-.59-1.63"/>
  <path id="path5866" class="cls-7" d="m281.76,295.56c.45.38,1.11.37,1.47.9.3.44.09,1.15.46,1.55.51.55,1.25-.11,1.55-.65.56-1.02-.33-1.71-.51-2.6-.35-1.64.34-4.05.87-5.64.45-1.21,1.72-2.85.33-3.74-.46-.29-1.08-.39-1.61-.12-.92.46-.63,1.33-.93,2.17-.19.54-.67.71-.56,1.35.14.71.37,1.48.08,2.23-.43,1.12-2.19.4-2.23,1.65-.03,1.05.62,2.1,1.08,2.91"/>
  <path id="path5868" class="cls-7" d="m281.39,289c.46-.23,1.63-1.78.73-2.04-.68-.2-1.03,1.62-.73,2.04"/>
  <path id="path5870" class="cls-7" d="m285.75,273.56c-.47-1.04-.99-2.46-1.98-2.98-.6.99,1.65,2.33,1.98,2.98"/>
  <path id="path5872" class="cls-7" d="m284.78,278.22c-.03.21-.07.41-.1.62.74-.54,1.45-2.67,2.18-1.56.29.45.63.87.88,1.35.32.62,1.1.65,1.44,1.27.91-1.67-.99-2.69-1.57-3.61-.26-.41-.69-.86-1.01-1.18-.19-.2-1.3-.83-1.56-.82.13.53-.15,1.95.03,2.27.44.78-.17.82-.29,1.66"/>
  <path id="path5876" class="cls-7" d="m287.3,274.85c.14.41.36.77.64,1.07-.03-.76-.13-1.69-.74-2.08-.19.39-.15.73.1,1.01"/>
  <path id="path5878" class="cls-7" d="m285.94,291.75c0,1.17-.38,2.32-.54,3.48,1.38.42,1.29-3.39,1.9-4.15.75-.94,1.53-1.7,1.76-3,.29-1.55,0-3.08.19-4.64-.69.16-1.11,2.59-1.28,3.19-.52,1.8-1.6,3.33-2.02,5.12"/>
  <path id="path5880" class="cls-7" d="m289.12,270.02c.13-.38-.03-.46-.46-.22.15.07.31.15.46.22"/>
  <path id="path5884" class="cls-7" d="m290.1,268c1.35-.99,1.44-3.22-.16-3.59-.62,1.15-.49,2.8.16,3.59"/>
  <path id="path5886" class="cls-7" d="m290.12,270.36c-.14-.15-.32-.19-.53-.11.18.04.35.08.53.11"/>
  <path id="path5890" class="cls-7" d="m288.27,293.66c-.23,2.19,3.3-.3,3.73-.11-.21-1.13-.12-3.35-1.91-2.79-.63.19-2.63,2.29-1.82,2.91"/>
  <path id="path5894" class="cls-7" d="m290.48,274.85c.27,1.19.63,2.22,1.43,3.03.45.46,1.78,2.27,2.42,1.97-.26.56-.3,1.29-.93,1.52.27.28.49.62.64,1.01-.46-.66-.84.18-1.29.46-.7.44-1.62-.78-1.85-1.36-.55.69.06,4.02.77,4.38.01-1.51,1.37.44,1.34,1.21-.09,1.96-.48,3.47,1.27,4.41-.05-.59-.28-1.13-.25-1.74.27.37,1.26.4,1.39-.23.07-.35-.51-1.98-.66-2.32-.34-.8-.48-.7-.45-1.77.02-.7.26-1.79-.23-2.3.42-.12,1.45,1.16,1.46,1.15.5-.6,2.12.17,2.55.48-.32-.5-.51-1.2-1.09-1.4.83-.68-.52-2.67-.52-3.47,0-.85.41-1.6.07-2.32-.22-.46.75-.33.01-.86-.4-.29-.96-.08-.84-.84.14-.98-.6-1.02-1.2-1.17-.65-.17-.86-.18-1.59.08-.83.29-1.64-.52-2.44.11"/>
  <path id="path5896" class="cls-7" d="m291.54,281.87c.85.15.43-2.17-.69-1.46.18.51.25,1.15.69,1.46"/>
  <path id="path5904" class="cls-7" d="m295.18,291.75c.17.18.35.37.51.56-.07-.53-.25-1.42-.91-1.18.12.22.25.43.4.62"/>
  <path id="path5906" class="cls-7" d="m297.13,291.75c.37.31.4.79.04,1.18.72.12.62-1.07.56-1.53-.07-.48-.31-.91-.35-1.39-.04-.44.24-.79.12-1.23-1,.47-.28,1.41-.86,2.13.39.07.63.37.49.84"/>
  <path id="path5912" class="cls-7" d="m299.07,294.72c.36-.4.15-.93-.18-1.18-.08.43-.02.82.18,1.18"/>
  <path id="path5914" class="cls-7" d="m299.53,291.75c-.27.38-.57,1.97.22,1.76.8-.21.3-1.65-.22-1.76"/>
  <path id="path5920" class="cls-7" d="m290.6,287.82c-.01-.21-.03-.41-.04-.62.55.09.56.3.04.62"/>
  <path id="path5924" class="cls-7" d="m294.04,282.37c.07.23.08.48.03.73-.08-.23-.09-.47-.03-.73"/>
  <path id="path5936" class="cls-7" d="m286.91,284.78c-.16-2.19,2.34-1.07,0,0"/>
  <path id="path3472" class="cls-7" d="m185.67,288.77c-.24.36-.54.54-.92.56.64.58.65,1.58,1.12,2.3-.2-.96.56-2.09-.2-2.86"/>
  <path id="path6024" class="cls-7" d="m180.63,282.26h-.29c.09.23.21.43.35.62-.02-.21-.04-.41-.05-.62"/>
  <path id="path6026" class="cls-7" d="m181.82,287.2c.27-.47.14-.66-.4-.56.12.2.25.39.4.56"/>
  <path id="path6044" class="cls-8" d="m177.11,269.46c.07-.59.1-1.18-.03-1.74,1.62.06,2.57-2.61,3.21-3.96.69-1.48,3.44-2.38,4.49-1.56.52.4,1.43.21,2.05-.03.81-.31,1.38.21,2.23-.17,1.54-.69,2.13,1.89,2.94.39-.13,2.35,2.48.71,3.14,2.27.32.76,1.69.8,1.68-.36,0-.64-1.17-1.43-.36-2.03.34-.25.59.26.75-.33.13-.48.46-.31.79-.34.4-.04.41-.68.75-.71.45-.04.84.67,1.13.94,1.29,1.18,3.38-.54,4.22-1.85-.04.43-.01.93-.19,1.35-.19.46-.83.68-.73,1.27.09.56-.1,1.14-.03,1.7.08.59.38,1.29.52,1.87.35,1.41,1.04,1.95.5,3.63-.24.77-.65,1.46-.46,2.25.14.61.48,1.2.49,1.86,0,.64-.32,1.53-.59,2.1-.37.77-.45-.23-.99.09-.68.4-1.15,1.14-1.8,1.58-.93.64-1.62.54-2.64.82.39.6-.08,1.37.18,2.02-.55-.12-1.91-1.26-2.41-.48-.33.51-.94.59-.87,1.25.08.7.23,1.48.5,2.1.31.72,1.44.76,1.48,1.79-.65.11-.13.62-.19,1.24-.44-.17-.97-.15-1.36-.46-.34-.27-.44-1.09-.97-.98-1.02.23-2.41,1.34-3.26.31-.57.62,0,1.44-.72,2.21-.71.74-1.27.37-2.05.72-.58.26-.69.67-1.35.33-.65-.33-2.02-.56-2.3-1.35.12.83-.92,1.4-1.41.86-.64-.72,0-.87.45-1.37.52-.58.06-2.12-.35-2.52-.73-.72-.96,1.16-1.13,1.62-.45-.47-.8.21-1.22-.04-.64-.38-.14-1.6-.26-2.24-.1-.58.46-1.41-.04-1.83-.34-.29-1.05-1.31-.12-1.45-.37-.24-.65,0-.77.45.2-.96-.45-1.81-.68-2.64-.25-.93.27-2.23-.17-3.05-.94-1.77-1.61-3.45-2.06-5.53"/>
  <path id="path6028" class="cls-7" d="m301.75,104.18c-.73.37-.47,1.73.41,1.12.03-.47-.09-.88-.41-1.12"/>
  <path id="path6030" class="cls-7" d="m301.38,113.67c-.03-.35-.17-.63-.41-.84-.1.42.06.75.41.84"/>
  <path id="path6032" class="cls-7" d="m300.92,123.72c-.6.43-.57.64.07.62-.03-.21-.05-.41-.07-.62"/>
  <path id="path6034" class="cls-7" d="m301.08,126.53c-.18-.24-.43-.41-.74-.5-1.01,1.66.71,1.24.74.5"/>
  <path id="path6036" class="cls-7" d="m303.66,132.93c-.68-.07-4.22.88-3.2,2.03,1.06,1.19,4.94-1.51,3.2-2.03"/>
  <path id="path6038" class="cls-7" d="m302.46,127.37c.04.31.24.44.58.39,0-.39-.19-.53-.58-.39"/>
  <path id="path6040" class="cls-7" d="m308.84,123.67c-.49,1.11.11,1.24.96,1.24.12-.57-.56-1.09-.96-1.24"/>
  <path id="path6042" class="cls-7" d="m312,124c.26,1.5,2.01-.24,1.03-.79-.19.46-.61.76-1.03.79"/>
  <path id="path6046" class="cls-8" d="m302.19,104.75c.73-.61.65.54,1.09.62-1.42-.81.59-3.57,2.28-4.39,1.39-.68,2.5.05,3.78-.18.4-.07.82,0,1.25-.24,1.04-.59.51-1.12,1.1-1.81,1.25,1.56,1.72,3.8,2.79,5.51.97,1.55,2.08,3.08,2.55,4.99.35,1.43-.19,2.91-.25,4.51-.02.45-.03,3.61.88,2.12.32.78-.09,3.05-.75,4.04-.12-.16-.22-.33-.32-.51-.14,1.28-.41,2.68-2.03,3.37.21-.71-1.42-.46-2.03-.9.12,1.04-.55.28-1.07,1.18.87-.43.55.62.16,1.18.02-1.31-2.05-.1-1.79-1.63-.57,1.26-1.62.36-2.38,1.35.14.26.47.37.67.56.38.36-.65.3-.6,1.12-.39-.44-.2-1.24-.59-1.68-.22.28-.46.54-.72.79.22.41.67.67.66,1.23-.26.02-.52.02-.77,0,.13.12.26.25.36.39-.72.86-1.02-.19-1.25-.5.63.18,1.27-1.24.38-1.12-.79.1-1.59,1.68-1.87,2.3-.35-.18-.59-.46-.71-.84-.22.56-.65,1.06-1,1.57-.55-.17-.62-.85-.08-1.46-.53.03-1.82-.43-1-1.29-.04.41.16.7.54.73-.15-.59.01-.74.49-.45-.23-.24-.5-.43-.82-.56.37.07.74-.06,1.13-.39-.06-.21-.17-.38-.32-.51-.7,1.5-1.19-1.31-1.44-1.63.28.15.6.2.97.17-.64-.54.07-2.78,1.22-3.2-.35-.03-.69-.09-1.02-.17.25-.37.56-.64.95-.81.4-.21.59-.89.91-1.21-.41.12-.77.12-1.09,0,.35-.44.81-.82,1.29-1.07-1.54,1.28-2.49-1.62-1.39-2.75-.83.38-.55-.25-.45-.77.11-.54-.63-1.38-1.01-.3-.1-.66-.95-.61-.83-1.4.52,0,.85-.18.71-.79,0,.83.11.83.31,0,.46-.08.68.16.57.62.49-.41.61-.78.38-1.12.56.69,1.66.54,1.52,1.8-.01-.47.46-.86.9-1.12-.58.11-1.12-.26-.57-.96-.96.53-1.36-1.43-.02-1.29-.58-.19-.92-.8-1.18-1.32,0-.29,0-.58.03-.87-.12-.39-.53-.39-.49-.91"/>
  <path id="path6498" class="cls-7" d="m60.6,307.91c-.08,2.5.39,12.74,4.44,11.24,1.85-.69,4.61-2.12,5.65-4.13.85-1.65,1.31-4.56.38-6.21-.01.29-.84-1.71-1.05-1.97,1.22,1.04-.25-1.14-.42-1.49-.55-1.1-.52-2.37-.97-3.51-.39.36-.79.24-1.02-.22,1.2.11-1.39-3.79-1.52-4.35-.14-.6-3.07-4.67-3.66-4.08.63.17.95.87,1.37,1.35-.65-.44-1.81-2.38-2.65-1.18.35.63,1.03.69,1.47,1.18.11-.69,1.66.42,1.97.95-.29-.26-1.88-.69-2.33-.67.32.53,0,.54-.25.91-.34.5.33,1.33-.13,2.14-1.07,1.89-1,5.24-1.15,7.45-.77-.26-.37-1.43-.37-2.08-.81,1.35.16,3.26.23,4.66"/>
  <path id="kp" class="cls-8" d="m291.08,88.8c.62-.71,1.34-1.3,2.01-1.96.49-.48,1.07-.22,1.39-.72.66-1.04,2.61-.99,3.06-2.03.27-.63.78-.34,1.18-.44.72-.2,1.21-1.4,1.83-1.86,1.39-1.03,1.18-3.05,2.37-3.59.47-.21.94-.79,1.3-.53.52.37.68,1.04,1.16,1.45.84.72,2.14.8,3.43.92.72.07,2.2.18,2.34-1.12.06-.56-.58-.65-.8-1.01-.29-.49-.36-1.13-.46-1.74,1.37-.32,2.67-.2,3.96-.32,1.7-.16,1.4-1.23,2.19-2.09.68-.74,1.41-.25,2.07-.5.95-.35,1.1-3.05,1.24-3.6,1.18-.07,2.01.18,2,1.22-.02,1.49,2,1.89,2.28,3.27-.69.38-.79-.18-1.35-.08-.34.06-1.01.95-1.23,1.19-.84.92-2.56,2.5-2.87,3.53-.22.73,1.62,4.38-.32,5.21-.65.27-1.4.5-1.94,1.11-.35.39-.25.91-.69,1.23-.65.46-1.14.48-1.76,1.12-.49.5-.93,1.09-1.51,1.49-.67.46-1.28.33-1.94.58-.57.22-1.09.65-1.62,1.01-.72.49-1.32.73-.92,1.3.34.47.03,1.41-.15,2.09.15-.91-.37-.41-.6.24-.43,1.24,1.04.75,1.6,1.27.84.78,4.06,2.46,3.09,4.26-1.42,2.63-4.87-.15-6.92,1.89-.73.73-1.46,2.78-2.2,2.63-.39-.08-2.35-.9-2.05.44-.34-.32-1.17-.5-1.39-.86-.34-.56-.76-1.01-1.56-1.05.21.27.46.5.76.67-.56.06-1.08,1.08-2.02,1.68-.13-.75.62-.44.75-.9.16-.63-.48-.92-.81-.06,0-.95-1.59-.02-1.69-.95,1.21,0,.09-.97,1.16-.51-.34-.74-1.85-.33-2.61-.51.31-.46.75-.68,1.1-.5-.72-.74.73-1.9.37-2.75.52.6.62-.51,1.61-.56.61-.04,1.34.06,1.72.4-.04-1.43-3.25.02-2.42-2.02.33-.8,1.24-1.98,1.36-2.73.12-.76-.66-.68.07-1.65-1.71.91-2.62-.79-3.56-1.29.09.41-.11.78-.59,1.12.17-.76-.34-1.07-.83-1.35-.27-.16-1.38-1.41-.14-1.45-.15-.19-.3-.38-.45-.56"/>
  <path id="path2786" class="cls-7" d="m295.94,420.72c.35,1.08,1.22.87,2.29.09,1.02-.75.76-.24,1.92-.77,1.86-.86,4.57-1.68,5.77-3.67.69-1.15-1.37-.91-1.81-.76-1.18.41-2.24.59-3.46.83-1.31.26-2.54.23-3.87.56-.5.13-1.2.05-1.61.45-.43.42-.44,1.16-.89,1.57,1.18.63,2,.78,1.52,1.82"/>
  <path id="path2788" class="cls-7" d="m289.23,422.76c.85-.77,1.88-1.28,2.97-1.52-.12.9-.83,1.43-.84,2.27-.13-.23-.26-.45-.41-.67-.44.77-1.14.16-1.72-.08"/>
  <path id="sg-" class="cls-7" d="m184.39,349.57c-.65.2.35,1.62,1.22.28-.39-.21-.79-.31-1.22-.28"/>
  <path id="path6044-2" data-name="path6044" class="cls-9" d="m179.58,278.05c-.25-.93.27-2.23-.17-3.05-.94-1.77-1.61-3.45-2.06-5.54"/>
  <path id="path6046-2" data-name="path6046" class="cls-9" d="m303.53,105.36c-1.42-.81.59-3.57,2.28-4.39,1.39-.68,2.5.05,3.78-.18.4-.07.82,0,1.25-.24,1.03-.59.51-1.12,1.1-1.81"/>
  <line id="line5296" class="cls-9" x1="294.37" y1="418.99" x2="296.66" y2="421.39"/>
  <polyline id="polyline5298" class="cls-9" points="288.55 422.11 291.46 423.55 292.08 421.15"/>
</svg>