<?xml version="1.0" encoding="utf-8"?>
<!-- Generator: Adobe Illustrator 23.0.3, SVG Export Plug-In . SVG Version: 6.00 Build 0)  -->
<svg version="1.1" id="Layer_1" xmlns="http://www.w3.org/2000/svg" xmlns:xlink="http://www.w3.org/1999/xlink" x="0px" y="0px"
	 viewBox="0 0 1063 306" style="enable-background:new 0 0 1063 306;" xml:space="preserve">
<style type="text/css">
	.st0{opacity:0.71;fill-rule:evenodd;clip-rule:evenodd;fill:#BAC3C9;}
</style>
<g>
	<path id="Fill-11" class="st0" d="M196,0.5c-19.6,0-35.5,15.8-35.5,35.3v13.1h156.1c19.6,0,35.5-15.8,35.5-35.3V0.5H196"/>
	<path id="Fill-11_3_" class="st0" d="M104.9,64.3c-19.6,0-35.5,15.8-35.5,35.3v13.1H186c19.6,0,35.5-15.8,35.5-35.3V64.3H104.9"/>
	<path id="Fill-11_7_" class="st0" d="M119.5,129.5c-19.6,0-35.5,15.8-35.5,35.3v13.1h246.3c19.6,0,35.5-15.8,35.5-35.3v-13.1H119.5
		"/>
	<path id="Fill-11_10_" class="st0" d="M35.7,192c-19.6,0-35.5,15.8-35.5,35.3v13.1h101.4c19.6,0,35.5-15.8,35.5-35.3V192H35.7"/>
	<path id="Fill-11_14_" class="st0" d="M106.2,257.2c-19.6,0-35.5,15.8-35.5,35.3v13.1h199.1c19.6,0,35.5-15.8,35.5-35.3v-13.1
		H106.2"/>
	<path id="Fill-11_15_" class="st0" d="M362.2,257.2c-19.6,0-35.5,15.8-35.5,35.3v13.1h327.5c19.6,0,35.5-15.8,35.5-35.3v-13.1
		H362.2"/>
	<path id="Fill-11_16_" class="st0" d="M746,257.2c-19.6,0-35.5,15.8-35.5,35.3v13.1h157.2c19.6,0,35.5-15.8,35.5-35.3v-13.1H746"/>
	<path id="Fill-11_11_" class="st0" d="M193.3,192c-19.6,0-35.5,15.8-35.5,35.3v13.1h242.4c19.6,0,35.5-15.8,35.5-35.3V192H193.3"/>
	<path id="Fill-11_12_" class="st0" d="M493.9,192c-19.6,0-35.5,15.8-35.5,35.3v13.1h326.2c19.6,0,35.5-15.8,35.5-35.3V192H493.9"/>
	<path id="Fill-11_13_" class="st0" d="M877,192c-19.6,0-35.5,15.8-35.5,35.3v13.1h118c19.6,0,35.5-15.8,35.5-35.3V192H877"/>
	<path id="Fill-11_8_" class="st0" d="M426.1,129.5c-19.6,0-35.5,15.8-35.5,35.3v13.1h246.3c19.6,0,35.5-15.8,35.5-35.3v-13.1H426.1
		"/>
	<path id="Fill-11_9_" class="st0" d="M733.4,129.5c-19.6,0-35.5,15.8-35.5,35.3v13.1H998c19.6,0,35.5-15.8,35.5-35.3v-13.1H733.4"
		/>
	<path id="Fill-11_4_" class="st0" d="M279.1,64.3c-19.6,0-35.5,15.8-35.5,35.3v13.1h326.2c19.6,0,35.5-15.8,35.5-35.3V64.3H279.1"
		/>
	<path id="Fill-11_5_" class="st0" d="M663.5,64.3c-19.6,0-35.5,15.8-35.5,35.3v13.1h242.4c19.6,0,35.5-15.8,35.5-35.3V64.3H663.5"
		/>
	<path id="Fill-11_6_" class="st0" d="M962.8,64.3c-19.6,0-35.5,15.8-35.5,35.3v13.1h100c19.6,0,35.5-15.8,35.5-35.3V64.3H962.8"/>
	<path id="Fill-11_1_" class="st0" d="M409.2,0.5c-19.6,0-35.5,15.8-35.5,35.3v13.1H700c19.6,0,35.5-15.8,35.5-35.3V0.5H409.2"/>
	<path id="Fill-11_2_" class="st0" d="M793.7,0.5c-19.6,0-35.5,15.8-35.5,35.3v13.1h200c19.6,0,35.5-15.8,35.5-35.3V0.5H793.7"/>
</g>
</svg>
