<?xml version="1.0" encoding="UTF-8"?>
<svg width="23px" height="23px" viewBox="0 0 23 23" version="1.1" xmlns="http://www.w3.org/2000/svg" xmlns:xlink="http://www.w3.org/1999/xlink">
    <title>Close Dark</title>
    <g id="Mockups" stroke="none" stroke-width="1" fill="none" fill-rule="evenodd">
        <g id="EdgeConneX-Page-Builder---Global-R1" transform="translate(-1824.000000, -133.000000)" fill="#494B59">
            <g id="Alert-Bar" transform="translate(0.000000, 107.000000)">
                <g id="Close-Dark" transform="translate(1823.991378, 25.991378)">
                    <path d="M-3.17677734,9.91332137 L23.0034201,9.91332137 C24.7560169,9.91332137 26.1767773,11.3340818 26.1767773,13.0866786 L26.1767773,13.0866786 L26.1767773,13.0866786 L-0.00342007442,13.0866786 C-1.7560169,13.0866786 -3.17677734,11.6659182 -3.17677734,9.91332137 L-3.17677734,9.91332137 L-3.17677734,9.91332137 Z" id="Rectangle-Copy" transform="translate(11.500000, 11.500000) rotate(45.000000) translate(-11.500000, -11.500000) "></path>
                    <path d="M-3.17677734,9.91332137 L23.0034201,9.91332137 C24.7560169,9.91332137 26.1767773,11.3340818 26.1767773,13.0866786 L26.1767773,13.0866786 L26.1767773,13.0866786 L-0.00342007443,13.0866786 C-1.7560169,13.0866786 -3.17677734,11.6659182 -3.17677734,9.91332137 L-3.17677734,9.91332137 L-3.17677734,9.91332137 Z" id="Rectangle-Copy-2" transform="translate(11.500000, 11.500000) rotate(-45.000000) translate(-11.500000, -11.500000) "></path>
                </g>
            </g>
        </g>
    </g>
</svg>