<?xml version="1.0" encoding="UTF-8"?>
<svg width="1085px" height="309px" viewBox="0 0 1085 309" version="1.1" xmlns="http://www.w3.org/2000/svg" xmlns:xlink="http://www.w3.org/1999/xlink">
    <title>Motion Grid</title>
    <g id="Mockups" stroke="none" stroke-width="1" fill="none" fill-rule="evenodd" opacity="0.05">
        <g id="EdgeConneX-Page-Builder---Elements-R1" transform="translate(-835.000000, -16133.000000)" fill="#FFFFFF">
            <g id="Split-Section-Image-Right-Copy-2" transform="translate(0.000000, 15807.000000)">
                <path d="M1576.14078,548 L1576.14078,571.298975 C1576.14078,605.964518 1548.04015,634.067961 1513.37808,634.067961 L1178.31553,634.067961 L1178.31553,610.768986 C1178.31553,576.099298 1206.41616,548 1241.07616,548 L1576.14078,548 Z M2057.16505,548 L2057.16505,571.298975 C2057.16505,605.964518 2029.16537,634.067961 1994.62782,634.067961 L1601.96117,634.067961 L1601.96117,610.768986 C1601.96117,576.099298 1629.95671,548 1664.4984,548 L2057.16505,548 Z M1286.37864,436.932039 L1286.37864,460.231014 C1286.37864,494.896557 1258.3098,523 1223.68693,523 L835,523 L835,499.701025 C835,465.031337 863.068844,436.932039 897.691708,436.932039 L1286.37864,436.932039 Z M1504.41748,436.932039 L1504.41748,460.231014 C1504.41748,494.896557 1476.41184,523 1441.86694,523 L1312.19903,523 L1312.19903,499.701025 C1312.19903,465.031337 1340.19847,436.932039 1374.7475,436.932039 L1504.41748,436.932039 Z M1837.21359,436.932039 L1837.21359,460.231014 C1837.21359,494.896557 1809.29672,523 1774.86131,523 L1525.45631,523 L1525.45631,499.701025 C1525.45631,465.031337 1553.36701,436.932039 1587.80653,436.932039 L1837.21359,436.932039 Z M2178.6165,436.932039 L2178.6165,460.231014 C2178.6165,494.896557 2150.69963,523 2116.26422,523 L1866.85922,523 L1866.85922,499.701025 C1866.85922,465.031337 1894.76992,436.932039 1929.20944,436.932039 L2178.6165,436.932039 Z M1576.14078,326 L1576.14078,349.298975 C1576.14078,383.964518 1548.04015,412.067961 1513.37808,412.067961 L1178.31553,412.067961 L1178.31553,388.768986 C1178.31553,354.099298 1206.41616,326 1241.07616,326 L1576.14078,326 Z M2057.16505,326 L2057.16505,349.298975 C2057.16505,383.964518 2029.16537,412.067961 1994.62782,412.067961 L1601.96117,412.067961 L1601.96117,388.768986 C1601.96117,354.099298 1629.95671,326 1664.4984,326 L2057.16505,326 Z M1152.49515,326 L1152.49515,349.298975 C1152.49515,383.964518 1124.33783,412.067961 1089.60583,412.067961 L916.286408,412.067961 L916.286408,388.768986 C916.286408,354.099298 944.443727,326 979.175725,326 L1152.49515,326 Z" id="Motion-Grid"></path>
            </g>
        </g>
    </g>
</svg>