<?xml version="1.0" encoding="UTF-8"?>
<svg width="104px" height="44px" viewBox="0 0 104 44" version="1.1" xmlns="http://www.w3.org/2000/svg" xmlns:xlink="http://www.w3.org/1999/xlink">
    <title>Hamburger</title>
    <g id="Mockups" stroke="none" stroke-width="1" fill="none" fill-rule="evenodd">
        <g id="Homepage-R2" transform="translate(-1743.000000, -103.000000)" fill="#FFFFFF">
            <g id="Hamburger" transform="translate(1743.000000, 103.000000)">
                <path d="M30,0 L100,0 C102.209139,-4.05812251e-16 104,1.790861 104,4 L104,8 L104,8 L34,8 C31.790861,8 30,6.209139 30,4 L30,0 L30,0 Z" id="Rectangle"></path>
                <path d="M15,18 L85,18 C87.209139,18 89,19.790861 89,22 L89,26 L89,26 L19,26 C16.790861,26 15,24.209139 15,22 L15,18 L15,18 Z" id="Rectangle-Copy"></path>
                <path d="M0,36 L70,36 C72.209139,36 74,37.790861 74,40 L74,44 L74,44 L4,44 C1.790861,44 2.705415e-16,42.209139 0,40 L0,36 L0,36 Z" id="Rectangle-Copy-2"></path>
            </g>
        </g>
    </g>
</svg>