<?xml version="1.0" encoding="UTF-8"?>
<svg width="312px" height="129px" viewBox="0 0 312 129" version="1.1" xmlns="http://www.w3.org/2000/svg" xmlns:xlink="http://www.w3.org/1999/xlink">
    <!-- Generator: Sketch 63.1 (92452) - https://sketch.com -->
    <title>Group 25 Copy</title>
    <desc>Created with Sketch.</desc>
    <g id="Symbols" stroke="none" stroke-width="1" fill="none" fill-rule="evenodd" fill-opacity="0.25">
        <g id="Footer" transform="translate(-1047.000000, -173.000000)" fill="#494B59">
            <g id="Footer-Block">
                <g id="Group-25-+-Group-25-Copy-Mask">
                    <g id="Group-25-Copy" style="mix-blend-mode: multiply;" transform="translate(1312.000000, 237.500000) rotate(180.000000) translate(-1312.000000, -237.500000) translate(1047.000000, 173.000000)">
                        <path d="M423.874065,36 L269,36 L269,26.2540095 C269,11.7546597 280.696454,0 295.125072,0 L450,0 L450,9.74599046 C450,24.2453403 438.302683,36 423.874065,36" id="Fill-1"></path>
                        <path d="M231.852159,36 L51,36 L51,26.2540095 C51,11.7546597 62.7062617,0 77.1469776,0 L258,0 L258,9.74599046 C258,24.2453403 246.292875,36 231.852159,36" id="Fill-7"></path>
                        <path d="M269.859758,83 L0,83 L0,73.2540095 C0,58.7546597 11.7028595,47 26.1393786,47 L296,47 L296,56.7459905 C296,71.2453403 284.296277,83 269.859758,83" id="Fill-10"></path>
                        <path d="M456.823482,83 L307,83 L307,73.2540095 C307,58.7546597 318.7191,47 333.176518,47 L483,47 L483,56.7459905 C483,71.2453403 471.280036,83 456.823482,83" id="Fill-13"></path>
                        <path d="M302.811093,129 L163,129 L163,119.25401 C163,104.75466 174.724647,93 189.188042,93 L329,93 L329,102.74599 C329,117.246207 317.274489,129 302.811093,129" id="Fill-15"></path>
                        <path d="M503.897367,129 L340,129 L340,119.25401 C340,104.75466 351.686884,93 366.102633,93 L530,93 L530,102.74599 C530,117.246207 518.313116,129 503.897367,129" id="Fill-17"></path>
                    </g>
                </g>
            </g>
        </g>
    </g>
</svg>