<?xml version="1.0" encoding="UTF-8"?>
<svg width="422px" height="134px" viewBox="0 0 422 134" version="1.1" xmlns="http://www.w3.org/2000/svg" xmlns:xlink="http://www.w3.org/1999/xlink">
    <!-- Generator: Sketch 63.1 (92452) - https://sketch.com -->
    <title>Divider</title>
    <desc>Created with Sketch.</desc>
    <g id="Designs" stroke="none" stroke-width="1" fill="none" fill-rule="evenodd">
        <g id="Hyperscale-2020-07" transform="translate(0.000000, -3299.000000)">
            <g id="Divider" style="mix-blend-mode: multiply;" transform="translate(-80.000000, 3299.000000)">
                <path d="M439.86367,37 L279,37 L279,26.9832876 C279,12.0811781 291.148803,0 306.135434,0 L467,0 L467,10.0167124 C467,24.9188219 454.850301,37 439.86367,37" id="Fill-1" fill="#FFCF3D"></path>
                <path d="M240.841614,37 L53,37 L53,26.9832876 C53,12.0811781 65.1586776,0 80.1574888,0 L268,0 L268,10.0167124 C268,24.9188219 255.840426,37 240.841614,37" id="Fill-7" fill="#F4F7F9"></path>
                <path d="M279.88833,86 L0,86 L0,75.9832876 C0,61.0811781 12.1377631,49 27.1107745,49 L307,49 L307,59.0167124 C307,73.9188219 294.861342,86 279.88833,86" id="Fill-10" fill="#27588D"></path>
                <path d="M474.782371,86 L319,86 L319,75.9832876 C319,61.0811781 331.185201,49 346.217629,49 L502,49 L502,59.0167124 C502,73.9188219 489.813901,86 474.782371,86" id="Fill-13" fill="#F4F7F9"></path>
                <path d="M130.842805,134 L56,134 L56,123.983288 C56,109.081178 68.1581446,97 83.1562984,97 L158,97 L158,107.016712 C158,121.919713 145.840959,134 130.842805,134" id="Fill-19" fill="#DE3439"></path>
                <path d="M244.842805,134 L170,134 L170,123.983288 C170,109.081178 182.158145,97 197.156298,97 L393.657195,97 L393.657195,107.016712 C393.657195,121.919713 381.498154,134 366.5,134" id="Fill-19-Copy-2" fill="#019CDB"></path>
            </g>
        </g>
    </g>
</svg>