<?xml version="1.0" encoding="UTF-8"?>
<svg width="299px" height="176px" viewBox="0 0 299 176" version="1.1" xmlns="http://www.w3.org/2000/svg" xmlns:xlink="http://www.w3.org/1999/xlink">
    <!-- Generator: Sketch 63.1 (92452) - https://sketch.com -->
    <title>Group 25</title>
    <desc>Created with Sketch.</desc>
    <g id="Symbols" stroke="none" stroke-width="1" fill="none" fill-rule="evenodd" fill-opacity="0.25">
        <g id="Footer" transform="translate(0.000000, -126.000000)" fill="#494B59">
            <g id="Footer-Block">
                <g id="Group-25-+-Group-25-Copy-Mask">
                    <g id="Group-25" style="mix-blend-mode: multiply;" transform="translate(23.000000, 214.000000) rotate(180.000000) translate(-23.000000, -214.000000) translate(-253.000000, 126.000000)">
                        <path d="M423.874065,36 L269,36 L269,26.2540095 C269,11.7546597 280.696454,0 295.125072,0 L450,0 L450,9.74599046 C450,24.2453403 438.302683,36 423.874065,36" id="Fill-1"></path>
                        <path d="M231.852159,36 L51,36 L51,26.2540095 C51,11.7546597 62.7062617,0 77.1469776,0 L258,0 L258,9.74599046 C258,24.2453403 246.292875,36 231.852159,36" id="Fill-7"></path>
                        <path d="M269.859758,83 L0,83 L0,73.2540095 C0,58.7546597 11.7028595,47 26.1393786,47 L296,47 L296,56.7459905 C296,71.2453403 284.296277,83 269.859758,83" id="Fill-10"></path>
                        <path d="M302.811093,129 L163,129 L163,119.25401 C163,104.75466 174.724647,93 189.188042,93 L329,93 L329,102.74599 C329,117.246207 317.274489,129 302.811093,129" id="Fill-15"></path>
                        <path d="M125.907793,129 L54,129 L54,119.25401 C54,104.75466 65.6813546,93 80.0913455,93 L152,93 L152,102.74599 C152,117.246207 140.317784,129 125.907793,129" id="Fill-19"></path>
                        <path d="M322.799827,176 L218,176 L218,166.253775 C218,151.754076 229.72969,140 244.200173,140 L349,140 L349,149.745358 C349,164.245924 337.269444,176 322.799827,176" id="Fill-23"></path>
                    </g>
                </g>
            </g>
        </g>
    </g>
</svg>