<?xml version="1.0" encoding="UTF-8"?>
<svg width="940px" height="309px" viewBox="0 0 940 309" version="1.1" xmlns="http://www.w3.org/2000/svg" xmlns:xlink="http://www.w3.org/1999/xlink">
    <title>Motion Grid</title>
    <g id="Mockups" stroke="none" stroke-width="1" fill="none" fill-rule="evenodd" opacity="0.5">
        <g id="Form-Options-R1-V2" transform="translate(0, -823)" fill="#FFFFFF">
            <g id="Form-1-Copy" transform="translate(-404, 773)">
                <path d="M678.378076,136.067961 L343.315534,136.067961 L343.315534,112.768986 C343.315534,78.099298 371.416163,50 406.076162,50 L741.140777,50 L741.140777,73.2989754 C741.140777,107.964518 713.040148,136.067961 678.378076,136.067961 M678.378076,358.067961 L343.315534,358.067961 L343.315534,334.768986 C343.315534,300.099298 371.416163,272 406.076162,272 L741.140777,272 L741.140777,295.298975 C741.140777,329.964518 713.040148,358.067961 678.378076,358.067961 M1159.62782,136.067961 L766.961165,136.067961 L766.961165,112.768986 C766.961165,78.099298 794.956715,50 829.498396,50 L1222.16505,50 L1222.16505,73.2989754 C1222.16505,107.964518 1194.16537,136.067961 1159.62782,136.067961 M1159.62782,358.067961 L766.961165,358.067961 L766.961165,334.768986 C766.961165,300.099298 794.956715,272 829.498396,272 L1222.16505,272 L1222.16505,295.298975 C1222.16505,329.964518 1194.16537,358.067961 1159.62782,358.067961 M81.2864078,136.067961 L81.2864078,112.768986 C81.2864078,78.099298 109.443727,50 144.175725,50 L317.495146,50 L317.495146,73.2989754 C317.495146,107.964518 289.337826,136.067961 254.605828,136.067961 L81.2864078,136.067961 Z M388.686933,247 L0,247 L0,223.701025 C0,189.031337 28.0688439,160.932039 62.6917079,160.932039 L451.378641,160.932039 L451.378641,184.231014 C451.378641,218.896557 423.309797,247 388.686933,247 M634.042084,247 L477.199029,247 L477.199029,223.701025 C477.199029,189.031337 505.19847,160.932039 539.747499,160.932039 L669.417476,160.932039 L669.417476,184.231014 C669.417476,218.896557 641.411839,247 606.86694,247 M690.456311,247 L690.456311,223.701025 C690.456311,189.031337 718.367006,160.932039 752.806532,160.932039 L1002.21359,160.932039 L1002.21359,184.231014 C1002.21359,218.896557 974.29672,247 939.861312,247 L690.456311,247 Z M1031.85922,247 L1031.85922,223.701025 C1031.85922,189.031337 1059.76992,160.932039 1094.20944,160.932039 L1343.6165,160.932039 L1343.6165,184.231014 C1343.6165,218.896557 1315.69963,247 1281.26422,247 L1031.85922,247 Z" id="Motion-Grid" transform="translate(671.8083, 204.034) scale(-1, 1) translate(-671.8083, -204.034)"></path>
            </g>
        </g>
    </g>
</svg>