<?xml version="1.0" encoding="UTF-8"?>
<svg width="939px" height="309px" viewBox="0 0 939 309" version="1.1" xmlns="http://www.w3.org/2000/svg" xmlns:xlink="http://www.w3.org/1999/xlink">
    <title>Motion Grid</title>
    <g id="Mockups" stroke="none" stroke-width="1" fill="none" fill-rule="evenodd" opacity="0.05">
        <g id="Form-Options-R1-V2" transform="translate(-981, -1596)" fill="#FFFFFF">
            <g id="Form-2-Copy" transform="translate(-6, 1546)">
                <path d="M1665.37808,136.067961 L1330.31553,136.067961 L1330.31553,112.768986 C1330.31553,78.099298 1358.41616,50 1393.07616,50 L1728.14078,50 L1728.14078,73.2989754 C1728.14078,107.964518 1700.04015,136.067961 1665.37808,136.067961 M1665.37808,358.067961 L1330.31553,358.067961 L1330.31553,334.768986 C1330.31553,300.099298 1358.41616,272 1393.07616,272 L1728.14078,272 L1728.14078,295.298975 C1728.14078,329.964518 1700.04015,358.067961 1665.37808,358.067961 M2146.62782,136.067961 L1753.96117,136.067961 L1753.96117,112.768986 C1753.96117,78.099298 1781.95671,50 1816.4984,50 L2209.16505,50 L2209.16505,73.2989754 C2209.16505,107.964518 2181.16537,136.067961 2146.62782,136.067961 M2146.62782,358.067961 L1753.96117,358.067961 L1753.96117,334.768986 C1753.96117,300.099298 1781.95671,272 1816.4984,272 L2209.16505,272 L2209.16505,295.298975 C2209.16505,329.964518 2181.16537,358.067961 2146.62782,358.067961 M1068.28641,136.067961 L1068.28641,112.768986 C1068.28641,78.099298 1096.44373,50 1131.17573,50 L1304.49515,50 L1304.49515,73.2989754 C1304.49515,107.964518 1276.33783,136.067961 1241.60583,136.067961 L1068.28641,136.067961 Z M1375.68693,247 L987,247 L987,223.701025 C987,189.031337 1015.06884,160.932039 1049.69171,160.932039 L1438.37864,160.932039 L1438.37864,184.231014 C1438.37864,218.896557 1410.3098,247 1375.68693,247 M1621.04208,247 L1464.19903,247 L1464.19903,223.701025 C1464.19903,189.031337 1492.19847,160.932039 1526.7475,160.932039 L1656.41748,160.932039 L1656.41748,184.231014 C1656.41748,218.896557 1628.41184,247 1593.86694,247 M1677.45631,247 L1677.45631,223.701025 C1677.45631,189.031337 1705.36701,160.932039 1739.80653,160.932039 L1989.21359,160.932039 L1989.21359,184.231014 C1989.21359,218.896557 1961.29672,247 1926.86131,247 L1677.45631,247 Z M2018.85922,247 L2018.85922,223.701025 C2018.85922,189.031337 2046.76992,160.932039 2081.20944,160.932039 L2330.6165,160.932039 L2330.6165,184.231014 C2330.6165,218.896557 2302.69963,247 2268.26422,247 L2018.85922,247 Z" id="Motion-Grid"></path>
            </g>
        </g>
    </g>
</svg>