<?xml version="1.0" encoding="UTF-8"?>
<svg width="948px" height="309px" viewBox="0 0 948 309" version="1.1" xmlns="http://www.w3.org/2000/svg" xmlns:xlink="http://www.w3.org/1999/xlink">
    <title>Motion Grid</title>
    <g id="Mockups" stroke="none" stroke-width="1" fill="none" fill-rule="evenodd" opacity="0.5">
        <g id="Form-Options-R1-V2" transform="translate(-972, -50)" fill="#F4F7F9">
            <g id="Form-1" transform="translate(230, 50)">
                <path d="M1420.37808,86.0679612 L1085.31553,86.0679612 L1085.31553,62.7689858 C1085.31553,28.099298 1113.41616,0 1148.07616,0 L1483.14078,0 L1483.14078,23.2989754 C1483.14078,57.9645178 1455.04015,86.0679612 1420.37808,86.0679612 M1420.37808,308.067961 L1085.31553,308.067961 L1085.31553,284.768986 C1085.31553,250.099298 1113.41616,222 1148.07616,222 L1483.14078,222 L1483.14078,245.298975 C1483.14078,279.964518 1455.04015,308.067961 1420.37808,308.067961 M1901.62782,86.0679612 L1508.96117,86.0679612 L1508.96117,62.7689858 C1508.96117,28.099298 1536.95671,0 1571.4984,0 L1964.16505,0 L1964.16505,23.2989754 C1964.16505,57.9645178 1936.16537,86.0679612 1901.62782,86.0679612 M1901.62782,308.067961 L1508.96117,308.067961 L1508.96117,284.768986 C1508.96117,250.099298 1536.95671,222 1571.4984,222 L1964.16505,222 L1964.16505,245.298975 C1964.16505,279.964518 1936.16537,308.067961 1901.62782,308.067961 M823.286408,86.0679612 L823.286408,62.7689858 C823.286408,28.099298 851.443727,0 886.175725,0 L1059.49515,0 L1059.49515,23.2989754 C1059.49515,57.9645178 1031.33783,86.0679612 996.605828,86.0679612 L823.286408,86.0679612 Z M1130.68693,197 L742,197 L742,173.701025 C742,139.031337 770.068844,110.932039 804.691708,110.932039 L1193.37864,110.932039 L1193.37864,134.231014 C1193.37864,168.896557 1165.3098,197 1130.68693,197 M1376.04208,197 L1219.19903,197 L1219.19903,173.701025 C1219.19903,139.031337 1247.19847,110.932039 1281.7475,110.932039 L1411.41748,110.932039 L1411.41748,134.231014 C1411.41748,168.896557 1383.41184,197 1348.86694,197 M1432.45631,197 L1432.45631,173.701025 C1432.45631,139.031337 1460.36701,110.932039 1494.80653,110.932039 L1744.21359,110.932039 L1744.21359,134.231014 C1744.21359,168.896557 1716.29672,197 1681.86131,197 L1432.45631,197 Z M1773.85922,197 L1773.85922,173.701025 C1773.85922,139.031337 1801.76992,110.932039 1836.20944,110.932039 L2085.6165,110.932039 L2085.6165,134.231014 C2085.6165,168.896557 2057.69963,197 2023.26422,197 L1773.85922,197 Z" id="Motion-Grid"></path>
            </g>
        </g>
    </g>
</svg>