<?xml version="1.0" encoding="UTF-8"?>
<svg width="11px" height="13px" viewBox="0 0 11 13" version="1.1" xmlns="http://www.w3.org/2000/svg" xmlns:xlink="http://www.w3.org/1999/xlink">
    <title>Group</title>
    <defs>
        <path d="M4.5419672,9.85521184 C4.28487471,10.1123043 3.85638724,10.1123043 3.59929476,9.85521184 C2.57092483,8.74114441 0,5.82742961 0,4.02778223 C0,1.79964738 1.79964738,0 4.02778223,0 C6.25591708,0 8.05556446,1.79964738 8.05556446,4.02778223 C8.14126195,5.82742961 5.65603462,8.74114441 4.5419672,9.85521184 Z" id="path-1"></path>
    </defs>
    <g id="Mockups" stroke="none" stroke-width="1" fill="none" fill-rule="evenodd">
        <g id="EdgeConneX-Page-Builder---Elements-R1" transform="translate(-343.000000, -28182.000000)">
            <g id="Global-Map" transform="translate(-154.000000, 27591.000000)">
                <g id="Map-World" transform="translate(0.000000, 244.000000)">
                    <g id="Group" transform="translate(498.185243, 348.857360)">
                        <path d="M4.5419672,9.85521184 C4.28487471,10.1123043 3.85638724,10.1123043 3.59929476,9.85521184 C2.57092483,8.74114441 0,5.82742961 0,4.02778223 C0,1.79964738 1.79964738,0 4.02778223,0 C6.25591708,0 8.05556446,1.79964738 8.05556446,4.02778223 C8.14126195,5.82742961 5.65603462,8.74114441 4.5419672,9.85521184 Z" id="SVGID_00000143601667514961127900000012679980343251548332_" fill="#27588D"></path>
                        <g id="Clipped">
                            <mask id="mask-2" fill="white">
                                <use xlink:href="#path-1"></use>
                            </mask>
                            <g id="SVGID_00000127759764719476716010000016492237780958328230_"></g>
                        </g>
                        <path d="M4.5419672,9.85521184 C4.28487471,10.1123043 3.85638724,10.1123043 3.59929476,9.85521184 C2.57092483,8.74114441 0,5.82742961 0,4.02778223 C0,1.79964738 1.79964738,0 4.02778223,0 C6.25591708,0 8.05556446,1.79964738 8.05556446,4.02778223 C8.14126195,5.82742961 5.65603462,8.74114441 4.5419672,9.85521184 Z" id="SVGID_00000174594904224786909750000005929786274343033779_" stroke="#F4F7F9" stroke-width="0.5"></path>
                    </g>
                </g>
            </g>
        </g>
    </g>
</svg>