<?xml version="1.0" encoding="UTF-8"?>
<svg width="347px" height="83px" viewBox="0 0 347 83" version="1.1" xmlns="http://www.w3.org/2000/svg" xmlns:xlink="http://www.w3.org/1999/xlink">
    <!-- Generator: Sketch 63.1 (92452) - https://sketch.com -->
    <title>gm-sep-2</title>
    <desc>Created with Sketch.</desc>
    <g id="Page-1" stroke="none" stroke-width="1" fill="none" fill-rule="evenodd">
        <g id="gm-sep-2" fill="#F4F7F9" fill-rule="nonzero">
            <g id="Group-25-Copy" style="mix-blend-mode: multiply;" transform="translate(173.500000, 41.500000) rotate(180.000000) translate(-173.500000, -41.500000) translate(0.000000, 0.000000)">
                <path d="M218.874065,36 L64,36 L64,26.2540095 C64,11.7546597 75.696454,0 90.125072,0 L245,0 L245,9.74599046 C245,24.2453403 233.302683,36 218.874065,36" id="Fill-1"></path>
                <path d="M320.709799,36 L256,36 L256,26.2540095 C256,11.7546597 267.770864,0 282.290201,0 L347,0 L347,9.74599046 C347,24.2453403 335.229136,36 320.709799,36" id="Fill-4"></path>
                <path d="M64.709799,83 L2.27373675e-13,83 L2.27373675e-13,73.2540095 C2.27373675e-13,58.7546597 11.770864,47 26.290201,47 L91,47 L91,56.7459905 C91,71.2453403 79.229136,83 64.709799,83" id="Fill-4"></path>
                <path d="M251.823482,83 L102,83 L102,73.2540095 C102,58.7546597 113.7191,47 128.176518,47 L278,47 L278,56.7459905 C278,71.2453403 266.280036,83 251.823482,83" id="Fill-13"></path>
            </g>
        </g>
    </g>
</svg>