<svg id="Layer_1" data-name="Layer 1" xmlns="http://www.w3.org/2000/svg" viewBox="0 0 276.01 83"><defs><style>.cls-1{fill:#019cdb;}.cls-1,.cls-2,.cls-3,.cls-4{fill-rule:evenodd;}.cls-2{fill:#de3439;}.cls-3{fill:#f4f7f9;}.cls-4{fill:#27588d;}</style></defs><path class="cls-1" d="M147.87,36H-7V26.25A26.2,26.2,0,0,1,19.13,0H174V9.75A26.2,26.2,0,0,1,147.87,36h0"/><path class="cls-2" d="M249.71,36H185V26.25A26.27,26.27,0,0,1,211.29,0H276V9.75A26.27,26.27,0,0,1,249.71,36"/><path class="cls-3" d="M-6.14,83H-276V73.25A26.2,26.2,0,0,1-249.87,47H20v9.75A26.2,26.2,0,0,1-6.13,83h0"/><path class="cls-4" d="M180.82,83H31V73.25A26.21,26.21,0,0,1,57.17,47H207v9.75A26.2,26.2,0,0,1,180.83,83h0"/></svg>