<?xml version="1.0" encoding="utf-8"?>
<!-- Generator: Adobe Illustrator 24.3.0, SVG Export Plug-In . SVG Version: 6.00 Build 0)  -->
<svg version="1.1" id="Layer_1" xmlns="http://www.w3.org/2000/svg" xmlns:xlink="http://www.w3.org/1999/xlink" x="0px" y="0px"
	 viewBox="0 0 276 83" style="enable-background:new 0 0 276 83;" xml:space="preserve">
<style type="text/css">
	.st0{fill-rule:evenodd;clip-rule:evenodd;fill:#F4F7F9;}
	.st1{fill-rule:evenodd;clip-rule:evenodd;fill:#FFCF3D;}
	.st2{fill-rule:evenodd;clip-rule:evenodd;fill:#27588D;}
	.st3{fill-rule:evenodd;clip-rule:evenodd;fill:#019CDB;}
</style>
<desc>Created with Sketch.</desc>
<g id="Designs">
	<g id="Homepage-2020-07" transform="translate(-1164.000000, -998.000000)">
		<g id="Map-Section" transform="translate(-276.000000, 984.000000)">
			
				<g id="Group-25-Copy" transform="translate(1716.000000, 55.500000) rotate(180.000000) translate(-1716.000000, -55.500000) translate(1440.000000, 14.000000)">
				<path id="Fill-1" class="st0" d="M423.9,36H269v-9.7C269,11.8,280.7,0,295.1,0H450v9.7C450,24.2,438.3,36,423.9,36"/>
				<path id="Fill-4" class="st1" d="M525.7,36H461v-9.7C461,11.8,472.8,0,487.3,0H552v9.7C552,24.2,540.2,36,525.7,36"/>
				<path id="Fill-10" class="st2" d="M269.9,83H0v-9.7C0,58.8,11.7,47,26.1,47H296v9.7C296,71.2,284.3,83,269.9,83"/>
				<path id="Fill-13" class="st3" d="M456.8,83H307v-9.7c0-14.5,11.7-26.3,26.2-26.3H483v9.7C483,71.2,471.3,83,456.8,83"/>
			</g>
		</g>
	</g>
</g>
</svg>
