<?xml version="1.0" encoding="UTF-8"?>
<svg width="323px" height="83px" viewBox="0 0 323 83" version="1.1" xmlns="http://www.w3.org/2000/svg" xmlns:xlink="http://www.w3.org/1999/xlink">
    <!-- Generator: Sketch 63.1 (92452) - https://sketch.com -->
    <title>gm-sep-1</title>
    <desc>Created with Sketch.</desc>
    <g id="Page-1" stroke="none" stroke-width="1" fill="none" fill-rule="evenodd">
        <g id="gm-sep-1" fill-rule="nonzero">
            <g id="Group-25" style="mix-blend-mode: multiply;">
                <path d="M194.874065,36 L40,36 L40,26.2540095 C40,11.7546597 51.696454,0 66.125072,0 L221,0 L221,9.74599046 C221,24.2453403 209.302683,36 194.874065,36" id="Fill-1" fill="#019CDB"></path>
                <path d="M296.709799,36 L232,36 L232,26.2540095 C232,11.7546597 243.770864,0 258.290201,0 L323,0 L323,9.74599046 C323,24.2453403 311.229136,36 296.709799,36" id="Fill-4" fill="#DE3439"></path>
                <path d="M296.709799,36 L232,36 L232,26.2540095 C232,11.7546597 243.770864,0 258.290201,0 L323,0 L323,9.74599046 C323,24.2453403 311.229136,36 296.709799,36" id="Fill-4" fill="#DE3439"></path>
                <path d="M46.9323817,83 L0,83 L0,73.2540095 C0,58.7546597 8.53711015,47 19.0676183,47 L66,47 L66,56.7459905 C66,71.2453403 57.4628898,83 46.9323817,83" id="Fill-4" fill="#F4F7F9"></path>
                <path d="M227.823482,83 L78,83 L78,73.2540095 C78,58.7546597 89.7191,47 104.176518,47 L254,47 L254,56.7459905 C254,71.2453403 242.280036,83 227.823482,83" id="Fill-13" fill="#27588D"></path>
            </g>
        </g>
    </g>
</svg>