<svg id="Layer_1" data-name="Layer 1" xmlns="http://www.w3.org/2000/svg" viewBox="0 0 552 83"><defs><style>.cls-1{fill:#019cdb;}.cls-1,.cls-2,.cls-3,.cls-4{fill-rule:evenodd;}.cls-2{fill:#de3439;}.cls-3{fill:#f4f7f9;}.cls-4{fill:#27588d;}</style></defs><path class="cls-1" d="M162.87,36H8V26.25A26.2,26.2,0,0,1,34.13,0H189V9.75A26.2,26.2,0,0,1,162.87,36h0"/><path class="cls-2" d="M264.71,36H200V26.25A26.27,26.27,0,0,1,226.29,0H291V9.75A26.27,26.27,0,0,1,264.71,36"/><path class="cls-3" d="M8.86,83H-261V73.25A26.2,26.2,0,0,1-234.87,47H35v9.75A26.2,26.2,0,0,1,8.87,83h0"/><path class="cls-4" d="M195.82,83H46V73.25A26.2,26.2,0,0,1,72.17,47H222v9.75A26.2,26.2,0,0,1,195.83,83h0"/></svg>