<?xml version="1.0" encoding="UTF-8"?>
<svg width="276px" height="83px" viewBox="0 0 276 83" version="1.1" xmlns="http://www.w3.org/2000/svg" xmlns:xlink="http://www.w3.org/1999/xlink">
    <!-- Generator: Sketch 63.1 (92452) - https://sketch.com -->
    <title>Group 25 Copy</title>
    <desc>Created with Sketch.</desc>
    <g id="Designs" stroke="none" stroke-width="1" fill="none" fill-rule="evenodd">
        <g id="Homepage-2020-07" transform="translate(-1164.000000, -998.000000)" fill="#F4F7F9">
            <g id="Map-Section" transform="translate(-276.000000, 984.000000)">
                <g id="Group-25-Copy" style="mix-blend-mode: multiply;" transform="translate(1716.000000, 55.500000) rotate(180.000000) translate(-1716.000000, -55.500000) translate(1440.000000, 14.000000)">
                    <path d="M423.874065,36 L269,36 L269,26.2540095 C269,11.7546597 280.696454,0 295.125072,0 L450,0 L450,9.74599046 C450,24.2453403 438.302683,36 423.874065,36" id="Fill-1"></path>
                    <path d="M525.709799,36 L461,36 L461,26.2540095 C461,11.7546597 472.770864,0 487.290201,0 L552,0 L552,9.74599046 C552,24.2453403 540.229136,36 525.709799,36" id="Fill-4"></path>
                    <path d="M269.859758,83 L0,83 L0,73.2540095 C0,58.7546597 11.7028595,47 26.1393786,47 L296,47 L296,56.7459905 C296,71.2453403 284.296277,83 269.859758,83" id="Fill-10"></path>
                    <path d="M456.823482,83 L307,83 L307,73.2540095 C307,58.7546597 318.7191,47 333.176518,47 L483,47 L483,56.7459905 C483,71.2453403 471.280036,83 456.823482,83" id="Fill-13"></path>
                </g>
            </g>
        </g>
    </g>
</svg>