<?xml version="1.0" encoding="UTF-8"?>
<svg width="98px" height="98px" viewBox="0 0 98 98" version="1.1" xmlns="http://www.w3.org/2000/svg" xmlns:xlink="http://www.w3.org/1999/xlink">
    <title>icon/whitepaper</title>
    <g id="Mockups" stroke="none" stroke-width="1" fill="none" fill-rule="evenodd">
        <g id="EdgeConneX-Page-Builder---Elements-R1" transform="translate(-136.000000, -19348.000000)" stroke="#019CDB" stroke-width="5">
            <g id="Featured/Recent-Resources" transform="translate(0.000000, 18285.000000)">
                <g id="Tile-1-Copy" transform="translate(85.000000, 1013.000000)">
                    <g id="icon/whitepaper" transform="translate(50.000000, 50.000000)">
                        <path d="M50,94.8326615 C43.7141,94.8326615 37.7709,93.6272885 32.175,91.2165424 C26.5791,88.8057963 21.6916,85.5157019 17.5125,81.3439632 C13.3334,77.1722245 10.0375,72.2933336 7.6225,66.7072906 C5.2075,61.1212475 4,55.1885162 4,48.9136886 C4,42.5607987 5.2075,36.5913322 7.6225,31.0052891 C10.0375,25.4192461 13.3334,20.5587228 17.5125,16.4260152 C21.6916,12.2933076 26.5791,9.02158083 32.175,6.61083475 C37.7709,4.20008867 43.7141,2.99471563 50,2.99471563 C56.3641,2.99471563 62.3441,4.20008867 67.94,6.61083475 C73.5359,9.02158083 78.405,12.2933076 82.545,16.4260152 C86.685,20.5587228 89.9625,25.4192461 92.3775,31.0052891 C94.7925,36.5913322 96,42.5607987 96,48.9136886 C96,55.1885162 94.7925,61.1212475 92.3775,66.7072906 C89.9625,72.2933336 86.685,77.1722245 82.545,81.3439632 C78.405,85.5157019 73.5359,88.8057963 67.94,91.2165424 C62.3441,93.6272885 56.3641,94.8326615 50,94.8326615 L50,94.8326615 Z M38.7346939,68.5932484 L69.7142857,48.9136886 L38.7346939,29.2341287 L38.7346939,68.5932484 Z" id="Fill-1"></path>
                    </g>
                </g>
            </g>
        </g>
    </g>
</svg>