<?xml version="1.0" encoding="UTF-8"?>
<svg width="25px" height="24px" viewBox="0 0 25 24" version="1.1" xmlns="http://www.w3.org/2000/svg" xmlns:xlink="http://www.w3.org/1999/xlink">
    <!-- Generator: Sketch 52.5 (67469) - http://www.bohemiancoding.com/sketch -->
    <title>Group 2</title>
    <desc>Created with Sketch.</desc>
    <g id="Symbols" stroke="none" stroke-width="1" fill="none" fill-rule="evenodd">
        <g id="Footer" transform="translate(-1680.000000, -93.000000)" fill="#019CDB">
            <g id="Social-Icons" transform="translate(1618.000000, 92.000000)">
                <g id="Group-2" transform="translate(62.000000, 1.000000)">
                    <path d="M24.9418365,23.9793739 L19.7494396,23.9793739 L19.7494396,16.1964838 C19.7494396,14.3408863 19.7163732,11.9533881 17.0516107,11.9533881 C14.348919,11.9533881 13.9365616,13.9757285 13.9365616,16.0642072 L13.9365616,23.9793739 L8.75,23.9793739 L8.75,7.97577696 L13.7274653,7.97577696 L13.7274653,10.1639288 L13.7994333,10.1639288 C14.4918825,8.90543876 16.1860491,7.57894737 18.7117383,7.57894737 C23.9702679,7.57894737 24.9418365,10.8923813 24.9418365,15.2025468 L24.9418365,23.9793739 Z" id="Path"></path>
                    <path d="M3.01293227,5.76893341 C1.34502431,5.76893341 0,4.47690844 0,2.88400094 C0,1.29202497 1.34502431,0 3.01293227,0 C4.67403243,0 6.02197437,1.29202497 6.02197437,2.88400094 C6.02197437,4.47690844 4.67403243,5.76893341 3.01293227,5.76893341 Z" id="Path"></path>
                    <polygon id="Path" points="1.25 23.5825443 6.44823208 23.5825443 6.44823208 7.57894737 1.25 7.57894737"></polygon>
                </g>
            </g>
        </g>
    </g>
</svg>