<?xml version="1.0" encoding="UTF-8"?>
<svg width="72px" height="100px" viewBox="0 0 72 100" version="1.1" xmlns="http://www.w3.org/2000/svg" xmlns:xlink="http://www.w3.org/1999/xlink">
    <title>icon/brief</title>
    <g id="Mockups" stroke="none" stroke-width="1" fill="none" fill-rule="evenodd" stroke-linecap="round" stroke-linejoin="round">
        <g id="EdgeConneX-Page-Builder---Elements-R1" transform="translate(-1349.000000, -18813.000000)" stroke="#019CDB" stroke-width="5">
            <g id="Featured/Recent-Resources" transform="translate(0.000000, 18285.000000)">
                <g id="Tile-3" transform="translate(1287.000000, 479.000000)">
                    <g id="Group" transform="translate(48.000000, 50.000000)">
                        <g id="Group-17" transform="translate(17.000000, 1.996477)">
                            <path d="M55.6326531,42.3712916 C55.6326531,28.4596607 42.636453,17.4127541 28.4189026,20.6873347 C20.2973527,22.3224904 14.2035025,28.8695169 12.1736526,37.0516991 C10.1416524,45.2360159 12.9864527,53.0083419 17.8589525,58.3279344 C21.1080026,61.6003803 23.1400027,65.6925387 23.1400027,70.1924187 L23.1400027,77.5570231 L44.2599029,77.5570231 L44.2599029,70.1924187 C44.2599029,65.6925387 46.2919031,61.6003803 49.5409531,58.3279344 C52.7900031,54.2357759 55.6326531,48.5084619 55.6326531,42.3712916 Z" id="Stroke-1"></path>
                            <path d="M43.2087291,86.1744701 L22.9770866,86.1744701 C21.3575269,86.1744701 20.1428571,84.8817406 20.1428571,83.1573519 L20.1428571,80.571893 C20.1428571,78.8497525 21.3575269,77.5570231 22.9770866,77.5570231 L43.2087291,77.5570231 C44.8282888,77.5570231 46.0408163,78.8497525 46.0408163,80.571893 L46.0408163,83.1573519 C46.0408163,84.8817406 44.8282888,86.1744701 43.2087291,86.1744701 Z" id="Stroke-3"></path>
                            <path d="M43.2087291,93.834423 L22.9770866,93.834423 C21.3575269,93.834423 20.1428571,92.5416935 20.1428571,90.8173048 L20.1428571,88.2318459 C20.1428571,86.5097054 21.3575269,85.216976 22.9770866,85.216976 L43.2087291,85.216976 C44.8282888,85.216976 46.0408163,86.5097054 46.0408163,88.2318459 L46.0408163,90.8173048 C46.0408163,92.5416935 44.8282888,93.834423 43.2087291,93.834423 Z" id="Stroke-5"></path>
                            <line x1="32.6122449" y1="10.5324352" x2="32.6122449" y2="0" id="Stroke-7"></line>
                            <line x1="48.9183673" y1="15.3199058" x2="52.755102" y2="7.6599529" id="Stroke-9"></line>
                            <line x1="61.3877551" y1="26.8098351" x2="66.1836735" y2="23.9373528" id="Stroke-11"></line>
                            <line x1="17.2653061" y1="15.3199058" x2="13.4285714" y2="7.6599529" id="Stroke-13"></line>
                            <line x1="4.79591837" y1="26.8098351" x2="0" y2="23.9373528" id="Stroke-15"></line>
                        </g>
                    </g>
                </g>
            </g>
        </g>
    </g>
</svg>