<?xml version="1.0" encoding="utf-8"?>
<!-- Generator: Adobe Illustrator 21.0.2, SVG Export Plug-In . SVG Version: 6.00 Build 0)  -->
<svg version="1.1" xmlns="http://www.w3.org/2000/svg" xmlns:xlink="http://www.w3.org/1999/xlink" x="0px" y="0px" width="118px"
	 height="118px" viewBox="0 0 118 118" style="enable-background:new 0 0 118 118;" xml:space="preserve">
<style type="text/css">
	.st0{fill:#0F9CD8;}
	.st1{fill:none;stroke:#959CA0;stroke-width:4;stroke-miterlimit:10;}
	.st2{fill:#808285;}
	.st3{fill:#FFFFFF;stroke:#959CA0;stroke-width:6;stroke-miterlimit:10;}
	.st4{fill:none;stroke:#959CA0;stroke-width:6;stroke-miterlimit:10;}
	.st5{fill:#0A9BD8;}
	.st6{fill:none;stroke:#FFD03D;stroke-width:3;stroke-linecap:round;stroke-linejoin:round;}
	.st7{fill:none;stroke:#FFD03D;stroke-width:3;stroke-linecap:round;stroke-linejoin:round;stroke-dasharray:7.3332,7.3332;}
	.st8{fill:none;stroke:#FFD03D;stroke-width:3;stroke-linecap:round;stroke-linejoin:round;stroke-dasharray:8.6555,8.6555;}
	.st9{fill:none;stroke:#FFD03D;stroke-width:3;stroke-linecap:round;stroke-linejoin:round;stroke-dasharray:8.8572,8.8572;}
	.st10{fill:none;stroke:#FFD03D;stroke-width:3;stroke-linecap:round;stroke-linejoin:round;stroke-dasharray:10.0622,10.0622;}
	.st11{fill:none;stroke:#FFD03D;stroke-width:3;stroke-linecap:round;stroke-linejoin:round;stroke-dasharray:7.976,7.976;}
	.st12{fill:none;stroke:#FFD03D;stroke-width:3;stroke-linecap:round;stroke-linejoin:round;stroke-dasharray:8.3872,8.3872;}
	.st13{fill:#FFFFFF;stroke:#27588D;stroke-width:6;stroke-linecap:round;stroke-linejoin:round;stroke-miterlimit:10;}
	.st14{fill:none;stroke:#27588D;stroke-width:6;stroke-linecap:round;stroke-linejoin:round;stroke-miterlimit:10;}
	.st15{fill:none;stroke:#27588D;stroke-width:6;stroke-linecap:round;stroke-miterlimit:10;}
	.st16{fill:#27588D;stroke:#0A9BD8;stroke-width:6;stroke-linecap:round;stroke-linejoin:round;stroke-miterlimit:10;}
	.st17{fill:#27588D;stroke:#27588D;stroke-width:6;stroke-linecap:round;stroke-linejoin:round;stroke-miterlimit:10;}
	.st18{fill:#FFFFFF;stroke:#959CA0;stroke-width:6;stroke-linecap:round;stroke-linejoin:round;stroke-miterlimit:10;}
	.st19{fill:#27588D;}
	.st20{fill:none;stroke:#FFD03D;stroke-width:3;stroke-linecap:round;stroke-linejoin:round;stroke-dasharray:8.3592,8.3592;}
	.st21{fill:none;stroke:#FFD03D;stroke-width:3;stroke-linecap:round;stroke-linejoin:round;stroke-dasharray:5.6681,5.6681;}
	.st22{fill:#FFFFFF;stroke:#FFFFFF;stroke-width:6;stroke-linecap:round;stroke-linejoin:round;stroke-miterlimit:10;}
	.st23{fill:none;stroke:#FFFFFF;stroke-width:6;stroke-linecap:round;stroke-linejoin:round;stroke-miterlimit:10;}
	.st24{fill:#FFD03D;}
	.st25{fill:none;stroke:#27588D;stroke-width:3;stroke-linecap:round;stroke-linejoin:round;stroke-miterlimit:10;}
	.st26{fill:none;stroke:#0A9BD8;stroke-width:6;stroke-linecap:round;stroke-linejoin:round;stroke-miterlimit:10;}
	.st27{clip-path:url(#SVGID_11_);}
	.st28{clip-path:url(#SVGID_13_);fill:#FFFFFF;}
	.st29{clip-path:url(#SVGID_14_);}
	
		.st30{clip-path:url(#SVGID_15_);fill:#FFFFFF;stroke:#27588D;stroke-width:6;stroke-linecap:round;stroke-linejoin:round;stroke-miterlimit:10;}
	.st31{clip-path:url(#SVGID_16_);}
	.st32{clip-path:url(#SVGID_18_);fill:#27588D;}
	.st33{clip-path:url(#SVGID_20_);}
	.st34{clip-path:url(#SVGID_21_);fill:#27588D;}
	.st35{clip-path:url(#SVGID_22_);}
	.st36{clip-path:url(#SVGID_23_);fill:#27588D;}
	.st37{fill:#FFFFFF;}
	.st38{fill:none;stroke:#FFD03D;stroke-width:3;stroke-linecap:round;stroke-linejoin:round;stroke-dasharray:8.2115,8.2115;}
	.st39{fill:none;stroke:#FFD03D;stroke-width:3;stroke-linecap:round;stroke-linejoin:round;stroke-dasharray:7.5098,7.5098;}
	.st40{fill:#159CD8;}
	.st41{clip-path:url(#SVGID_24_);}
	.st42{clip-path:url(#SVGID_25_);fill:#FFFFFF;}
	.st43{fill:none;stroke:#FFFFFF;stroke-width:3;stroke-linecap:round;stroke-linejoin:round;stroke-miterlimit:10;}
	.st44{fill:#FFFFFF;stroke:#FFFFFF;stroke-width:3;stroke-linecap:round;stroke-linejoin:round;stroke-miterlimit:10;}
</style>
<g id="Layer_1">
	<g>
		<defs>
			<path id="SVGID_5_" d="M-81.9-708.6c5.8,0,10.5-4.7,10.5-10.5s-4.7-10.5-10.5-10.5s-10.5,4.7-10.5,10.5S-87.7-708.6-81.9-708.6z
				 M-78.9-680.8c-1.6,1.8-4.4,1.8-6.1,0c-7-7.5-23.6-26.7-23.6-38.3c0-14.7,11.9-26.7,26.7-26.7s26.7,11.9,26.7,26.7
				C-55.3-707.5-71.9-688.4-78.9-680.8z"/>
		</defs>
		<use xlink:href="#SVGID_5_"  style="overflow:visible;fill-rule:evenodd;clip-rule:evenodd;fill:#FFFFFF;"/>
		<clipPath id="SVGID_11_">
			<use xlink:href="#SVGID_5_"  style="overflow:visible;"/>
		</clipPath>
		<g class="st27">
			<defs>
				<rect id="SVGID_7_" x="-1169.6" y="-5846.6" width="3807.8" height="15939.2"/>
			</defs>
			<use xlink:href="#SVGID_7_"  style="overflow:visible;fill:#FFFFFF;"/>
			<clipPath id="SVGID_13_">
				<use xlink:href="#SVGID_7_"  style="overflow:visible;"/>
			</clipPath>
		</g>
	</g>
	<g>
		<defs>
			<path id="SVGID_1_" d="M-86.5-1157.8c7,0,12.7-5.7,12.7-12.6s-5.7-12.6-12.7-12.6s-12.7,5.7-12.7,12.6S-93.4-1157.8-86.5-1157.8z
				 M-82.8-1124.2c-2,2.1-5.4,2.1-7.3,0c-8.5-9.1-28.6-32.2-28.6-46.2c0-17.8,14.4-32.2,32.2-32.2s32.2,14.4,32.2,32.2
				C-54.2-1156.4-74.3-1133.3-82.8-1124.2z"/>
		</defs>
		<use xlink:href="#SVGID_1_"  style="overflow:visible;fill-rule:evenodd;clip-rule:evenodd;fill:#FFFFFF;"/>
		<clipPath id="SVGID_14_">
			<use xlink:href="#SVGID_1_"  style="overflow:visible;"/>
		</clipPath>
		<g class="st29">
			<defs>
				<rect id="SVGID_2_" x="-1400.4" y="-7364.6" width="4599.9" height="19254.7"/>
			</defs>
			<use xlink:href="#SVGID_2_"  style="overflow:visible;fill:#FFFFFF;"/>
			<clipPath id="SVGID_15_">
				<use xlink:href="#SVGID_2_"  style="overflow:visible;"/>
			</clipPath>
			
				<use xlink:href="#SVGID_2_"  style="overflow:visible;fill:none;stroke:#27588D;stroke-width:6;stroke-linecap:round;stroke-linejoin:round;stroke-miterlimit:10;"/>
		</g>
		
			<use xlink:href="#SVGID_1_"  style="overflow:visible;fill-rule:evenodd;clip-rule:evenodd;fill:none;stroke:#27588D;stroke-width:6;stroke-linecap:round;stroke-linejoin:round;stroke-miterlimit:10;"/>
	</g>
	<g>
		<defs>
			<path id="SVGID_3_" d="M-20-1076.9c4.5,0,8.2-3.6,8.2-8.2s-3.7-8.2-8.2-8.2s-8.2,3.7-8.2,8.2S-24.5-1076.9-20-1076.9z
				 M-17.6-1055.3c-1.3,1.4-3.5,1.4-4.7,0c-5.4-5.9-18.4-20.8-18.4-29.8c0-11.5,9.3-20.8,20.8-20.8s20.8,9.3,20.8,20.8
				C0.8-1076-12.1-1061.1-17.6-1055.3z"/>
		</defs>
		<use xlink:href="#SVGID_3_"  style="overflow:visible;fill-rule:evenodd;clip-rule:evenodd;fill:#27588D;"/>
		<clipPath id="SVGID_16_">
			<use xlink:href="#SVGID_3_"  style="overflow:visible;"/>
		</clipPath>
		<g class="st31">
			<defs>
				<rect id="SVGID_4_" x="-866.8" y="-5077.3" width="2964.7" height="12410.1"/>
			</defs>
			<use xlink:href="#SVGID_4_"  style="overflow:visible;fill:#27588D;"/>
			<clipPath id="SVGID_18_">
				<use xlink:href="#SVGID_4_"  style="overflow:visible;"/>
			</clipPath>
		</g>
	</g>
	<g>
		<defs>
			<path id="SVGID_6_" d="M-39.9-1129.2c2.5,0,4.6-2,4.6-4.6s-2-4.6-4.6-4.6c-2.5,0-4.6,2-4.6,4.6S-42.4-1129.2-39.9-1129.2z
				 M-38.5-1117.1c-0.7,0.8-1.9,0.8-2.7,0c-3.1-3.3-10.3-11.6-10.3-16.7c0-6.4,5.2-11.6,11.6-11.6s11.6,5.2,11.6,11.6
				C-28.2-1128.7-35.5-1120.3-38.5-1117.1z"/>
		</defs>
		<use xlink:href="#SVGID_6_"  style="overflow:visible;fill-rule:evenodd;clip-rule:evenodd;fill:#27588D;"/>
		<clipPath id="SVGID_20_">
			<use xlink:href="#SVGID_6_"  style="overflow:visible;"/>
		</clipPath>
		<g class="st33">
			<defs>
				<rect id="SVGID_8_" x="-514.3" y="-3370.4" width="1661" height="6952.7"/>
			</defs>
			<use xlink:href="#SVGID_8_"  style="overflow:visible;fill:#27588D;"/>
			<clipPath id="SVGID_21_">
				<use xlink:href="#SVGID_8_"  style="overflow:visible;"/>
			</clipPath>
		</g>
	</g>
	<g>
		<defs>
			<path id="SVGID_9_" d="M-75.3-1086.7c1.4,0,2.6-1.1,2.6-2.6s-1.1-2.6-2.6-2.6c-1.4,0-2.6,1.1-2.6,2.6S-76.7-1086.7-75.3-1086.7z
				 M-74.6-1079.9c-0.4,0.4-1.1,0.4-1.5,0c-1.7-1.8-5.8-6.5-5.8-9.4c0-3.6,2.9-6.5,6.5-6.5c3.6,0,6.5,2.9,6.5,6.5
				C-68.8-1086.4-72.9-1081.7-74.6-1079.9z"/>
		</defs>
		<use xlink:href="#SVGID_9_"  style="overflow:visible;fill-rule:evenodd;clip-rule:evenodd;fill:#27588D;"/>
		<clipPath id="SVGID_22_">
			<use xlink:href="#SVGID_9_"  style="overflow:visible;"/>
		</clipPath>
		<g class="st35">
			<defs>
				<rect id="SVGID_10_" x="-341.1" y="-2342.3" width="930.6" height="3895.3"/>
			</defs>
			<use xlink:href="#SVGID_10_"  style="overflow:visible;fill:#27588D;"/>
			<clipPath id="SVGID_23_">
				<use xlink:href="#SVGID_10_"  style="overflow:visible;"/>
			</clipPath>
		</g>
	</g>
	<g>
		<g>
			<g id="Layer_1_1_">
				<defs>
					<path id="SVGID_17_" d="M964.6-351.8c-1.6,1.8-4.4,1.8-6.1,0c-7-7.5-23.6-26.7-23.6-38.3c0-14.7,11.9-26.7,26.7-26.7
						c14.8,0,26.7,11.9,26.7,26.7C988.3-378.5,971.6-359.3,964.6-351.8z"/>
				</defs>
				<clipPath id="SVGID_24_">
					<use xlink:href="#SVGID_17_"  style="overflow:visible;"/>
				</clipPath>
				<g class="st41">
					<g>
						<defs>
							<rect id="SVGID_19_" x="-126.1" y="-5517.6" width="3807.8" height="15939.2"/>
						</defs>
						<clipPath id="SVGID_25_">
							<use xlink:href="#SVGID_19_"  style="overflow:visible;"/>
						</clipPath>
					</g>
				</g>
			</g>
		</g>
	</g>
	<g>
		<g>
			<path class="st40" d="M59,115C28.1,115,3,89.9,3,59S28.1,3,59,3s56,25.1,56,56S89.9,115,59,115z"/>
			<path class="st37" d="M59,5.5c29.5,0,53.5,24,53.5,53.5s-24,53.5-53.5,53.5S5.5,88.5,5.5,59S29.5,5.5,59,5.5 M59,0.5
				C26.7,0.5,0.5,26.7,0.5,59s26.2,58.5,58.5,58.5s58.5-26.2,58.5-58.5S91.3,0.5,59,0.5L59,0.5z"/>
		</g>
		<path class="st37" d="M64,59l14.6-14.6c1.4-1.4,1.4-3.6,0-5c-1.4-1.4-3.6-1.4-4.9,0L59,54.1L44.4,39.5c-1.4-1.4-3.6-1.4-5,0
			c-1.4,1.4-1.4,3.6,0,5L54.1,59L39.5,73.6c-1.4,1.4-1.4,3.6,0,5c0.7,0.7,1.6,1,2.5,1s1.8-0.3,2.5-1L59,63.9l14.6,14.6
			c0.7,0.7,1.6,1,2.5,1c0.9,0,1.8-0.3,2.5-1c1.4-1.4,1.4-3.6,0-5L64,59z"/>
	</g>
</g>
<g id="Layer_2">
</g>
<g id="Layer_3">
</g>
</svg>
