<?xml version="1.0" encoding="UTF-8"?>
<svg width="25px" height="21px" viewBox="0 0 25 21" version="1.1" xmlns="http://www.w3.org/2000/svg" xmlns:xlink="http://www.w3.org/1999/xlink">
    <!-- Generator: Sketch 52.5 (67469) - http://www.bohemiancoding.com/sketch -->
    <title>Twitter_Logo_Blue</title>
    <desc>Created with Sketch.</desc>
    <g id="Symbols" stroke="none" stroke-width="1" fill="none" fill-rule="evenodd">
        <g id="Footer" transform="translate(-1618.000000, -95.000000)" fill="#019CDB">
            <g id="Social-Icons" transform="translate(1618.000000, 92.000000)">
                <path d="M22.4559,8.91639843 C22.4559,8.6868411 22.4514,8.45831734 22.4412,8.23103387 C23.4426,7.48282787 24.3132,6.54919824 25,5.48616484 C24.0809,5.90807076 23.0919,6.192511 22.0544,6.32067448 C23.1134,5.66456014 23.9264,4.6260225 24.3098,3.38821132 C23.3186,3.9954375 22.2213,4.43708472 21.053,4.67491067 C20.1171,3.64453829 18.7841,3 17.3091,3 C14.4763,3 12.1792,5.37422851 12.1792,8.301007 C12.1792,8.71712489 12.2243,9.12156336 12.3122,9.50977468 C8.0495,9.28827924 4.2695,7.17864631 1.74,3.97094174 C1.2991,4.75418598 1.0454,5.66456014 1.0454,6.63539852 C1.0454,8.4747512 1.9509,10.0983965 3.3278,11.0482533 C2.4866,11.0214836 1.6961,10.7825207 1.0048,10.3850072 C1.0036,10.4071258 1.0036,10.4293477 1.0036,10.4526031 C1.0036,13.0204205 2.7719,15.1638514 5.1186,15.6499424 C4.6879,15.7710776 4.2345,15.8363996 3.7665,15.8363996 C3.4361,15.8363996 3.1147,15.8026017 2.8023,15.7407938 C3.4553,17.8470159 5.3487,19.3797065 7.5939,19.42291 C5.8381,20.8448011 3.6267,21.6921271 1.2236,21.6921271 C0.8097,21.6921271 0.4015,21.6677347 0,21.6187432 C2.2701,23.1222869 4.9653,24 7.8623,24 C17.2967,24 22.4559,15.921463 22.4559,8.91639843 Z" id="Twitter_Logo_Blue"></path>
            </g>
        </g>
    </g>
</svg>