<svg width="821" height="309" viewBox="0 0 821 309" fill="none" xmlns="http://www.w3.org/2000/svg">
<path opacity="0.5" fill-rule="evenodd" clip-rule="evenodd" d="M81.2864 62.769V86.068H254.606C289.338 86.068 317.495 57.9645 317.495 23.299V0H144.176C109.444 0 81.2864 28.0993 81.2864 62.769ZM678.378 86.068H343.316V62.769C343.316 28.0993 371.416 0 406.076 0H741.141V23.299C741.141 57.9645 713.04 86.068 678.378 86.068ZM678.378 308.068H343.316V284.769C343.316 250.099 371.416 222 406.076 222H741.141V245.299C741.141 279.965 713.04 308.068 678.378 308.068ZM766.961 86.068H1159.63C1194.17 86.068 1222.17 57.9645 1222.17 23.299V0H829.498C794.957 0 766.961 28.0993 766.961 62.769V86.068ZM1159.63 308.068H766.961V284.769C766.961 250.099 794.957 222 829.498 222H1222.17V245.299C1222.17 279.965 1194.17 308.068 1159.63 308.068ZM388.687 197H0V173.701C0 139.031 28.0688 110.932 62.6917 110.932H451.379V134.231C451.379 168.897 423.31 197 388.687 197ZM477.199 197H606.867C641.412 197 669.417 168.897 669.417 134.231V110.932H539.747C505.198 110.932 477.199 139.031 477.199 173.701V197ZM690.456 197V173.701C690.456 139.031 718.367 110.932 752.807 110.932H1002.21V134.231C1002.21 168.897 974.297 197 939.861 197H690.456ZM1031.86 173.701V197H1281.26C1315.7 197 1343.62 168.897 1343.62 134.231V110.932H1094.21C1059.77 110.932 1031.86 139.031 1031.86 173.701Z" fill="white"/>
</svg>
