<?xml version="1.0" encoding="UTF-8"?>
<svg width="1085px" height="309px" viewBox="0 0 1085 309" version="1.1" xmlns="http://www.w3.org/2000/svg" xmlns:xlink="http://www.w3.org/1999/xlink">
    <title>Motion Grid</title>
    <g id="Mockups" stroke="none" stroke-width="1" fill="none" fill-rule="evenodd">
        <g id="EdgeConneX-Page-Builder---Elements-R1" transform="translate(-835.000000, -13767.000000)" fill="#F4F7F9">
            <g id="Split-Section-Image-Right" transform="translate(0.000000, 13491.000000)">
                <path d="M1576.14078,498 L1576.14078,521.298975 C1576.14078,555.964518 1548.04015,584.067961 1513.37808,584.067961 L1178.31553,584.067961 L1178.31553,560.768986 C1178.31553,526.099298 1206.41616,498 1241.07616,498 L1576.14078,498 Z M2057.16505,498 L2057.16505,521.298975 C2057.16505,555.964518 2029.16537,584.067961 1994.62782,584.067961 L1601.96117,584.067961 L1601.96117,560.768986 C1601.96117,526.099298 1629.95671,498 1664.4984,498 L2057.16505,498 Z M1286.37864,386.932039 L1286.37864,410.231014 C1286.37864,444.896557 1258.3098,473 1223.68693,473 L835,473 L835,449.701025 C835,415.031337 863.068844,386.932039 897.691708,386.932039 L1286.37864,386.932039 Z M1504.41748,386.932039 L1504.41748,410.231014 C1504.41748,444.896557 1476.41184,473 1441.86694,473 L1312.19903,473 L1312.19903,449.701025 C1312.19903,415.031337 1340.19847,386.932039 1374.7475,386.932039 L1504.41748,386.932039 Z M1837.21359,386.932039 L1837.21359,410.231014 C1837.21359,444.896557 1809.29672,473 1774.86131,473 L1525.45631,473 L1525.45631,449.701025 C1525.45631,415.031337 1553.36701,386.932039 1587.80653,386.932039 L1837.21359,386.932039 Z M2178.6165,386.932039 L2178.6165,410.231014 C2178.6165,444.896557 2150.69963,473 2116.26422,473 L1866.85922,473 L1866.85922,449.701025 C1866.85922,415.031337 1894.76992,386.932039 1929.20944,386.932039 L2178.6165,386.932039 Z M1576.14078,276 L1576.14078,299.298975 C1576.14078,333.964518 1548.04015,362.067961 1513.37808,362.067961 L1178.31553,362.067961 L1178.31553,338.768986 C1178.31553,304.099298 1206.41616,276 1241.07616,276 L1576.14078,276 Z M2057.16505,276 L2057.16505,299.298975 C2057.16505,333.964518 2029.16537,362.067961 1994.62782,362.067961 L1601.96117,362.067961 L1601.96117,338.768986 C1601.96117,304.099298 1629.95671,276 1664.4984,276 L2057.16505,276 Z M1152.49515,276 L1152.49515,299.298975 C1152.49515,333.964518 1124.33783,362.067961 1089.60583,362.067961 L916.286408,362.067961 L916.286408,338.768986 C916.286408,304.099298 944.443727,276 979.175725,276 L1152.49515,276 Z" id="Motion-Grid"></path>
            </g>
        </g>
    </g>
</svg>