<?xml version="1.0" encoding="utf-8"?>
<!-- Generator: Adobe Illustrator 21.0.2, SVG Export Plug-In . SVG Version: 6.00 Build 0)  -->
<svg version="1.1" id="Layer_1" xmlns="http://www.w3.org/2000/svg" xmlns:xlink="http://www.w3.org/1999/xlink" x="0px" y="0px"
	 width="98.5px" height="113.5px" viewBox="0 0 98.5 113.5" style="enable-background:new 0 0 98.5 113.5;" xml:space="preserve">
<style type="text/css">
	.st0{fill:none;}
	.st1{fill:#231F20;}
	.st2{clip-path:url(#SVGID_2_);fill:url(#New_Pattern);}
</style>
<pattern  x="145.8" y="963" width="98.1" height="113.8" patternUnits="userSpaceOnUse" id="New_Pattern" viewBox="47.1 -140.7 98.1 113.8" style="overflow:visible;">
	<g>
		<rect x="47.1" y="-140.7" class="st0" width="98.1" height="113.8"/>
		<g>
			<path class="st1" d="M125.1-53.9c-14.9,0-26.9,12.1-26.9,26.9C98.1-12.1,110.2,0,125.1,0c11.6,0,21.4-7.3,25.3-17.6h-10.3
				c-3.1,5-8.7,8.3-15,8.3c-9.8,0-17.7-7.9-17.7-17.7c0-9.8,7.9-17.7,17.7-17.7c8.4,0,15.4,5.8,17.2,13.6H120v8.1h31.7
				c0.2-1.3,0.3-2.7,0.3-4.1C152-41.8,140-53.9,125.1-53.9"/>
		</g>
		<g>
			<path class="st1" d="M26.9-53.9C12.1-53.9,0-41.8,0-26.9C0-12.1,12.1,0,26.9,0c11.6,0,21.4-7.3,25.3-17.6H41.9
				c-3.1,5-8.7,8.3-15,8.3c-9.8,0-17.7-7.9-17.7-17.7c0-9.8,7.9-17.7,17.7-17.7c8.4,0,15.4,5.8,17.2,13.6H21.9v8.1h31.7
				c0.2-1.3,0.3-2.7,0.3-4.1C53.9-41.8,41.8-53.9,26.9-53.9"/>
			<path class="st1" d="M67.2-53.9c-6.8,0-13,2.5-17.7,6.6c2.1,2.3,3.8,5,5.1,7.9c3.2-3.2,7.7-5.2,12.6-5.2
				c9.8,0,17.7,7.9,17.7,17.7c0,9.8-7.9,17.7-17.7,17.7c-4.9,0-9.4-2-12.6-5.2c-1.3,2.9-3,5.5-5.1,7.9C54.2-2.5,60.4,0,67.2,0
				c14.9,0,26.9-12.1,26.9-26.9C94.1-41.8,82.1-53.9,67.2-53.9"/>
		</g>
		<g>
			<path class="st1" d="M76-110.8c-14.9,0-26.9,12.1-26.9,26.9C49.1-69,61.1-56.9,76-56.9c11.6,0,21.4-7.3,25.3-17.6H91
				c-3.1,5-8.7,8.3-15,8.3c-9.8,0-17.7-7.9-17.7-17.7c0-9.8,7.9-17.7,17.7-17.7c8.4,0,15.4,5.8,17.2,13.6H71v8.1h31.7
				c0.2-1.3,0.3-2.7,0.3-4.1C103-98.7,90.9-110.8,76-110.8"/>
			<path class="st1" d="M116.3-110.8c-6.8,0-13,2.5-17.7,6.6c2.1,2.3,3.8,5,5.1,7.9c3.2-3.2,7.7-5.2,12.6-5.2
				c9.8,0,17.7,7.9,17.7,17.7c0,9.8-7.9,17.7-17.7,17.7c-4.9,0-9.4-2-12.6-5.2c-1.3,2.9-3,5.5-5.1,7.9c4.7,4.1,10.9,6.6,17.7,6.6
				c14.9,0,26.9-12.1,26.9-26.9C143.2-98.7,131.1-110.8,116.3-110.8"/>
		</g>
		<g>
			<path class="st1" d="M125.1-167.7c-14.9,0-26.9,12.1-26.9,26.9c0,14.9,12.1,26.9,26.9,26.9c11.6,0,21.4-7.3,25.3-17.6h-10.3
				c-3.1,5-8.7,8.3-15,8.3c-9.8,0-17.7-7.9-17.7-17.7c0-9.8,7.9-17.7,17.7-17.7c8.4,0,15.4,5.8,17.2,13.6H120v8.1h31.7
				c0.2-1.3,0.3-2.7,0.3-4.1C152-155.6,140-167.7,125.1-167.7"/>
		</g>
		<g>
			<path class="st1" d="M26.9-167.7C12.1-167.7,0-155.6,0-140.7c0,14.9,12.1,26.9,26.9,26.9c11.6,0,21.4-7.3,25.3-17.6H41.9
				c-3.1,5-8.7,8.3-15,8.3c-9.8,0-17.7-7.9-17.7-17.7c0-9.8,7.9-17.7,17.7-17.7c8.4,0,15.4,5.8,17.2,13.6H21.9v8.1h31.7
				c0.2-1.3,0.3-2.7,0.3-4.1C53.9-155.6,41.8-167.7,26.9-167.7"/>
			<path class="st1" d="M67.2-167.7c-6.8,0-13,2.5-17.7,6.6c2.1,2.3,3.8,5,5.1,7.9c3.2-3.2,7.7-5.2,12.6-5.2
				c9.8,0,17.7,7.9,17.7,17.7c0,9.8-7.9,17.7-17.7,17.7c-4.9,0-9.4-2-12.6-5.2c-1.3,2.9-3,5.5-5.1,7.9c4.7,4.1,10.9,6.6,17.7,6.6
				c14.9,0,26.9-12.1,26.9-26.9C94.1-155.6,82.1-167.7,67.2-167.7"/>
		</g>
	</g>
</pattern>
<g>
	<path class="st1" d="M118.5,644.2c-14.9,0-26.9,12.1-26.9,26.9c0,14.9,12.1,26.9,26.9,26.9c11.6,0,21.4-7.3,25.3-17.6h-10.3
		c-3.1,5-8.7,8.3-15,8.3c-9.8,0-17.7-7.9-17.7-17.7c0-9.8,7.9-17.7,17.7-17.7c8.4,0,15.4,5.8,17.2,13.6h-22.3v8.1h31.7
		c0.2-1.3,0.3-2.7,0.3-4.1C145.5,656.3,133.4,644.2,118.5,644.2"/>
	<path class="st1" d="M158.8,644.2c-6.8,0-13,2.5-17.7,6.6c2.1,2.3,3.8,5,5.1,7.9c3.2-3.2,7.7-5.2,12.6-5.2
		c9.8,0,17.7,7.9,17.7,17.7c0,9.8-7.9,17.7-17.7,17.7c-4.9,0-9.4-2-12.6-5.2c-1.3,2.9-3,5.5-5.1,7.9c4.7,4.1,10.9,6.6,17.7,6.6
		c14.9,0,26.9-12.1,26.9-26.9C185.7,656.3,173.7,644.2,158.8,644.2"/>
</g>
<g>
	<path class="st1" d="M140.2,701.4c-14.9,0-26.9,12.1-26.9,26.9c0,14.9,12.1,26.9,26.9,26.9c11.6,0,21.4-7.3,25.3-17.6h-10.3
		c-3.1,5-8.7,8.3-15,8.3c-9.8,0-17.7-7.9-17.7-17.7c0-9.8,7.9-17.7,17.7-17.7c8.4,0,15.4,5.8,17.2,13.6h-22.3v8.1h31.7
		c0.2-1.3,0.3-2.7,0.3-4.1C167.1,713.5,155.1,701.4,140.2,701.4"/>
	<path class="st1" d="M180.4,701.4c-6.8,0-13,2.5-17.7,6.6c2.1,2.3,3.8,5,5.1,7.9c3.2-3.2,7.7-5.2,12.6-5.2
		c9.8,0,17.7,7.9,17.7,17.7c0,9.8-7.9,17.7-17.7,17.7c-4.9,0-9.4-2-12.6-5.2c-1.3,2.9-3,5.5-5.1,7.9c4.7,4.1,10.9,6.6,17.7,6.6
		c14.9,0,26.9-12.1,26.9-26.9C207.4,713.5,195.3,701.4,180.4,701.4"/>
</g>
<g>
	<defs>
		<rect id="SVGID_1_" width="98.5" height="113.5"/>
	</defs>
	<clipPath id="SVGID_2_">
		<use xlink:href="#SVGID_1_"  style="overflow:visible;"/>
	</clipPath>
	<rect x="-155.6" y="-22.3" class="st2" width="421.5" height="171"/>
</g>
</svg>
