<?xml version="1.0" encoding="utf-8"?>
<!-- Generator: Adobe Illustrator 21.0.2, SVG Export Plug-In . SVG Version: 6.00 Build 0)  -->
<svg version="1.1" id="Layer_1" xmlns="http://www.w3.org/2000/svg" xmlns:xlink="http://www.w3.org/1999/xlink" x="0px" y="0px"
	 width="1800px" height="1200px" viewBox="0 0 1800 1200" style="enable-background:new 0 0 1800 1200;" xml:space="preserve">
<style type="text/css">
	.st0{fill:#E4E9EB;stroke:#FFFFFF;stroke-width:0.75;stroke-miterlimit:10;}
	.st1{fill:#019CDB;stroke:#FFFFFF;stroke-width:0.75;stroke-miterlimit:10;}
	.st2{fill:#E4E9EB;stroke:#FFFFFF;stroke-width:2;stroke-miterlimit:10;}
	.st3{fill:#D9DEDF;stroke:#FFFFFF;stroke-width:2;stroke-miterlimit:10;}
	.st4{fill:#E4E9EB;}
	.st5{fill:#D9DEDF;}
	.st6{fill:none;stroke:#D3D3D3;stroke-width:3;stroke-miterlimit:10;}
</style>
<path class="st2" d="M1100.3,718.1c0,1.7-0.8,3.3-0.8,5c1.7-1.7,3.3-3.3,5-5C1102.8,718.9,1102,718.9,1100.3,718.1z"/>
<path class="st2" d="M681.7,712.2C681.7,712.2,681.7,713,681.7,712.2L681.7,712.2L681.7,712.2z"/>
<path class="st2" d="M1025.9,990.4c-1.7,0.8-3.3,1.7-5,2.5c-6.7,2.5-7.5,1.7-11.7,7.5c0,0.8-0.8,0.8-0.8,1.7l17.5-7.5
	c0.8-0.8,0.8-1.7,1.7-2.5C1026.8,992.1,1025.9,991.3,1025.9,990.4z"/>
<path class="st2" d="M1269.9,708c-2.5,2.5-3.3,8.4-5,11.7c-3.3,4.2-11.7,13.4-15.9,3.3c-3.3-0.8-10,1.7-11.7,1.7
	c-4.2-0.8-5-5-9.2-5.8c-5.8-1.7-5.8,1.7-10,2.5c-5.8,0.8-2.5-0.8-8.4-1.7c-9.2-1.7-15,3.3-23.4,0.8c-7.5-2.5-13.4-9.2-20.1-12.5
	c-15-6.7-34.3,4.2-49.3,9.2c-4.2,1.7-8.4,1.7-12.5,2.5c-1.7,1.7-3.3,3.3-5,5c0,1.7-0.8,4.2,0,5.8c0.8,7.5,12.5,18.4,9.2,26.7
	c-3.3,7.5-17.5,7.5-22.6,15c-6.7,10,0,21.7-4.2,30.1c-1.7,2.5-4.2,5-7.5,7.5c-2.5,4.2-5,9.2-7.5,13.4c3.3,0,5.8,0,9.2-2.5
	c5.8,4.2,7.5,14.2,8.4,20.1c-4.2,2.5-8.4,2.5-12.5,4.2c5.8,2.5,14.2-2.5,19.2-5c9.2-4.2,13.4-7.5,23.4-2.5
	c8.4,4.2,10.9,9.2,21.7,6.7c8.4-1.7,12.5-8.4,19.2-12.5c5-3.3,11.7-5,17.5-4.2c10-11.7,19.2-10,30.9-0.8c6.7,5.8,9.2,3.3,18.4,6.7
	c5.8,1.7,11.7,7.5,14.2,13.4c2.5,6.7-0.8,15,1.7,20.9c2.5,5.8,10,5.8,12.5,11.7c0.8,2.5,1.7,5,0.8,8.4c1.7,0.8,3.3,1.7,4.2,2.5
	c2.5,1.7,5,4.2,5,7.5c3.3-2.5,6.7-5,9.2-8.4c8.4-8.4,15-8.4,25.9-8.4c-1.7,24.2,24.2,5,35.1,18.4c-8.4,7.5-26.7,5.8-11.7,16.7
	c10,7.5,14.2,11.7,13.4,25.1c10,2.5,14.2-10,25.1-10c4.2,0,5.8,3.3,10.9,2.5c3.3,0,7.5-3.3,10.9-4.2c3.3-20.9-24.2-40.1,1.7-55.1
	c8.4-4.2,20.1-8.4,29.2-10c10.9-1.7,21.7,4.2,31.8-0.8c0,0,0.8,0,0.8-0.8c7.5-5,3.3-14.2,14.2-18.4c4.2-1.7,10.9,0.8,14.2-1.7
	c4.2-2.5,3.3-7.5,6.7-12.5c2.5-3.3,6.7,0,7.5-5.8c0.8-3.3-5-3.3-5-6.7c-0.8-7.5,2.5-5,6.7-10c5.8-6.7,10.9-17.5-2.5-20.9
	c-2.5-0.8-5.8,2.5-9.2,0.8c-2.5-0.8-2.5-4.2-5-5c-5.8-2.5-7.5-2.5-13.4-4.2c-11.7-2.5-20.1-4.2-21.7-16.7c-8.4,4.2-16.7,0-25.1-0.8
	c-6.7-0.8-15,0.8-21.7,0c-10.9-2.5-6.7-5-9.2-13.4c-1.7-6.7-5.8-8.4-10-11.7c-3.3-2.5-10.9-5.8-13.4-8.4c-5.8-6.7,0-10-2.5-17.5
	c-4.2-10-20.9-15.9-30.1-14.2c-12.5,3.3-22.6,8.4-34.3,5.8c-0.8,1.7-3.3,3.3-6.7,4.2C1277.4,707.2,1274.1,704.7,1269.9,708z"/>
<path class="st2" d="M1137.1,508.3c8.4,0,18.4,1.7,25.1,7.5c5,4.2,4.2,7.5,10.9,9.2c5,1.7,10-1.7,15-0.8c0.8,0,1.7,0,2.5,0.8
	c4.2-5,7.5-10,9.2-15.9c1.7-6.7,0-12.5-1.7-18.4c-0.8-5-1.7-10,0.8-16.7c5.8-11.7,7.5-22.6-10.9-20.9c-10,0.8-19.2,7.5-30.1,8.4
	c-8.4,0.8-16.7,0.8-25.1,0.8c-13.4,0.8-30.9,0.8-29.2,20.1c-3.3,0.8-6.7,1.7-10,1.7c-5.8,15-24.2-9.2-31.8,10
	c-9.2,21.7,15.9,6.7,23.4,1.7c4.2,5.8,8.4,2.5,13.4,0.8c2.5-0.8,1.7-4.2,5-4.2c2.5,0,3.3,2.5,5,2.5c-0.8,0,3.3,2.5,4.2,2.5
	c2.5,0.8,5-2.5,7.5-0.8c7.5,3.3,2.5,5,0.8,10.9c-1.7,5-2.5,8.4-1.7,10C1121.2,509.2,1126.2,508.3,1137.1,508.3z"/>
<path class="st2" d="M1190.5,586.9c-8.4-5.8-15.9-3.3-23.4,0.8c0.8,0.8,0.8,0.8,1.7,1.7c8.4,11.7,0.8,10.9-6.7,20.1
	c-11.7,15-2.5,38.4-28.4,39.3c-9.2,0-20.1-2.5-30.1,0.8c0,0,0,0-0.8,0l0,0c0.8,5.8-2.5,10.9-2.5,16.7c0,6.7,3.3,10.9,5,16.7
	c-6.7,5-15,12.5-12.5,20.9c0.8,3.3,5.8,6.7,6.7,10c0,1.7,0,2.5,0,4.2c1.7,0,2.5,0,4.2,0c4.2,0,8.4-0.8,12.5-2.5
	c15-4.2,33.4-15.9,49.3-9.2c6.7,3.3,13.4,10,20.1,12.5c8.4,2.5,14.2-2.5,23.4-0.8c5,0.8,2.5,2.5,8.4,1.7c4.2-0.8,4.2-4.2,10-2.5
	c4.2,0.8,5.8,5,9.2,5.8c1.7,0,8.4-2.5,11.7-1.7c4.2,10,12.5,0.8,15.9-3.3c1.7-3.3,2.5-9.2,5-11.7c4.2-3.3,7.5-0.8,11.7-1.7
	c3.3-0.8,5-2.5,6.7-4.2c5.8-8.4-5.8-24.2-5-35.1c11.7,1.7,19.2,2.5,30.9,0c-3.3-10-7.5-15-18.4-14.2c1.7-9.2-9.2-21.7-15-28.4
	c-2.5-2.5-9.2-5.8-10.9-10c-2.5-7.5,4.2-10,5-15.9c3.3-17.5-13.4-15.9-24.2-15c-7.5,0.8-10-3.3-15-5c-6.7-1.7-9.2,2.5-15.9,1.7
	c-5,0-8.4-5-13.4-5.8l0,0C1200.6,577.7,1189.7,573.5,1190.5,586.9z"/>
<path class="st2" d="M1071,566c10.9-1.7,18.4-5,30.1-3.3c10.9,1.7,16.7,1.7,26.7,0c11.7-0.8,9.2,7.5,19.2,12.5
	c8.4,4.2,14.2,5,20.1,11.7c7.5-4.2,14.2-5.8,23.4-0.8c-0.8-12.5,10-9.2,15.9-13.4c0.8-0.8,1.7-1.7,2.5-2.5
	c4.2-8.4-3.3-20.9-11.7-22.6c-0.8-10.9,3.3-20.9-7.5-23.4c-0.8,0-1.7-0.8-2.5-0.8c-4.2-0.8-10,2.5-15,0.8c-6.7-1.7-5.8-5-10.9-9.2
	c-6.7-5.8-16.7-7.5-25.1-7.5c-10.9,0-15.9,0.8-18.4,8.4c0,0.8-0.8,1.7-0.8,3.3c-1.7,6.7-1.7,18.4-11.7,20.1
	c-8.4,1.7-15.9-10-21.7-15c-17.5-12.5-29.2,2.5-41.8,15.9c-11.7,12.5-7.5,25.9,3.3,35.1c-0.8-3.3-0.8-5.8-1.7-9.2
	C1051,561.8,1062.7,566.8,1071,566z"/>
<path class="st2" d="M1078.6,611.1c6.7,6.7,4.2,12.5,2.5,18.4c10.9,1.7,20.1,5,21.7,19.2c0,0,0,0,0.8,0c10-3.3,20.9-0.8,30.1-0.8
	c25.9,0,17.5-24.2,28.4-39.3c6.7-9.2,15-9.2,6.7-20.1c-0.8-0.8-0.8-0.8-1.7-1.7c-5.8-6.7-11.7-7.5-20.1-11.7
	c-10-5-8.4-13.4-19.2-12.5c-10.9,0.8-16.7,1.7-26.7,0c-10.9-1.7-19.2,1.7-30.1,3.3c-9.2,0.8-20.1-4.2-27.6,1.7
	c0.8,2.5,0.8,5.8,1.7,9.2c1.7,9.2,4.2,18.4,8.4,26.7c0.8-0.8,1.7-1.7,1.7-2.5C1064.4,600.2,1073.6,605.3,1078.6,611.1z"/>
<path class="st2" d="M1051.8,627.8c8.4,1.7,20.1,0.8,30.1,2.5c1.7-6.7,4.2-11.7-2.5-18.4c-5-5.8-15-10.9-22.6-10.9
	c-0.8,0.8-1.7,1.7-1.7,2.5c-7.5,8.4-18.4,2.5-27.6,7.5c-10,5.8,0,5,0.8,10.9c0,1.7,0,3.3-0.8,4.2
	C1036,624.5,1040.1,625.3,1051.8,627.8z"/>
<path class="st2" d="M985.8,535.9c8.4-5.8,15-4.2,14.2-17.5l-8.4-8.4c-4.2,3.3-15.9,5.8-20.9,12.5c-3.3,4.2-10,23.4-5,26.7
	C971.6,552.6,981.6,538.4,985.8,535.9z"/>
<path class="st2" d="M824.6,459.9c0.8-5.8-0.8-10.9,2.5-15.9c3.3-4.2,8.4-4.2,12.5-8.4c10.9-11.7-8.4-17.5-3.3-29.2
	c1.7-5,8.4-1.7,10-8.4c1.7-5-2.5-8.4-5.8-11.7c-4.2-4.2-8.4-5-10.9-10c-1.7-4.2-0.8-11.7-0.8-15.9c0-17.5-0.8-60.2,20.9-64.3
	c8.4-1.7,25.9,7.5,25.1-6.7c0-6.7-6.7-9.2-5-16.7c0.8-5,5.8-8.4,8.4-12.5c7.5-10.9,5.8-19.2,6.7-31.8c1.7-20.1,8.4-4.2,20.1-10
	c-0.8-8.4,5.8-19.2,10.9-25.9c2.5-3.3,7.5-5.8,9.2-9.2c3.3-5,0-9.2,0.8-15c1.7-7.5,9.2-19.2,16.7-22.6c9.2-4.2,22.6,0.8,32.6-1.7
	c0.8-10-6.7-17.5,4.2-23.4c8.4-4.2,18.4,1.7,25.1,4.2c8.4,3.3,16.7,10,23.4,0.8c5-7.5-2.5-26.7,10-26.7c0,0.8,1.7,1.7,4.2,3.3
	c3.3-7.5,15-10,21.7-0.8c8.4,11.7,12.5,18.4,29.2,18.4c6.7,0,11.7-3.3,17.5-4.2c10-1.7,9.2,4.2,16.7,6.7c11.7,5,17.5-7.5,23.4-15.9
	c5.8-10,12.5-21.7,11.7-34.3c18.4-0.8,40.9-6.7,57.7,0c24.2,10,8.4,20.9,0.8,37.6c-3.3,8.4-3.3,14.2-1.7,18.4c2.5-5,7.5-9.2,11.7-15
	c3.3-5,4.2-10,7.5-14.2c4.2-5.8,8.4-4.2,13.4-7.5c5.8-5,5-10.9,9.2-15.9c-3.3-5.8-10.9-10-15.9-14.2c6.7,0,14.2,1.7,19.2-4.2
	c5.8-6.7,0.8-8.4-3.3-13.4c-10-13.4-16.7-15-31.8-15.9c-5.8,0-13.4,0-19.2-2.5c-5.8-2.5-8.4-9.2-15-6.7c-5.8,2.5-5.8,14.2-11.7,17.5
	c-4.2,2.5-15,1.7-19.2,0.8c-15.9-4.2-25.1-14.2-42.6-13.4c-5.8,18.4-16.7,11.7-33.4,14.2c-13.4,2.5-15.9,9.2-25.1,15.9
	c-0.8,0.8-12.5,7.5-11.7,7.5c-5.8,0.8-9.2-5-15.9-4.2c-5,0.8-5.8,5-10.9,6.7c-5.8,2.5-14.2,0-19.2,0c-8.4,0.8-33.4,2.5-28.4,12.5
	c-8.4,4.2-4.2,12.5-12.5,16.7c-6.7,3.3-15.9-2.5-22.6-5c-7.5,6.7-9.2,8.4-9.2,18.4c-10.9,1.7-8.4-12.5-16.7-12.5
	c-4.2,0-10.9,9.2-13.4,11.7c-5.8,4.2-12.5,7.5-18.4,10.9c-0.8,6.7-4.2,15.9-10.9,20.1c-5.8,3.3-16.7,0-16.7,9.2
	c8.4,4.2,18.4-3.3,25.9-6.7c9.2-5,16.7-5.8,27.6-5c1.7,10-15.9,20.9-21.7,27.6c-3.3,4.2-7.5,10.9-11.7,14.2c-5.8,3.3-10,0-13.4,6.7
	c-2.5,5,0.8,9.2-2.5,14.2c-3.3,4.2-10,5.8-13.4,10c-8.4,7.5-9.2,20.1-15.9,29.2c-0.8,1.7-1.7,4.2-3.3,5.8c-1.7,1.7-5.8-0.8-7.5,1.7
	c-3.3,5,0,10,0,15c-1.7,16.7-17.5,10.9-27.6,20.9c-8.4,8.4-3.3,20.1-16.7,25.9c-11.7,5-18.4-4.2-29.2-2.5
	c-9.2,2.5-16.7,18.4-25.1,24.2c-9.2,5.8-19.2,12.5-29.2,16.7c0.8,2.5-0.8,5.8,0,8.4c-13.4-2.5-15.9,15.9-25.1,15.9
	c-1.7,5-6.7,8.4-6.7,14.2s5.8,9.2,6.7,15c0.8,6.7-5,12.5-5,18.4c-0.8,7.5,1.7,7.5,3.3,15c2.5,9.2,6.7,54.3,21.7,51
	c0,8.4,10,20.9,15.9,23.4c9.2,4.2,19.2,4.2,28.4,0.8c11.7-5,20.9-13.4,31.8-18.4c12.5-6.7,20.1-13.4,23.4-28.4
	c1.7-7.5-1.7-9.2,5-12.5c4.2-2.5,10.9-2.5,14.2,1.7c2.5,4.2-2.5,12.5,0.8,16.7c2.5,2.5,6.7,0.8,9.2,2.5c3.3,2.5,4.2,5,5.8,7.5
	C820.4,469.9,823.7,467.4,824.6,459.9z"/>
<path class="st2" d="M1231.5,391.4c8.4-6.7,15-15,22.6-22.6c8.4-8.4,20.9-15.9,25.9-25.9c8.4-15-20.9-25.9-28.4-37.6
	c2.5-2.5,5.8-4.2,9.2-5.8c0.8-5.8,0-9.2-2.5-13.4c-0.8-1.7-5.8-2.5-6.7-5c-0.8-2.5,2.5-4.2,1.7-5.8c-0.8-2.5,0-3.3-1.7-5.8
	c-0.8-1.7-5.8-2.5-6.7-4.2c-2.5-5,2.5-7.5,5-11.7c-2.5,0-4.2-0.8-5.8-1.7c0-10.9,10-18.4,5.8-30.1c-3.3-9.2-13.4-15-17.5-24.2
	c-8.4-18.4,22.6-31.8,9.2-46c-8.4-9.2-20.1-12.5-23.4-20.9c-1.7-4.2-1.7-10,1.7-18.4c7.5-17.5,23.4-28.4-0.8-37.6
	c-16.7-6.7-38.4-0.8-57.7,0c0.8,12.5-5.8,23.4-11.7,34.3c-5,9.2-10.9,20.9-23.4,15.9c-6.7-2.5-6.7-8.4-16.7-6.7
	c-5.8,0.8-10.9,4.2-17.5,4.2c-16.7,0.8-20.9-6.7-29.2-18.4c-6.7-8.4-17.5-6.7-21.7,0.8c4.2,2.5,9.2,5.8,9.2,5.8
	c7.5,6.7,9.2,20.1,17.5,25.1c8.4,5,22.6,0.8,28.4,10.9c3.3,5.8,2.5,20.1,5,27.6c2.5,8.4,0.8,22.6,1.7,34.3c4.2,2.5,7.5,5.8,9.2,9.2
	c2.5,5-2.5,8.4,3.3,13.4c4.2,4.2,9.2,2.5,14.2,5c11.7,5,5.8,8.4,7.5,19.2c3.3,0.8,5.8,2.5,9.2,3.3c-7.5,5.8-10,4.2-16.7,8.4
	c-5,2.5-10,10-14.2,14.2c-5.8,5.8-20.9,28.4-26.7,22.6c-1.7,2.5-2.5,6.7-5,8.4s-7.5,0-8.4,0.8c-5.8,4.2-4.2,10.9-9.2,15
	c-10-11.7-20.9,5.8-21.7,15c-0.8,10,2.5,20.1,3.3,30.1c0,9.2-2.5,18.4-0.8,28.4c0,1.7,0.8,13.4,0.8,14.2c3.3,5.8,5.8,1.7,12.5,5
	c6.7,3.3,10,15,20.1,16.7c0,0.8-0.8,2.5-0.8,3.3c11.7,8.4,12.5,6.7,25.9,3.3c9.2-2.5,17.5-5,25.9-8.4c17.5-6.7,37.6-10,56-10.9
	c10.9-0.8,15,0,22.6-7.5c0,0,0,0,0.8,0C1217.3,406.4,1223.9,398,1231.5,391.4z"/>
<path class="st2" d="M1097.8,145.7c-6.7-10-20.1-5.8-28.4-10.9c-8.4-5-10.9-18.4-17.5-25.1c0,0-5-3.3-9.2-5.8
	c-2.5-1.7-4.2-3.3-4.2-3.3c-11.7-0.8-5,19.2-10,26.7c-6.7,10-15,3.3-23.4-0.8c-6.7-3.3-16.7-8.4-25.1-4.2c-10.9,5-3.3,13.4-4.2,23.4
	c-10,2.5-23.4-1.7-32.6,1.7c-7.5,3.3-15,14.2-16.7,22.6c-0.8,5.8,2.5,9.2-0.8,15c-1.7,3.3-6.7,5.8-9.2,9.2
	c-5,6.7-11.7,17.5-10.9,25.9c-11.7,5.8-18.4-10-20.1,10c-0.8,12.5,0.8,20.9-6.7,31.8c-2.5,4.2-7.5,7.5-8.4,12.5
	c-1.7,6.7,5,10,5,16.7c0.8,13.4-16.7,5-25.1,6.7c-21.7,4.2-20.9,46.8-20.9,64.3c0,5-0.8,11.7,0.8,15.9c2.5,5.8,6.7,5.8,10.9,10
	c3.3,3.3,7.5,6.7,5.8,11.7c-1.7,6.7-8.4,3.3-10,8.4c-5,11.7,14.2,16.7,3.3,29.2c-3.3,4.2-9.2,4.2-12.5,8.4c-3.3,5-1.7,10-2.5,15.9
	c-0.8,7.5-3.3,10-6.7,12.5c-2.5,1.7-5.8,4.2-6.7,8.4c-1.7,5.8,5,23.4,8.4,29.2c1.7,3.3,5.8,5,7.5,8.4c3.3,5,2.5,7.5,4.2,13.4
	c3.3,10.9,14.2,13.4,20.1,23.4c8.4,12.5,4.2,51,26.7,32.6c9.2-7.5,13.4-15.9,26.7-15c10,0.8,20.1,3.3,28.4-6.7
	c5.8-6.7,5.8-18.4,8.4-26.7c2.5-10.9,4.2-22.6,4.2-33.4c0-6.7-1.7-11.7-4.2-18.4c20.1-5,49.3-28.4,45.1-51.8
	c-2.5-12.5-16.7-14.2-25.9-20.9c-10.9-9.2-10.9-22.6-5.8-34.3c4.2-8.4,7.5-15.9,8.4-25.1c0.8-6.7-0.8-13.4,0.8-20.1
	c3.3,0,7.5,1.7,11.7,0.8c6.7-1.7,3.3-2.5,7.5-6.7c0.8-0.8,0.8-4.2,1.7-5c1.7-1.7,3.3,0,5-0.8c2.5-1.7,5.8-3.3,9.2-5
	c11.7-8.4,21.7-12.5,31.8-20.1c9.2-6.7,24.2-15.9,24.2-27.6c0-7.5-5-10.9-1.7-20.1c2.5-6.7,6.7-14.2,12.5-18.4
	c14.2-8.4,31.8-2.5,47.6-4.2c-5-4.2-7.5-12.5-8.4-21.7c-0.8-12.5,0-25.9-1.7-34.3C1100.3,165.8,1101.1,151.6,1097.8,145.7z"/>
<path class="st2" d="M839.6,582.7l-5-7.5c-5-2.5-17.5,1.7-22.6,8.4c-5,7.5-2.5,5-0.8,10.9c0,1.7,3.3,2.5,4.2,4.2
	c0.8,2.5-3.3,4.2-3.3,5.8C821.2,631.2,849.6,590.2,839.6,582.7z"/>
<path class="st2" d="M745.2,597.7c14.2,10,21.7-5,30.1-15c5-5.8,10-4.2,15.9-8.4c8.4-6.7,0.8-11.7,1.7-20.1
	c-16.7-6.7-3.3-15,3.3-24.2l-9.2-9.2c0.8,0,1.7-0.8,1.7-1.7c-13.4-8.4-15,16.7-23.4,20.1c-6.7,1.7-13.4-4.2-19.2,0.8
	c-5.8,5-5,15-5,21.7C739.3,575.2,732.6,588.5,745.2,597.7z"/>
<path class="st3" d="M879.7,662.9c-1.7,10.9-4.2,12.5,1.7,23.4c1.7,3.3,6.7,6.7,7.5,10c1.7,5.8-1.7,8.4-1.7,14.2
	c13.4-2.5,2.5,9.2,2.5,13.4c5.8,2.5,4.2,10,5,15h-0.8c1.7,10,13.4,5.8,20.1,14.2c3.3,4.2,0,9.2,5,11.7c5,3.3,9.2,0,13.4-2.5
	c4.2-1.7,8.4-7.5,13.4-7.5c8.4,0,5,4.2,9.2,7.5c10,8.4,22.6-0.8,31.8,7.5c2.5,2.5,5,8.4,5.8,15c2.5-0.8,4.2-1.7,5.8-0.8
	c5,1.7,5.8,8.4,9.2,12.5c2.5-1.7,6.7-9.2,10-9.2c5.8-0.8,2.5,4.2,7.5,6.7c7.5,3.3,10.9-2.5,18.4-4.2c14.2-2.5,21.7,9.2,35.1,10.9
	c-1.7,3.3-2.5,5.8-4.2,9.2c3.3-2.5,6.7-5,7.5-7.5c5-8.4-1.7-20.1,4.2-30.1c5-7.5,18.4-8.4,22.6-15c3.3-7.5-7.5-19.2-9.2-26.7
	c0-1.7,0-4.2,0-5.8s0.8-3.3,0.8-5c0-1.7,0-2.5,0-4.2c-0.8-3.3-5.8-6.7-6.7-10c-2.5-9.2,5.8-15.9,12.5-20.9c-2.5-5.8-5-10-5-16.7
	c0-5.8,2.5-10,2.5-16.7l0,0c-0.8-14.2-10-18.4-21.7-19.2c-10-0.8-21.7,0-30.1-2.5c-10.9-2.5-15.9-3.3-25.9-1.7
	c-1.7,0-2.5,0.8-4.2,0.8c-8.4,1.7-21.7,5-30.9,0.8c1.7-9.2-10-19.2-18.4-20.9c-15-3.3-40.1,10-50.1,19.2c-7.5,6.7-15,10-24.2,14.2
	c-5.8,2.5-11.7,9.2-18.4,14.2C879.7,657.9,879.7,660.4,879.7,662.9z"/>
<path class="st2" d="M900.6,803.3c7.5,0,10.9,4.2,17.5,5.8c7.5,1.7,15-1.7,21.7,0c5-1.7,9.2,0.8,14.2,0c10-2.5,18.4-11.7,26.7-17.5
	c1.7-1.7,6.7-4.2,10.9-6.7c-0.8-5.8-2.5-11.7-5.8-15c-9.2-8.4-21.7,0-31.8-7.5c-5-4.2-0.8-7.5-9.2-7.5c-5,0-10,5.8-13.4,7.5
	c-4.2,2.5-8.4,5.8-13.4,2.5c-5-3.3-2.5-8.4-5-11.7c-6.7-7.5-18.4-4.2-20.1-14.2c-15.9,5-30.9,15-46.8,19.2
	c-9.2,2.5-16.7,0.8-14.2,10c1.7,8.4,6.7,15.9,15.9,15c1.7,4.2-0.8,11.7,1.7,14.2c1.7,2.5,7.5,3.3,10,5.8
	c2.5,2.5,10.9,11.7,11.7,16.7C883.9,820,895.6,814.1,900.6,803.3z"/>
<path class="st2" d="M954.9,809.1c-5,0.8-9.2-1.7-14.2,0c0,0,0,0,0.8,0c9.2,2.5,8.4,6.7,7.5,12.5c-0.8,7.5-2.5,10.9-0.8,18.4
	c6.7,0.8,14.2,2.5,19.2,1.7c12.5-0.8,15.9-4.2,25.9-10c10-5.8,20.9,3.3,30.1-1.7c9.2-5.8,5.8-15.9,20.1-14.2
	c7.5,0.8,15,5.8,22.6,6.7c2.5-4.2,5-8.4,7.5-13.4c1.7-2.5,2.5-5.8,4.2-9.2c-13.4-1.7-20.9-13.4-35.1-10.9
	c-7.5,1.7-10.9,7.5-18.4,4.2c-4.2-1.7-1.7-6.7-7.5-6.7c-3.3,0-7.5,7.5-10,9.2c-3.3-4.2-4.2-10.9-9.2-12.5c-1.7,0-3.3,0-5.8,0.8
	c-4.2,1.7-8.4,5-10.9,6.7C973.3,797.4,964.9,806.6,954.9,809.1z"/>
<path class="st2" d="M1188,847.6c5.8,14.2,20.1,19.2,20.9,35.9c0,11.7-2.5,15.9,4.2,25.1c4.2-4.2,9.2-7.5,11.7-12.5
	c3.3-5.8,1.7-18.4,9.2-20.1c5,4.2,10.9,6.7,16.7,9.2c0.8-3.3,0-5.8-0.8-8.4c-2.5-5.8-10-5.8-12.5-11.7c-2.5-5.8,0.8-14.2-1.7-20.9
	c-2.5-5.8-8.4-10.9-14.2-13.4c-8.4-2.5-10.9-0.8-18.4-6.7c-10.9-9.2-20.9-10.9-30.9,0.8c2.5,0.8,5,1.7,6.7,2.5
	C1186.3,834.2,1185.5,840,1188,847.6z"/>
<path class="st2" d="M1234,929.5c-1.7,0.8-3.3,1.7-4.2,2.5C1230.6,931.1,1232.3,930.3,1234,929.5z"/>
<path class="st2" d="M1224.8,896.9c-3.3,5-7.5,8.4-11.7,12.5l0,0c6.7,9.2,11.7,9.2,23.4,8.4c0.8-0.8,0.8-1.7,0.8-1.7
	c0.8,2.5,0.8,5,0.8,7.5c4.2-6.7,2.5-15,9.2-19.2c4.2-3.3,8.4,1.7,10.9-5c0.8-1.7,0.8-2.5,0.8-3.3c0-3.3-2.5-5-5-7.5
	c-0.8-0.8-2.5-1.7-4.2-2.5c-5-2.5-11.7-4.2-16.7-9.2C1226.5,878.5,1229,891,1224.8,896.9z"/>
<path class="st2" d="M1061,851.7c-5.8,9.2-0.8,18.4-8.4,25.9c-6.7,6.7-17.5,7.5-25.9,13.4c-2.5,1.7-4.2,4.2-5.8,5.8
	c0.8,0.8,2.5,1.7,3.3,3.3c3.3,4.2,5.8,9.2,10,12.5c4.2,3.3,10,2.5,14.2,6.7c3.3,4.2,1.7,10,5,14.2c5.8,6.7,8.4,1.7,15,3.3
	c7.5,1.7,9.2,7.5,10.9,13.4c0.8,0,2.5,0,3.3,0c-4.2,19.2,34.3,11.7,44.3,14.2c15,4.2,26.7,5,40.9-4.2c10.9-6.7,34.3-15,46.8-3.3
	c0.8,0.8,0.8,0.8,1.7,1.7c1.7-2.5,3.3-5,4.2-7.5c3.3-10,4.2-15,9.2-19.2c0.8-0.8,2.5-1.7,4.2-2.5c1.7-0.8,3.3-1.7,5-1.7
	c0-0.8,0-2.5,0-3.3c0-2.5,0-5.8-0.8-7.5c-0.8,0.8-0.8,1.7-0.8,1.7c-11.7,0.8-16.7,0.8-23.4-8.4l0,0c-6.7-9.2-4.2-14.2-4.2-25.1
	c0-16.7-15-21.7-20.9-35.9c-3.3-7.5-1.7-13.4-9.2-18.4c-2.5-1.7-4.2-2.5-6.7-2.5c-5.8-1.7-12.5,0-17.5,4.2
	c-6.7,4.2-10.9,10.9-19.2,12.5c-10.9,2.5-12.5-2.5-21.7-6.7c-10-5-14.2-1.7-23.4,2.5c-5.8,2.5-13.4,7.5-19.2,5
	C1066.9,845.1,1063.5,846.7,1061,851.7z"/>
<path class="st2" d="M994.2,892.7c10-3.3,19.2-1.7,27.6,4.2c1.7-2.5,3.3-4.2,5.8-5.8c7.5-5.8,18.4-6.7,25.9-13.4
	c6.7-7.5,2.5-16.7,8.4-25.9c2.5-4.2,6.7-6.7,10-7.5c4.2-1.7,7.5-2.5,12.5-4.2c-0.8-5.8-2.5-15.9-8.4-20.1c-3.3,1.7-5.8,2.5-9.2,2.5
	c-7.5,0-15-5.8-22.6-6.7c-15-1.7-10.9,8.4-20.1,14.2c-9.2,5.8-19.2-4.2-30.1,1.7c-10,5.8-14.2,8.4-25.9,10c-5,0.8-12.5-0.8-19.2-1.7
	c0,0.8,0,1.7,0.8,2.5c-14.2,4.2-14.2,7.5-15.9,21.7c-0.8,4.2-0.8,7.5-2.5,10.9c3.3,0.8,5,3.3,6.7,7.5c1.7,0,3.3,0,6.7,2.5
	c8.4,5,13.4,11.7,23.4,15c5,1.7,11.7,0.8,17.5,0.8C985,897.7,986.7,895.2,994.2,892.7z"/>
<path class="st2" d="M842.1,912.7c6.7-0.8,12.5-2.5,18.4-4.2C853.8,906.1,847.1,907.7,842.1,912.7z"/>
<path class="st2" d="M883,881c10.9,3.3,24.2-0.8,35.1-4.2c5-1.7,9.2-2.5,12.5-1.7c0.8-3.3,1.7-6.7,2.5-10.9
	c1.7-14.2,1.7-18.4,15.9-21.7c0-0.8-0.8-1.7-0.8-2.5c-1.7-6.7,0-10.9,0.8-18.4c0.8-5.8,0.8-10-7.5-12.5c0,0,0,0-0.8,0
	c-7.5-1.7-14.2,2.5-21.7,0c-6.7-1.7-10-5.8-17.5-5.8c-5.8,10.9-16.7,16.7-28.4,17.5c0,0.8,0,0.8,0,0.8c-16.7,2.5-25.1,5.8-22.6,23.4
	c2.5,22.6-12.5-0.8-24.2,0.8c-6.7,0.8-10.9,5.8-17.5,7.5c-7.5,1.7-15.9-2.5-23.4-0.8c-5,0.8-10,5-15,8.4c0.8,1.7,1.7,3.3,4.2,5.8
	c3.3,3.3,6.7,6.7,10,10c5-2.5,11.7,0.8,15.9-0.8c6.7-1.7,5-5.8,10-9.2c6.7-4.2,23.4,0.8,30.1,3.3c9.2,3.3,13.4,8.4,23.4,10.9
	C864.7,871.8,873.9,878.5,883,881z"/>
<path class="st2" d="M703.4,691.3c0,8.4,12.5,13.4,1.7,20.9c-5.8,4.2-17.5,0.8-23.4,0v0.8c-1.7,8.4,5.8,18.4,4.2,26.7
	c3.3,3.3,0.8,9.2,0.8,13.4c17.5,3.3,1.7,10-3.3,16.7c-8.4,10.9-1.7,13.4,3.3,22.6c0.8,0.8,0.8,2.5,1.7,3.3c2.5,1.7,5,3.3,8.4,4.2
	c10.9,3.3,24.2,5.8,35.1,8.4c1.7,7.5-5,14.2-7.5,20.9c-2.5,7.5-4.2,15-3.3,23.4c2.5,0,5,0,8.4,0c7.5-0.8,22.6-9.2,29.2-7.5
	c5,1.7,6.7,7.5,8.4,11.7c0.8,1.7,1.7,2.5,1.7,4.2c5-3.3,10-7.5,15-8.4c7.5-1.7,15.9,2.5,23.4,0.8c6.7-0.8,10.9-6.7,17.5-7.5
	c12.5-1.7,27.6,21.7,24.2-0.8c-1.7-17.5,5.8-20.9,22.6-23.4v-0.8c-0.8-5-9.2-15-11.7-16.7c-2.5-2.5-8.4-2.5-10-5.8
	c-1.7-3.3,0-10.9-1.7-14.2c-10,0.8-14.2-6.7-15.9-15c-1.7-9.2,5-7.5,14.2-10c15.9-4.2,30.9-14.2,46.8-19.2h0.8c-0.8-5,0.8-12.5-5-15
	c0-5,10.9-15.9-2.5-13.4c0-5.8,3.3-8.4,1.7-14.2c-0.8-4.2-5.8-6.7-7.5-10c-5.8-10.9-3.3-12.5-1.7-23.4c0-2.5,0-5,0-7.5
	c-0.8-5.8-3.3-11.7-7.5-15.9c-18.4-18.4-35.1,5-56,1.7c0-12.5,6.7-14.2-10-13.4c-15,0.8-20.1-0.8-18.4-15
	c-12.5-1.7-30.1-3.3-41.8,3.3c1.7,6.7,10,14.2,6.7,22.6c-4.2,10.9-14.2,7.5-22.6,8.4c-8.4,0.8-15.9,6.7-21.7,12.5
	c1.7,0.8,3.3,1.7,5,3.3C731,678.8,702.6,677.1,703.4,691.3z"/>
<path class="st3" d="M647.4,725.6c4.2,0.8,10.9,1.7,15,3.3s5.8,7.5,8.4,8.4c4.2,1.7,10.9-2.5,15,1.7c0,0,0,0,0,0.8
	c0.8-7.5-5.8-17.5-4.2-26.7v-0.8l0,0c5.8,0,17.5,3.3,23.4,0c10-6.7-1.7-12.5-1.7-20.9c0-14.2,27.6-12.5,11.7-29.2
	c-1.7-1.7-3.3-2.5-5-3.3c-10-5-21.7,1.7-32.6,5.8c-15.9,5.8-20.1,13.4-27.6,27.6c-3.3,6.7-5.8,10.9-10,16.7
	c-5,6.7-8.4,13.4,4.2,10.9c-0.8,2.5-2.5,4.2-5,6.7C641.6,725.6,644.1,725.6,647.4,725.6z"/>
<path class="st2" d="M623.2,750.6c4.2,3.3,5.8,4.2,10.9,5.8c5.8,2.5,6.7,5.8,10.9,7.5c5,3.3,20.9,3.3,15,15.9
	c11.7,0.8,18.4,9.2,27.6,15c0-0.8-0.8-2.5-1.7-3.3c-5-9.2-11.7-11.7-3.3-22.6c5-7.5,20.9-13.4,3.3-16.7c0-4.2,2.5-9.2-0.8-13.4
	c0,0,0,0,0-0.8c-4.2-4.2-10.9,0.8-15-1.7c-2.5-0.8-4.2-6.7-8.4-8.4c-3.3-1.7-10.9-2.5-15-3.3c-3.3,0-5.8,0-8.4,0
	c-7.5,0.8-14.2,4.2-22.6,4.2c-9.2,0-15,2.5-18.4,7.5c1.7,0,3.3,0,4.2,0C614,737.3,615.7,744,623.2,750.6z"/>
<path class="st3" d="M313.2,712.2c10.9,10,18.4,0,30.1-6.7c4.2-1.7,10-5.8,14.2-6.7c10.9-2.5,3.3,0.8,12.5,5.8
	c10.9,5,21.7-8.4,25.1-17.5c3.3-11.7-4.2-20.9-2.5-30.9c0.8-4.2,5.8-10.9,7.5-17.5c-0.8,0-0.8,0-1.7,0c-8.4-1.7-5.8-13.4-17.5-9.2
	c-6.7,2.5-10,15.9-20.9,10c-1.7-9.2-8.4-10.9-13.4-14.2c-4.2,4.2-10.9,7.5-15,8.4c-10.9,2.5-20.9-5-18.4,11.7
	c1.7,12.5,15,10,17.5,19.2c1.7,5.8-13.4,20.1-17.5,25.1C306.5,696.3,303.2,703.9,313.2,712.2z"/>
<path class="st2" d="M360.8,638.7c10,5.8,14.2-7.5,20.9-10c11.7-4.2,8.4,7.5,17.5,9.2c0.8,0,1.7,0,1.7,0c8.4,0,10.9-9.2,8.4-15
	c-3.3-8.4-11.7-10.9-11.7-20.9c-6.7,1.7-23.4,8.4-29.2,5l-10-1.7c-9.2-5-16.7,8.4-13.4,15c0.8,2.5,2.5,3.3,4.2,5
	C352.5,628.7,359.2,629.5,360.8,638.7z"/>
<path class="st3" d="M407.6,547.6c3.3,8.4-4.2,10.9-5.8,16.7c-3.3,14.2,8.4,3.3,15,9.2c6.7,5,0,10.9-1.7,16.7
	c7.5,3.3,9.2,20.1,11.7,27.6c11.7,2.5,22.6-15,33.4-12.5c10.9,3.3,0,15.9-1.7,21.7c10-0.8,11.7,1.7,10,10c-0.8,2.5-4.2,4.2-4.2,8.4
	c0,5,3.3,5.8,4.2,10c2.5,20.1-19.2,3.3-29.2,7.5c-14.2,5.8,10.9,19.2,2.5,31.8c-5,6.7-31.8,13.4-12.5,22.6
	c10.9,5,29.2-5.8,32.6,12.5c5.8,1.7,15-5.8,20.1-9.2c1.7,16.7-21.7,19.2-32.6,21.7c-14.2,2.5-26.7,14.2-27.6,30.1
	c6.7,0.8,20.9-4.2,27.6-7.5c3.3-1.7,5.8-4.2,9.2-5.8c3.3-1.7,5.8,0,9.2-2.5c7.5-4.2,5.8-9.2,15-10c5.8-0.8,13.4,1.7,20.1,0.8
	c0-0.8,0-0.8-0.8-0.8c6.7,0.8,12.5-5,19.2-2.5c4.2,1.7,1.7,6.7,7.5,7.5c5,0.8,6.7-3.3,10.9-5c11.7-5,25.9-3.3,32.6-17.5
	c-4.2-2.5-9.2-3.3-13.4-2.5c-0.8-10.9,29.2-36.8,11.7-44.3c-7.5-3.3-14.2,7.5-20.1,5.8c-4.2-0.8-10-12.5-9.2-15.9
	c0.8-3.3,5-5.8,6.7-8.4c-5-0.8-20.1-10.9-19.2-15.9c0-4.2,9.2-5.8,8.4-11.7c-0.8-5-5.8-5.8-10-8.4c-11.7-7.5-11.7-10-14.2-22.6
	c-2.5-11.7-9.2-10.9-15-18.4c-5-6.7-2.5-13.4-11.7-15.9c-6.7-1.7-17.5,5.8-21.7-1.7c-3.3-6.7,6.7-15.9,11.7-19.2
	c10.9-8.4,16.7-6.7,17.5-22.6c0.8-24.2-30.9,2.5-43.4-9.2c1.7-3.3,5-10.9,8.4-13.4c5-3.3,14.2-0.8,17.5-5.8c3.3-5-1.7-7.5-0.8-11.7
	c0.8-7.5,9.2-11.7,9.2-20.1l-0.8-1.7c-5.8,1.7-10.9,4.2-15.9,7.5c-5,4.2-8.4,10.9-13.4,14.2c-14.2,9.2-26.7-4.2-36.8,14.2
	c-3.3,5.8-2.5,12.5-5.8,18.4c-3.3,5.8-11.7,7.5-13.4,14.2C396.8,540.9,405.1,540.9,407.6,547.6z"/>
<path class="st2" d="M372.5,1109.9c0-3.3,4.2-10,2.5-13.4c-1.7-3.3-10-4.2-10.9-9.2c-0.8-5.8,13.4-13.4,15.9-20.9
	c2.5-10-1.7-20.1,5.8-28.4c4.2-5,10.9-5,10-12.5c0-4.2-7.5-10.9-12.5-10.9c-10.9,0-12.5,12.5-23.4,9.2c-3.3-0.8-8.4-6.7-10-9.2
	c-6.7-0.8-9.2,5.8-16.7,5c10,9.2,0,28.4-2.5,40.9c-1.7,9.2,3.3,23.4,0.8,31.8c-2.5,9.2-10,15.9-10,25.1c8.4-1.7,11.7,5.8,10.9,13.4
	c13.4-0.8,4.2,15.9,5,20.9c0.8,10.9,9.2,8.4,17.5,6.7c3.3-0.8,6.7-1.7,10-2.5c-0.8-7.5,7.5-16.7,9.2-21.7
	C377.5,1125.8,371.7,1120,372.5,1109.9z"/>
<path class="st2" d="M594.8,1004.7c-10-3.3-22.6-8.4-31.8-10.9c-12.5-2.5-20.1,7.5-30.9,1.7c-7.5-3.3-24.2-12.5-26.7-20.9
	c-0.8-1.7-0.8-4.2,0-6.7c-9.2,0-17.5-1.7-26.7-1.7c-15.9-0.8-30.1,0-46,0.8c-14.2,0.8-27.6,0.8-41.8,2.5
	c-13.4,1.7-22.6-11.7-35.9-9.2c-1.7,13.4-6.7,8.4-15.9,12.5c-5.8,2.5-10.9,8.4-15.9,11.7c8.4,7.5,10,24.2,11.7,35.1
	c6.7,0.8,10-5,16.7-5c1.7,2.5,6.7,7.5,10,9.2c10.9,4.2,12.5-9.2,23.4-9.2c5,0,12.5,5.8,12.5,10.9c0.8,7.5-5.8,7.5-10,12.5
	c-6.7,8.4-3.3,18.4-5.8,28.4c-1.7,7.5-15.9,15-15.9,20.9c0.8,5,9.2,5,10.9,9.2c1.7,4.2-2.5,10-2.5,13.4c-0.8,10,5,15,1.7,25.1
	c-1.7,5.8-10,15-9.2,21.7c0,1.7,0.8,3.3,2.5,5c3.3,2.5,10.9,0.8,14.2,1.7c5.8,1.7,5,2.5,10,5.8c7.5,5.8,9.2,13.4,20.9,12.5
	c9.2-0.8,14.2-7.5,24.2-8.4c15-0.8,48.5,4.2,57.7-6.7c3.3-3.3,3.3-10,6.7-13.4c5-6.7,6.7-4.2,13.4-5.8c9.2-3.3,4.2,0,7.5-8.4
	c2.5-5,3.3-8.4,6.7-12.5c6.7-8.4,13.4-10.9,11.7-22.6c-0.8-10.9-4.2-15.9,5-24.2c6.7-5.8,5.8-5,9.2-11.7c1.7-4.2,3.3-8.4,6.7-12.5
	c6.7-8.4,16.7-13.4,26.7-17.5c8.4-3.3,23.4-7.5,28.4-15.9c3.3-5.8,2.5-14.2-0.8-20.1C613.2,1011.3,607.3,1009.7,594.8,1004.7z"/>
<path class="st2" d="M710.9,947c-1.7-4.2-0.8-7.5-2.5-10.9c-2.5-5-6.7-4.2-6.7-10c0-10,9.2-9.2,6.7-20.1c-0.8-4.2-9.2-5-2.5-10.9
	c0.8-0.8,1.7-0.8,3.3-0.8c-0.8-3.3-2.5-6.7-6.7-10c-5.8,3.3-11.7,3.3-18.4,3.3c0.8-8.4,12.5-20.1,17.5-26.7
	c5.8-7.5,10.9-8.4,18.4-8.4c-0.8-8.4,0-15.9,3.3-23.4c2.5-6.7,9.2-13.4,7.5-20.9c-11.7-3.3-24.2-5-35.1-8.4
	c-3.3-0.8-5.8-2.5-8.4-4.2c-9.2-5.8-15.9-14.2-27.6-15c5.8-12.5-10-12.5-15-15.9c-4.2-2.5-5-5-10.9-7.5c-5-2.5-7.5-2.5-10.9-5.8
	c-7.5-6.7-9.2-13.4-20.1-13.4c-1.7,0-3.3,0-4.2,0c-6.7,0.8-12.5,3.3-17.5,9.2c-5.8,7.5-2.5,15-9.2,22.6
	c-3.3,3.3-12.5,10.9-16.7,13.4c-7.5,4.2-16.7,1.7-24.2,3.3c-3.3,0.8-7.5,5-11.7,4.2c-5-1.7-4.2-7.5-7.5-10.9
	c-20.9-17.5-9.2,24.2-9.2,30.9c-10.9,1.7-11.7,5.8-22.6-0.8c-7.5-5-10.9-6.7-20.9-5.8c-6.7,0.8-16.7,1.7-22.6,5
	c-10,5.8-5.8,8.4,0.8,13.4c-15,6.7,10,13.4,15,14.2c11.7,2.5,13.4,9.2,22.6,13.4c10.9,5,19.2-5,20.9,9.2c0.8,5.8-2.5,10,1.7,15.9
	c3.3,5.8,9.2,5.8,13.4,9.2c10.9,6.7,5.8,9.2,10,21.7c-10,2.5-4.2,25.1-5,33.4c-1.7,8.4-10,19.2-10.9,29.2c0,2.5,0,4.2,0,6.7
	c2.5,7.5,19.2,17.5,26.7,20.9c11.7,5.8,18.4-4.2,30.9-1.7c10,1.7,21.7,6.7,31.8,10.9c12.5,5,18.4,6.7,21.7-2.5
	c0.8-1.7,0.8-4.2,1.7-6.7c4.2-26.7,33.4-26.7,55.1-18.4c11.7,5,19.2,10,30.9,0.8c4.2-3.3,11.7-10.9,18.4-18.4
	C715.9,958.7,713.4,953.7,710.9,947z"/>
<path class="st2" d="M768.6,860.1c-0.8-0.8-0.8-2.5-1.7-4.2c-1.7-4.2-3.3-10-8.4-11.7c-6.7-1.7-21.7,6.7-29.2,7.5
	c-3.3,0-5.8,0-8.4,0c-7.5,0-12.5,0-18.4,8.4c-5,6.7-16.7,18.4-17.5,26.7c6.7,0.8,12.5,0,18.4-3.3c4.2,3.3,5.8,6.7,6.7,10
	c3.3,0,6.7,3.3,9.2,3.3c10.9,0,9.2-6.7,15.9-15c7.5-8.4,13.4-6.7,14.2,5c0.8,7.5,5.8,24.2,9.2,5.8c0.8-4.2,0-9.2-0.8-12.5
	c3.3,0,9.2-0.8,12.5,0.8c2.5,1.7,3.3,7.5,5.8,8.4c10,3.3,11.7-7.5,7.5-14.2l0,0c-3.3-3.3-6.7-6.7-10-10
	C770.2,863.4,769.4,861.8,768.6,860.1z"/>
<path class="st2" d="M743.5,1069c1.7,5.8,4.2,8.4,5,15c0.8,6.7-0.8,12.5,0.8,18.4c4.2,0,5.8-3.3,9.2-4.2c1.7,0,9.2,1.7,9.2,0.8
	c5.8-2.5,8.4-9.2,8.4-15.9c0-12.5-8.4-25.9-11.7-38.4l-1.7,3.3c-5,0.8-13.4-0.8-17.5,2.5C740.2,1054.8,741.8,1064,743.5,1069z"/>
<path class="st2" d="M746,1011.3c-0.8,5,1.7,19.2,6.7,21.7c14.2,8.4,19.2-35.9,12.5-40.1v-0.8C756.9,995.5,747.7,1003.8,746,1011.3z
	"/>
<path class="st2" d="M901.4,1130.8c-0.8,0-0.8,0.8-1.7,0.8l0,0L901.4,1130.8z"/>
<path class="st2" d="M900.6,1131.7c-5.8-6.7-14.2,0-20.9,0.8c-8.4,1.7-13.4-1.7-20.9-3.3c-10-1.7-33.4,8.4-15.9,15
	c5.8,2.5,12.5-0.8,18.4,3.3c5.8,3.3,6.7,9.2,10.9,14.2c5.8,6.7,29.2,17.5,30.9,5C904.8,1159.2,889.7,1138.3,900.6,1131.7z"/>
<path class="st2" d="M868.8,899.4c-2.5-5.8-5.8-3.3-5.8-11.7c0-2.5,0-4.2,0-5.8c-9.2-2.5-14.2-8.4-23.4-10.9
	c-6.7-2.5-24.2-6.7-30.1-3.3c-5.8,3.3-4.2,7.5-10,9.2c-4.2,0.8-10.9-1.7-15.9,0.8l0,0c4.2,6.7,2.5,17.5-7.5,14.2
	c-2.5-0.8-3.3-6.7-5.8-8.4c-3.3-1.7-9.2-0.8-12.5-0.8c0.8,3.3,1.7,8.4,0.8,12.5c-4.2,17.5-8.4,1.7-9.2-5.8
	c-1.7-10.9-6.7-13.4-14.2-5c-6.7,7.5-5,15-15.9,15c-2.5,0-5.8-3.3-9.2-3.3c-0.8,0-1.7,0-3.3,0.8c-6.7,5,0.8,6.7,2.5,10.9
	c2.5,10.9-6.7,10-6.7,20.1c0,6.7,4.2,5.8,6.7,10c1.7,3.3,0.8,6.7,2.5,10.9c2.5,6.7,5,11.7,10,12.5c1.7,0,4.2,0,6.7-0.8
	c9.2-4.2,10.9-10,22.6-10c17.5,0,29.2,5,35.9,22.6c3.3,8.4,2.5,14.2,10.9,19.2c8.4,5.8,16.7,5.8,24.2,15c4.2,5.8,4.2,12.5,9.2,17.5
	c5,5.8,12.5,10.9,18.4,15c7.5,5,15,5.8,24.2,7.5c13.4,2.5,9.2,6.7,15.9,15.9c5,7.5,15,8.4,20.9,14.2c5.8,5.8,6.7,12.5,10,20.1
	c3.3,8.4,5.8,13.4,2.5,22.6c-3.3,8.4-8.4,13.4-9.2,23.4c7.5,0,15-8.4,19.2-14.2c1.7-3.3,2.5-8.4,5-11.7c1.7-1.7,8.4-5.8,9.2-6.7
	c5.8-10.9-20.1-25.1-4.2-35.9c5-3.3,44.3,15.9,36.8-0.8c-0.8-2.5-11.7-8.4-15-10c-5.8-4.2-12.5-8.4-17.5-12.5
	c-4.2-3.3-7.5-9.2-13.4-11.7c-8.4-5-15-0.8-14.2-14.2c-12.5-7.5-25.9-4.2-36.8-17.5c-4.2-5-5-11.7-9.2-16.7c-5-5.8-6.7-6.7-9.2-14.2
	c-5-15.9-14.2-11.7-24.2-23.4c-10.9-12.5-6.7-30.1,3.3-39.3c5-4.2,11.7-6.7,18.4-4.2c1.7,0.8,2.5,0.8,4.2,1.7
	c1.7-0.8,3.3-0.8,5.8-0.8C869.7,906.1,871.3,903.5,868.8,899.4z"/>
<path class="st2" d="M930.7,875.1c-3.3-0.8-7.5,0-12.5,1.7c-10.9,3.3-23.4,7.5-35.1,4.2c-8.4-2.5-18.4-9.2-20.1,0c0,1.7,0,3.3,0,5.8
	c0.8,8.4,4.2,5.8,5.8,11.7c1.7,4.2,0.8,6.7,1.7,10c11.7-0.8,30.1,1.7,34.3,3.3c5-8.4,4.2-21.7,14.2-25.9c2.5-0.8,5,1.7,6.7,0.8
	c1.7-0.8,4.2-3.3,5-3.3c2.5-0.8,4.2-0.8,5.8-1.7C936.5,878.5,934,876,930.7,875.1z"/>
<path class="st2" d="M975.8,989.6c-9.2-7.5-20.9-15.9-24.2-18.4c-5-4.2-12.5-8.4-15-14.2c-1.7-3.3,0-9.2-1.7-11.7
	c-1.7-3.3-8.4-4.2-10-7.5c-1.7-2.5-2.5-6.7-1.7-10c1.7-8.4,0.8-5,7.5-5c7.5-0.8,17.5,1.7,25.1,3.3c8.4,1.7,15,7.5,24.2,5
	c9.2-2.5,12.5-5,21.7-2.5c0-3.3-0.8-5.8-1.7-9.2c-2.5-5.8-11.7-11.7-13.4-16.7c-5.8,0-12.5,0.8-17.5-0.8c-10-2.5-15-9.2-23.4-15
	c-3.3-2.5-5-2.5-6.7-2.5s-2.5,0.8-5.8,1.7c-1.7,0-3.3,3.3-5,3.3c-1.7,0.8-4.2-2.5-6.7-0.8c-10,4.2-9.2,17.5-14.2,25.9
	c-5-2.5-22.6-5-34.3-3.3c-2.5,0-4.2,0.8-5.8,0.8c-0.8,0-2.5,0.8-2.5,1.7c-5,5-0.8,17.5,5.8,19.2c6.7,0.8,10.9-9.2,18.4-8.4
	c0,5,0,10,1.7,15c11.7-0.8,11.7,13.4,19.2,19.2c2.5,2.5,7.5,3.3,9.2,5c3.3,3.3,2.5,6.7,5.8,10.9c5,7.5,11.7,8.4,20.1,10.9
	c10,3.3,18.4,9.2,28.4,13.4c1.7,0.8,5.8,1.7,9.2,2.5C976.6,995.5,975,992.1,975.8,989.6z"/>
<path class="st2" d="M1000,947.8c0.8-6.7,1.7-14.2,0.8-20.9c-9.2-2.5-12.5,0-21.7,2.5c-9.2,2.5-15-3.3-24.2-5
	c-7.5-1.7-17.5-3.3-25.1-3.3c-5.8,0-5.8-3.3-7.5,5c-0.8,3.3,0,7.5,1.7,10c2.5,3.3,8.4,4.2,10,7.5c1.7,3.3,0,8.4,1.7,11.7
	c2.5,5.8,10.9,10,15,14.2c3.3,3.3,15,10.9,24.2,18.4c1.7-9.2,20.9-11.7,29.2-19.2c-1.7-1.7-2.5-3.3-3.3-5
	C1000,959.5,1000,952.8,1000,947.8z"/>
<path class="st2" d="M1030.1,1040.6c-1.7-6.7-8.4-19.2,2.5-20.9c-8.4-5-13.4-12.5-10-20.9c0.8-0.8,1.7-2.5,2.5-4.2l-17.5,7.5
	c-1.7,3.3-0.8,6.7-4.2,9.2c0,5,0.8,9.2,0.8,14.2c0,9.2-2.5,15-3.3,24.2c0,8.4,10,30.9,22.6,29.2c0,0.8,0,1.7,0,2.5
	c4.2-8.4,11.7-16.7,15-22.6C1033.4,1055.6,1031.8,1049.8,1030.1,1040.6z"/>
<path class="st2" d="M1009.2,1000.5c3.3-5.8,5-4.2,11.7-7.5c1.7-0.8,3.3-1.7,5-2.5c-0.8-0.8-1.7-1.7-3.3-3.3
	c-2.5-1.7-5.8-0.8-7.5-3.3c-1.7-2.5-0.8-5-1.7-6.7c-2.5-3.3-5-5-6.7-7.5c-9.2,6.7-27.6,10-29.2,19.2c-0.8,2.5,0.8,5.8,4.2,10
	c0.8,0.8,0.8,0.8,1.7,1.7c5,5.8,13.4,14.2,20.9,10.9c0.8-0.8,1.7-0.8,2.5-1.7c3.3-2.5,2.5-5.8,4.2-9.2
	C1008.4,1001.3,1009.2,1001.3,1009.2,1000.5z"/>
<path class="st2" d="M1042.6,981.3c14.2,0.8,9.2,20.9,14.2,29.2l0,0c5.8-0.8,11.7-0.8,17.5-1.7c-2.5-6.7,0-7.5,2.5-14.2
	c5-14.2-0.8-15-7.5-25.9c-4.2-7.5,0-18.4,10-19.2c-1.7-6.7-2.5-11.7-10.9-13.4c-6.7-1.7-9.2,3.3-15-3.3c-3.3-4.2-1.7-10-5-14.2
	c-3.3-4.2-10-3.3-14.2-6.7c-4.2-3.3-6.7-8.4-10-12.5c-0.8-0.8-2.5-2.5-3.3-3.3c-7.5-5.8-17.5-7.5-27.6-4.2c-7.5,2.5-9.2,5-8.4,8.4
	c1.7,5,10.9,10.9,13.4,16.7c0.8,2.5,1.7,5.8,1.7,9.2c0.8,6.7,0,14.2-0.8,20.9c-0.8,5-0.8,12.5,1.7,17.5c0.8,2.5,2.5,4.2,3.3,5
	c1.7,2.5,4.2,4.2,6.7,7.5c1.7,1.7,0,4.2,1.7,6.7c1.7,2.5,5.8,1.7,7.5,3.3c1.7,0.8,2.5,1.7,3.3,3.3c0.8,0.8,1.7,1.7,1.7,2.5
	C1031.8,987.1,1037.6,981.3,1042.6,981.3z"/>
<path class="st2" d="M1057.7,1011.3L1057.7,1011.3c-5-8.4-0.8-28.4-15-29.2c-5,0-10.9,5.8-15,10.9c-0.8,0.8-0.8,1.7-1.7,2.5
	c-0.8,1.7-1.7,2.5-2.5,4.2c-4.2,8.4,1.7,15.9,10,20.9c0.8,0,0.8,0,1.7,0C1039.3,1013,1048.5,1011.3,1057.7,1011.3z"/>
<path class="st2" d="M1075.2,1009.7C1075.2,1008.8,1075.2,1008.8,1075.2,1009.7c-5,0.8-11.7,1.7-17.5,1.7
	c-9.2,0.8-18.4,1.7-22.6,9.2c-0.8,0-1.7,0-1.7,0c-10.9,1.7-4.2,14.2-2.5,20.9c1.7,8.4,2.5,15,9.2,18.4c0.8-0.8,0.8-1.7,1.7-2.5
	c3.3-5.8,5.8-10.9,11.7-14.2c11.7-7.5,10.9,0.8,20.9,2.5c5.8,0.8,5.8-2.5,10-5c1.7-0.8,2.5-0.8,3.3-1.7c-0.8-4.2,0-10-2.5-15.9
	C1082.7,1017.2,1076.9,1014.7,1075.2,1009.7z"/>
<path class="st2" d="M1204.7,1008c-3.3-10.9-11.7-5-6.7-18.4c4.2-10.9,30.1-18.4,18.4-30.9c0-0.8-0.8-0.8-1.7-1.7
	c-12.5-10.9-35.9-3.3-46.8,3.3c-14.2,9.2-25.9,8.4-40.9,4.2c-10-2.5-47.6,5-44.3-14.2c-0.8,0-2.5,0-3.3,0c-10,0-14.2,10.9-10,19.2
	c6.7,10.9,12.5,12.5,7.5,25.9c-2.5,6.7-5,6.7-2.5,14.2l0,0c1.7,5,8.4,7.5,10,11.7c3.3,5.8,1.7,11.7,2.5,15.9
	c2.5-0.8,4.2-0.8,7.5-1.7c3.3-0.8,8.4-5.8,11.7-6.7c3.3,0,5,5,8.4,5c11.7,1.7,14.2-9.2,25.9-3.3c5,2.5,14.2,13.4,19.2,4.2
	c0,0,0-0.8,0.8-0.8c0,0,0-0.8,0.8-0.8l0,0c5.8-11.7,15.9-20.1,30.1-17.5c6.7,0.8,6.7,3.3,9.2,7.5
	C1202.2,1018,1206.4,1013,1204.7,1008z"/>
<path class="st2" d="M1231.5,1043.1c-3.3-5.8-10.9-10-16.7-12.5c-4.2-1.7-8.4-2.5-12.5-5c-0.8-0.8-1.7-1.7-2.5-2.5
	c-3.3-3.3-3.3-6.7-9.2-7.5c-14.2-2.5-24.2,6.7-30.1,17.5l4.2-0.8c1.7-1.7,4.2,9.2,2.5,13.4c-0.8,2.5-2.5,4.2-4.2,5
	c1.7,1.7,2.5,3.3,5,3.3c7.5,1.7,12.5-5.8,18.4-8.4c6.7-3.3,15.9-5,24.2-4.2c7.5,0.8,15,7.5,22.6,7.5
	C1231.5,1047.3,1230.6,1044.8,1231.5,1043.1z"/>
<path class="st2" d="M1055.2,1126.6c-2.5,6.7-0.8,15.9-5.8,19.2c-1.7,10,5,13.4,10.9,19.2c5,5.8,6.7,14.2,15.9,15
	c20.9,1.7,9.2-34.3,20.1-32.6c0-2.5,0-5,0-7.5c-5.8-4.2-10.9-10.9-17.5-13.4C1071,1124.1,1062.7,1125.8,1055.2,1126.6z"/>
<path class="st2" d="M1167.1,1046.4c1.7-4.2-0.8-15-2.5-13.4l-4.2,0.8l0,0c0,0,0,0.8-0.8,0.8c0,0,0,0.8-0.8,0.8
	c-5,9.2-14.2-1.7-19.2-4.2c-11.7-5.8-14.2,5-25.9,3.3c-3.3-0.8-5-5.8-8.4-5c-2.5,0-8.4,5-11.7,6.7c-3.3,0.8-5,0.8-7.5,1.7
	c-0.8,0-1.7,0.8-3.3,1.7c-5,2.5-4.2,5.8-10,5c-10-0.8-9.2-10-20.9-2.5c-5.8,4.2-8.4,9.2-11.7,14.2c0,0.8-0.8,1.7-1.7,2.5
	c-3.3,5.8-10.9,15-15,22.6c-3.3,5.8-4.2,10.9-1.7,14.2c4.2,6.7,12.5,1.7,17.5,9.2c4.2,5.8,0,15.9,2.5,22.6c4.2,0,7.5,0,11.7-0.8
	c7.5-0.8,15.9-2.5,22.6,0c6.7,2.5,11.7,9.2,17.5,13.4c3.3,2.5,6.7,3.3,11.7,3.3c16.7-0.8,11.7-16.7,1.7-23.4c-8.4-5-7.5-3.3-12.5-10
	c-3.3-5-5.8-6.7-10-10.9c-7.5-7.5-15.9-21.7-6.7-31.8c6.7,4.2,7.5,12.5,15.9,15c8.4,1.7,15.9-2.5,14.2-10.9
	c-0.8-5.8-11.7-10.9-3.3-17.5c7.5-5.8,10.9,4.2,16.7,5c0-1.7,0.8-2.5,1.7-4.2c10.9-0.8,20.1,0,30.9-2.5c0,0,0,0,0.8,0l0,0
	c3.3-0.8,5.8-0.8,7.5-1.7C1164.6,1050.6,1165.5,1048.9,1167.1,1046.4z"/>
</svg>
