<?xml version="1.0" encoding="utf-8"?>
<!-- Generator: Adobe Illustrator 21.0.2, SVG Export Plug-In . SVG Version: 6.00 Build 0)  -->
<svg version="1.1" id="Layer_1" xmlns="http://www.w3.org/2000/svg" xmlns:xlink="http://www.w3.org/1999/xlink" x="0px" y="0px"
	 width="1800px" height="1200px" viewBox="0 0 1800 1200" style="enable-background:new 0 0 1800 1200;" xml:space="preserve">
<style type="text/css">
	.st0{fill:#E4E9EB;stroke:#FFFFFF;stroke-width:0.75;stroke-miterlimit:10;}
	.st1{fill:#019CDB;stroke:#FFFFFF;stroke-width:0.75;stroke-miterlimit:10;}
	.st2{fill:#E4E9EB;stroke:#FFFFFF;stroke-width:2;stroke-miterlimit:10;}
	.st3{fill:#D9DEDF;stroke:#FFFFFF;stroke-width:2;stroke-miterlimit:10;}
	.st4{fill:#E4E9EB;}
	.st5{fill:#D9DEDF;}
	.st6{fill:none;stroke:#D3D3D3;stroke-width:3;stroke-miterlimit:10;}
</style>
<g>
	<path class="st2" d="M711.6,37.3c6.7,0.5,7.7,12.4,8.3,17.6c0.5,7.2-7.7,16.5-2.1,24.8c6.2,8.8,17,0,17.6-8.3
		c0.5-7.2-7.7-13.9-3.1-21.7c4.1-5.7,13.9-4.1,20.7-4.1c4.6,0,12.4-1.5,16.5,0.5c3.1,1.5,4.1,6.7,7.2,8.3c3.1,2.1,7.2,1.5,11.4,1.5
		c5.2,0,7.2,0.5,11.4,2.6c6.7,2.6,15,8.3,22.2,5.2c7.7-3.1,11.4-13.9,20.7-6.7c3.1,2.6,3.1,6.2,5.2,8.8c3.6,4.6,5.2,1.5,9.3,2.6
		c4.1,1,3.6,4.6,8.3,6.2c5.2,1.5,9.8-1.5,13.9,3.1c8.3,10.3-17.6,7.7-1,15.5c9.8,4.6,11.9,10.3,13.4,22.2
		c1.5,12.4,2.1,26.3,3.1,38.7c1,9.8-1.5,19.6-5.2,29.4c-5.2,15-19.6,25.8-29.9,37.7c-9.8,10.8-28.9,18.1-43.4,20.1
		c-8.3,1-31.5,4.1-38.7-1.5c-3.1-2.6-2.1-6.2-3.1-10.3c-1-6.7-3.6-12.9-7.7-18.1c-8.3-11.4-16.5-18.6-29.4-23.8
		c-23.2-9.3-46-18.6-56.8-42.9c-4.1-8.8-7.2-17-8.3-26.3c-0.5-6.7-3.6-13.4-3.6-20.1c0-10.3,4.1-22.2,8.3-31.5
		c2.1-4.6,5.2-9.3,6.7-14.5"/>
	<path class="st2" d="M626.4,195.8c-0.5,6.2-14.5,13.9-19.6,15.5c-8.8,2.6-8.8,6.2-10.3,16c-1,8.3-4.6,8.3-8.8,14.5
		c-3.6,5.7-0.5,12.9-1,19.6c-0.5,4.6-1.5,7.7,4.1,8.3c4.1,0.5,8.8-2.6,8.3-7.2c8.8,0,1.5,13.4-0.5,17c-4.6,6.7-12.9,6.7-12.9,17
		c-0.5,16,22.2,26.3,34.6,32c31,15,51.6-31,57.8-54.2c2.1-8.8,6.7-17.6,7.2-26.9c1-8.8,0.5-19.1,0-27.9c-0.5-7.2-3.1-11.4-8.8-16.5
		c-9.8-8.8-17.6-6.2-28.9-6.7"/>
	<path class="st3" d="M732.2,498.9c11.9,3.6,3.6,58.3,3.6,69.7c0,12.4-5.2,24.3-4.1,36.1s2.6,22.2,0.5,34.6
		c-2.1,12.4-3.6,24.3-6.2,36.1c-1,5.2-3.1,10.8-5.2,16c-2.6,6.7-1,7.2,0.5,13.9c2.1,8.3-1,6.7-4.6,12.9c-3.1,5.7-0.5,10.3,1.5,15.5
		c4.1,11.9,1.5,21.2,0,33.6c-2.1,11.9-3.6,25.8-8.8,36.7c-5.7,11.9-17,24.3-16.5,38.7c-0.5-0.5-2.6-1.5-3.1-2.6
		c-7.7,5.2,1.5,15.5,3.6,21.7c2.6,7.2,3.1,17.6,0.5,24.8c-2.6,8.3-7.7,12.9-7.7,22.2s3.6,12.9,11.9,16.5c0,1,0,2.1,0.5,3.1
		c8.8,3.6,2.1,12.4-1,17.6c-2.1,3.1-3.1,7.7-6.2,10.3c-2.6,2.6-5.2,2.6-8.3,4.6c-7.2,6.7-2.1,13.4-4.6,21.2c-1,3.6-5.2,4.6-6.2,7.2
		c-1.5,4.1,1.5,7.7,0.5,11.4c-2.1,6.2-12.4,11.9-11.4,19.6c5.7,3.1,10.8-5.2,15.5-2.1c5.2,3.1-0.5,10.8-2.6,13.4
		c-8.3,8.8-13.4,10.3-12.4,23.8c0.5,4.6-0.5,9.8,0,14.5c0.5,6.2,5.2,8.8,6.2,13.9c1,6.2-4.1,10.8-2.1,16.5c2.1,5.7,6.2,6.2,7.2,12.4
		c1,6.2-3.6,11.4,2.1,16.5c4.1,4.1,9.8,1,13.4,5.2c3.6,3.6,0.5,8.8,5.2,12.4c4.6,3.6,7.7,1.5,11.9,6.7c2.6,3.6,3.1,8.3,7.2,11.9
		c4.6,3.6,7.7,5.2,11.9,8.8c8.3,8.3,15.5,8.3,24.8,11.9c7.2,3.1,8.3,1.5,15,1.5c4.1,0,9.8,4.1,13.9,2.6c3.6-1,7.2-7.7,10.3-9.3
		c3.6-2.1,11.9-0.5,11.9-8.3c-11.4-2.1-24.8-19.1-24.3-29.9c-8.3-3.1-16-4.6-22.2-11.4c-6.7-7.2-16.5-16-11.9-26.9
		c6.7-13.9,15-23.2,16-39.8c1-12.9-2.1-26.3-2.6-39.2c-0.5-15.5,0-30.5,0-46c0-41.3,11.9-81.6,29.4-119.3
		c11.4-25.3,22.7-50.6,36.1-75.4c9.8-18.1,16-39.2,17.6-59.9c1.5-20.1,2.6-40.3,3.1-60.4c0-19.1-4.1-34.1-7.7-52.2
		c-2.6-12.9-1-25.8-4.1-38.2c-3.1-12.9-9.3-23.8-16-35.6c-6.2-10.8-16-25.8-26.3-34.6c-9.8-8.3-21.2-8.8-32.5-11.4"/>
	<path class="st2" d="M688.3,931.1c-1.5-10.8-8.3,1-9.3,5.2c-1,3.6-5.2,13.9-4.6,16.5c1.5,9.3,7.7,0.5,9.3-3.6
		c0.5-1.5-0.5-3.6,0-5.2c1-2.1,4.1-3.1,4.6-4.6c1.5-3.1,2.1-5.7,1-8.3"/>
	<path class="st2" d="M746.2,503.5c0-0.5-0.5-0.5-0.5-1c0,0.5,0,0.5-0.5,1C745.7,503.5,746.2,503.5,746.2,503.5z"/>
	<path class="st2" d="M969.2,622.3c1-7.7,0-10.3-7.7-10.8c-7.2-0.5-8.3-1-10.3-7.7c-1.5-4.6-1-9.8-2.6-15c-1.5-5.7-4.1-6.2-8.8-9.3
		c-2.1,1-3.1,3.6-2.6,5.7c-4.1,0.5-10.8-0.5-14.5-2.6c-5.2-3.1-2.6-4.1-3.1-11.4c-0.5-8.3-3.1-16.5-4.6-24.3c0-1,0-1.5,0-2.6
		c-6.2-2.6-12.9-6.2-17.6-8.3c-9.3-3.6-20.7,0.5-28.9,5.2c-7.2,3.6-15.5,11.4-17.6,19.6c-1,4.6-0.5,9.8-0.5,14.5
		c0,5.2-1,6.7-4.1,6.7l0.5,1.5c3.6,3.1,7.7,5.2,10.8,8.8c2.6,3.1,4.6,6.7,7.2,9.8c5.7,6.7,15,8.8,23.2,12.4
		c3.6,1.5,7.7,2.6,10.8,5.2c3.1,2.1,5.2,4.6,8.3,6.2c7.2,4.1,17.6,5.7,11.9,16c-3.1,5.2-4.6,8.3-4.6,13.9c0,2.1,0,5.2-0.5,7.2
		c-1,2.6-3.6,3.1-5.2,5.2c3.1,2.1,8.8,1.5,12.4,2.1c5.2,0.5,8.8,1.5,13.4,3.1c9.8,3.6,15-6.7,22.7-11.4c3.6-2.6,7.7-2.6,9.3-6.7
		c2.1-5.7,1.5-10.3,4.1-15.5c-1,0-2.1,0-3.6-0.5C965.6,634.2,968.2,628,969.2,622.3z"/>
	<path class="st2" d="M850,576.3c0-4.6-0.5-9.8,0.5-14.5c1.5-8.3,10.3-16,17.6-19.6c8.3-4.6,20.1-8.8,28.9-5.2
		c5.2,2.1,11.4,5.7,17.6,8.3c0-3.6,1-6.7,2.6-10.3c1.5-4.1,1.5-7.2,2.1-11.9c0.5-3.6,3.1-8.3,2.1-12.4c-1.5-4.1-6.7-5.7-9.8-9.3
		c-4.1-5.2-3.6-9.8-1-15c-1.5-0.5-3.1-0.5-4.1-0.5c-4.6,0-8.3,2.6-13.4,2.6c-7.2-0.5-5.7-0.5-7.2-6.2c-1-4.1-11.4-15.5-3.1-18.1
		c0.5-5.2-2.6-16.5-6.7-19.6c-4.6-3.6-13.9-2.6-19.6-5.7c-3.1-1.5-4.6-4.1-7.2-6.2c-3.6-2.1-6.2-1-9.3-2.1c-1.5-0.5-2.6-3.1-4.1-3.6
		c-1-0.5-3.6,0-4.1-0.5c-2.1-1-4.6-5.2-6.7-5.7c-3.1-1-5.2,1-8.8-1c-2.1-1-4.1-4.6-5.2-6.2c-3.6-6.2-1.5-13.4-1.5-20.7
		c0.5-8.3,1-15.5-9.3-12.9c-5.7,1.5-10.8,6.7-15,10.8c-5.7,5.2-10.8,4.6-17,7.7c-3.6,2.1-11.4,8.8-12.9,0.5c-2.1,0-3.6,0.5-5.7,0.5
		c-0.5,2.6-0.5,3.6,1,6.7c2.6,5.7,6.7,10.8,8.3,16.5c1.5,5.7-3.1,11.4-2.6,17.6c0,2.6,1.5,5.2,1.5,7.7c-0.5,2.1-1.5,5.7-2.6,8.3
		c-1.5,4.1-3.1,5.2-2.6,9.8c0.5,2.6,2.6,5.2,0,7.2c-1.5-1-5.7-3.1-7.2-2.1c-2.1,1-1.5,5.2-3.6,6.7c4.1,6.2,12.9,2.6,16,7.7
		c-4.1,6.2-9.3,9.8-11.4,17c0,0.5,0.5,0.5,0.5,1c0,0,0,0,0.5,0c0,0,0,0,0,0.5c4.1,6.7,7.2,13.4,11.4,20.1c2.1,3.6,5.7,8.8,5.7,12.9
		c0,4.6-3.1,7.2-3.1,11.9c0.5,9.3,5.2,16,8.3,24.3c2.1,4.6,2.1,21.2,8.3,22.2c2.6,0.5,8.3-6.2,9.8-7.7c2.6-2.6,5.2-7.2,9.3-8.8
		c5.7,4.1,8.8,4.6,16,4.6c4.6,0,4.6,0,7.2,3.6c1.5,2.6,3.1,5.2,4.1,8.3c3.1-4.1-1-8.8,5.2-11.4c4.6-2.1,8.8-0.5,13.4,0
		c1.5,0,2.6,0,3.6,0C848.9,583,850,581.5,850,576.3z"/>
	<path class="st2" d="M746.2,503.5c-0.5,0-0.5,0-1,0c0-0.5,0-0.5,0.5-1c2.1-7.2,6.7-10.8,11.4-17c-3.6-5.2-12.4-1.5-16-7.7
		c2.6-1.5,1.5-5.7,3.6-6.7c1.5-1,5.7,1,7.2,2.1c2.6-2.1,0.5-4.6,0-7.2c-1-4.6,0.5-5.7,2.6-9.8c1-2.1,2.1-5.7,2.6-8.3
		c0.5-2.6-1-5.2-1.5-7.7c-0.5-6.7,4.1-11.9,2.6-17.6c-1.5-5.7-5.7-10.8-8.3-16.5c-1.5-3.1-1.5-4.1-1-6.7c-7.7,1.5-15.5,5.2-16-5.2
		c-0.5-6.7,0.5-13.4,1.5-20.1c-2.1,0.5-3.6,1.5-5.2,2.1c-4.1,2.6-5.7,7.2-10.3,7.7c-5.2,0.5-6.7-2.6-9.3-5.7
		c-4.6-5.2-5.2-4.6-11.9-3.6c-0.5-9.8-5.7-12.4-9.8-19.6c-4.1-6.7,0-15.5,2.6-21.7c2.6-5.7,3.6-12.9,6.7-18.6
		c3.1-5.2,9.8-9.3,14.5-12.9c5.7-3.6,11.4-8.3,19.1-7.7c6.2,0.5,8.8,0.5,10.8-2.6c-1.5-1-3.1-3.1-4.6-3.6c-2.6-1-4.6,0-6.7-2.6
		c2.1-4.6,10.3-13.9,8.8-19.1c-1-3.1-6.7-5.2-9.8-4.1c-1.5,0.5-3.1,2.6-4.1,2.6c-1,0-3.1-1-4.1-1c-3.1-0.5-6.2-1-9.3-0.5
		c-3.1,0.5-7.2,4.1-10.3,3.1c-5.2-2.1-6.2-11.4-9.3-15c-1.5-1.5-4.1-2.1-6.2-4.6c-2.1-2.6-2.1-5.7-3.6-8.3
		c-3.1-4.6-10.8-10.8-16-11.4c-2.1-0.5-4.1,0-5.7,0l0,0c-0.5,1.5-2.1,3.6-1.5,4.6c0.5,1,3.1,2.1,3.6,3.6c1.5,3.6-2.1,6.7-3.6,10.3
		c-4.1,7.7-6.7,16.5-14.5,20.7c-8.3,4.1-15.5,4.6-20.7,13.4c-1.5,2.6-1,2.6-3.6,4.1c-2.1,1-3.1,1-4.6,3.1c-2.6,3.6-1.5,8.8-3.6,12.9
		c-2.6,5.2-5.7,6.2-9.3,1c-2.1-3.1-1.5-3.6-5.2-4.1c-2.6-0.5-5.2,0-7.7,0c-0.5-2.1-0.5-3.6-0.5-5.7c4.1,0,6.7-9.3,3.1-10.3
		c-2.1-0.5-7.7,6.2-9.3,7.2c-3.1,3.1-5.7,5.7-6.2,9.8c0,2.6,1,4.6,1,6.7c0,3.1-1.5,3.6,0,6.2c1.5,2.6,7.7,8.8,0,9.3
		c-1,9.3,9.3,6.7,13.9,10.8c5.7,4.6,8.8,11.9,12.9,17.6c5.2,6.7,6.7,15,10.3,22.2c3.1,6.7,7.2,13.4,9.3,20.7
		c2.1,5.7,2.1,14.5,6.7,19.1c1,1,3.1,1,4.1,2.1c1,1.5,0.5,3.6,1,5.2c1,3.1,3.6,5.2,6.2,7.7c4.6,5.7,6.2,11.9,6.7,19.1
		c0,4.1,0,7.2,1.5,10.3c2.1,4.1,5.7,4.6,8.8,8.3c2.6,2.6,4.6,5.7,7.2,7.7c3.1,2.6,7.2,5.2,10.3,7.7c8.8,6.7,21.2,6.2,29.9,12.9
		c1,0.5,2.6,2.6,3.1,3.1c0,1,0,1.5,0,2.6c1-0.5,1,0,1.5-1c5.2,2.6,7.2,9.8,10.3,13.9c2.6,3.1,9.8,9.8,13.9,8.8
		c1-3.1,3.6-3.6,5.2-5.7C744.1,510.2,745.7,506.6,746.2,503.5C746.7,504,746.7,504,746.2,503.5C746.7,503.5,746.7,503.5,746.2,503.5
		z"/>
	<path class="st2" d="M777.2,192.2c1-0.5,1.5-0.5,2.6-1C778.7,191.1,778.2,191.7,777.2,192.2z"/>
	<path class="st2" d="M1239.8,306.8c-11.4-3.1-11.4-0.5-18.1-7.2s-47-32-52.7-31.5c-5.7,0.5-9.3-0.5-13.4,0
		c-4.6,0.5-19.6-6.2-24.8-4.6c-5.2,1.5-8.3,2.1-12.9,4.6l-2.1,2.1c-0.5,0-1,0-2.1,0c0,1.5-1.5,2.1-1.5,3.6
		c-9.8,1.5-1.5-13.4-3.1-17.6c-1.5-4.6-5.7-4.1-9.8-6.7c-3.6-2.1-5.2-5.7-9.8-7.2c-6.7-2.1-17-5.7-23.8-5.2
		c-4.6,0-16.5,7.2-7.2,11.4c-3.6,4.6-8.3,2.6-12.4,5.2c-3.6,2.6-4.6,8.3-6.2,11.9c-2.1-9.3-5.7-6.2-13.4-9.3
		c-7.2-2.6-7.2-7.2-9.3-13.4c-3.6,0-12.9,5.2-16,6.7c-1.5-16,18.1-22.2,24.3-34.6c1.5-3.1,3.6-8.3,4.1-11.9c0.5-5.7-1-4.6-4.1-8.8
		c-3.6-4.6-5.2-10.8-7.2-16.5c-2.1-6.2-1.5-17.6-9.8-19.6l-2.1,3.1c-4.1,4.6-6.2,9.8-9.3,15l-3.1,5.2c-2.1,2.6-4.1,4.6-6.7,6.2
		c-11.9,6.2-21.2-2.1-33.6-1.5c-4.1,0-15-1-15.5,4.1c2.1,1,3.1,2.6,3.6,4.6c-5.7,2.1-11.4-0.5-17,0c-6.7,0.5-8.3,6.2-13.4,9.3
		c-8.8,5.2-22.7-8.3-25.3-16c-4.1-10.3,7.2-21.7,3.1-30.5c-1-2.1-3.6-2.1-4.6-4.1c-2.1-3.6,0-4.6-0.5-8.3c-1-7.7-5.2-3.6-8.3,1
		c-2.1,3.6,0.5,3.6-4.1,6.2c-1,0.5-6.2,2.6-7.2,2.6c-5.7,1.5-10.8,2.6-16.5,4.1c0,11.4-24.3,1.5-31,0.5c0,5.2,5.7,6.7,7.7,10.3
		c2.1,4.1-0.5,10.3,3.6,13.9c2.1,1.5,4.6-1,6.2,2.6c1.5,3.1,0,5.2-2.1,7.2c-1.5,1.5-3.6,1-5.7,2.6c-2.1,2.1-2.1,4.1-4.1,5.7
		c-3.1,2.6-8.8,1-10.8,3.1c-1.5,1.5-2.1,6.7-2.6,8.8c-2.1,0.5-4.6,1-6.7,0.5c-1-2.1-1-4.6-1-6.7c-4.6,0-9.8,0-14.5,0
		c-0.5-3.1-2.6-6.2-6.2-6.7c-1.5-2.1-1.5-10.3-5.2-9.3c0.5,0,1-0.5,1-0.5c-3.6,1.5-6.7,2.6-10.8,3.6c-5.2,1-8.8,3.1-14.5,4.1
		c-3.6,0.5-15,2.6-7.2,8.3c3.6,2.6,13.9-4.1,11.4,6.2c-21.2-0.5-9.3,18.6-7.2,30.5c2.6,13.4-0.5,28.4-4.1,40.8
		c-1,3.1-1.5,4.6-2.6,6.2c-2.1,3.1-5.2,2.6-10.8,2.6c-7.2-0.5-13.4,4.1-19.1,7.7c-5.2,3.1-11.9,7.7-14.5,12.9
		c-3.1,5.7-4.1,12.9-6.7,18.6c-2.6,6.2-6.7,15-2.6,21.7c4.6,7.2,9.8,9.8,9.8,19.6c6.2-0.5,6.7-1.5,11.9,3.6c3.1,3.1,4.6,6.7,9.3,5.7
		c4.6-0.5,6.2-5.2,10.3-7.7c1.5-1,3.6-1.5,5.2-2.1c-1,6.7-1.5,13.9-1.5,20.1c0.5,10.3,8.8,7.2,16,5.2c2.1-0.5,4.1-1,5.7-0.5
		c1.5,8.8,9.3,2.1,12.9-0.5c6.2-3.1,11.4-3.1,17-7.7c4.1-4.1,9.3-9.3,15-10.8c10.3-2.6,9.8,5.2,9.3,12.9c-0.5,6.7-2.1,13.9,1.5,20.7
		c1,2.1,3.1,5.2,5.2,6.2c3.1,2.1,5.7,0,8.8,1c1.5,0.5,4.6,4.6,6.7,5.7c1,0.5,3.1,0,4.1,0.5c1.5,0.5,2.1,3.1,4.1,3.6
		c3.1,1.5,6.2,0,9.3,2.1c2.6,2.1,4.1,4.1,7.2,6.2c5.7,3.1,15,2.6,19.6,5.7c4.1,3.1,7.2,15,6.7,19.6c-8.3,2.6,2.1,13.9,3.1,18.1
		c1.5,5.7,0,6.2,7.2,6.2c5.2,0,8.3-2.6,13.4-2.6c1.5,0,2.6,0,4.1,0.5c-2.6,5.2-3.1,9.8,1,15c3.1,3.1,8.3,5.2,9.8,9.3
		c1,4.1-1.5,8.8-2.1,12.4c-0.5,4.6-0.5,7.7-2.1,11.9c-1,3.6-2.6,6.7-2.6,10.3c0,1,0,1.5,0,2.6c1.5,7.7,4.1,16,4.6,24.3
		c0.5,6.7-2.1,8.3,3.1,11.4c3.1,2.1,10.3,3.1,14.5,2.6c0-2.6,0.5-4.6,2.6-5.7c4.6,2.6,7.2,3.6,8.8,9.3c1.5,4.6,1.5,9.8,2.6,15
		c2.1,6.7,3.1,7.2,10.3,7.7c7.7,0.5,9.3,2.6,7.7,10.8c-1,5.7-3.6,11.9-3.1,17.6c1,0.5,2.1,0.5,3.6,0.5c2.6,0,5.2,0,6.7,2.1
		c2.1,2.6,1.5,8.8,2.1,11.9c1,10.3,0.5,11.9-8.8,16.5c-8.3,4.1-12.9,9.3-18.6,16.5c-5.2,6.7-10.3,9.3-17,13.9
		c-5.2,3.1-11.9,10.3-11.9,16.5c0.5,0,1,0,1.5,0c-0.5,1-1,1-1,1s1.5-0.5,3.6-1c2.6,0,5.2-0.5,7.7-1c2.1,0,3.6,0.5,4.6,2.1
		c3.1,5.2,15,14.5,16.5,14.5s27.9,21.2,27.9,21.2s5.2,7.2,3.1,12.4c-2.1,5.2,0.5,10.3,0.5,10.3s7.2-7.2,9.8-10.3
		c2.6-3.1,26.3-31.5,32-45.4c5.7-13.9,21.2-25.3,25.8-35.6c4.6-10.3,3.1-43.9,3.1-43.9s17.6-25.3,28.4-31s41.8-12.9,49.6-15.5
		c7.7-2.6,23.8-11.4,31-25.8c7.2-14.5,9.8-12.4,16-36.7c6.2-24.3,12.4-24.8,12.4-40.8c0-16-2.1-46,0-51.1c2.1-5.2,7.7-12.4,7.7-12.4
		s9.8-7.2,20.1-28.9c10.3-21.7,31-25.8,31-52.2S1251.7,309.9,1239.8,306.8z"/>
	<path class="st2" d="M692,250.5c3.1,3.1,4.1,12.9,9.3,15c3.1,1,7.7-2.6,10.3-3.1c3.1-0.5,6.7-0.5,9.3,0.5c1,0.5,3.1,1.5,4.1,1
		c1,0,2.6-2.1,4.1-2.6c3.1-0.5,8.8,1,9.8,4.1c1.5,5.2-6.2,14.5-8.8,19.1c2.1,2.6,4.1,1,6.7,2.6c1.5,1,3.1,2.6,4.6,3.6l0,0
		c1-1.5,1.5-3.1,2.6-6.2c3.6-12.4,6.7-27.4,4.1-40.8c-2.1-11.9-14.5-31,7.2-30.5c2.1-9.8-7.7-3.6-11.4-6.2c-7.2-5.2,4.1-7.7,7.2-8.3
		c5.7-0.5,9.8-3.1,14.5-4.1c4.1-1,7.2-2.1,10.8-3.6c-0.5,0-1,0.5-1,0.5c3.6-1,4.1,6.7,5.2,9.3c2.1,0,3.6,1,4.6,2.6
		c3.1-3.1,0-14.5-2.1-17.6c-3.6-4.6-7.7-6.7-12.9-8.8c3.1-3.6,10.3-4.6,6.7-10.3c-1-2.1-3.6-2.6-4.6-4.6c-1-2.6-0.5-6.7-0.5-9.3
		c0-4.6,0-11.4,1-16c1-3.6,8.3-10.8,3.6-13.9c-2.1-1.5-6.7,0.5-8.8,1c-4.6,1-10.3,3.1-15,2.1c-4.1-1-7.7-5.7-11.4-8.3
		c-5.7-4.1-8.8-5.7-16-5.7c-5.7,0-12.4,1-16.5-2.6c-9.3-7.7,1-32-17-32c-0.5-3.1,2.6-8.3,3.6-11.4c1.5-3.6,3.1-6.7,4.1-10.8
		c2.1-8.3,7.7-11.4,14.5-16.5c4.1-3.1,17-12.4,4.6-11.9c-10.3,0.5-12.4,12.9-21.2,15c-4.6,1-8.3,0-12.9,2.1c-1.5,0.5-4.1,1-5.7,2.1
		c-1.5,1.5-2.1,3.6-4.1,4.6c-1.5-4.1-8.3-3.6-10.8,0c-2.1,3.6,0,9.3-1,12.9c-1.5,7.2-10.8,10.3-15.5,16c-3.1,4.1-2.6,8.8-2.6,13.4
		c-4.1,0-5.7-4.6-8.8-6.2c-1.5,3.1,0,7.2-1.5,10.8c-1,3.1-3.6,5.2-5.7,7.7c-3.1,3.6-2.1,3.1,1,6.7c1.5,2.6,4.1,5.2,4.1,8.3
		c0,3.1-1,6.7-1.5,10.3c0,4.1,1.5,7.2,1.5,10.8c0.5,3.6,0,7.2,1,10.8s2.6,7.2,2.6,10.8c0,4.1-3.1,6.2-6.2,8.8c-1,1-3.1,1-4.1,3.1
		c-0.5,1.5,1.5,3.6,1,5.7c-7.7,4.6-16,2.6-13.9,13.9c-3.6-0.5-6.7,2.6-4.6,5.7c1.5,2.1,5.7,2.6,7.7,3.6c5.2,3.1,9.3,8.3,13.4,12.4
		c2.6,3.1,4.1,4.6,7.7,5.2c4.1,0.5,6.2-2.1,9.8-2.6c5.2-0.5,4.6,2.1,8.3,4.6c3.1,2.6,5.2,0.5,9.3,1c5.2,1,12.9,7.2,16,11.4
		c1.5,2.6,2.1,5.7,3.6,8.3C687.3,246.9,690.4,248.5,692,250.5z"/>
	<path class="st2" d="M1054.4,226.8c-0.5-1-2.1-1.5-3.1-2.1c0,0-4.6,0.5-6.7,1c-2.6,0.5-5.7,0.5-8.8,0c-3.1-0.5-6.7-1.5-9.3,0
		c-3.1,2.1-2.6,5.2-2.1,8.3c0,2.6,1,6.2,0,8.3c-0.5,1-1.5,1-0.5,3.1c0.5,1,1.5,1.5,2.6,2.6c2.1,2.6,6.2,4.1,9.3,4.6
		c4.1,1,4.6-2.1,7.7-3.6c3.6-1.5,5.2,0.5,6.2-4.1c0.5-1.5,0.5-3.1,1-4.6c0.5-2.1,2.6-3.6,3.6-5.7
		C1054.4,231.4,1055.5,228.3,1054.4,226.8z"/>
	<path class="st2" d="M941.9,188C941.4,188,941.4,188,941.9,188C941.4,188,941.4,188,941.9,188z"/>
	<path class="st2" d="M943.9,187c-0.5,0-0.5,0-1,0C943.4,187,943.9,187,943.9,187z"/>
	<path class="st2" d="M939.8,189.6C939.8,189.1,939.8,189.1,939.8,189.6C939.8,189.1,939.8,189.1,939.8,189.6z"/>
	<path class="st2" d="M947.5,186.5c-1,0-1.5,0-2.1,0.5C946,187,946.5,186.5,947.5,186.5z"/>
	<path class="st2" d="M929.5,180.3c-2.6-3.1-1-4.1-2.6-7.2c-1-2.1-3.1-2.6-4.6-4.1c-3.1-3.1-5.7-10.3-6.2-14.5
		c-1-7.2,4.6-8.8,9.8-11.9c3.6-2.1,3.1-7.2,4.6-10.3c-1-3.6-3.6-6.2-7.2-8.3c-2.6-1-4.1-2.1-5.7-4.1c-1.5-2.1-1.5-6.2-5.2-5.2
		c-2.6,1-4.1,5.7-6.2,7.2c-2.6-7.2,4.1-12.9-0.5-20.1c-2.6-3.6-9.8-11.4-15-10.8c-2.6,0.5-4.6,4.6-6.7,6.2c-2.1,1.5-4.6,3.1-5.2,5.7
		c-0.5,1-0.5,4.1-0.5,4.6c0.5,1.5,2.6,1,3.6,2.6c3.1,3.6-1.5,4.6-4.1,5.2c-2.6,1-5.2,2.1-6.7,4.1c-1.5,3.1,1.5,5.2-0.5,7.7
		c-1,1.5-3.1,0-2.6,2.6c0,1.5,2.1,2.6,3.1,3.6c2.1,2.1,3.6,4.1,4.6,6.7c1.5,3.1-1,7.2-1,11.4c2.1-1.5,1-2.1,2.6-5.2
		c2.6-4.6,7.2-8.8,8.3-1c0.5,3.6-1.5,4.1,0.5,8.3c1,2.1,4.1,2.1,4.6,4.1c4.1,9.3-7.2,20.1-3.1,30.5c3.1,7.7,17,21.2,25.3,16
		c5.2-3.1,6.7-8.3,13.4-9.3c5.7-0.5,10.8,1.5,16,0c-0.5-0.5-1-1-1.5-1.5C937.2,189.6,933.6,184.9,929.5,180.3z"/>
	<path class="st2" d="M972.3,176.7c1-9.3-3.1-16-3.1-25.3c0-4.1,0-8.3,2.1-11.9c1-1.5,2.1-3.6,3.6-5.2c0.5-0.5,0.5-0.5,0.5-0.5
		c-1.5-3.1-9.3-4.6-11.9-5.2c-2.6-0.5-5.7-1-8.3,0c-2.6,0.5-3.6,3.1-5.7,4.1c-3.6,1.5-5.2,1-8.3-1c-2.1-1-4.6-2.6-7.2-2.1
		c-2.1,0.5-3.1,1.5-3.6,2.6c-1.5,3.1-1,8.3-4.6,10.3c-5.2,3.1-10.8,4.6-9.8,11.9c0.5,4.1,3.1,11.4,6.2,14.5c1.5,1.5,3.6,2.1,4.6,4.1
		c1.5,3.1,0,4.6,2.6,7.2c4.1,4.6,7.7,8.8,11.9,13.9c0.5,0.5,1,1,1.5,1.5l0,0c0,0,0.5,0,1,0c-0.5-2.1-1.5-3.6-3.6-4.6
		c0-0.5,0.5-1,0.5-1.5l0,0c0.5-0.5,0.5-0.5,1-1h0.5c0.5,0,1-0.5,1.5-0.5c0,0,0.5,0,1,0c0.5,0,0.5,0,1,0s1.5,0,2.1-0.5
		c2.6,0,5.7,0,7.2,0c5.2,0,9.8,1.5,13.9,2.6c-0.5,0-1,0-1-0.5C969.2,183.9,971.8,179.3,972.3,176.7z"/>
	<path class="st2" d="M972.3,190.1c-0.5,0-0.5,0-1,0C971.8,189.6,971.8,189.6,972.3,190.1z"/>
	<path class="st2" d="M975.9,190.6c-0.5,0-1,0-1,0S975.4,190.6,975.9,190.6z"/>
	<path class="st2" d="M977.5,190.6c0.5,0,1,0,2.1,0C978.5,190.6,978,190.6,977.5,190.6z"/>
	<path class="st2" d="M981.6,190.6L981.6,190.6c-0.5,0-0.5,0-0.5,0H981.6z"/>
	<path class="st2" d="M1009.5,155.5c-2.6-4.1-7.7-2.1-10.3-5.2c-3.1-3.1-4.1-7.7-7.7-10.3c-3.6-2.6-8.3-5.2-12.4-6.2
		c-2.1-0.5-2.1-1-3.6,0l-0.5,0.5c-1.5,1.5-2.6,3.1-3.6,5.2c-2.1,3.6-2.1,7.7-2.1,11.9c0,8.8,4.6,16,3.1,25.3
		c-0.5,2.6-2.6,7.2-4.6,12.4c0.5,0,1,0,1,0.5c1,0,1.5,0.5,2.6,0.5c0.5,0,0.5,0,1,0s1.5,0.5,2.1,0.5s1,0,1,0c0.5,0,1,0,1.5,0
		c0.5,0,1,0,2.1,0c0.5,0,1,0,1.5,0h0.5c1,0,2.1-0.5,3.1-0.5l11.4-9.8l2.1-3.1c2.6-5.2,5.2-10.8,9.3-15l2.1-3.1c0.5,0,1,0.5,1.5,0.5
		C1010.5,158.1,1010,156.5,1009.5,155.5z"/>
	<path class="st2" d="M835.5,928c-10.8-2.1-13.9,9.3-2.6,10.3c11.9,1.5,6.7-13.4-2.6-10.3"/>
	<path class="st3" d="M926.4,821.1c-1-2.1,0-6.2,0-8.8c-1-7.7-6.2-11.4-12.9-14.5c0,0,0,0-0.5,0c-0.5-3.6-1.5-7.2-2.6-9.8
		c-1.5-4.6-3.1-5.2-1.5-10.3c1-3.6,3.6-6.2,4.1-9.8c0.5,0,1,0,1.5,0c1.5-5.7-4.6-10.8-4.6-17.6c0-5.2,0.5-13.9,3.1-18.6
		c2.6-5.7,7.2-9.8,12.4-13.4c0,0,0,0-0.5,0c-2.1,0.5-3.6,1-3.6,1s0.5-0.5,1-1c-0.5,0-1,0-1.5,0c0-6.2,6.7-13.4,11.9-16.5
		c6.7-4.1,12.4-7.2,17-13.9c5.2-7.2,10.3-12.4,18.6-16.5c9.3-4.6,9.8-6.2,8.8-16.5c-0.5-3.1,0-9.3-2.1-11.9
		c-1.5-2.1-4.1-2.1-6.7-2.1c-2.6,4.6-1.5,9.3-4.1,15.5c-1.5,4.1-5.2,4.1-9.3,6.7c-7.7,4.6-12.9,15-22.7,11.4
		c-4.6-1.5-8.3-2.6-13.4-3.1c-3.6-0.5-9.3,0-12.4-2.1c1.5-2.1,4.1-2.6,5.2-5.2c0.5-1.5,0.5-5.2,0.5-7.2c0.5-5.7,2.1-8.8,4.6-13.9
		c5.7-10.3-4.6-11.9-11.9-16c-3.1-1.5-5.7-4.6-8.3-6.2c-3.1-2.1-7.2-3.1-10.8-5.2c-7.7-3.6-17-5.7-23.2-12.4
		c-2.6-3.1-4.6-6.7-7.2-9.8c-3.1-3.6-7.2-5.7-10.8-8.8l-0.5-1.5c-1,0-2.1,0-3.6,0c-4.6,0-9.3-1.5-13.4,0c-6.2,2.6-2.6,7.2-5.2,11.4
		c-1-2.6-2.6-5.7-4.1-8.3c-2.1-3.6-2.6-3.6-7.2-3.6c-7.2,0-10.3-1-16-4.6c-4.1,1.5-6.7,6.2-9.3,8.8c-1,1-3.6,3.6-5.7,5.7
		c1,4.1,2.1,8.3,1.5,12.4c-1.5,9.3-7.7,9.8-15,14.5c-7.2,4.1-6.2,12.4-5.7,19.1c0,6.7,4.1,14.5,3.6,21.2c-0.5,5.7,0.5,3.6-4.1,7.2
		c-3.1,2.1-5.2,4.6-7.2,7.7c-4.1,5.7-7.2,11.4-8.8,17.6c-0.5,2.1,0.5,3.6-0.5,5.7c-0.5,1.5-3.1,2.6-3.1,3.1c-1.5,4.6,0,4.6,1,9.3
		c2.1,7.2-1.5,13.4-4.1,19.6c-3.6,8.3-5.2,12.4-1,20.7c3.1,6.2,3.6,13.4,6.2,19.6c3.1,7.7,4.1,15-1,21.7c-4.6,6.2-6.7,11.4-7.7,19.1
		c-0.5,4.1,0.5,7.2-2.1,10.3c-1,1-3.1,0.5-4.1,2.1c-1,1-1.5,3.1-2.1,4.6c-2.6,7.2-0.5,13.9,0.5,21.2c1,6.2,5.7,16.5,1,21.2
		c-1,1-4.1,1.5-5.7,3.1c-1.5,1.5-2.1,3.6-3.1,5.2c-2.1,3.6-3.1,6.2-4.1,10.3c-1.5,8.3,0.5,16.5,0,24.8c-0.5,7.7-1.5,13.9-3.6,21.2
		c-1,4.1-2.1,6.7,0.5,9.8c2.1,3.1,6.2,4.1,7.2,8.8c1.5,7.2-9.8,16.5-1,21.7c2.6,2.1,8.3-1.5,6.7,4.6c-3.6,0-6.7,1.5-10.3,1.5
		c-1,4.1,1,5.2,2.6,8.3c2.6,4.6,2.1,2.6,1,7.7c-2.1,6.7-0.5,11.9-0.5,19.1c-1.5,2.6-2.6,5.2-4.6,8.8c-3.1,5.7-9.8,6.7-8.8,15
		c0.5,4.1,2.6,4.1,1,7.7c-1,3.1-4.6,3.6-5.7,6.7c-2.1,4.1-0.5,5.2-3.6,8.3c-1.5,2.1-5.2,2.1-6.7,4.6c-2.6,4.6-0.5,14.5,1,19.1
		c3.6,9.8,9.8,3.1,16,7.7c5.7,4.1,0.5,13.4,4.1,18.1c3.1,4.1,5.7,1,9.3,1.5c2.6,0.5,5.2,2.1,7.7,3.1c5.7,2.6,12.9,4.6,19.1,5.2
		c3.1,0.5,7.7-2.1,11.4-0.5c3.6,1.5,4.1,5.7,8.8,5.2c1-4.1-4.1-9.3-6.7-12.4c-3.1-3.6-6.7-4.6-11.4-4.6c6.7-5.2,10.3-8.3,1-13.9
		c8.3-5.2,9.3-7.2,9.8-17.6c3.6-0.5,5.2,3.1,8.8,3.1c4.1,0,7.2-2.1,9.3-5.2c4.1-5.7,3.6-12.9,5.2-19.1c2.6-7.7,5.2-8.3,11.4-12.9
		c3.6-2.6,9.3-8.8,8.8-13.9c-1.5-8.8-23.8-8.3-25.3-22.7c-0.5-5.7,5.7-13.4,8.8-17c4.6-5.2,12.4-3.6,17-7.2
		c5.2-3.6,3.1-12.4,4.6-18.1c1-2.6,1.5-6.2,3.6-8.8c1.5-2.6,5.7-5.7,5.7-8.8c2.6-1,0.5-10.8,0-15c-0.5-6.2-6.2-11.4-4.6-19.1
		c0.5-2.1,1-4.1,1.5-5.7c2.1-0.5,4.6-1,7.2-0.5c1.5,0.5,4.1,2.6,6.2,3.1c5.2,2.1,10.3,2.6,16,1c5.2-1.5,10.8-4.6,11.4-10.8
		c0.5-4.6-3.1-9.8-3.1-14.5c0-5.7,2.6-9.8,0.5-15.5c6.2-1,11.9,2.1,17.6,2.6c5.7,0.5,11.9-2.1,17-3.6c10.8-3.1,22.7-4.6,32-12.4
		c8.3-6.7,18.1-20.7,11.9-32C931,823.7,927.9,823.1,926.4,821.1z"/>
	<path class="st2" d="M873.2,53.8l-0.5-1.5c-1.5,0-6.2-3.1-8.3-0.5c-1,1.5,0,2.6,0,4.1c0,0.5-2.1,4.6-2.1,4.1c0,2.6,5.7,4.1,8.3,2.1
		C873.2,61,873.7,56.4,873.2,53.8z M772,28v-1c-5.7-3.6-11.4,2.6-6.2,7.2C771.5,40.4,775.6,30.6,772,28z M752.4,22.8l-1,0.5
		c-4.6,5.7,5.7,7.7,4.1-1C754.4,22.3,753.4,22.3,752.4,22.8z M861.8,28v-1c-2.6,1-5.2,4.1-2.1,6.2C863.4,35.2,864.4,29.5,861.8,28z
		 M870.1,15.6c2.1-0.5,2.1-5.2-0.5-5.2l-1-1C867.5,11.4,866,17.1,870.1,15.6z"/>
	<path class="st2" d="M645,100.8c-3.6-2.6-5.7-7.7-7.2-11.4c-2.1-4.1-4.6-7.2-8.3-10.3c-3.6-2.6-7.7-5.2-11.9-6.2
		c-4.1-1-9.3,0-12.9-1c-10.3-1.5-15,8.8-24.3,11.4c-3.1,1-4.1,1-6.7-0.5c-2.6-1.5-1.5-2.6-5.2-2.6c-2.1,0-4.6,2.1-6.2,0.5
		c-1.5-1-0.5-4.1-1-6.2c-1-1.5-3.1-4.1-5.7-2.6c-1.5,1-1.5,4.6-1.5,6.2c-0.5,5.7,0.5,10.8-6.7,10.3c-1,5.2,7.2,4.1,10.3,3.6
		c5.7-1,7.2-2.1,10.8,3.1c1,2.1,2.1,4.1,3.6,5.2c3.1,2.1,4.1,0,6.2,0c2.6-0.5,1.5-1,3.6,2.1c1,1.5,2.1,3.6,3.6,4.6
		c4.1,2.6,10.8-0.5,10.8-5.2c-2.6,0-8.3-3.6-8.8-6.7c-0.5-4.1,6.2-3.1,8.8-5.2c3.6-2.6,3.1-7.7,8.3-8.8c4.6-1,5.7,3.1,8.8,5.7
		c3.1,2.6,9.8,0.5,11.9,3.6c-3.1,2.6-6.2,2.1-6.2,7.2c0,3.6,2.6,6.7,5.7,8.8c6.7,4.1,13.4,2.6,20.1-1.5"/>
</g>
</svg>
