<?xml version="1.0" encoding="utf-8"?>
<!-- Generator: Adobe Illustrator 21.0.2, SVG Export Plug-In . SVG Version: 6.00 Build 0)  -->
<svg version="1.1" xmlns="http://www.w3.org/2000/svg" xmlns:xlink="http://www.w3.org/1999/xlink" x="0px" y="0px" width="1800px"
	 height="1200px" viewBox="0 0 1800 1200" style="enable-background:new 0 0 1800 1200;" xml:space="preserve">
<style type="text/css">
	.st0{fill:#E4E9EB;stroke:#FFFFFF;stroke-width:2;stroke-miterlimit:10;}
	.st1{fill:#D9DEDF;stroke:#FFFFFF;stroke-width:2;stroke-miterlimit:10;}
	.st2{fill:#E4E9EB;}
	.st3{fill:#D9DEDF;}
	.st4{fill:#E4E9EB;stroke:#FFFFFF;stroke-width:0.75;stroke-miterlimit:10;}
	.st5{fill:#019CDB;stroke:#FFFFFF;stroke-width:0.75;stroke-miterlimit:10;}
</style>
<g id="map-europe">
</g>
<g id="map-south-america">
</g>
<g id="map-north-america">
	<g>
		<path id="CA-NB" class="st2" d="M1468.4,391.1c-3.1-0.8-6.7-4.9-8.9-10c-0.8-2-2.9-4-4.5-4.4c-5.5-1.3-14-23.6-14-36.5
			c0-4.4-0.8-6.7-3.1-8.8c-5.2-4.9-12.1-8.5-16.5-8.5h-4.3l-0.5-8.3c-0.3-4.5-0.3-8.8,0-9.3c0.3-0.5,4.1-1.1,8.8-1.1
			c9.9-0.1,15.2-1.9,20.8-6.9c2.5-2.3,7.9-4.7,14-6.4c9.2-2.5,10.3-2.5,14.9-0.7c4.8,2,5.1,2,7.6-0.8c5.5-5.9,20.9-10.4,20.9-6.3
			c0,0.9-0.9,3.2-2,5.1c-2.8,4.9-2.5,16.3,0.5,20.1c1.3,1.7,2.9,5.2,3.5,7.6c0.5,2.7,3.3,6.7,7.2,10.4c6,5.7,6.5,5.9,14.3,5.9
			c4.5,0,8.5,0.4,8.9,0.8c0.4,0.4-2.3,3.9-5.9,7.7c-3.6,3.7-8.1,10.1-10,14c-4.8,10-21.5,26.9-26.5,26.9c-2.9,0-4.3,0.9-5.5,3.7
			C1485.6,390.5,1476.8,393.2,1468.4,391.1z"/>
		<path id="path2163" class="st2" d="M1617.2,244.7c-3.7-4.7-3.6-10.4,0.3-15.6c4.1-5.6,4.5-12.4,0.9-13.6c-3.5-1.1-3.3-3.9,0.1-9.6
			c2.5-4.1,2.8-5.7,2-16.1c-1.3-18.7-0.9-40.5,1.2-62.3c0.1-1.5,0.7-7.5,1.3-13.3c1.2-12.3,3.6-16.8,13.2-24.1
			c5.2-4,6.7-4.5,8.3-3.1c4.9,4.1,6,8.9,5.5,25.2c-0.3,8.7-0.9,16.3-1.3,16.9c-0.4,0.7-1.1,4.8-1.6,9.2l-0.8,8l3.3-4
			c1.9-2.3,3.5-4.4,3.5-4.9c0.1-2,5.6-2.5,10-0.9c4.9,1.7,5.1,2,4.7,8.8l-0.3,4.3h6.7c3.7,0,7.1-0.5,7.5-1.2c0.4-0.7,3.6-2,7.1-2.9
			c3.5-0.9,9.3-3.2,13.1-4.8c6.7-3.1,12.7-3.2,18.1-0.3c2.9,1.5,4.3,8.7,2.1,11.9c-1.3,2.1-1.2,3.1,1.1,5.2c2.3,2.3,3.6,2.5,9.3,1.6
			c8.5-1.3,9.9-0.8,9.9,3.6c0,3.7-2.8,8.7-7.1,12.5c-1.5,1.3-1.9,2.4-1.1,2.4c0.8,0,1.6,2,1.6,4.5c0,2.5,0.4,5.5,0.8,6.7
			c0.9,2.4,3.2,2.8,3.2,0.5c0-2.5,6.7-10.4,8.7-10.4c1.1,0,2.5,2.4,3.5,5.3c1.9,6.1,3.6,6.5,9.2,2.4c2.1-1.6,4.4-2.4,4.9-1.9
			c0.5,0.5,1.2,5.1,1.3,9.9c0.1,4.9,0.4,11.1,0.5,13.9c0.3,7.2-5.1,14.9-10.7,15.5c-3.3,0.3-4.5-0.4-5.7-3.1c-1.9-4.3-2.8-4.3-5.1,0
			c-3.6,6.8-6.5,2.5-8.1-11.6c-1.2-10.4-2.7-14.4-5.3-14.4c-0.7,0-1.2,2.1-1.2,4.9c0,4-1.1,5.9-5.2,9.9c-4.8,4.5-5.3,5.9-6.5,14.7
			c-1.7,12.9-4.9,16.4-15.5,16.7c-9.1,0.3-9.7-1.9-2.7-8.5c3.9-3.6,4.7-5.3,4.7-9.7c0-4.9-0.1-5.2-2.8-3.7
			c-5.1,2.7-10.8,3.9-12.4,2.5c-1.6-1.3-3.9-0.3-17.3,7.7c-4,2.4-9.1,4.7-11.1,5.1c-2,0.3-5.7,0.9-8.3,1.3c-2.5,0.4-10.7,3.2-18,6.1
			c-7.3,2.9-14.1,5.6-14.9,6C1620.6,248,1618.6,246.7,1617.2,244.7z"/>
		<g id="CA-NS">
			<path id="path2185" class="st2" d="M1513.9,434.3c-7.7-1.7-11.6-6.1-14.8-17.1c-1.6-5.5-1.7-8.5-0.9-10.9
				c2-5.2,10.8-18.1,16.5-24.5c2.8-3.1,6-6.8,6.9-8.1s3.3-2.9,5.2-3.3c3.7-0.9,15.3-8.8,15.3-10.4c0-1.3-6,0.9-13.1,5.1
				c-12.3,7.2-10.5-4.5,2.9-19.9c6-6.8,7.3-7.7,11.5-7.6c12.7,0.4,26.9-1.9,31.6-5.1c2.9-2,5.6-2.8,6.9-2.3c1.2,0.5,4.9,1.1,8.3,1.2
				c7.1,0.3,12.5,3.3,14.8,8.3c1.5,3.1,0.9,4-7.1,11.9c-4.7,4.7-9.5,9.5-10.5,10.7c-4.8,5.1-16.5,14-19.2,14.7
				c-1.7,0.4-4.7,3.5-6.9,7.3c-3.6,6.1-4.3,6.5-8,6c-3.5-0.5-4.4,0-5.6,2.7c-0.8,1.9-1.5,3.9-1.5,4.7c0,0.8-1.9,5.7-4,10.9
				c-3.1,7.3-6.1,11.9-12.7,18.5c-4.8,4.9-8.8,8.8-8.9,8.8C1520.4,435.7,1517.5,435.1,1513.9,434.3z"/>
			<path id="path2177" class="st2" d="M1603.6,333.1c-1.1-0.9-4.9-4.8-8.5-8.7c-4.8-5.1-6.1-7.5-5.1-8.7c0.8-0.9,3.2-7.2,5.5-14
				c4.5-13.7,8.9-22.9,10.8-22.9c2.4,0,5.3,6,5.5,10.7c0,7.6,1.3,10.4,5.1,11.3c4.7,1.2,10.9,7.2,10.9,10.5c0,1.5-1.9,5.6-4.1,9.1
				c-3.1,4.7-4.9,6.4-7.2,6.4c-1.9,0-4.1,1.5-6,4C1607.2,335.2,1606.5,335.3,1603.6,333.1z"/>
		</g>
		<path id="CA-ON" class="st3" d="M1095,568.1c1.5-2.7,3.2-4,6.9-4.5c2.8-0.4,5.9-1.3,6.8-2c2.5-1.6,3.7-10.9,1.7-12.1
			c-1.2-0.7-1.3-1.7-0.4-3.5c0.7-1.3,1.7-4.8,2.1-7.5c0.5-2.7,2-5.7,3.3-6.7c4.8-3.3,8.9-11.2,8.5-15.9c-0.3-2.5-0.5-9.3-0.7-15.3
			c-0.1-10.1,0.1-11.3,4.5-19.3l4.8-8.5l-2.4-5.3c-1.3-2.9-3.7-6.4-5.2-7.9c-2.8-2.5-3.9-6.1-1.9-6.1c0.5,0,4.5,3.6,8.8,8
			c7.1,7.2,14.3,11.9,21.5,13.9c7.3,2,11.3-10.3,5.9-18c-3.5-5.1-18-20.8-21.7-23.6c-1.3-1.1-6.5-2.4-11.3-2.9
			c-4.8-0.5-12.1-2-16.1-3.1c-5.2-1.5-12.9-2.1-26.9-2.1c-18.3,0-19.7-0.1-21.6-2.8c-1.1-1.5-5.1-4.4-8.9-6.4
			c-5.7-2.9-7.1-4.3-7.2-7.2c-0.1-2-1.9-5.3-4-7.6c-3.3-3.5-3.5-4.1-1.6-4.8c2.9-1.2,2.8-4-0.5-8.7c-1.5-2.1-3.9-6.4-5.3-9.7
			c-2.3-5.2-3.2-6-7.7-6.7c-5.1-0.8-19.3-7.6-22.7-10.9c-1.1-0.9-2-4-2.1-6.8c-0.1-2.8-0.8-6.8-1.3-8.9l-1.1-3.9l-10.8,0.7
			c-10,0.7-11.3,0.4-18.5-3.2l-7.7-3.9l-5.5,3.5c-5.1,3.2-5.3,3.6-3.5,5.6c1.9,1.9,1.3,2.7-6.8,7.9c-4.9,3.2-11.1,8.1-13.7,10.9
			c-5.3,5.7-6,5.9-25.2,2.7c-5.5-0.9-14.3-1.7-19.5-1.9c-8.9-0.3-17.9-3.5-17.9-6.3c0-0.5-1.6-1.1-3.5-1.1c-2.1,0-5.3-1.9-8.3-4.7
			c-4.9-4.7-5.1-4.7-17.2-4.7c-8.8,0-12.8-0.5-14.1-1.9c-1.1-1.1-4.3-2.3-7.1-2.8c-7.3-1.3-8.1-2.3-9.1-11.6
			c-0.8-7.6-1.2-8.5-5.2-10.4c-4.1-2-4.3-2.4-4.1-10c0.1-8.5,1.7-44.3,2.5-57.2c0.3-4.4,0.9-17.6,1.3-29.2
			c1.1-26.7-1.2-22.4,30.5-55.5c6.7-6.9,16-17.1,20.8-22.5c4.8-5.5,9.2-10.5,10-11.3s8.5-9.9,17.3-20.1c8.8-10.3,18.9-22,22.7-26
			c18-19.9,26-28.9,28.4-32l2.7-3.3l4.4,2.5c5.5,3.1,14.4,11.5,14.4,13.5c0,0.8,2,3.3,4.4,5.7c3.2,3.2,6.4,4.7,12.3,5.7
			c5.5,1.1,9.2,2.7,12,5.3c3.9,3.6,7.2,4.8,13.3,5.1c1.5,0,6,3.1,10,6.5l7.2,6.4l24.9,0.8c21.7,0.7,25.7,1.2,30.5,3.6l5.5,2.8
			l-0.9,11.6c-0.5,6.4-1.5,12.1-2,12.7c-0.7,0.7,0,2.9,1.3,5.3c1.3,2.3,2.9,6.8,3.3,10.1c1.5,10.7,1.7,11.7,2.9,14.3
			c0.7,1.3,1.1,5.2,0.8,8.5c-0.4,4.9,0.4,7.3,3.6,12.4c5.2,8.1,21.2,27.5,22.8,27.5c3.1,0,11.6,11.1,14,18l2.5,7.6l8.3-0.7l8.3-0.7
			l0.8,6.8c1.3,10.8,1.9,15.6,2.7,23.5c0.4,4,0.9,8.8,1.3,10.7c0.3,1.9,0.9,6.9,1.3,11.3s1.1,9.5,1.3,11.3
			c0.7,4.4,1.9,15.1,2.8,23.3c0.4,3.7,0.9,8.8,1.3,11.3c2,16,3.3,26.9,4,33.9c0.4,4.3,2.7,11.9,4.8,16.8c3.3,7.6,5.2,9.9,11.7,14.4
			c8.7,6.1,20.7,10.4,32.8,11.6c5.5,0.5,9.9,2,14.1,4.8c3.3,2.1,7.2,3.9,8.7,4c1.5,0,4.1,2.3,6.1,5.2l3.6,5.2l11.5-0.7
			c10-0.5,12.7-1.2,19.9-5.2c8.4-4.7,15.2-6.8,15.3-4.8c0.3,2,0.9,5.5,1.9,8.3c0.7,2.3-0.1,3.7-4.1,7.2
			c-8.3,7.1-15.2,14.4-25.1,26.7c-5.1,6.4-9.9,11.6-10.7,11.7c-2.3,0.1-7.6,5.2-6.8,6.4c1.6,2.5-9.2,6.5-18,6.8
			c-15.9,0.5-38.8,9.9-43.7,18c-4.8,8-4.8,10,0.3,12c2.5,1.1,5.7,1.6,7.2,1.2c2-0.5,3.1,0.4,4.8,4c2.5,5.5,1.7,6.1-7.2,6.1
			c-5.3,0-20,5.5-23.7,8.9c-1.7,1.6-1.6,2.1,1.3,4.4l3.3,2.5l-3.6,0.9c-2,0.5-6.3,0.3-9.6-0.5c-12.7-3.2-15.6-1.7-31.3,14.7
			c-8.7,9.1-10.7,10.5-14.7,10.5c-2.5,0-6.7,0.3-8.9,0.5l-4.3,0.4L1095,568.1z"/>
		<path id="CA-PE" class="st2" d="M1563.2,331.2c-0.4-0.4-5.7-0.9-11.7-1.2c-6.1-0.3-14.4-1.5-18.4-2.7c-8.9-2.7-10.8-3.1-13.3-3.2
			c-5.5-0.3-6-2.3-2.7-9.3c1.7-3.7,4-6.8,4.9-6.8s4.4,2.7,7.7,5.7c4.8,4.7,6.3,5.5,7.5,4c0.9-1.1,4.1-1.7,8.1-1.7
			c3.6,0,7.6-0.5,8.8-1.2c4.3-2.3,16.1-5.3,16.8-4.3c0.4,0.5-0.3,2.7-1.2,4.7c-1.1,2-2,6.3-2.1,9.5
			C1567.2,330,1565.2,333.1,1563.2,331.2z"/>
		<path id="US-AL" class="st2" d="M978.9,999.2c-0.5-1.6-1.9-1.9-5.5-1.2l-4.7,0.9l0.8-50.5c0.4-27.7,1.1-53.2,1.3-56.5
			c0.3-3.3,1.1-11.1,1.6-17.3c0.5-6.3,1.2-12.4,1.3-13.6c0.3-1.2,0.8-7.5,1.3-13.9c0.5-6.4,1.1-12.5,1.2-13.7
			c0.3-1.5,1.9-2.1,5.5-2.3c2.8-0.1,17.6-0.5,32.8-1.1l27.6-0.8l1.3,4.9c0.7,2.8,2,8,2.8,11.6c0.8,3.7,2.7,10.3,4.1,14.7
			c2.4,7.5,4.1,17.1,5.9,32.4c0.4,3.5,2.5,9.7,4.7,14c4.1,8,4.3,8.8,3.7,30.4c-0.3,10.8,0.1,14.4,2.8,25.7c0.7,2.8,0.8,5.2,0.3,5.5
			c-0.5,0.3-8.9,0.5-18.8,0.7s-26.1,0.5-36,1.1c-15.9,0.7-18.3,1.1-20.3,3.5c-2.9,3.3-2.9,2.9,0.8,12.4c1.7,4.4,3.6,9.6,4,11.6
			l0.9,3.7H989C981.8,1001.2,979.4,1000.8,978.9,999.2z"/>
		<path id="US-AR" class="st2" d="M802.1,889.4l-0.4-10l-4.3-1.2c-5.1-1.5-4.7,1.7-4.3-37.5c0.1-14.7,0.3-34.9,0.1-45.1l-0.1-18.4
			l58.7,0.5c32.3,0.3,59.1,0.9,59.5,1.3c0.4,0.4,0,3.6-0.9,6.9c-2,6.9-1.6,7.6,6.4,9.7c3.1,0.9,5.6,2.3,5.6,3.1c0,0.8-2,4.8-4.5,9.1
			c-2.4,4.1-5.2,10.5-6,14.3c-1.1,4.3-3.5,8.7-6.8,12.5c-3.7,4.3-5.5,7.7-6.1,12c-0.5,3.9-2.7,8.4-6,12.8
			c-7.3,9.6-9.5,16.7-9.3,29.3l0.1,10.7H843h-40.7L802.1,889.4z"/>
		<path id="US-AZ" class="st3" d="M332.4,895.9c-6.5-1.5-15.1-3.5-18.9-4.5c-3.7-1.1-9.2-2-12-2c-4.3,0-6.7-1.2-13.7-6.9
			c-4.8-3.9-9.9-8.1-11.3-9.5c-1.5-1.3-8.1-6.1-14.7-10.5c-14.4-9.7-35.5-25.7-42-31.6c-2.5-2.3-6.8-5.1-9.3-6.1
			c-4.9-2-12.7-10.4-11.5-12.4c0.4-0.7,4-2.5,8.1-4.1c6.8-2.8,7.3-3.3,7.3-7.3c0-2.7-1.1-5.2-2.7-6.7c-3.9-3.5-3.3-6.7,2-12.1
			c2.7-2.7,5.9-7.2,7.3-10c1.6-3.1,3.6-5.2,5.1-5.2c1.3,0,4-1.7,6.1-3.9l3.7-3.9l-3.1-5.9c-2.5-4.8-3.1-8-3.1-17.5
			c0-6.4,0.4-11.7,0.8-11.7c0.4,0,1.3-5.2,1.9-11.7c0.7-8.3,1.7-12.8,3.6-15.3c2.5-3.5,3.1-3.6,10.3-2.9l7.6,0.8l4.3-11.5
			c2.4-6.3,4.8-11.7,5.3-12c1.1-0.7,127,30.4,129.3,31.7c0.8,0.5,0.9,2,0.1,3.9c-0.7,1.7-1.5,4.8-1.9,6.9
			c-0.4,2.1-4.9,22.5-10.1,45.2c-5.2,22.8-9.7,42.5-10,44c-0.3,1.5-3.1,13.5-6,26.7c-3.1,13.2-7.7,34-10.4,46.4
			C349.1,901.9,351.4,899.9,332.4,895.9z"/>
		<g id="US-CA">
			<path id="path2285" class="st3" d="M190.3,807.9c-2.1-1.3-29.9-8.8-46.9-12.8c-11.9-2.8-12.9-4.4-13.6-21.9
				c-0.5-12.8-0.8-14-5.5-21.6c-2.7-4.4-7.2-9.6-10-11.6c-2.8-2-5.7-5.2-6.7-7.1s-3.7-5.5-6.5-7.7s-6.9-6.9-9.3-10.5
				c-4.7-6.8-11.3-12.1-15.3-12.1c-3.9,0-12-5.5-15.9-10.5c-3.7-5.1-3.6-10.8,0.3-15.1c2.9-3.3,2.5-8.7-2.3-25.1
				c-2.3-7.7-4-15.6-4-17.5s-2-6.7-4.4-10.7c-5.1-8.4-5.1-8.7-1.6-13.9c3.7-5.6,3.5-16.7-0.5-22.1c-2.5-3.5-2.9-5.1-2.1-10.7
				c0.5-3.6,2-8,3.5-9.9c3.6-4.7,2.3-9.9-3.7-15.1c-4.4-3.7-5.1-5.1-5.2-10.7c-0.1-3.5-1.5-9.2-3.1-12.8c-1.6-3.6-3.6-9.9-4.4-14
				c-1.5-7.2-1.3-8.4,3.2-22.5l4.7-14.9l-3.3-8.3c-3.2-8.1-3.3-8.3-0.9-13.5c1.3-2.9,3.7-6.8,5.5-8.8c1.7-2,6.4-8.5,10.4-14.5
				c6.3-9.3,7.3-11.9,7.5-17.6c0.1-4.3,0.7-6.5,1.6-6.1c1.6,0.5,38.8,14,60.8,22c7.7,2.8,20.1,7.3,27.6,10
				c13.5,4.9,13.6,4.9,12.3,8.4c-0.8,1.9-4.3,11.6-7.7,21.5c-3.5,9.9-9.5,26.7-13.3,37.3c-3.7,10.7-8.1,22.8-9.6,27.1
				c-2.7,7.6-2.7,16.7,0,20.1c0.7,0.8,4.5,7.7,8.5,15.5c24.4,46.3,82.9,155.6,84,157c0.8,0.9,1.2,5.9,1.1,10.9
				c-0.3,7.1,0.4,10.4,2.5,14.7c3.2,6.4,2.8,7.6-3.1,9.1c-3.2,0.8-5.1,2.5-7.3,7.1c-1.7,3.2-5.2,8-7.7,10.7
				c-5.3,5.6-6.1,11.7-1.9,16.3c3.9,4.3,3.3,5.3-4.4,8.7C193.4,809.3,192.7,809.4,190.3,807.9z"/>
			<path id="path2279" class="st3" d="M97.5,767.5c-4.1-2.1-2-5.6,2.8-4.4c3.9,0.9,4.4,2.4,1.9,4.5C101,768.7,99.7,768.6,97.5,767.5
				z"/>
			<path id="path2271" class="st3" d="M101.5,749.9c-2.1-2.4-2.1-4.7,0-4.7c2.3,0,4.9,2.7,4.9,4.9
				C106.5,752.6,103.7,752.3,101.5,749.9z"/>
			<path id="path2259" class="st3" d="M73.1,718.9c-4.9-0.9-12-5.1-12-6.9c0-0.7,3.2-1.2,7.2-1.2c5.2,0,8.4,0.8,11.7,3.1
				c2.5,1.7,4.5,3.6,4.5,4.3C84.5,719.7,79.4,719.9,73.1,718.9z"/>
		</g>
		<path id="US-CO" class="st3" d="M570.4,732.5c-5.9-1.5-26.3-5.6-44.7-9.2c-1.5-0.3-5.6-1.1-9.3-1.9c-3.7-0.7-8.1-1.6-10-1.9
			c-3.2-0.5-21.6-4-68-12.9c-11.3-2.1-24.5-4.8-29.3-5.6c-6.1-1.2-8.5-2.3-8.4-3.6c0.1-1.1,4.8-22.7,10.5-47.9
			c5.6-25.3,10.5-47.2,10.8-48.7c0.3-1.5,2.3-10.1,4.3-19.3c3.2-14.5,4.1-16.7,6.3-16.4c1.5,0.1,8.5,1.5,15.7,3.1
			c7.2,1.6,14.5,3.1,16.4,3.3c1.7,0.3,4.3,0.9,5.5,1.3c1.3,0.4,3.9,0.9,5.6,1.3c4.8,0.8,19.9,4,48.7,10.3c13.9,3.1,27.7,5.7,30.7,6
			s7.1,0.8,9.3,1.2c2.3,0.4,6.1,1.1,8.7,1.5c24.3,3.9,31.3,5.5,31.1,7.3c-1.5,10.3-8.5,61.9-9.1,66c-0.4,2.9-0.9,6.8-1.2,8.7
			c-0.3,1.9-0.8,5.5-1.2,8c-0.4,2.5-1.9,13.3-3.3,24s-2.9,21.1-3.2,23.3c-0.4,3.3-1.1,4-4.4,4.1
			C579.5,734.1,574.5,733.4,570.4,732.5z"/>
		<path id="US-CT" class="st2" d="M1345.3,563.7c0.3-0.9-0.4-4.4-1.7-7.7c-1.2-3.3-2-7.2-1.9-8.7c0.3-1.5,0.5-4.5,0.7-6.8l0.3-4.1
			l14.8-3.1c8.1-1.7,15.5-3.2,16.3-3.3c1.2-0.3,7.1,19.5,7.1,23.9c0,0.4-3.5,1.7-7.7,2.9c-11.6,3.2-20.8,6.4-22.3,7.6
			C1349.1,566,1344.7,565.6,1345.3,563.7z"/>
		<path id="US-DC" class="st2" d="M1265.2,659.6c-1.2-1.5-1.1-2.3,0.3-3.3c1.5-1.2,2.3-1.1,3.3,0.3c1.2,1.5,1.1,2.3-0.3,3.3
			C1267.1,661,1266.3,660.9,1265.2,659.6z"/>
		<path id="US-DE" class="st2" d="M1301.2,657.7c-1.5-5.7-3.5-14.5-4.4-19.5c-1.5-7.7-1.5-9.3,0.3-10.3c3.3-2.1,3.9-1.5,3.9,3.9
			c0,10.1,1.2,12.7,7.9,16.7c6,3.6,13.5,13.3,13.5,17.3c0,1.2-2.7,1.9-9.2,2l-9.2,0.3L1301.2,657.7z"/>
		<path id="US-FL" class="st3" d="M1173.9,970.8c-0.8,0-1.6,0-2.4,0.1l-5.5,0.4l-0.4,7.1c-0.5,8.1-0.4,8.1-4.9,8.9
			c-2.5,0.4-3.9-0.3-5.5-2.7c-1.7-2.5-3.2-3.2-7.2-3.2c-2.8,0-20.4,0-39.2,0l-34.3-0.1l-0.9-4.1l-0.9-4.1l-34.8,0.9
			c-19.2,0.5-36.1,1.1-37.6,1.3s-3.1,0.5-3.7,0.7c-1.6,0.1-1.2,3.3,1.6,10.3c1.5,3.6,2.9,8.1,3.3,10.3c0.5,2.7,1.5,3.6,3.1,3.1
			c1.2-0.4,8.4-1.1,16-1.5l13.6-0.9l7.7,4.7c4.3,2.5,9.7,5.3,12.3,6.1c2.8,0.9,5.9,3.3,7.9,6.1c2.9,4.3,3.6,4.7,8,3.9
			c2.7-0.5,9.6-3.3,15.5-6.3c16.3-8.1,19.2-8.9,24-6.7c2.3,1.1,5.5,4,7.2,6.5c1.7,2.5,8.1,9.2,14.3,14.7
			c12.8,11.6,13.6,13.3,14.7,33.1c0.5,8.3,2,17.2,4,23.7c1.7,5.7,3.2,11.5,3.2,12.7c0,1.2,2.1,4,4.7,6.3c3.1,2.7,5.6,6.8,7.5,12
			c2.3,6.1,4.1,8.9,8,11.7c2.8,2,6.8,6.5,8.8,10.1c2,3.6,5.2,7.2,7.2,8c2,0.9,6.9,5.5,11.1,10.1c7.9,8.8,18.3,15.9,22,14.8
			c5.3-1.6,13.5-2.1,13.5-0.9c0,4.5-14.7,15.7-24.7,18.8c-2.9,0.9-5.9,2.3-6.7,3.1c-0.9,0.9-0.7,1.1,0.7,0.7
			c1.1-0.4,5.1-1.6,8.7-2.9c7.5-2.5,18.3-9.9,21.2-14.5c1.1-1.6,2.3-7.5,2.8-12.9c0.5-5.5,1.7-11.6,2.8-13.6
			c1.5-2.8,1.9-8.1,1.6-22.1c-0.4-17.6-0.5-18.8-4.4-26.4c-2.3-4.4-6.5-12.8-9.6-18.8c-3.1-6-6.1-13.7-6.9-17.3
			c-2.8-12.9-5.7-19.7-12.8-29.1c-11.1-14.5-26.1-47.2-26.1-56.4C1182,972.8,1179.2,970.8,1173.9,970.8z"/>
		<path id="US-GA" class="st3" d="M1158.2,980.3c-1.9-2.9-2-2.9-40.8-2.9h-38.9l-1.2-4.3c-0.7-2.4-1.9-4.1-2.7-4
			c-0.8,0.1-1.5,0.1-1.5-0.1c0-0.3-0.9-5.6-2.1-11.7c-1.2-6.1-2-15.3-1.7-20.5c0.8-20.3,0.4-24.5-3.2-30c-3.2-4.9-5.2-13.2-7.1-29.3
			c-0.4-3.3-2.1-10.8-3.9-16.7c-5.1-17.5-7.6-28.5-6.7-30c0.4-0.8,2.1-1.2,3.7-1.2c2.8,0.1,20.1-1.1,30.3-2.3
			c2.5-0.3,9.9-0.9,16.3-1.3l11.6-0.8l-1.2,4c-0.9,3.3-0.7,4.5,2.4,7.3c2,1.9,4.8,3.7,6.4,4.1c1.6,0.5,6.3,5.1,10.5,10.1
			c4.1,5.1,10.7,11.7,14.4,14.7c8.1,6.4,20.7,21.9,25.5,31.6c1.9,3.9,4.5,7.2,5.7,7.6c1.3,0.4,3.5,2.7,4.8,5.1
			c3.5,6,8.9,11.7,11.2,11.7c1.2,0,1.6,0.8,1.1,2.4c-0.4,1.3-2.9,8.3-5.5,15.7c-3.2,9.3-4.7,15.7-4.7,21.1c0,5.6-0.4,7.5-1.6,6.8
			c-1.6-1.1-13.6-0.9-17.2,0.3c-1.7,0.5-2,1.7-1.2,5.7c0.5,2.8,0.5,6.3,0,7.6C1160.2,983.1,1160,983.1,1158.2,980.3z"/>
		<path id="US-IA" class="st2" d="M875,632c-2.4-2.4-5.5-2.7-36.5-3.5c-18.7-0.5-37.6-1.1-42-1.2c-4.4-0.3-11.7-0.4-16.1-0.5
			l-8.1-0.1l-2.7-5.6c-1.5-3.1-3.1-9.6-3.5-14.4c-0.8-8.5-1.7-16.4-2.9-25.1c-0.3-2.4-2-7.3-3.9-10.8c-2.9-5.7-3.3-8.3-3.5-22.9
			c-0.1-9.1-0.1-17.3-0.1-18.3c0.1-1.3,13.5-1.6,64.4-1.3l64.3,0.4l1.1,4.7c0.5,2.5,1.5,8.3,1.9,12.7c0.9,8.8,4.3,14.9,9.1,16.1
			c1.6,0.4,3.7,2.4,4.5,4.4s2.8,5.2,4.5,7.2c5.1,6.1,2.7,21.5-3.9,24.8c-1.3,0.7-4.9,1.6-8,2.1c-5.6,0.9-5.7,1.1-5.7,6.5
			c-0.4,20.3-0.5,20.5-6.4,24.8C877.5,634.5,877.4,634.5,875,632z"/>
		<path id="US-ID" class="st2" d="M376.4,511.2c-2.9-0.9-23.1-7.1-44.7-13.9s-45.1-14-52-16.1c-6.9-2.1-18.9-5.9-26.4-8.1
			c-16-4.8-15.3-1.9-6.5-26.4c3.3-9.2,6.4-19.7,6.9-23.3c0.7-4.9,2-7.7,4.9-10.9c3.9-4,4-4.5,3.2-12c-0.5-4.3-0.9-8.1-0.9-8.4
			c-0.3-2.8,0.8-4.3,4.5-6.3c4.7-2.4,11.6-9.6,11.6-12c0-0.8,2.4-3.9,5.3-6.7l5.2-5.2l-2-10.7c-3.2-17.5-2.3-28,3.7-45.1
			c2.9-8.1,9.1-26,13.9-39.5c4.8-13.5,8.8-24.9,9.2-25.2c0.9-0.9,16.7,4,16.7,5.2c0,0.5-1.5,6.9-3.3,14.1
			c-2.3,8.7-3.3,16.7-3.3,23.2c0,5.5,0.1,11.2,0.1,12.7c0,1.5,2.3,6.8,5.1,12c2.8,5.2,5.6,11.5,6.1,14c0.9,4.5,5.5,12.1,7.6,13.1
			c1.9,0.8,1.1,6.1-1.6,10.3c-1.5,2.3-2.7,5.9-2.7,8.3c0,3.1-0.8,4.5-2.8,5.1c-3.1,0.9-5.2,5.6-5.2,11.3c0,3.2,0.7,4,4.5,5.1
			c2.5,0.7,6,0.9,7.9,0.7c2.8-0.5,3.6,0,4.8,3.9c0.8,2.4,1.7,7.5,2.3,11.1c0.4,3.6,1.1,6.9,1.3,7.3c0.3,0.4,0.8,2.8,1.2,5.5
			c1.7,10.4,3.3,15.1,6.3,18.1c2.7,2.8,3.7,3.1,10.4,2.4c4.9-0.5,10.5,0,16.4,1.5c4.9,1.2,10,1.9,11.3,1.5c3.9-1.2,6.1,1.1,5.3,5.3
			c-0.4,2.1-3.5,15.5-6.9,29.9c-3.5,14.3-7.6,31.5-9.2,38l-2.9,12L376.4,511.2z"/>
		<path id="US-IL" class="st3" d="M936.9,751.8c-0.5-15.1-1.5-16.7-15.2-26.5c-9.3-6.8-10-7.6-9.3-11.3c0.4-2.3,1.1-7.1,1.5-10.9
			c0.8-7.6-0.4-9.9-8.4-14.4c-4.1-2.4-7.1-6.8-7.1-10.5c0-0.9-3.7-5.9-8.3-10.8c-8.8-9.5-9.5-10.7-10.7-21.3l-0.8-6.7l6.4-4.9
			l6.4-4.9l0.1-11.7c0.1-6.4,0.4-11.9,0.5-12s2-0.7,3.9-0.9c10.3-1.9,15.6-8.9,16.5-21.5c0.4-5.7-0.1-7.5-3.5-12.3
			c-2.1-3.1-4-5.9-4-6.1c0-0.4,7.6-0.4,17.1-0.3c9.3,0.3,24.9,0.4,34.7,0.5l17.6,0.1v3.3c0,1.9,0.8,4.7,1.9,6.4
			c3.5,5.5,4.3,16,4.5,63.6c0.1,26,0.7,49.9,1.1,52.8c0.7,4.8,0,6.7-5.2,14.8c-5.2,8-6,10.4-6.7,18.8c-0.9,11.3-3.6,18.4-7.5,19.6
			c-1.6,0.5-3.5,2-4.1,3.5c-1.1,2.1-2.8,2.5-8.9,2.5c-5.1,0-8.3,0.7-10,2.3C937.1,755,937,754.9,936.9,751.8z"/>
		<path id="US-IN" class="st2" d="M974.7,721.7c0.4-2.8,3.1-8.8,6-13.3l5.3-8.4l-0.5-52.3c-0.3-28.8-0.7-53.3-1.1-54.7
			c-0.4-1.7,0.4-2.4,3.1-2.4c2,0,4.3-0.7,4.9-1.3c0.8-0.8,12.5-1.5,29.2-1.6c23.9-0.3,27.9,0,28.1,1.7c1.6,10.8,4.8,97.9,3.7,100.7
			c-0.4,1.1-2.3,2-4.3,2c-4.7,0-5.2,0.5-12.9,10.7c-8.9,11.9-9.7,12.5-14.4,12.7c-2.3,0.1-7.5,2.1-11.5,4.4
			c-6.5,3.9-8.4,4.3-16.7,4.1c-5.1-0.1-11.1,0.4-13.1,1.3C974.7,727.5,973.9,727.1,974.7,721.7z"/>
		<path id="US-KS" class="st2" d="M779.3,752.5c-0.1-0.1-6.3-0.7-13.6-1.2c-7.3-0.5-14.3-1.1-15.3-1.3c-1.1-0.3-7.7-0.9-14.7-1.3
			c-6.9-0.4-13.6-1.1-14.7-1.3c-1.1-0.3-8-0.8-15.3-1.3c-7.3-0.5-14.3-1.1-15.3-1.3c-1.1-0.3-7.7-0.8-14.7-1.3
			c-6.9-0.5-13.6-1.1-14.7-1.3c-1.1-0.3-7.7-0.8-14.7-1.3c-6.9-0.5-13.6-1.2-14.7-1.3c-1.1-0.3-8-0.8-15.3-1.3
			c-7.3-0.5-14.3-1.2-15.3-1.3c-1.1-0.3-4.1-0.4-6.8-0.5l-4.8-0.1l2.4-17.1c1.3-9.3,2.7-19.7,3.2-22.9c0.4-3.3,1.1-7.5,1.3-9.3
			c0.3-1.9,0.9-5.5,1.2-8c0.3-2.5,1.3-9.5,2.1-15.3c0.8-5.9,1.7-12.8,2.1-15.3c0.3-2.5,0.9-6.9,1.3-9.9l0.8-5.2l8.8,0.8
			c8.5,0.7,29.1,2.9,38.8,4.1c2.5,0.3,8.5,0.9,13.3,1.5c4.8,0.4,10.1,1.1,12,1.3c1.9,0.3,7.2,0.8,12,1.3c4.8,0.5,10.1,1.1,12,1.3
			c1.9,0.3,7.9,0.9,13.3,1.3c5.5,0.4,10.9,1.1,12,1.3c1.1,0.3,6.5,0.8,12,1.3c5.5,0.5,11.2,1.2,12.5,1.5c1.3,0.3,7.7,0.8,14,1.3
			c10.3,0.7,11.9,1.2,15.3,4.7c3.9,3.7,3.9,3.9,1.5,7.5c-2,3.1-2.1,4.4-0.8,8.8c0.8,2.8,2.4,5.2,3.5,5.2c1.1,0,2.5,1.1,3.2,2.4
			c2.3,4.3,3.1,40.8,1.3,58.5l-1.6,16.4l-3.9-0.3C781.3,752.9,779.4,752.6,779.3,752.5z"/>
		<path id="US-KY" class="st2" d="M941.3,765c0.1-3.9,0.9-7.9,1.6-8.7c0.8-1.1,4.4-1.6,9.1-1.6c5.6,0,8.1-0.5,8.7-2
			c0.4-1.1,2.7-3.1,5.1-4.5c3.5-2,4.8-4,6.1-9.3c1.6-6.4,2-6.8,7.9-8.7c3.3-1.1,10.4-1.9,15.7-1.9c8.5,0,10.4-0.4,16.4-4.1
			c4-2.4,8.5-4.1,11.1-4.1c4.7,0,9.3-4.1,18.3-16c2.5-3.3,4.7-6.3,4.9-6.5c0.3-0.3,2.9-0.9,6.1-1.3l5.6-0.8l0.4-6.4l0.4-6.4l4.5,0.7
			c2.5,0.4,6.9,2.4,9.9,4.5c6.1,4.4,14.7,6.1,29.5,5.7c8.8-0.3,10.4,0.1,12.7,2.5c1.7,1.9,2.4,4.3,2.1,7.5
			c-0.4,5.3,2.4,10.8,10.8,20.7l5.6,6.5l-3.2,2.3c-3.7,2.7-5.3,4.3-18.1,18.5c-8.3,9.2-10.1,10.7-14,10.7
			c-12.4,0.1-93.3,2.3-98.5,2.5c-3.3,0.1-10.4,0.4-15.7,0.4c-7.9,0.1-9.9,0.5-10.7,2.5c-1.1,2.8,0.1,2.5-18,3.6l-14.4,0.9L941.3,765
			z"/>
		<path id="US-LA" class="st3" d="M939,1045.1c-2.3-0.7-6.8-2.5-10.4-4c-5.7-2.4-6.8-2.4-10.7-0.7c-4.8,2.1-8.3,3.1-16.9,4.1
			c-8.1,1.1-16.4-2.7-23.6-11.1c-3.1-3.6-8.4-7.9-11.7-9.5l-6.1-3.1l-2.9,2.7c-5.5,5.1-16.9,4.3-27.7-1.7
			c-4.4-2.4-23.9-2.8-26.1-0.4c-2.9,2.9-2.8,0.4,0.3-8.9c1.7-5.1,3.5-12,3.9-15.3c1.5-10.7,2.1-13.2,4.7-17.6
			c2.3-4,2.4-5.1,0.8-13.1c-0.9-4.8-3.3-12.3-5.3-16.7c-3.3-7.2-3.7-9.7-4.3-26.9l-0.5-18.9H843c31.7,0,40.8,0.4,40.8,1.6
			c0.3,5.3,1.5,11.5,2.8,14.8c2.1,5.1,0.1,11.5-9.1,28.7c-8.5,16.3-10.3,24.9-5.5,26.8c1.6,0.7,8.7,1.2,15.6,1.5
			c11.1,0.3,23.1,0.8,32.8,1.2c2.5,0.1,2.9,1.2,3.6,10.4c0.8,11.5,1.9,12.9,12.7,17.9c5.2,2.4,5.6,3.1,5.6,7.7
			c0,3.2-0.9,5.9-2.4,7.2c-4,3.6-3.5,8.4,1.1,10.3c4.4,1.9,10.7,8.5,10.7,11.5c0,1.1-1.2,1.9-2.5,1.9c-1.5,0-3.3,0.3-4.3,0.5
			C943.9,1046.2,941.3,1045.8,939,1045.1z"/>
		<g id="US-MA">
			<path id="path2213" class="st3" d="M1413.2,543c0.3-1.3,1.6-2.4,3.1-2.4c1.5,0,2.8,1.1,3.1,2.4c0.4,1.7-0.4,2.4-3.1,2.4
				C1413.6,545.4,1412.9,544.8,1413.2,543z"/>
			<path id="path2211" class="st3" d="M1427.9,540.5c-2.4-0.9,0.5-4.4,3.9-4.4c2.9,0,3.2,1.5,0.9,3.7
				C1430.9,541.4,1430.5,541.6,1427.9,540.5z"/>
			<path id="path2209" class="st3" d="M1397.9,532c-2.8-4.4-5.9-8-6.7-8.1c-0.8-0.1-2.5-0.3-3.7-0.5c-1.7-0.4-28.7,4.8-41.9,7.9
				c-2.5,0.7-2.8,0-3.1-6.9c-0.1-4.1-0.5-9.3-0.9-11.3c-0.7-3.5-0.5-3.7,4.4-3.7c2.8,0,6.7-0.4,8.4-0.7c1.9-0.3,9.6-1.6,17.2-2.8
				c13.2-2.1,14-2.4,18.5-7.3c3.6-4,5.6-5.2,8.9-5.2c6.4,0,7.6,2.3,5.3,9.9c-1.7,5.7-1.7,6.7,0.4,9.5c1.3,1.7,4.5,4.5,7.3,6.1
				c2.8,1.7,5.1,3.5,5.1,3.9c0,1.7,8,5.2,10,4.4c2.7-1.1,1.7-6.9-1.6-9.5c-2-1.5-1.9-1.6,0.7-1.6c1.6,0,4,1.7,5.7,4.1
				c2.9,4.1,2.9,4.1,0.4,7.6c-1.5,1.9-5.5,4.4-9.2,5.7c-3.6,1.2-8.4,3.2-10.7,4.4C1405.5,541.6,1403.5,540.8,1397.9,532z"/>
		</g>
		<path id="US-MD" class="st2" d="M1302.6,683.1c-1.1-2.4-2.3-3.2-4.1-2.8c-4.9,1.3-10.3-8.3-10.7-19.1c-0.1-2.5-0.5-6.9-0.9-9.7
			c-0.5-3.1-0.3-5.7,0.8-6.9c0.9-1.1,1.3-2.9,0.8-4c-1.1-2.9-5.6-0.4-8.3,4.8c-2.8,5.6-1.5,26.3,2.4,33.7l2.7,5.2l-3.1-0.9
			c-1.7-0.5-4.8-1.2-6.8-1.7c-5.1-1.1-10.4-6.4-10.4-10.1c0-1.7,2-5.5,4.5-8.4l4.5-5.2l-3.5-3.6l-3.5-3.6l-4,3.3
			c-4.3,3.6-8.5,3.5-10.9-0.4c-0.8-1.2-3.3-4.1-5.7-6.5c-3.7-3.7-5.3-4.4-10.7-4.4c-8.8,0-17.5,2.9-25.5,8.7
			c-3.7,2.7-7.2,4.7-7.6,4.3c-0.4-0.4-1.1-2.8-1.5-5.3c-0.8-4.7-0.8-4.7,5.1-5.3c3.2-0.4,16.7-2.7,29.9-4.9
			c24.8-4.4,25.2-4.4,35.3-6.1c3.3-0.5,7.2-1.2,8.7-1.5c1.5-0.3,4.5-0.8,6.8-1.2l4.1-0.7l2.3,12.4c1.3,6.8,3.6,16.1,5.1,20.7
			l2.7,8.3h10.5h10.5l-0.3,5.9c-0.1,3.2-0.7,6.1-0.9,6.5c-0.4,0.3-4.3,0.9-8.8,1.3C1304.4,686.6,1304,686.5,1302.6,683.1z"/>
		<path id="US-ME" class="st2" d="M1395.1,474c-4.5-5.9-14.3-36-17.6-54c-0.3-1.9-0.9-4.3-1.3-5.6c-0.4-1.2-0.1-2.5,0.7-3.1
			c2.1-1.3,7.1-15.6,7.7-22.1c0.3-3.3,1.2-9.3,1.9-13.3c0.7-4,1.6-10.9,2.1-15.2c0.4-4.3,2.4-12.7,4.3-18.7l3.5-10.8l9.1-0.9
			c4.9-0.5,9.7-1.5,10.7-2.1s2.9-1.1,4.5-0.9c1.6,0.1,3.9,0.3,4.9,0.4c1.1,0.1,4,2,6.5,4.1c3.7,3.2,4.5,4.9,4.5,9.1
			c-0.1,12.4,9.5,36.4,15.7,39.2c1.9,0.8,3.3,2.1,3.3,2.9s1.7,3.6,4,6.3c2.9,3.6,5.7,5.2,10.7,6.4c8.3,2,10.4,4.3,8.3,8.4
			c-3.7,6.9-10.4,12.9-16.3,14.7c-4.5,1.3-9.1,4.7-18,13.2c-6.5,6.3-14.7,13.5-18,16c-3.3,2.5-8.4,7.5-11.3,11.1
			c-2.9,3.6-7.6,9.2-10.5,12.5c-2.8,3.3-5.3,6.3-5.5,6.4C1398.8,478,1397.1,476.6,1395.1,474z"/>
		<g id="US-MI">
			<path id="path2225" class="st3" d="M1003.7,582.6c0-0.8,0.9-2.4,2-3.5c1.1-1.1,2-3.5,2-5.2c0-1.7,1.3-7.2,2.8-12
				c2.4-7.1,2.5-9.3,1.3-12.1c-0.8-1.9-1.5-6-1.5-9.3c0-3.2-0.5-6-1.1-6c-0.7,0-2.5-3.1-4.3-6.9c-3.7-8-4-20.4-0.4-25.9
				c1.2-1.7,2.4-6,2.7-9.5c0.3-3.3,1.5-7.1,2.5-8.1c1.1-1.1,2-3.3,2-4.9c0-1.9,1.2-3.6,3.3-4.5c1.9-0.8,3.3-2.1,3.3-2.9
				c0-2.9,2.7-1.2,3.5,2.3c1.2,5.1,1.6,5.6,3.9,4.8c1.1-0.4,2-2.4,2-4.3c0-2,0.8-4.5,1.9-5.9c0.9-1.3,1.5-3.7,1.2-5.6
				c-0.5-2.5,0-3.3,2.5-3.6c2.7-0.4,3.2-1.2,3.3-5.7c0.4-12-0.1-11.2,6-10.4c3.5,0.4,5.9,0.1,6.4-0.8c0.7-1.1,2.8,0.3,6.5,3.7
				c3.1,2.9,7.9,6,10.8,6.7c9.2,2.5,12.8,7.7,14.1,20.7c1.3,12.7,1.1,14.9-2.1,19.5c-2.4,3.5-3.5,5.9-3.7,9.5c0,0.5-1.1,1.1-2.1,1.1
				c-1.3,0-2,1.3-2,4.5c0,2.5,0.9,5.2,2,6.1c2.4,2,3.3,1.3,13.6-8.5l6.9-6.7l4.5,4.9c4.4,4.8,7.3,11.7,8.5,20.1
				c0.3,2.3,1.1,5.5,1.6,7.3c1.9,5.7-1.7,14.7-8.5,21.3c-3.3,3.3-6,6.8-6,7.7s-0.9,3.2-2.1,5.1c-1.2,1.7-2.1,6-2.3,9.3l-0.1,6
				l-7.5,0.1c-4.1,0-8.7,0.4-10.1,0.7c-2.4,0.5-20.5,0.7-28.7,0.3c-1.9-0.1-11.3,0.3-21.1,0.8C1008.5,584,1003.7,583.8,1003.7,582.6
				z"/>
			<path id="path2191" class="st3" d="M973.1,454.6c-4.8-7.7-6.8-9.6-12.5-12.4c-9.1-4.3-24.5-9.6-36.1-12.5
				c-7.9-2-9.6-2.9-11.6-6.7c-2.4-4.3-2.4-4.4,0.3-6.9c1.5-1.5,3.9-2.7,5.3-2.7c4.9,0,16.5-4.3,21.1-7.9
				c11.1-8.5,22.7-15.1,24.7-13.9c0.7,0.4-0.1,1.6-1.6,2.7c-3.6,2.5-6.8,8.8-5.5,10.9c1.1,1.7,3.9,2.5,9.1,2.7c1.6,0,6,2.8,9.7,6.1
				c7.6,6.8,8.8,6.9,27.3,1.7c18.3-4.9,33.7-4.5,35.9,1.1c0.4,1.2,1.7,1.7,3.1,1.2c3.9-1.2,15.9,5.2,18.3,9.7
				c2.7,5.2,2.7,6.5-0.5,7.5c-5.9,1.9-9.5,2.3-22.8,2.7c-7.7,0.3-15.7,1.1-17.7,1.9c-2,0.8-6.3,1.5-9.5,1.5c-4.8,0-6.1,0.7-8.7,4
				c-1.7,2.4-4.1,4-6,4c-2.8,0-12.9,7.9-12.9,10c0,0.5-0.8,1.7-1.7,2.7C979.1,463.4,977.9,462.2,973.1,454.6z"/>
		</g>
		<path id="US-MN" class="st3" d="M758,514.8c0.7-18.4,1.9-38.4,2.7-45.9c0.5-5.7,0.1-10.1-1.6-15.7c-2.3-7.5-2.3-8,0-11.9
			c2-3.5,2.3-6.1,1.5-20.9c-0.5-9.3-1.1-19.6-1.3-22.9c-0.3-3.3-0.9-19.9-1.3-36.8l-0.9-30.8l9.2,0.5c29.2,1.6,30,1.6,31.9-0.4
			c1.1-1.1,2-3.1,2-4.5c0-2.9,0.5-3.1,4-1.2c1.7,0.9,2.8,3.6,3.5,8.9c1.1,8.9,3.3,11.7,10.5,13.1c2.9,0.5,6.3,1.7,7.5,2.8
			c1.5,1.2,6,2,14.4,2.1c12,0.3,12.5,0.4,17.2,4.7c2.7,2.4,5.7,4.4,6.9,4.4s4.7,1.9,8,4.1c5.3,3.6,6.9,4,14.7,3.9
			c8.8-0.3,25.5,1.7,29.7,3.5c2.1,0.9,2,1.2-1.1,4.1c-1.9,1.7-4.8,3.2-6.4,3.2c-5.5,0-13.7,4.9-16.8,9.7c-1.6,2.7-4.7,5.9-6.9,7.1
			c-2.1,1.3-3.9,2.8-3.9,3.3c0,0.5-0.8,1.1-1.9,1.1s-2.8,1.3-3.9,3.1c-1.1,1.7-4.8,5.2-8.1,7.7c-6.9,5.3-7.5,6.3-8.4,15.2
			c-0.4,3.7-0.9,7.9-1.1,9.3c-0.3,1.5-0.5,2.9-0.5,3.3c0,0.4-2.3,1.9-4.9,3.2c-5.3,2.9-8.5,8-7.5,12c1.1,4.1,0.9,20.9-0.1,24.3
			c-0.8,2.3-0.3,3.7,2,6c8,7.7,26.9,24.5,29.6,26.3c2.8,1.7,6,8.1,6,12c0,1.3-12.8,1.6-62.4,1.2l-62.4-0.4L758,514.8z"/>
		<path id="US-MO" class="st2" d="M918.3,791.7c-1.9-0.8-3.5-1.6-3.7-1.7c-0.1-0.1,0.1-2.9,0.8-6.4c2-10.7,5.1-10.1-63.2-10.5
			l-59.9-0.4l-0.1-3.3c-0.9-15.9-0.4-26.7,1.7-36c0.8-3.5,0.7-31.3-0.1-43.3c-0.3-3.7-0.5-8-0.5-9.6s-2.3-5.1-4.9-7.7
			c-4.5-4.5-4.7-4.9-2.8-7.9c3.7-5.7,3.2-9.3-2-14c-3.2-2.8-5.3-6.1-6.3-10c-0.8-3.2-1.9-6.8-2.3-7.9c-0.7-1.7,0.5-2,7.6-1.6
			c4.7,0.3,26.1,0.8,47.7,1.3s40.4,1.5,41.6,2.1c1.2,0.7,2.1,2.3,2.1,3.6c-0.1,2.5,1.3,13.7,2.4,18.9c0.4,1.9,4.3,6.9,8.7,11.3
			c5.1,5.1,8.4,9.7,9.3,12.9c0.8,3.1,3.2,6.4,6.1,8.7c11.1,8.5,10.1,6.5,8.1,18c-0.9,5.7-1.5,10.8-1.1,11.5s5.5,4.5,11.1,8.8
			c5.7,4.3,10.9,8.7,11.5,9.9c0.7,1.2,1.6,5.7,2.1,10.1c1.1,8.8,1.5,10,3.9,10c1.1,0,1.5,1.9,1.2,5.6c-0.4,4.3-1.5,6.5-4.7,9.5
			c-3.2,2.9-4.5,5.5-5.6,11.3C925.5,793.1,924.1,794.3,918.3,791.7z"/>
		<path id="US-MS" class="st2" d="M933.9,1000.7c-4.9-4.1-5.1-4.5-5.6-14.5c-0.3-5.6-0.8-10.7-1.2-11.3s-8.7-1.3-18.4-1.6
			c-9.7-0.3-20.1-0.7-23.1-0.8c-2.9-0.1-6.7-0.4-8.3-0.5c-4.8-0.3-3.9-6.7,3.1-19.1c3.3-6,7.6-15.1,9.3-20c3.1-8.4,3.1-9.2,1.2-12.9
			c-1.5-2.8-2.3-9.6-2.8-21.7c-0.9-20.9,0.4-26.4,8.5-37.2c3.3-4.4,5.9-9.3,6.3-12.5c1.1-6.5,2-8.3,6.9-12.9l3.9-3.7l28.9-0.8
			l28.9-0.8v3.7c0,2.1-0.5,8.9-1.2,15.1c-0.7,6.3-1.6,15.9-2.1,21.3c-0.4,5.5-1.1,11.5-1.3,13.3c-1.3,9.7-2.4,46.3-2.1,78.4
			l0.3,36.3l-3.1,0.1c-11.5,0.3-19.1,1.7-20.9,3.9C939.1,1004.8,938.7,1004.8,933.9,1000.7z"/>
		<path id="US-MT" class="st2" d="M571.6,444.8c-0.3-0.3-2.4-0.8-4.5-1.2c-4.3-0.8-26.5-5.3-68.7-14.3c-14.3-3.1-37.1-7.7-50.7-10.7
			c-13.6-2.9-27.3-5.7-30.7-6.5c-8.8-2.1-9.1-2-12,4.8c-2.7,6.3-2.8,6.3-8.7,6.1c-3.2-0.1-8-0.9-10.7-1.7c-2.7-0.8-9.3-1.6-14.8-1.7
			c-12.5-0.1-12.8-0.4-16.5-21.1c-3.7-20.3-5.5-26.7-7.2-26.8c-0.8,0-4.4,0-8,0.1c-6.5,0.3-6.5,0.3-5.6-3.5c0.8-3.5,4.1-7.1,6.4-7.2
			c0.5,0,1.1-2.1,1.1-4.8c0-2.7,1.2-6.4,2.7-8.4c4-5.7,3.9-12-0.4-16.7c-2-2.1-4.5-7.2-5.7-11.2c-1.2-4-3.9-10.3-6-13.7
			c-6-9.7-6.5-23.3-1.7-43.7l3.6-15.6l16.1,5.2c15.1,4.8,77.9,22.3,86.8,24.1c2.3,0.4,10.9,2.7,19.3,4.9c13.2,3.5,100,23.3,117,26.8
			c3.2,0.7,6.1,1.3,6.7,1.7c0.5,0.3,4.8,0.9,9.6,1.5c4.8,0.5,8.8,1.1,8.9,1.3c0.3,0.3-0.3,3.6-0.9,7.6c-1.3,7.7-2.1,12.1-3.5,20.4
			c-0.4,2.8-1.1,6.4-1.3,8c-0.5,2.7-1.1,5.5-2.5,14.8c-2.4,14.5-12.9,75.3-13.5,78.4C575.6,444.9,573.3,446.5,571.6,444.8z"/>
		<path id="US-NC" class="st2" d="M1254.3,843.3c-2.5-1.9-6.4-4.3-8.5-5.3c-2.3-1.1-10-6.8-17.2-12.5l-13.2-10.7l-15.1,0.5
			c-12.8,0.5-15.5,0.3-18.1-1.7c-5.1-3.9-7.7-4.4-22.5-4.1c-14.8,0.1-25.1,2.4-37.6,8c-6.9,3.1-8.3,3.3-26.9,4.7
			c-6.5,0.4-13.2,1.2-14.7,1.5c-2.4,0.5-2.4,0.4,0.4-1.7c1.7-1.3,5.6-4.9,8.7-8.1c3.1-3.2,8.7-7.3,12.3-9.2c3.6-1.9,9.6-6,13.3-9.2
			c3.7-3.2,11.5-8.1,17.3-11.1c10.9-5.3,16.9-10.4,18.7-15.7c1.3-4.3,3.9-5.2,17.2-6.3c6.5-0.5,13.1-1.2,14.7-1.3
			c1.6-0.3,6.4-0.8,10.7-1.3c4.3-0.5,9.1-1.1,10.7-1.3c1.6-0.3,14.3-2,28.1-3.9c13.9-1.9,26.5-3.6,28-3.9s5.5-0.9,8.8-1.3
			c9.5-1.3,27.6-4.7,36.7-6.8c2.3-0.5,3.2,0.3,4.5,3.5c1.6,3.9,1.5,4.3-1.9,7.2l-3.6,3.1l6.5,0.9c4.9,0.7,7.5,1.9,10,4.8
			c4.5,5.1,4.4,6.8-1.2,12.8c-2.5,2.8-5.1,6.1-5.5,7.5c-0.7,2-6.5,3.2-12.7,2.5c-0.4,0-0.7,2.5-0.7,5.9l0.1,5.9h5.1
			c5.7,0,6.1,1.2,2,6.1c-6,7.1-8.1,8.5-12.8,8.5c-4.1,0-6,1.3-15.1,10.8c-9.1,9.5-10.4,11.5-10.4,15.7c0,4.4-0.5,5.1-5.3,7.2
			c-2.9,1.3-5.5,2.3-5.7,2.3S1256.8,845.1,1254.3,843.3z"/>
		<path id="US-ND" class="st2" d="M747.4,435.3c-0.1-0.1-4-0.7-8.4-1.2c-4.4-0.5-9.5-1.1-11.3-1.5c-1.9-0.3-6-0.9-9.3-1.3
			c-3.3-0.4-8.1-1.1-10.7-1.3c-7.5-0.9-13.5-1.7-21.3-2.7c-4-0.5-8.8-1.1-10.7-1.5c-1.9-0.3-15.3-2-30-3.9
			c-14.7-1.9-28.4-3.6-30.7-4c-5.6-0.9-12-1.7-21.5-2.8l-8.1-0.9l3.6-21.5c2-11.9,4-23.5,4.4-25.9c0.4-2.4,1.1-6,1.3-8
			c0.3-2,2.1-12.8,4-23.9c1.9-11.1,3.3-20.7,3.3-21.2c0-0.8,17.2,0,23.6,1.2c1.3,0.3,6.5,0.8,11.7,1.3c5.1,0.5,10.8,1.1,12.7,1.3
			c1.9,0.3,6.9,0.8,11.3,1.3c4.4,0.4,10.1,1.1,12.7,1.5c8.3,1.1,39.2,4.7,46,5.3c3.7,0.4,8.8,0.9,11.3,1.2c2.5,0.3,8,0.9,12,1.5
			c4,0.5,7.7,1.5,8.1,2.1c0.4,0.7,0.9,10.9,1.1,22.9c0.1,11.9,0.5,23.7,0.8,26.3c0.4,4,2,36.9,2.5,50.7c0.1,4.4-0.1,4.7-4.1,4.8
			C749.7,435.6,747.6,435.5,747.4,435.3z"/>
		<path id="US-NE" class="st2" d="M760.4,645.2c-5.1-0.5-12.9-1.3-17.3-1.7c-4.4-0.4-16.1-1.7-26-2.8c-9.9-1.1-21.1-2.3-24.7-2.7
			c-3.6-0.4-8.8-0.9-11.3-1.2c-6-0.8-13.2-1.6-30.7-3.3c-7.7-0.8-15.5-1.7-17.3-2c-2.8-0.4-22-2.4-26-2.7c-1.9-0.1-1.3-11.1,1.5-28
			c1.1-6.8,3.1-6.3-42.1-13.5c-1.9-0.3-4.8-0.8-6.8-1.2l-3.5-0.7l5.3-31.6c2.9-17.3,5.5-31.9,5.7-32.1c0.3-0.4,31.2,3.3,49.2,5.9
			c2.3,0.3,11.7,1.5,21.3,2.7c9.6,1.2,18.8,2.4,20.7,2.7c1.9,0.3,6.5,0.9,10.5,1.3c4,0.5,8.1,1.1,9.3,1.3c1.2,0.3,6,0.8,10.8,1.3
			c13.1,1.3,17.7,2.9,22,7.5c3.9,4,4.1,4.1,13.1,3.3c7.6-0.7,10-0.4,14.7,2.1c3.1,1.6,7.1,3.2,8.9,3.7c2.8,0.8,3.3,1.7,3.5,6.3
			c0.1,2.9,1.7,8.4,3.6,12.1c1.9,3.9,3.9,10.5,4.4,15.2c0.5,4.7,1.1,9.3,1.3,10.4c0.3,1.1,0.8,6.3,1.3,11.3c0.7,5.9,2.3,11.9,4.4,16
			c2.5,5.1,8,19.3,8.1,21.6C774.4,646.5,774.4,646.5,760.4,645.2z"/>
		<path id="US-NH" class="st2" d="M1362.7,501.7c-1.6-0.3-3.1-0.9-3.1-1.5c0-0.5-0.4-11.6-0.8-24.7l-0.7-23.7l4.8-5.3
			c3.5-3.7,4.5-6.1,4.1-8.3c-3.2-14.4-3.2-14.7-0.5-18.5c4.1-5.7,5.7-5.1,6.9,2.9c0.9,5.5,4.5,18.5,9.7,35.5
			c3.5,11.1,9.1,20.9,13.3,23.6c0.9,0.5,1.7,2.7,1.7,4.5c0,2.5-0.5,3.2-2.1,2.5c-1.5-0.5-4.1,1.2-8.1,5.1c-4.8,4.8-7.3,6.1-12.3,6.8
			c-3.3,0.4-7.1,0.9-8.1,1.2S1364.3,502.1,1362.7,501.7z"/>
		<path id="US-NJ" class="st2" d="M1314.6,646.5c-7.3-3.6-9.6-7.2-9.5-14.7c0.1-3.2,0-6.5-0.3-7.3c-0.3-0.8,2.7-4.8,6.5-8.9
			c3.9-4,6.9-8,6.9-8.7s-2.4-3.2-5.3-5.6c-6.7-5.2-8.7-8.8-6.7-11.3c1.5-1.9,1.9-3.5,3.2-14c0.4-3.2,1.2-6.4,1.9-7.1
			c1.6-1.6,20.5,5.2,23.2,8.4c1.6,2,2,3.6,1.1,5.7c-1.3,3.5,0,11.3,3.1,18.5c1.2,2.8,1.9,6.7,1.6,8.7c-0.3,2-0.8,5.5-1.2,7.6
			c-0.9,6.7-11.1,26.7-14.7,29.1C1320.4,649.8,1321.5,650,1314.6,646.5z"/>
		<path id="US-NM" class="st2" d="M517.7,902.6c-7.3-1.3-15.5-2.8-18-3.2c-6.9-1.1-34.7-6-40-6.9c-2.5-0.5-10.7-0.9-18-0.9h-13.3
			l-0.4,3.7c-0.5,4.3-1.7,4.4-11.3,1.7c-3.7-1.1-10.8-2.3-15.6-2.7c-4.8-0.4-10-1.2-11.7-1.6c-5.9-1.5-9.5,0.5-11.2,6.3
			c-1.6,5.2-1.7,5.3-7.6,5.3c-7.6,0-16.3-2.5-16.3-4.8c0-1.7,8.9-42.1,16.3-73.2c2.3-9.6,4.3-18.8,4.7-20.5c0.3-1.7,1.5-7.1,2.7-12
			c1.2-4.9,2.3-10,2.7-11.5c0.3-1.5,4.4-19.5,9.1-40l8.5-37.3l3.9,0.1c2.1,0,6,0.5,8.5,0.9c15.6,2.8,75.7,14.4,77.3,14.9
			c1.1,0.3,4.1,0.9,6.7,1.2c6.1,0.9,52.3,9.7,60.4,11.6c6.1,1.3,6.4,1.6,5.7,5.6c-0.4,2.3-0.9,5.7-1.2,7.5c-0.3,1.9-0.9,5.5-1.3,8
			c-1.2,7.1-2,11.7-3.5,21.3c-1.7,10.5-2.3,14.1-3.2,19.3c-0.4,2.3-4.3,25.9-8.7,52.7c-10,60.8-9.3,57.3-10.4,57.1
			C531.6,905.1,525.1,903.9,517.7,902.6z"/>
		<path id="US-NV" class="st3" d="M221.4,714.3c-2.4-4.5-7.2-13.7-10.7-20.3s-10.8-20.4-16.1-30.7c-5.3-10.3-10.3-19.2-10.8-20
			c-0.5-0.8-4.7-8.5-9.3-17.3c-4.5-8.8-10.1-19.3-12.4-23.3c-2.1-4-6.7-12.4-10-18.7c-3.3-6.3-8.4-15.9-11.3-21.3
			c-9.1-16.9-9.6-13.1,9.1-65.9c9.1-25.7,17.1-47.2,17.7-47.9c1.2-1.2,13.2,2.7,50.1,16.4c10.3,3.9,28.3,9.9,40,13.6
			c11.7,3.7,27.9,8.7,35.9,11.2c8,2.5,14.7,4.7,14.9,4.9c0.4,0.4-43.6,153-47.3,164.4c-0.7,2.3-1.6,5.5-1.9,7.3
			c-0.3,1.9-2.3,7.9-4.4,13.3c-4.1,10.7-3.6,10.3-13.2,8.9c-7.6-1.1-13.6,10-13.9,25.1C227.8,723.1,226,723.3,221.4,714.3z"/>
		<path id="US-NY" class="st2" d="M1340.5,587.6c-0.3-0.8-0.3-3.3,0.1-5.6c1.1-6.5-3.6-10.3-18.7-15.2c-13.5-4.4-14.8-5.3-26.1-18.5
			l-5.1-5.9l-22.5,3.5c-12.4,1.9-24.1,3.7-25.9,4.1c-1.9,0.3-15.3,2.4-30,4.7c-14.7,2.3-27.6,4.4-28.8,4.8c-1.5,0.4-2.4-0.4-2.9-2.3
			c-0.8-2.9,3.1-8.3,14.8-20.7c2.4-2.5,4.3-5.2,4.3-6c0-0.7-1.5-4.3-3.3-7.9c-4-7.7-4.1-9.3-1.1-9.3c1.3,0,3.5-0.8,4.8-1.9
			c1.7-1.3,7.6-1.9,21.1-2c20.3-0.3,22.5-0.7,28.9-6.1c6.8-5.7,8.5-11.2,6.3-20.5l-1.9-7.7l7.7-9.1c4.3-4.9,9.1-10.9,10.7-13.2
			c1.6-2.3,6.1-6.7,10-9.9l7.1-5.6l11.1,0.3c6.1,0.1,12.4-0.1,14-0.7c2.4-0.8,3.1-0.3,4.3,3.5c2.1,6.8,3.1,12.9,3.3,23.2
			c0.3,8,0.8,10,3.7,13.6c6.8,8,12.5,37.9,11.5,59.3c-0.4,9.5-0.1,15.6,1.2,19.7c0.9,3.3,1.9,7.6,1.9,9.6s0.5,3.7,1.3,3.7
			c0.8,0,0.8,1.2,0,3.3c-0.8,2.1-0.8,3.6,0,4.1c0.7,0.4,1.3,0.3,1.3-0.4c0-1.7,6.4-4.5,12-5.2c2.5-0.4,6.4-2,8.7-3.6
			c5.9-4.4,12.9-6.5,14.1-4.4c0.7,1.1-0.3,2.9-2.5,4.9c-2,1.7-5.7,5.2-8.4,7.7C1362.1,580.8,1341.5,590,1340.5,587.6z"/>
		<path id="US-OH" class="st2" d="M1116.4,691.4c-2.5-2.9-3.2-3.1-13.5-2.4c-13.5,0.9-24-1.2-28.8-5.9c-2.4-2.3-5.6-3.6-9.7-4.1
			c-6-0.7-6.1-0.8-6.1-5.5c0-2.7-0.3-9.6-0.7-15.5c-0.4-5.9-0.8-18-1.2-26.9c-0.4-8.9-1.1-22.3-1.5-29.6
			c-0.7-10.8-0.4-13.5,1.1-13.6c0.9-0.1,3.3-0.3,5.2-0.5c1.9-0.1,9.3-0.8,16.7-1.3c7.3-0.5,13.6-1.1,14-1.1s4.3,1.6,8.5,3.6
			c8.4,4,15.7,4.7,19.3,1.6c1.2-0.9,4.9-2.8,8.3-4c3.3-1.2,7.2-3.3,8.7-4.5c8.7-7.9,21.7-16.1,22-14c2.3,20.9,2,51.7-0.7,72.4
			c-0.1,1.1-1.5,5.2-2.8,9.1c-2.1,5.7-3.6,7.7-8.3,10.4c-6.5,3.9-10.3,8.5-11.6,14.7c-0.7,3.3-1.7,4.4-4.8,5.1
			c-2.8,0.7-4.1,1.9-4.7,4.4c-0.9,4.7-3.6,9.9-5.3,10.4C1119.6,694.3,1117.8,693.1,1116.4,691.4z"/>
		<path id="US-OK" class="st2" d="M777.7,867.8c-5.7-3.1-11.2-5.1-14-5.1c-2.5,0-14.1,0.4-25.9,0.8c-18,0.7-22.3,0.4-27.3-1.5
			c-3.3-1.2-8.1-2.5-10.7-2.9c-2.8-0.4-6.9-2.8-10.4-5.7c-4.4-3.9-7.3-5.3-12-5.9c-12.5-1.5-18.1-3.5-21.7-7.3
			c-2.1-2.3-6.7-4.8-11.1-6.3l-7.6-2.4l0.8-6.7c0.4-3.7,1.1-10.9,1.5-16c0.4-5.1,1.1-11.5,1.3-14c0.3-2.5,0.9-9.5,1.3-15.3
			c0.4-5.9,1.1-12.3,1.5-14.3c0.8-4-0.1-4.8-6.3-5.7c-7.2-1.1-44.8-6-57.9-7.6c-16.7-2-15.9-1.5-14.8-8.8c0.5-3.5,1.1-6.4,1.2-6.5
			c0.1-0.1,4.5,0.4,9.6,1.5c5.1,0.9,14.1,2.1,20,2.7c5.9,0.5,13.3,1.1,16.7,1.5c3.3,0.3,9.9,0.9,14.7,1.3c4.8,0.4,11.3,1.1,14.7,1.3
			c3.3,0.3,9.9,0.9,14.7,1.3c4.8,0.4,11.3,1.1,14.7,1.3c3.3,0.3,10.5,0.9,16,1.3s12.1,1.1,14.7,1.3c2.5,0.3,9.2,0.9,14.7,1.3
			c5.5,0.4,12.1,1.1,14.7,1.3c2.5,0.3,9.7,0.9,16,1.3c6.3,0.4,12.8,1.1,14.7,1.3c1.9,0.3,8.4,0.9,14.7,1.3
			c6.3,0.5,11.5,0.9,11.5,1.1c0.7,0.8,2,39.6,1.9,54.1c-0.4,35.5-0.9,60.1-1.5,60.5C787.3,872.7,782.9,870.6,777.7,867.8z"/>
		<path id="US-OR" class="st3" d="M199.1,454c-19.1-6.9-40.9-14.9-48.7-17.9c-21.2-7.9-73.7-26.9-84-30.4c-3.3-1.1-6.3-2.3-6.4-2.4
			s0.1-2.4,0.9-4.8c0.8-2.4,1.7-6.9,2-9.9c1.5-12.9,4.5-19.6,13.9-29.9c5.1-5.5,11.6-14.3,14.7-19.3c6.4-10.5,32.1-62.5,32.1-64.8
			c0-0.9,0.9-1.1,2.4-0.5c1.3,0.5,4.3,1.5,6.5,2.1c4.1,1.2,10.9,7.7,11.3,10.9c0.1,0.8,0.4,2.1,0.5,2.9c0.1,0.8,0.4,3.5,0.4,6.1
			c0.3,6.8,3.7,9.9,13.7,11.9c4.7,0.9,13.6,4,19.9,6.7c6.3,2.8,14,5.5,17.3,6c3.3,0.5,6.9,1.2,8,1.3s8,0.8,15.2,1.3
			c15.2,1.1,19.2,2.1,42.7,10.5c9.5,3.3,17.3,6.1,17.5,6.1c0.1,0,0.3,0.8,0.4,1.6c0.1,0.9,0.9,5.5,1.7,10l1.6,8.3l-4.8,5.3
			c-2.7,2.9-4.8,5.9-4.8,6.5c0,2.1-7.2,9.2-11.5,11.3c-4.9,2.5-6.1,6-4.8,14.9c1.3,9.1,1.3,8.9-2.9,13.1c-2.9,2.8-4,5.1-4.4,9.9
			c-0.5,6-13.6,45.7-15.1,45.6C234.2,466.6,218.2,460.9,199.1,454z"/>
		<path id="US-PA" class="st3" d="M1171.9,641.8c-0.7-1.3-2-6.9-3.1-12.4c-2-11.2-2.1-11.9-2.5-12.3c-0.7-0.5-0.9-5.3-2-24.3
			c-0.5-10.3-1.1-20.8-1.3-23.3c-0.3-3.9,0.3-5.1,3.1-6.9c1.9-1.2,4.8-3.2,6.5-4.4c2.9-2.1,3.1-2.1,3.9,2.1l0.8,4.3l7.3-0.9
			c4-0.5,8.5-1.1,10.1-1.5c1.6-0.3,6.8-1.1,11.5-1.9c4.8-0.8,11.1-1.7,14-2.3s19.6-3.1,37.1-5.9l31.7-4.9l4.7,5.1
			c2.5,2.8,4.7,5.7,4.7,6.4s2.1,2.7,4.7,4.4c2.5,1.7,4.4,3.5,4.1,3.7c-0.7,0.7-1.7,5.9-2.9,14.9c-0.5,3.5-1.3,6.7-2,7.1
			c-3.1,1.9-0.9,7.9,4.8,13.1l6,5.5l-8,8.1c-4.4,4.5-9.6,8.8-11.6,9.6c-2,0.8-11.5,2.7-20.9,4.3c-9.6,1.6-18.5,3.1-20,3.3
			c-1.5,0.3-13.5,2.3-26.7,4.5c-31.2,5.3-29.1,5.1-41.6,6C1174.4,644.1,1173.1,644,1171.9,641.8z"/>
		<path id="US-RI" class="st2" d="M1383.2,543c-1.3-4.9-2.7-10.4-3.1-12c-0.7-2.8-0.4-2.9,4.5-2.9c4.9,0,5.6,0.5,9.7,6.8
			c3.3,5.2,4,7.3,3.1,9.1c-1.3,2.1-9.5,8.1-11.1,8.1C1386,552,1384.5,548,1383.2,543z"/>
		<path id="US-SC" class="st2" d="M1190.2,916.6c-1.9-0.9-4.8-4.5-6.7-7.9c-1.7-3.3-3.6-6.1-4-6.1c-1.9,0-7.9-7.2-7.9-9.5
			c0-1.3-2.3-5.1-5.1-8.4c-2.8-3.3-6.8-8.4-8.9-11.2c-2.1-2.8-7.3-7.7-11.3-10.9c-4-3.2-10.4-9.6-14-14.4
			c-3.7-4.7-8.8-9.6-11.5-10.9c-6.3-3.2-8-5.5-7.1-9.1c0.8-3.2,7.2-6.5,22.5-11.6c16.1-5.3,44.5-4,44.5,2.1c0,0.9,5.6,1.3,16.5,1.1
			c12.9-0.3,17.1,0,18.9,1.6c1.3,1.1,3.3,2.7,4.5,3.5c1.2,0.8,5.6,4.5,10,8.1c4.4,3.6,10.7,7.9,14,9.6c3.3,1.6,6.3,3.2,6.5,3.5
			c0.3,0.3-1.9,3.3-4.8,6.8c-6.5,7.7-7.9,10.1-9.1,17.1c-0.7,3.6-2.5,6.8-5.9,10c-2.7,2.5-7.3,7.6-10.3,11.1
			c-2.9,3.5-10.4,11.1-16.7,16.8C1194,917.9,1193.4,918.3,1190.2,916.6z"/>
		<path id="US-SD" class="st2" d="M740.5,545.8c-5.5-2.8-7.9-3.3-14.7-2.8c-7.6,0.5-8.5,0.3-13.6-3.9c-5.6-4.5-9.9-5.6-29.9-7.9
			c-4-0.4-8.3-1.1-9.3-1.3c-1.1-0.3-5.6-0.9-10-1.3c-4.4-0.4-9.5-1.1-11.3-1.3c-1.9-0.3-6-0.8-9.3-1.2c-3.3-0.4-8.4-1.1-11.3-1.5
			s-11.9-1.6-20-2.7c-8.1-1.1-18.3-2.4-22.7-2.9c-18.4-2.1-20-2.5-19.7-5.3c0.3-2.7,7.9-48,9.1-53.9c0.4-1.9,0.9-5.5,1.3-8
			c0.4-2.5,1.7-11.1,3.1-18.7c2.3-13.3,2.5-14,5.6-13.9c3.6,0.1,20,1.9,23.7,2.5c3.3,0.5,13.3,1.9,20.9,2.8c3.7,0.4,8.1,1.1,10,1.3
			c1.9,0.3,6.9,0.9,11.3,1.3c4.4,0.4,8.9,1.1,10,1.3c1.1,0.3,9.7,1.5,19.3,2.7c17.6,2.1,52.7,6.8,60,7.9c2.3,0.3,5.7,0.7,7.7,0.7
			c3.2,0.1,3.6,0.4,2.4,2.7c-1.1,1.9-0.7,4.8,1.3,10.9c1.7,5.6,2.4,10.3,2,13.7c-1.2,8.5-2,20.1-2.7,38.5c-0.4,9.5-1.2,17.6-1.9,18
			s-1.2,6.4-1.1,13.1C751.2,551.2,751,551.3,740.5,545.8z"/>
		<path id="US-TN" class="st3" d="M915.7,826.3c0-3.7,2.9-11.5,6.4-16.9c4.8-7.6,8.3-16.3,9.2-23.2c0.8-6.3,3.2-9.3,7.5-9.6
			c1.6-0.1,10.5-0.7,19.7-1.2c13.9-0.8,16.9-1.3,18.7-3.5c1.9-2.3,5.1-2.5,35.3-3.3c88.7-2.1,108.7-2.8,126.4-4.3
			c4.9-0.4,9.1-0.4,9.1,0.1c0,1.9-3.2,6.7-5.9,8.9c-1.6,1.3-7.2,4.4-12.5,6.9c-5.3,2.5-13.1,7.6-17.3,11.2s-10.4,7.9-13.7,9.2
			c-3.3,1.3-7.9,4.8-10,7.5c-2.1,2.7-6.9,6.8-10.7,9.1c-3.7,2.4-6.9,4.7-7.3,5.2c-1.5,1.9-16.4,2.5-78.7,3.2
			c-35.6,0.4-67.2,1.1-70.4,1.3C917.5,827.7,915.7,827.4,915.7,826.3z"/>
		<path id="US-TX" class="st3" d="M679.8,1149.2c-6-4.4-8.3-5.3-13.7-5.3c-5.1,0-8-0.9-13.5-4.5c-3.9-2.5-9.3-5.3-12.3-6.3
			s-6.1-2.8-7.1-4s-2.5-3.1-3.6-4.1c-1.7-1.7-4.4-12-3.3-12.4c0.3-0.1-1.1-1.7-3.1-3.5c-3.1-2.9-3.7-4.7-4.4-14.4
			c-0.8-9.9-1.5-12.3-6.4-20.5c-8.8-14.8-17.9-33.6-18.9-38.9c-1.3-7.2-8.1-19.9-12.8-24.1c-2.3-2-5.2-5.9-6.7-8.5
			c-2-4-3.5-5.1-7.5-5.7c-2.8-0.5-8.3-1.6-12.4-2.5c-11.1-2.4-19.6-0.3-22.8,5.9c-1.3,2.5-2.5,5.3-2.5,6.3s-2,3.7-4.5,6.4
			c-3.5,3.7-5.5,4.8-9.1,4.7c-6.4-0.1-7.7-0.9-17.9-9.9c-13.5-12-20.4-21.5-20.8-28.8c-0.1-3.2-1.5-8.8-2.8-12.3
			c-1.3-3.5-2.4-8.1-2.4-10.3c0-4-3.6-8.8-15.3-20.7c-2.9-2.9-6.4-7.6-7.7-10.4c-1.3-2.8-3.5-5.6-4.8-6.3s-3.2-3.3-4-5.6
			c-0.8-2.4-3.1-5.9-4.8-7.7c-2.1-2.3-3.2-4.5-2.8-6.7c0.4-3.1,1.1-3.2,8.7-3.3c4.5,0,14.4,1.1,21.9,2.3c14.5,2.5,19.5,3.3,27.3,4.5
			c2.8,0.4,7.5,1.3,10.4,1.9c2.9,0.7,8.3,1.6,12,2c3.7,0.4,7.1,1.1,7.5,1.3c1.9,1.2,17.2,2.1,17.2,1.1c0-0.7,0.9-6.3,2-12.5
			c1.1-6.3,2.3-13.1,2.5-15.3s3.3-20.8,6.7-41.3c3.3-20.5,6.4-39.3,6.8-41.9c0.4-2.5,0.9-5.7,1.2-7.3c0.3-1.5,0.8-4.9,1.2-7.6
			c0.4-2.7,0.9-6.3,1.3-8c0.4-1.7,0.9-5.6,1.5-8.7c0.5-3.1,1.1-6.3,1.2-7.3c0.3-1.1,0.5-2.7,0.5-3.5c0.1-1.1,3.5-0.9,11.5,0.3
			c6.3,0.9,15.1,2,19.7,2.5c4.5,0.5,9.2,1.1,10.3,1.3c1.1,0.3,5.3,0.9,9.3,1.3c4,0.4,10.9,1.3,15.3,2s8.5,1.2,9.2,1.2
			s0.8,4.7,0.3,10.4c-1.7,21.9-4.8,54.4-5.3,56.7c-0.7,2.9,1.1,4.3,9.9,7.1c4.4,1.5,8.5,3.7,10.3,6c3.1,3.9,10.8,6.5,21.5,7.5
			c6.4,0.5,13.3,4.3,15.9,8.5c1.1,1.7,3.1,2.8,5.3,2.8c2,0,6.9,1.2,10.9,2.8c6.7,2.5,9.6,2.8,34.7,2.4c30-0.4,29.2-0.5,42.4,8.5
			c3.2,2.1,7.9,4.5,10.4,5.2l4.5,1.2v28.9V941l3.9,8.5c2.1,4.7,4.5,12.1,5.5,16.7c1.5,7.3,1.3,8.7-1.1,13.3
			c-1.5,2.8-3.1,9.1-3.6,13.9c-0.5,4.8-2,11.6-3.3,15.3s-2.8,8.7-3.3,11.1c-0.7,3.3-1.6,4.3-4,4.3c-5.2,0-12.4,3.7-17.5,9.2
			c-5.2,5.6-18.9,13.9-35.3,21.5c-8.9,4.1-16.8,8.5-18.7,10.7c-0.4,0.4-3.7,3.1-7.3,6c-8.4,6.5-12.5,11.1-20.3,22.4
			c-6,8.7-6.1,9.2-5.9,18c0.1,4.9,0.8,10.8,1.5,13.1c1.5,4.5,2.7,25.7,1.7,28.3C689.7,1155.6,687.6,1154.8,679.8,1149.2z"/>
		<path id="US-UT" class="st3" d="M314.4,496.9c-1.1,0-1.5,0.5-1.7,1.6c-0.4,1.2-3.3,11.5-6.7,22.9c-3.3,11.3-8.3,28.1-10.9,37.3
			c-2.7,9.2-6.9,23.9-9.5,32.7s-6.8,23.2-9.3,32c-2.5,8.8-5.2,17.7-5.9,20s-2.3,8.3-3.7,13.3c-1.5,5.1-2.5,9.3-2.4,9.5
			c0.1,0.1,29.1,7.3,64.3,16.3c62.9,15.7,67.3,16.8,67.3,15.9c0-0.3,4.3-19.3,9.5-42.4c5.2-23.1,9.7-43.3,10.1-45.2
			s2.4-11.3,4.7-21.1c2.3-9.7,4.3-19.3,4.7-21.2c0.4-1.9,0.9-3.9,1.2-4.4c0.3-0.5-2-1.3-5.1-1.9c-10.9-1.9-46.1-9.7-47.7-10.7
			c-0.8-0.5-1.2-1.9-0.8-2.9c1.1-2.9,7.7-27.6,8-29.6c0.1-1.5-22.3-9.2-63.5-21.6C315.8,497,315,496.9,314.4,496.9z"/>
		<g id="US-VA">
			<path id="path2277" class="st3" d="M1118.3,751.5c10.8-12.9,17.6-18.5,20.7-17.5c1.2,0.4,2.1,1.3,2.1,1.9s2.1,1.5,4.7,1.9
				c3.5,0.7,8.4-0.4,19.5-4c13.3-4.4,15.1-5.3,16.5-9.1c0.9-2.3,2.9-5.6,4.3-7.5c1.5-1.9,4.5-8.4,6.9-14.7
				c2.4-6.3,4.8-11.7,5.2-12.3c0.4-0.5,3.2-1.2,6.1-1.7c8.9-1.3,9.6-1.9,10.5-7.7c0.7-4.5,2.3-6.8,8.1-12c4-3.6,7.2-6.9,7.1-7.3
				c-0.5-3.5,0.4-4.1,3.6-2.9c5.5,2,9.7,1.6,11.2-1.3c1.5-2.7,1.5-2.7,4,0c1.5,1.5,3.2,2.7,3.9,2.7s3.3,0.9,6,2c4.8,2,4.8,2,2.7,5.3
				c-2,3.1-2,3.7,0.1,8.7c1.9,4.3,3.9,6,10.5,9.2c4.5,2.1,9.9,4.4,11.9,4.8c4.1,1.1,6.9,4.8,4.9,6.8c-0.8,0.8,0.1,2.9,2.7,5.9
				c3.1,3.6,4,5.9,4,10.8c0,5.2,0.7,6.8,4.3,10c8.5,7.7,9.2,8.5,9.2,11.1c0,1.5-0.8,2.7-1.6,2.8c-2.4,0.1-7.2,1.1-17.6,3.2
				c-9.3,2-46.8,7.7-60.7,9.3c-4,0.4-8.3,1.1-9.3,1.3c-1.1,0.3-5.3,0.8-9.5,1.3c-4.1,0.4-8.7,1.1-10,1.3c-4.4,0.8-14.1,2-29.2,3.5
				c-8.1,0.8-17.1,1.7-20,2s-12.5,0.9-21.3,1.3s-17.1,1.1-18.4,1.5C1109.9,762.6,1112.8,758.1,1118.3,751.5z"/>
			<path id="path2261" class="st3" d="M1303,719.9c-1.2-1.9,0.7-12.9,2.9-19.1c1.1-2.8,1.7-6.1,1.3-7.6c-0.7-2.7,2-4,8.1-4.1
				c2.5,0,2.9,0.5,2.1,2.3c-0.5,1.3-2,5.1-3.2,8.3c-1.2,3.3-3.2,7.1-4.5,8.3c-2.7,2.8-2.9,4.7-0.8,5.3c1.1,0.4,0.8,1.6-0.8,4.1
				C1305.9,721.5,1304.3,722.2,1303,719.9z"/>
		</g>
		<path id="US-VT" class="st2" d="M1339.6,502.4c0-5.5-6.5-25.3-9.3-28.3c-2-2.1-2.8-5.2-3.2-12.8c-0.3-5.5-0.9-11.5-1.3-13.3
			c-0.4-1.9-1.2-5.5-1.6-8.1l-0.8-4.8l12.5-2.8c6.8-1.6,15.2-3.2,18.7-3.7l6.1-0.8l0.9,6.3c0.8,5.7,0.5,6.7-3.2,10.9l-4.1,4.8
			l0.4,27.2c0.4,23.5,0.1,27.2-1.6,27.2c-1.1,0-4.5,0.4-7.7,0.8C1340,505.6,1339.6,505.4,1339.6,502.4z"/>
		<path id="US-WA" class="st3" d="M259.5,328.5c-19.3-6.9-28.5-8.9-47.1-10.3c-14-0.9-21.7-2.8-32.8-7.9c-5.5-2.5-13.9-5.3-18.5-6.3
			c-4.8-0.9-9.3-2.8-10.3-3.9c-0.9-1.2-1.6-5.1-1.6-8.8c0-6.1-0.7-7.3-5.7-12.8c-4.1-4.4-7.3-6.4-11.9-7.6l-6.1-1.6l1.1-5.1
			c1.3-6.1,7.5-44,9.2-57.6c0.7-5.5,2-10.4,3.1-10.9c2-1.2,5.6,0.8,15.1,8.8c5.7,4.8,21.5,11.9,26.7,12c0.8,0,1.2-1.9,0.9-4.1
			c-0.3-3.2,3.5-15.5,5.9-18.8c0.1-0.3,3.9,1.1,8.1,2.8c4.3,1.7,31.2,12.1,59.9,22.9c28.7,10.8,52.3,19.9,52.5,20.1
			c0.3,0.3-2.3,8.1-5.6,17.5c-3.3,9.3-9.5,26.7-13.7,38.4c-5.2,14.7-7.9,24.3-8.4,30.8l-0.8,9.5L259.5,328.5z"/>
		<path id="US-WI" class="st3" d="M920.3,560c-26.7-0.9-27.2-1.2-29.2-18c-2-17.2-7.3-32.9-11.9-35.1c-1.6-0.8-8.8-6.8-16.1-13.5
			L850,481.3V465c0-14.1,0.4-16.5,2.4-17.7c7.7-4.5,10-7.6,10.1-13.9c0.3-9.9,1.5-14,4.5-14.4c4.8-0.7,25.2-7.2,26.5-8.5
			c2.1-2.1,3.2-1.5,2.8,2.1c-0.3,2.7,0.4,3.7,3.1,4.7c4.3,1.6,8.9,6.3,10.1,10c0.7,2.3,3.6,3.6,13.9,6.5
			c15.7,4.4,34.7,11.1,38.5,13.6c4.3,2.7,12,16.3,13.1,22.7c0.5,3.1,1.7,5.6,2.5,5.6c2.5,0,7.6-5.3,9.6-10.1
			c2.3-5.5,5.2-6.1,3.7-0.8c-0.5,2-0.9,5.1-0.8,6.7c0.1,1.6-0.4,2.9-1.1,2.9c-2.8,0-5.3,4.4-6.7,11.7c-1.9,10-4,17.7-5.6,20.8
			c-3.6,6.8-4.8,24.4-3.1,43.9l0.9,10.4l-17.2-0.4C948.1,560.9,931.4,560.4,920.3,560z"/>
		<path id="US-WV" class="st2" d="M1146.4,733.1c-8.5-3.2-23.9-20.1-24.8-27.6c-0.4-2.9,0.5-5.5,3.3-9.2c2.1-2.8,3.9-6.5,3.9-8.1
			c0-2.3,1.3-3.6,4.5-4.9c3.6-1.5,4.7-2.9,5.3-6.5c1.1-5.7,5.1-10.5,11.9-14.4c6.5-3.7,11.6-15.2,11.6-26.5c0-10.3,2.1-10.9,3.2-0.9
			c1.3,12.1,3.3,13.5,18.4,12.9l12.1-0.4l1.5,6.7c1.3,6,1.7,6.7,4.8,6.3c1.9-0.1,6.7-2.7,10.8-5.6c8.9-6.3,21.6-9.6,27.1-7.1
			c3.9,1.7,4.1,2.8,1.6,6.3c-1.7,2.4-2,2.4-7.5-0.5c-6.4-3.3-7.5-2.8-8.7,3.6c-0.8,4.3-6.4,10.5-11.5,12.4c-1.5,0.5-2.7,3.1-3.2,7.1
			c-1.1,6.7-1.3,6.9-9.7,7.7c-3.2,0.3-5.9,0.8-6,1.1s-2.7,6.3-5.5,13.2c-2.8,6.9-6.8,15.3-8.9,18.5c-2.1,3.2-3.9,6.3-3.9,6.8
			c0,0.9-7.5,3.7-21.3,8.3C1151.6,733.7,1148.6,733.9,1146.4,733.1z"/>
		<path id="US-WY" class="st2" d="M538.4,582.6c-6.3-1.3-15.6-3.3-20.7-4.5c-5.1-1.1-19.6-4.1-32-6.8c-26.1-5.5-80.7-17.1-95.3-20.3
			c-5.5-1.2-10.8-2.1-11.7-2.1c-0.9,0-1.5-0.9-1.1-2.1c0.4-1.2,1.6-6,2.8-10.8c1.2-4.8,2.7-10.1,3.3-12s1.6-5.2,1.9-7.5
			c0.7-4.1,4.7-21.3,14-59.9c2.8-11.7,5.9-24.7,6.7-28.8c0.8-4.1,2.3-8.5,3.2-9.9c1.9-2.5,1.6-2.5,67.5,11.3
			c20.3,4.3,52.3,10.9,66,13.9c0.8,0.1,8.1,1.7,16.4,3.5l15.1,3.2l-0.7,4.8c-0.4,2.7-4.3,26.4-8.8,52.8c-4.5,26.4-8.4,49.5-8.8,51.3
			c-0.9,6-1.9,11.2-3.3,18.5c-0.8,4-1.3,7.5-1.3,7.7C551.7,585.6,551.2,585.4,538.4,582.6z"/>
		<path class="st2" d="M676.6,40c-1.1,0-3.9,1.6-6.1,3.6c-3.5,2.9-4.4,3.2-5.3,1.7c-0.8-1.3,0.1-3.2,3.1-6.3
			c4.5-4.7,5.1-9.3,2.1-18.7c-1.1-3.2-0.9-5.5,0.3-8.5c0.3-0.7,0.8-1.5,1.3-2.4H531.5c-1.9,8-3.9,16.4-5.6,23.3
			c-3.3,14-7.9,32.8-10.1,42c-2.3,9.2-4.3,17.9-4.5,19.3s-3.5,14.9-7.2,30c-3.6,15.1-8.8,36.3-11.3,47.3
			c-2.5,11.1-6.7,27.7-8.9,37.3c-2.3,9.6-4.4,18.3-4.7,19.3c-0.9,4.4-11.5,47.5-12,49.5c-0.5,1.7,1.2,2.7,9.7,4.5
			c5.7,1.3,11.6,2.5,13.1,2.8c1.5,0.3,6.5,1.3,11.3,2.5c7.9,1.9,11.3,2.7,17.3,3.9c1.1,0.3,16.7,3.7,34.7,7.7
			c18,4,36.5,7.7,41.3,8.3c4.8,0.5,10.1,1.1,12,1.3c1.9,0.3,7.2,0.8,12,1.3c4.8,0.5,10.1,1.1,12,1.3c1.9,0.3,8.1,0.9,14,1.3
			c5.9,0.4,10.9,1.1,11.2,1.5c2.4,2.3,3.7-0.4,4-8.1c0.1-4.8,0.5-9.7,0.7-10.9c0.3-1.3,0.9-9.9,1.5-19.1c0.5-9.2,1.1-17.6,1.3-18.7
			c0.3-1.1,0.8-9.5,1.3-18.7c0.5-9.2,1.1-17.6,1.3-18.7c0.3-1.1,0.8-9.2,1.3-18c0.5-8.8,1.1-17.5,1.3-19.3c0.3-1.9,0.8-10,1.3-18
			c0.4-8,1.1-16.8,1.3-19.3c0.3-2.5,0.9-10.7,1.3-18c0.4-7.3,1.1-16,1.3-19.3c0.3-3.3,0.9-11.3,1.3-18c0.4-6.7,1.1-15.3,1.3-19.3
			C678.5,44.3,678.6,40,676.6,40z"/>
		<path class="st2" d="M1623.4,37.9c0.9-1.9,1.5-3.6,1.2-3.7s-4-2.3-8.4-4.7s-9.5-5.6-11.2-6.9c-3.2-2.5-9.9-3.1-16.1-1.2
			c-2.8,0.8-3.9,0.3-6.4-3.5c-2.5-3.6-3.9-4.4-8-4.4c-4.5,0-5.9,1.1-15.2,10.9c-7.2,7.6-10.5,12.3-11.1,15.5
			c-0.9,5.1-14.7,19.5-17.5,18.4c-3.5-1.3-0.4-9.3,5.9-16c3.5-3.6,8-8.5,10.3-10.8c2.1-2.3,7.2-7.9,11.1-12.3s8.7-8.7,10.8-9.6h-133
			c0.7,1.7,1.2,3.2,1.2,4.1c0,1.2,0.9,2.9,2.1,4c2.8,2.3,7.2,12.4,7.2,16.4c0,1.7-1.7,6.4-4,10.5c-6.1,11.6-5.2,14.3,4.8,14.3
			c2.8,0,5.6-1.1,7.3-2.8c1.6-1.6,3.3-2.3,4-1.6c2,2,1.7,8.9-0.5,14.1c-2.8,6.1-7.6,8.4-13.9,6.5c-4.8-1.5-11.6,0.9-14.7,5.3
			c-2.7,3.6-10.5,4.7-13.7,1.7c-3.6-3.2-3.3-4.8,1.3-8c2.3-1.5,4.4-3.7,4.8-5.1c0.5-1.9,5.2-5.9,11.1-9.9c0.3-0.1,0.8-2.4,1.1-4.9
			c0.4-3.7,0-4.7-1.9-4.5c-1.3,0-5.3-0.3-9.1-0.8c-6.4-0.9-6.8-0.8-9.3,3.1c-3.2,4.8-8,5.7-12.7,2.5c-1.9-1.2-5.9-2.8-9.1-3.6
			c-5.5-1.2-5.9-1.1-7.1,2.3c-0.7,2-2.5,4.5-4.1,5.7c-1.6,1.2-3.1,3.3-3.2,4.8c-0.7,4.5-3.1,9.7-4.4,9.7c-0.7,0-2,1.2-2.7,2.7
			c-3.3,6.3,7.1,22.4,16.8,26.1c3.5,1.3,5.9,3.2,6.3,5.1c1.2,4.7,0.9,12.7-0.7,13.6c-2.1,1.3,2.5,6,6,6c1.6,0,4.7-1.2,7.1-2.7
			c3.9-2.4,4.5-2.4,6.4-0.5c1.1,1.1,2.1,2.8,2.1,3.6c0.1,1.6,0.3,2.5,1.9,11.2c0.9,5.2,2,5.6,11.7,4.7c6.1-0.5,8.3-0.1,10.3,1.6
			c1.5,1.3,4.8,2.7,7.6,2.9c2.8,0.3,5.3,0.8,5.5,1.1c0.5,0.5,6.8-0.1,7.5-0.8c0.7-0.7,2.1-12.5,2.3-19.2c0.1-2.9,0.8-5.7,1.6-6.3
			c0.8-0.5,4.7,0.8,8.8,2.8c6,2.9,8.4,3.5,12.8,2.7c5.2-0.9,32.9-10.5,45.6-15.7c3.5-1.5,12.9-5.2,21.1-8.1
			c8.1-2.9,19.1-7.2,24.4-9.3c5.3-2,12.8-4.4,16.7-5.3c3.9-0.9,9.1-2.7,11.7-4c2.7-1.3,5.3-2,6-1.5c0.7,0.5,3.7,4,6.7,7.9l5.5,6.9
			l4-4.3c4.5-4.8,13.7-18.7,13.7-20.9c0-2.9-5.7-12.4-10-16.8C1623.8,50.8,1621.2,42.8,1623.4,37.9z"/>
		<path class="st2" d="M1606,89.2c-1.1,0.8-5.7,2.5-10.4,3.7c-7.9,2-28.9,9.7-63.2,23.2c-22.4,8.8-43.7,16-49.5,16.8
			c-4,0.5-6.9,0-10.9-2.1c-3.1-1.6-5.6-2.7-5.6-2.4c-0.1,0.4-1.1,9.3-1.9,16.9c-0.3,3.2-1.3,6.4-2.3,6.9c-1.5,0.9-15.2,0.5-21.3-0.5
			c-1.2-0.3-3.5-1.5-4.9-2.8c-2.1-2-3.9-2.3-10-1.5c-6.7,0.8-7.6,0.7-10.7-2.4c-2.3-2.3-3.6-5.5-4.3-10.3c-0.8-6.3-1.2-6.8-3.7-6
			c-7.7,2.5-12.4,2.3-16.3-1.1c-3.6-3.1-3.7-3.6-2.3-7.7c2.7-7.6,1.7-10.8-4.1-13.6c-5.5-2.7-13.5-10.7-16.4-16.5
			c-1.1-1.9-2.1-6-2.5-8.9c-0.7-4.7-0.3-5.9,3.3-9.7c2.9-3.1,4.1-5.6,4.1-8.8c0-3.5,0.8-4.8,3.3-6c1.9-0.8,3.7-3.1,4.1-5.2
			c1.5-6.4,2.4-6.8,11.3-4.9c4.5,0.9,9.2,2.7,10.4,3.7c3.5,3.2,5.7,2.5,9.3-2.7c2.9-4.3,3.7-4.7,7.3-3.9c2.3,0.5,7.2,1.2,11.1,1.6
			l7.1,0.7l2.8-6.3c2.7-6.1,2.7-6.5,0.5-11.5c-1.3-2.8-3.5-6.1-4.8-7.3s-2.5-3.2-2.5-4.4c0-1.6-0.8-4-2.1-6.8h-263.3
			c0.8,2.8,2.4,8,4,12.9c2.7,8,3.7,14,3.9,22.3c0.3,10.3-0.3,12.4-4.7,23.2c-3.3,8-6.8,14.1-10.8,18.4c-3.3,3.6-7.9,8.8-10.1,11.6
			c-2.3,2.8-7.2,6.9-10.9,9.2c-7.5,4.7-14,10.4-14,12.4c0,0.8,1.2,2.8,2.7,4.7c1.5,1.9,2.7,4.9,2.7,6.9c0,2.1,1.1,4.1,2.5,4.9
			c4.8,2.5,8.4,10.1,8,17.2c-0.3,4.4,0.4,7.5,2,9.7c1.2,1.7,2.9,5.6,3.7,8.5c0.8,2.9,3.9,10.4,6.8,16.7c2.9,6.3,5.5,12.8,5.5,14.7
			c0,1.9-1.6,5.9-3.7,8.9c-2.9,4.4-3.5,6.4-2.8,9.6c0.8,3.7,0.5,4.1-3.3,4.9c-3.6,0.7-4.1,1.2-3.5,4.3c0.4,1.9,2.5,19.1,4.7,38.1
			s4.3,37.3,4.7,40.7c0.4,3.3,0.9,8.1,1.3,10.7c0.3,2.5,1.2,10.4,2,17.3c0.8,6.9,1.7,14.4,2,16.7c0.3,2.3,0.9,7.9,1.3,12.7
			c0.5,5.2,2.4,12.3,4.9,17.6c3.3,7.3,5.3,9.9,10.9,13.7c7.7,5.3,20.1,9.5,31.5,10.4c5.2,0.4,9.5,1.9,14.1,4.8
			c3.7,2.3,7.9,4.1,9.3,4.1c1.5,0,4,2.1,5.7,4.7c3.2,4.7,3.2,4.7,13.1,4.7c7.6,0,10.8-0.5,13.5-2.5c7.9-5.6,15.1-8.3,20.5-7.9
			c5.2,0.4,5.5,0.7,6,5.1c0.3,2.5,1.5,6.3,2.7,8.3c2,3.3,2.9,3.7,9.3,3.7c3.9,0,16.8-2.1,28.7-4.8c11.9-2.7,22.8-5.1,24.4-5.3
			c1.6-0.3,4.1-2.5,5.9-4.9c1.6-2.4,5.2-5.9,7.9-7.7c5.3-3.7,9.2-12.5,10.3-22.8c0.3-3.2,1.2-9.6,1.9-14.4c0.7-4.8,1.6-11.3,2-14.7
			c1.1-8.1,6.7-26.7,9.3-30.4c1.6-2.3,3.1-2.8,5.7-2.4c2,0.4,5.9,0.3,8.7-0.1l5.2-0.8l-0.8-10.9c-1.1-13.3-0.3-14.3,12.3-14.8
			c10.5-0.4,14.9-1.9,20.4-6.9c4.1-3.9,16.9-7.5,32.3-9.1c7.9-0.8,10.5-2.5,18-11.6c7.6-9.3,8.5-16.1,3.2-26.3
			c-2-3.7-3.7-4.9-10.1-6.9c-7.3-2.3-8.4-2.3-16.5-0.3c-6.1,1.5-11.7,4.3-18.7,9.1c-5.5,3.9-13.6,9.1-18,11.9
			c-4.4,2.7-11.1,7.6-14.7,11.1c-3.6,3.3-8.7,8-11.3,10.4c-5.1,4.7-17.3,19.7-19.9,24.4c-0.8,1.6-1.5,4.1-1.5,5.7
			c0,2.8-9.7,22-15.2,30c-6.1,8.9-15.2,18.5-23.5,24.8c-4.8,3.6-13.9,12.3-20.1,19.2c-6.3,6.9-11.6,12.3-11.9,12
			c-1.9-1.9,18.7-23.7,33.6-35.7c10.7-8.5,31.1-41.6,32.7-52.8c0.4-2.5,2.5-7.6,4.9-11.3s5.3-9.7,6.7-13.3
			c4.7-12.4,17.7-27.3,24-27.3c2.8,0,3.6-1.2,6-9.1c1.5-4.9,3.3-11.9,4-15.5c0.7-3.6,2.3-8,3.7-9.9c4.7-6.3,29.6-15.6,81.1-30.5
			c8.8-2.5,20.1-5.9,25.3-7.3c13.7-4,35.3-15.6,36.8-19.7c0.7-1.9,3.9-8.7,7.2-15.3s6.3-14.1,6.7-16.7c0.8-5.5,8.1-13.9,20.4-23.1
			c4.5-3.5,8.3-6.7,8.3-7.1c0-0.7-6.4-9.3-9.5-12.9C1608.1,88.2,1607,88.3,1606,89.2z"/>
		<path class="st2" d="M920.1,46c-9.2-1.5-11.7-2.4-13.3-4.5c-1.3-1.9-3.5-2.3-9.7-2.1c-4.4,0.1-8.5,0.8-9.1,1.6
			c-1.1,1.6-16.5,3.6-19.5,2.4c-1.3-0.5-1.6-1.6-0.9-3.6c1.1-2.8,0.8-4.4-2.9-22.4c-0.7-3.1-1.2-5.7-1.6-8H691.6
			c-0.3,0.3-0.4,0.5-0.7,0.8c-2.1,2.7-4.4,5.7-5.3,6.9c-0.8,1.2-2,10-2.4,19.5c-0.4,9.5-1.1,19.7-1.3,22.7
			c-0.3,2.9-0.8,10.7-1.3,17.3c-0.5,6.7-1.1,15.6-1.5,20c-1.3,18.3-2,25.9-2.7,36c-0.4,5.9-1.1,13.6-1.3,17.3s-0.9,12.7-1.3,20
			c-0.4,7.3-1.1,15.7-1.3,18.7s-0.8,11.6-1.3,19.3c-0.5,7.7-1.1,16.1-1.3,18.7c-0.3,2.5-0.8,11.6-1.3,20c-0.5,8.4-1.1,16.3-1.3,17.3
			c-0.7,3.6-2.5,33.9-2.5,42.7l-0.1,8.7l8,0.8c12.8,1.3,25.1,2.7,28.7,3.2c1.9,0.3,6.7,0.8,10.7,1.3c7.7,0.8,12.1,1.3,24,2.8
			c4,0.5,13.1,1.3,20,1.7s18.8,1.1,26.3,1.2l13.5,0.4l0.8-6.4c0.4-3.5,1.1-13.6,1.5-22.4c0.4-8.8,0.9-20.3,1.3-25.3
			c0.3-5.1,0.9-18.4,1.3-29.3c1.5-38.1,1.9-42,5.1-47.3c1.6-2.7,11.1-13.6,21.1-24.1c10-10.5,20.8-22.1,24-25.7
			c3.2-3.6,6.5-7.3,7.2-8.1c12.8-14.4,19.1-21.6,25.9-29.9c4.5-5.5,12.5-14.5,17.6-20.1c5.1-5.6,11.3-12.5,13.7-15.3
			c2.5-2.8,7.6-8.4,11.3-12.5c3.7-4.1,6.8-8,6.8-8.8C933,49.9,926.1,47,920.1,46z"/>
		<path class="st2" d="M324.6,9.5c-11.5,32.8-14,41.9-14,45.7c0,4.1-0.5,7.7-1.3,8.3c-2.9,1.9-1.2,6.7,3.5,9.7
			c2.5,1.7,5.3,4.7,6,6.7c0.8,2,2.8,5.7,4.5,8.3c2,2.9,3.7,8,4.5,13.6c0.8,5.2,2.4,10.7,4,12.8c1.5,2.1,2.8,4.5,2.8,5.3
			s1.7,3.3,3.9,5.7c2.1,2.4,4.3,6.5,4.7,9.2c0.5,2.7,2.7,7.5,4.8,10.7c2.1,3.2,5.1,9.6,6.7,14.3c1.6,4.7,5.6,13.9,8.9,20.7
			c3.3,6.8,7.3,14.5,8.7,17.2c4.1,8.1,4.3,12,1.2,27.6l-2.9,14.8l3.6,8c4.3,9.5-3.5,6.5,67.9,25.5c10.3,2.7,19.1,5.1,19.6,5.1
			c1.2,0.3-0.7,7.9,22-87.2c4.3-18,12.3-51.1,21.1-88c1.7-7.3,6.8-28.7,11.3-47.3c4.1-17.2,7.7-32.5,11.2-46.7H324.6V9.5z"/>
		<path class="st2" d="M368.7,226.5c1.3-6.9,2.3-14.4,2.3-16.7c0-2.4-4-12.3-9.5-23.3c-5.2-10.5-9.9-21.1-10.4-23.2
			c-1.1-4.7-6.7-16.1-8.4-17.2c-0.7-0.4-2-3.6-2.9-7.1c-0.9-3.5-3.1-7.9-4.8-9.7c-1.7-1.9-3.2-4-3.2-4.8c0-0.7-1.7-4-3.7-7.3
			c-2.5-4-4-8.5-4.5-13.6c-0.9-9.3-9.1-24.3-15.2-28.3c-4.9-3.2-6.7-8.9-3.7-13.1c1.2-1.6,2-5.7,2-9.7c0-4.4,2.7-13.9,13.1-43.1H117
			c0.7,1.7,2,3.7,4.1,6.7c4.1,5.9,5.3,8.9,5.3,12.9c0,2.9,0.7,7.2,1.5,9.5c1.3,3.9,1.2,4.4-2.5,7.6c-4,3.3-4,3.7-4.3,15.7
			c-0.3,14.3-0.1,16.7,0.7,20.3c0.3,1.5,0.5,3.3,0.7,4.3c0,0.9,2.9,3.2,6.4,5.3c3.5,2,6.5,4.1,6.8,4.7c0.3,0.5,1.3,1.1,2.5,1.1
			c1.6,0,1.9,1.2,1.2,6.4c-0.8,6.4-0.7,6.5,6.4,13.6c7.9,8,12.3,16.7,13.6,26.7c0.8,6.1,5.5,13.2,8.7,13.2c0.7,0,1.2,1.2,1.2,2.8
			c0,2.5,2.8,5.7,10.5,12.1c1.9,1.6,2.8,3.9,2.8,7.3c0,6.1,0.9,7.5,6,9.3c2.3,0.8,8.5,3.2,14,5.3c32.1,12.5,110,41.7,117.3,44
			c21.3,6.7,48.8,15.2,50,15.6c2.3,0.7,2.4-0.4,0.4-3.6C366.6,244.9,366.3,239.5,368.7,226.5z"/>
	</g>
</g>
<g id="rest-of-world">
</g>
<g id="europe">
</g>
<g id="north-america">
</g>
<g id="south-america">
</g>
</svg>
