<?xml version="1.0" encoding="UTF-8"?>
<svg width="27px" height="33px" viewBox="0 0 27 33" version="1.1" xmlns="http://www.w3.org/2000/svg" xmlns:xlink="http://www.w3.org/1999/xlink">
    <title>Group Copy 22</title>
    <g id="Mockups" stroke="none" stroke-width="1" fill="none" fill-rule="evenodd">
        <g id="EdgeConneX-Page-Builder---Elements-R1" transform="translate(-775.000000, -29726.000000)">
            <g id="Regional-Map" transform="translate(-49.000000, 29051.000000)">
                <g id="Map" transform="translate(139.000000, 324.000000)">
                    <g id="Group-Copy-22" transform="translate(686.765066, 352.866587)">
                        <path d="M13.4453749,29.2474783 C12.6843159,30.010456 11.4158843,30.010456 10.6548254,29.2474783 C7.61058954,25.9412416 0,17.2941611 0,11.9533172 C0,5.34084386 5.32741268,0 11.9232569,0 C18.5191012,0 23.8465139,5.34084386 23.8465139,11.9533172 C24.1002002,17.0398352 16.743297,25.6869157 13.4453749,29.2474783 Z" id="SVGID_00000127731368731109627480000011109315230011330967_" fill="#27588D"></path>
                        <g id="Clipped"></g>
                        <path d="M13.4453749,29.2474783 C12.6843159,30.010456 11.4158843,30.010456 10.6548254,29.2474783 C7.61058954,25.9412416 0,17.2941611 0,11.9533172 C0,5.34084386 5.32741268,0 11.9232569,0 C18.5191012,0 23.8465139,5.34084386 23.8465139,11.9533172 C24.1002002,17.0398352 16.743297,25.6869157 13.4453749,29.2474783 Z" id="SVGID_00000072252963735838864000000006066789383345320120_" stroke="#F4F7F9" stroke-width="2"></path>
                    </g>
                </g>
            </g>
        </g>
    </g>
</svg>