<?xml version="1.0" encoding="UTF-8"?>
<svg width="10px" height="12px" viewBox="0 0 10 12" version="1.1" xmlns="http://www.w3.org/2000/svg" xmlns:xlink="http://www.w3.org/1999/xlink">
    <title>Group</title>
    <defs>
        <path d="M4,5.62899787 C4.85106383,5.62899787 5.61702128,4.9466951 5.61702128,4.00852878 C5.61702128,3.15565032 4.93617021,2.3880597 4,2.3880597 C3.06382979,2.3880597 2.38297872,3.07036247 2.38297872,4.00852878 C2.46808511,4.86140725 3.14893617,5.62899787 4,5.62899787 Z M4.5106383,9.80810235 C4.25531915,10.0639659 3.82978723,10.0639659 3.57446809,9.80810235 C2.55319149,8.69936034 0,5.79957356 0,4.00852878 C0,1.79104478 1.78723404,0 4,0 C6.21276596,0 8,1.79104478 8,4.00852878 C8,5.79957356 5.53191489,8.69936034 4.5106383,9.80810235 Z" id="path-1"></path>
        <rect id="path-3" x="0" y="0" width="575.319149" height="2413.56077"></rect>
    </defs>
    <g id="Mockups" stroke="none" stroke-width="1" fill="none" fill-rule="evenodd">
        <g id="Homepage-R2" transform="translate(-952.000000, -2094.000000)">
            <g id="Map-World" transform="translate(-199.000000, 1643.000000)">
                <g id="Group" transform="translate(1152.000000, 452.000000)">
                    <g id="SVGID_00000013178556428257990640000011619488694264599424_-link" fill="#DE3439">
                        <path d="M4,5.62899787 C4.85106383,5.62899787 5.61702128,4.9466951 5.61702128,4.00852878 C5.61702128,3.15565032 4.93617021,2.3880597 4,2.3880597 C3.06382979,2.3880597 2.38297872,3.07036247 2.38297872,4.00852878 C2.46808511,4.86140725 3.14893617,5.62899787 4,5.62899787 Z M4.5106383,9.80810235 C4.25531915,10.0639659 3.82978723,10.0639659 3.57446809,9.80810235 C2.55319149,8.69936034 0,5.79957356 0,4.00852878 C0,1.79104478 1.78723404,0 4,0 C6.21276596,0 8,1.79104478 8,4.00852878 C8,5.79957356 5.53191489,8.69936034 4.5106383,9.80810235 Z" id="SVGID_00000013178556428257990640000011619488694264599424_"></path>
                    </g>
                    <g id="Clipped">
                        <mask id="mask-2" fill="white">
                            <use xlink:href="#path-1"></use>
                        </mask>
                        <g id="SVGID_00000013178556428257990640000011619488694264599424_"></g>
                        <g id="Group" mask="url(#mask-2)">
                            <g transform="translate(-160.340426, -772.366738)">
                                <g id="SVGID_00000078037695357677548330000004564708629992829362_-link">
                                    <rect id="SVGID_00000078037695357677548330000004564708629992829362_" fill="#DE3439" fill-rule="nonzero" x="0" y="0" width="575.319149" height="2413.56077"></rect>
                                </g>
                                <g id="Clipped">
                                    <mask id="mask-4" fill="white">
                                        <use xlink:href="#path-3"></use>
                                    </mask>
                                    <g id="SVGID_00000078037695357677548330000004564708629992829362_"></g>
                                    <rect id="Rectangle" stroke="#F4F7F9" stroke-width="0.5" fill="#DE3439" fill-rule="nonzero" mask="url(#mask-4)" x="158.808511" y="770.831557" width="11.0638298" height="13.3049041"></rect>
                                </g>
                                <g id="SVGID_00000078037695357677548330000004564708629992829362_-link">
                                    <rect id="SVGID_00000078037695357677548330000004564708629992829362_" stroke="#F4F7F9" stroke-width="0.5" x="0" y="0" width="575.319149" height="2413.56077"></rect>
                                </g>
                            </g>
                        </g>
                    </g>
                    <g id="SVGID_00000013178556428257990640000011619488694264599424_-link" stroke="#F4F7F9" stroke-width="0.5">
                        <path d="M4,5.62899787 C4.85106383,5.62899787 5.61702128,4.9466951 5.61702128,4.00852878 C5.61702128,3.15565032 4.93617021,2.3880597 4,2.3880597 C3.06382979,2.3880597 2.38297872,3.07036247 2.38297872,4.00852878 C2.46808511,4.86140725 3.14893617,5.62899787 4,5.62899787 Z M4.5106383,9.80810235 C4.25531915,10.0639659 3.82978723,10.0639659 3.57446809,9.80810235 C2.55319149,8.69936034 0,5.79957356 0,4.00852878 C0,1.79104478 1.78723404,0 4,0 C6.21276596,0 8,1.79104478 8,4.00852878 C8,5.79957356 5.53191489,8.69936034 4.5106383,9.80810235 Z" id="SVGID_00000013178556428257990640000011619488694264599424_"></path>
                    </g>
                </g>
            </g>
        </g>
    </g>
</svg>