<?xml version="1.0" encoding="utf-8"?>
<!-- Generator: Adobe Illustrator 24.2.1, SVG Export Plug-In . SVG Version: 6.00 Build 0)  -->
<svg version="1.1" id="Layer_1" xmlns="http://www.w3.org/2000/svg" xmlns:xlink="http://www.w3.org/1999/xlink" x="0px" y="0px"
	 viewBox="0 0 2660 1909" style="enable-background:new 0 0 2660 1909;" xml:space="preserve">
<style type="text/css">
	.st0{fill:#FFFFFF;}
</style>
<g>
	<path class="st0" d="M0,0v1909h2660V0H0z M320,909.2c0-16.1,12.9-29.2,28.9-29.2H520v10.8c0,16.1-12.9,29.2-28.9,29.2H320V909.2z
		 M80,909.2c0-16.1,13-29.2,29.1-29.2H310v10.8c0,16.1-13,29.2-29.1,29.2H80V909.2z M20,964.2c0-16.1,13-29.2,29.1-29.2H350v10.8
		c0,16.1-13,29.2-29.1,29.2H20V964.2z M210,1000.8c0,16.1-13.1,29.2-29.3,29.2H100v-10.8c0-16.1,13.1-29.2,29.3-29.2H210V1000.8z
		 M420,1000.8c0,16.1-14.1,29.2-31.6,29.2H220v-10.8c0-16.1,14.1-29.2,31.6-29.2H420V1000.8z M655,1000.8
		c0,16.1-13.1,29.2-29.2,29.2H430v-10.8c0-16.1,13.1-29.2,29.2-29.2H655V1000.8z M655,945.8c0,16.1-13.1,29.2-29.2,29.2H360v-10.8
		c0-16.1,13.1-29.2,29.2-29.2H655V945.8z M655,890.8c0,16.1-12.9,29.2-28.9,29.2H530v-10.8c0-16.1,12.9-29.2,28.9-29.2H655V890.8z"
		/>
</g>
</svg>
