<?xml version="1.0" encoding="UTF-8"?>
<svg width="667px" height="312px" viewBox="0 0 667 312" version="1.1" xmlns="http://www.w3.org/2000/svg" xmlns:xlink="http://www.w3.org/1999/xlink">
    <!-- Generator: Sketch 58 (84663) - https://sketch.com -->
    <title>motion-grid-hero</title>
    <desc>Created with Sketch.</desc>
    <defs>
        <rect id="path-1" x="0" y="0.338301043" width="755" height="312"></rect>
    </defs>
    <g id="Mockups" stroke="none" stroke-width="1" fill="none" fill-rule="evenodd">
        <g id="Homepage-V3.2" transform="translate(-767.000000, -226.000000)">
            <g id="motion-grid-hero" transform="translate(767.000000, 226.000000)">
                <mask id="mask-2" fill="white">
                    <use xlink:href="#path-1"></use>
                </mask>
                <g id="path-1"></g>
                <g id="Group" mask="url(#mask-2)" fill-rule="nonzero">
                    <g transform="translate(0.000000, 0.338301)">
                        <path d="M746.981441,63.001598 L472.266214,63.001598 L472.266214,45.9463229 C472.266214,20.5686372 493.014828,1.42108547e-14 518.607668,1.42108547e-14 L793.322895,1.42108547e-14 L793.322895,17.0552751 C793.322895,42.4298977 772.57428,63.001598 746.981441,63.001598" id="Fill-1" fill="#27588D"></path>
                        <path d="M404.747161,63.001598 L83.7104072,63.001598 L83.7104072,45.9463229 C83.7104072,20.5686372 104.492129,1.42108547e-14 130.125807,1.42108547e-14 L451.162561,1.42108547e-14 L451.162561,17.0552751 C451.162561,42.4298977 430.380839,63.001598 404.747161,63.001598" id="Fill-5" fill="#DE3439"></path>
                        <path d="M480.909074,145.829338 L2.09276018,145.829338 L2.09276018,128.774063 C2.09276018,103.396378 22.858834,82.8277407 48.4732111,82.8277407 L527.289525,82.8277407 L527.289525,99.8830155 C527.289525,125.257638 506.523452,145.829338 480.909074,145.829338" id="Fill-7" fill="#D7DFE3"></path>
                        <path d="M813.710118,145.829338 L548.303167,145.829338 L548.303167,128.774063 C548.303167,103.396378 569.061754,82.8277407 594.6738,82.8277407 L860.080752,82.8277407 L860.080752,99.8830155 C860.080752,125.257638 839.319078,145.829338 813.710118,145.829338" id="Fill-9" fill="#F4F7F9"></path>
                        <path d="M519.018888,228.657079 L272.058824,228.657079 L272.058824,211.601804 C272.058824,186.224118 292.767584,165.655481 318.318154,165.655481 L565.278219,165.655481 L565.278219,182.710756 C565.278219,208.085378 544.566375,228.657079 519.018888,228.657079" id="Fill-11" fill="#BAC3C9"></path>
                        <path d="M878.027642,228.657079 L586.670437,228.657079 L586.670437,211.601804 C586.670437,186.224118 607.446092,165.655481 633.072285,165.655481 L924.429486,165.655481 L924.429486,182.710756 C924.429486,208.085378 903.656929,228.657079 878.027642,228.657079" id="Fill-13" fill="#DE3439"></path>
                        <path d="M62.0852187,228.657079 L62.0852187,211.601804 C62.0852187,186.224118 82.877414,165.655481 108.530927,165.655481 L250.777046,165.655481 L250.777046,182.710756 C250.777046,208.085378 229.984851,228.657079 204.331339,228.657079 L62.0852187,228.657079 Z" id="Fill-15" fill="#F4F7F9"></path>
                        <path d="M287.651938,311.48482 L0,311.48482 L0,294.429544 C0,269.051858 20.7728002,248.483221 46.395474,248.483221 L334.047413,248.483221 L334.047413,265.538496 C334.047413,290.913119 313.274612,311.48482 287.651938,311.48482" id="Fill-17" fill="#FFCF3D"></path>
                        <path d="M540.65354,311.48482 L355.071644,311.48482 L355.071644,294.429544 C355.071644,269.051858 375.844444,248.483221 401.467118,248.483221 L587.049014,248.483221 L587.049014,265.538496 C587.049014,290.913119 566.276214,311.48482 540.65354,311.48482" id="Fill-19" fill="#F4F7F9"></path>
                        <path d="M793.877525,311.48482 L608.295626,311.48482 L608.295626,294.429544 C608.295626,269.051858 629.068426,248.483221 654.6911,248.483221 L840.272993,248.483221 L840.272993,265.538496 C840.272993,290.913119 819.500192,311.48482 793.877525,311.48482" id="Fill-19-Copy" fill="#019CDB"></path>
                    </g>
                </g>
            </g>
        </g>
    </g>
</svg>