<?xml version="1.0" encoding="UTF-8"?>
<svg width="433px" height="83px" viewBox="0 0 433 83" version="1.1" xmlns="http://www.w3.org/2000/svg" xmlns:xlink="http://www.w3.org/1999/xlink">
    <!-- Generator: Sketch 63.1 (92452) - https://sketch.com -->
    <title>motiongrid-divider-right</title>
    <desc>Created with Sketch.</desc>
    <g id="Page-1" stroke="none" stroke-width="1" fill="none" fill-rule="evenodd">
        <g id="motiongrid-divider-right">
            <path d="M128.13,47 L283.000069,47 L283.000069,56.75 C283.015931,63.6960254 280.271903,70.3638864 275.371573,75.2867203 C270.471244,80.2095542 263.816025,82.9841052 256.87,83 L101.999931,83 L101.999931,73.25 C101.984069,66.3039746 104.728097,59.6361136 109.628427,54.7132797 C114.528756,49.7904458 121.183975,47.0158948 128.13,47" id="Path" fill="#F4F7F9"></path>
            <path d="M26.29,46.9999924 L91,46.9999924 L91,56.75 C90.9946977,63.7172378 88.2218871,70.3970091 83.2915552,75.3198395 C78.3612234,80.2426699 71.6772378,83.0053063 64.71,83.0000076 L0,83.0000076 L0,73.25 C0.00530231111,66.2827622 2.77811294,59.6029909 7.70844477,54.6801605 C12.6387766,49.7573301 19.3227622,46.9946937 26.29,46.9999924" id="Path" fill="#FFCF3D"></path>
            <path d="M95.18,0 L245.000031,0 L245.000031,9.75 C245.010616,16.703057 242.258018,23.3754061 237.348027,28.2985254 C232.438036,33.2216446 225.773061,35.9920496 218.82,36 L68.9999694,36 L68.9999694,26.25 C68.9893841,19.296943 71.7419823,12.6245939 76.6519732,7.70147464 C81.5619642,2.77835539 88.2269395,0.00795038323 95.18,0" id="Path" fill="#019CDB"></path>
            <path d="M406.823482,36 L257,36 L257,26.2540095 C257,11.7546597 268.7191,0 283.176518,0 L433,0 L433,9.7459905 C433,24.2453403 421.280036,36 406.823482,36" id="Fill-13" fill="#27588D" fill-rule="nonzero"></path>
            <path d="M357.71,83.0000153 L293,83.0000153 L293,73.2500076 C293.005302,66.2827698 295.778113,59.6029985 300.708445,54.6801681 C305.638777,49.7573377 312.322762,46.9947013 319.29,47 L384,47 L384,56.7500076 C383.994698,63.7172454 381.221887,70.3970168 376.291555,75.3198471 C371.361223,80.2426775 364.677238,83.005314 357.71,83.0000153" id="Path" fill="#DE3439"></path>
        </g>
    </g>
</svg>