<svg id="Layer_1" data-name="Layer 1" xmlns="http://www.w3.org/2000/svg" viewBox="0 0 552 83"><defs><style>.cls-1{fill:#f4f7f9;}.cls-1,.cls-2,.cls-3,.cls-4,.cls-5{fill-rule:evenodd;}.cls-2{fill:#ffcf3d;}.cls-3{fill:#de3439;}.cls-4{fill:#27588d;}.cls-5{fill:#019cdb;}</style></defs><path class="cls-1" d="M128.13,47H283v9.75A26.19,26.19,0,0,1,256.87,83H102V73.25A26.19,26.19,0,0,1,128.13,47"/><path class="cls-2" d="M26.29,47H91v9.75A26.27,26.27,0,0,1,64.71,83H0V73.25A26.27,26.27,0,0,1,26.29,47"/><path class="cls-3" d="M320.15,47H501v9.75A26.2,26.2,0,0,1,474.85,83H294V73.25A26.2,26.2,0,0,1,320.15,47"/><path class="cls-4" d="M282.14,0H552V9.75A26.19,26.19,0,0,1,525.86,36H256V26.25A26.19,26.19,0,0,1,282.14,0"/><path class="cls-5" d="M95.18,0H245V9.75A26.21,26.21,0,0,1,218.82,36H69V26.25A26.21,26.21,0,0,1,95.18,0"/></svg>