<?xml version="1.0" encoding="UTF-8"?>
<svg width="1344px" height="309px" viewBox="0 0 1344 309" version="1.1" xmlns="http://www.w3.org/2000/svg" xmlns:xlink="http://www.w3.org/1999/xlink">
    <title>Motion Grid</title>
    <g id="Mockups" stroke="none" stroke-width="1" fill="none" fill-rule="evenodd" opacity="0.05">
        <g id="EdgeConneX-Page-Builder---Data-Center-Page-R1" transform="translate(-88.000000, -4204.000000)" fill="#FFFFFF">
            <g id="Data-Center-Page" transform="translate(-95.000000, -0.000000)">
                <g id="Map" transform="translate(95.000000, 3688.000000)">
                    <path d="M829.140777,738 L829.140777,761.298975 C829.140777,795.964518 801.040148,824.067961 766.378076,824.067961 L431.315534,824.067961 L431.315534,800.768986 C431.315534,766.099298 459.416163,738 494.076162,738 L829.140777,738 Z M1310.16505,738 L1310.16505,761.298975 C1310.16505,795.964518 1282.16537,824.067961 1247.62782,824.067961 L854.961165,824.067961 L854.961165,800.768986 C854.961165,766.099298 882.956715,738 917.498396,738 L1310.16505,738 Z M539.378641,626.932039 L539.378641,650.231014 C539.378641,684.896557 511.309797,713 476.686933,713 L88,713 L88,689.701025 C88,655.031337 116.068844,626.932039 150.691708,626.932039 L539.378641,626.932039 Z M757.417476,626.932039 L757.417476,650.231014 C757.417476,684.896557 729.411839,713 694.86694,713 L565.199029,713 L565.199029,689.701025 C565.199029,655.031337 593.19847,626.932039 627.747499,626.932039 L757.417476,626.932039 Z M1090.21359,626.932039 L1090.21359,650.231014 C1090.21359,684.896557 1062.29672,713 1027.86131,713 L778.456311,713 L778.456311,689.701025 C778.456311,655.031337 806.367006,626.932039 840.806532,626.932039 L1090.21359,626.932039 Z M1431.6165,626.932039 L1431.6165,650.231014 C1431.6165,684.896557 1403.69963,713 1369.26422,713 L1119.85922,713 L1119.85922,689.701025 C1119.85922,655.031337 1147.76992,626.932039 1182.20944,626.932039 L1431.6165,626.932039 Z M829.140777,516 L829.140777,539.298975 C829.140777,573.964518 801.040148,602.067961 766.378076,602.067961 L431.315534,602.067961 L431.315534,578.768986 C431.315534,544.099298 459.416163,516 494.076162,516 L829.140777,516 Z M1310.16505,516 L1310.16505,539.298975 C1310.16505,573.964518 1282.16537,602.067961 1247.62782,602.067961 L854.961165,602.067961 L854.961165,578.768986 C854.961165,544.099298 882.956715,516 917.498396,516 L1310.16505,516 Z M405.495146,516 L405.495146,539.298975 C405.495146,573.964518 377.337826,602.067961 342.605828,602.067961 L169.286408,602.067961 L169.286408,578.768986 C169.286408,544.099298 197.443727,516 232.175725,516 L405.495146,516 Z" id="Motion-Grid"></path>
                </g>
            </g>
        </g>
    </g>
</svg>