<?xml version="1.0" encoding="UTF-8"?>
<svg width="27px" height="35px" viewBox="0 0 27 35" version="1.1" xmlns="http://www.w3.org/2000/svg" xmlns:xlink="http://www.w3.org/1999/xlink">
    <!-- Generator: Sketch 51.3 (57544) - http://www.bohemiancoding.com/sketch -->
    <title>Combined Shape Copy 5</title>
    <desc>Created with Sketch.</desc>
    <defs></defs>
    <g id="Mockups" stroke="none" stroke-width="1" fill="none" fill-rule="evenodd">
        <g id="Homepage" transform="translate(-1402.000000, -2776.000000)" fill="#DE3439">
            <g id="Hover---Global-Map" transform="translate(0.000000, 1739.000000)">
                <g id="Map" transform="translate(1127.000000, 1037.000000)">
                    <g id="Map-Key">
                        <g id="Group-4-Copy" transform="translate(275.000000, 0.000000)">
                            <path d="M13.450921,34.3485342 C13.450921,34.3485342 0,20.8612474 0,13.4390597 C0,6.01687197 6.02218245,0 13.450921,0 C20.8796595,0 26.9018419,6.01687197 26.9018419,13.4390597 C26.9018419,20.8612474 13.450921,34.3485342 13.450921,34.3485342 Z M13.450921,18.7186903 C16.369354,18.7186903 18.7352113,16.3549192 18.7352113,13.4390597 C18.7352113,10.5232002 16.369354,8.1594291 13.450921,8.1594291 C10.532488,8.1594291 8.16663059,10.5232002 8.16663059,13.4390597 C8.16663059,16.3549192 10.532488,18.7186903 13.450921,18.7186903 Z" id="Combined-Shape-Copy-5"></path>
                        </g>
                    </g>
                </g>
            </g>
        </g>
    </g>
</svg>