<?xml version="1.0" encoding="UTF-8"?>
<svg width="168px" height="168px" viewBox="0 0 168 168" version="1.1" xmlns="http://www.w3.org/2000/svg" xmlns:xlink="http://www.w3.org/1999/xlink">
    <title>Fill 1</title>
    <g id="Mockups" stroke="none" stroke-width="1" fill="none" fill-rule="evenodd">
        <g id="EdgeConneX-Page-Builder---Elements-R1" transform="translate(-1312.000000, -14040.000000)" fill="#FFFFFF">
            <g id="Split-Section-Image-Right" transform="translate(0.000000, 13491.000000)">
                <path d="M1396,717 C1384.5214,717 1373.6686,714.795 1363.45,710.385 C1353.2314,705.975 1344.3064,699.9564 1336.675,692.325 C1329.0436,684.6936 1323.025,675.7686 1318.615,665.55 C1314.205,655.3314 1312,644.4786 1312,633 C1312,621.3786 1314.205,610.4586 1318.615,600.24 C1323.025,590.0214 1329.0436,581.13 1336.675,573.57 C1344.3064,566.01 1353.2314,560.025 1363.45,555.615 C1373.6686,551.205 1384.5214,549 1396,549 C1407.6214,549 1418.5414,551.205 1428.76,555.615 C1438.9786,560.025 1447.87,566.01 1455.43,573.57 C1462.99,581.13 1468.975,590.0214 1473.385,600.24 C1477.795,610.4586 1480,621.3786 1480,633 C1480,644.4786 1477.795,655.3314 1473.385,665.55 C1468.975,675.7686 1462.99,684.6936 1455.43,692.325 C1447.87,699.9564 1438.9786,705.975 1428.76,710.385 C1418.5414,714.795 1407.6214,717 1396,717 L1396,717 Z M1376,669 L1432,633 L1376,597 L1376,669 Z" id="Fill-1"></path>
            </g>
        </g>
    </g>
</svg>