<?xml version="1.0" encoding="UTF-8"?>
<svg width="1471px" height="233px" viewBox="0 0 1471 233" version="1.1" xmlns="http://www.w3.org/2000/svg" xmlns:xlink="http://www.w3.org/1999/xlink">
    <!-- Generator: Sketch 51.3 (57544) - http://www.bohemiancoding.com/sketch -->
    <title>Group</title>
    <desc>Created with Sketch.</desc>
    <defs></defs>
    <g id="Page-1" stroke="none" stroke-width="1" fill="none" fill-rule="evenodd">
        <g id="Group">
            <path d="M679.978037,45.2678571 L502.967742,45.2678571 L502.967742,33.0503765 C502.967742,14.8711689 517.810886,0.136904762 536.12443,0.136904762 L713.134725,0.136904762 L713.134725,12.3543855 C713.134725,30.5313988 698.28937,45.2678571 679.978037,45.2678571" id="Fill-11" fill="#FFCF3D" transform="translate(608.051233, 22.702381) scale(-1, 1) translate(-608.051233, -22.702381) "></path>
            <path d="M451.086513,45.2678571 L242.254269,45.2678571 L242.254269,33.0503765 C242.254269,14.8711689 257.14536,0.136904762 275.513107,0.136904762 L484.345351,0.136904762 L484.345351,12.3543855 C484.345351,30.5313988 469.456478,45.2678571 451.086513,45.2678571" id="Fill-13" fill="#D7DFE3" transform="translate(363.299810, 22.702381) scale(-1, 1) translate(-363.299810, -22.702381) "></path>
            <path d="M823.191699,45.1309524 L731.44592,45.1309524 L731.44592,32.9134717 C731.44592,14.7342642 746.348867,0 764.736195,0 L856.481973,0 L856.481973,12.2174807 C856.481973,30.394494 841.579027,45.1309524 823.191699,45.1309524" id="Fill-15" fill="#F4F7F9" transform="translate(793.963947, 22.565476) scale(-1, 1) translate(-793.963947, -22.565476) "></path>
            <path d="M876.745731,105 L670.56926,105 L670.56926,92.7825193 C670.56926,74.6033118 685.458305,59.8690476 703.823529,59.8690476 L910,59.8690476 L910,72.0865283 C910,90.2635416 895.110955,105 876.745731,105" id="Fill-17" fill="#F4F7F9" transform="translate(790.284630, 82.434524) scale(-1, 1) translate(-790.284630, -82.434524) "></path>
            <path d="M152.042606,105 L152.042606,92.7825193 C152.042606,74.6033118 166.93165,59.8690476 185.296875,59.8690476 L650.616698,59.8690476 L650.616698,72.0865283 C650.616698,90.2635416 635.727653,105 617.362429,105 L152.042606,105 Z" id="Fill-19" fill="#BAC3C9" transform="translate(401.329652, 82.434524) scale(-1, 1) translate(-401.329652, -82.434524) "></path>
            <path d="M450.911585,171.130952 L254.00759,171.130952 L254.00759,158.913472 C254.00759,140.734264 268.879299,126 287.22314,126 L484.127135,126 L484.127135,138.217481 C484.127135,156.394494 469.255426,171.130952 450.911585,171.130952" id="Fill-1" fill="#F4F7F9" transform="translate(369.067362, 148.565476) scale(-1, 1) translate(-369.067362, -148.565476) "></path>
            <path d="M0.920074058,171.130952 L0.920074058,158.913472 C0.920074058,140.734264 15.7170679,126 33.96875,126 L231.394687,126 L231.394687,138.217481 C231.394687,156.394494 216.597693,171.130952 198.346011,171.130952 L0.920074058,171.130952 Z" id="Fill-3" fill="#DEE4E8" transform="translate(116.157380, 148.565476) scale(-1, 1) translate(-116.157380, -148.565476) "></path>
            <path d="M735.51513,171.130952 L505.409867,171.130952 L505.409867,158.913472 C505.409867,140.734264 520.305307,126 538.678419,126 L768.783681,126 L768.783681,138.217481 C768.783681,156.394494 753.888242,171.130952 735.51513,171.130952" id="Fill-5" fill="#BAC3C9" transform="translate(637.096774, 148.565476) scale(-1, 1) translate(-637.096774, -148.565476) "></path>
            <path d="M783.426328,230.863095 L440.231499,230.863095 L440.231499,218.645615 C440.231499,200.466407 455.115723,185.732143 473.475001,185.732143 L816.669829,185.732143 L816.669829,197.949624 C816.669829,216.126637 801.785605,230.863095 783.426328,230.863095" id="Fill-7" fill="#D7DFE3" transform="translate(628.450664, 208.297619) scale(-1, 1) translate(-628.450664, -208.297619) "></path>
            <path d="M388.372644,230.863095 L198.140417,230.863095 L198.140417,218.645615 C198.140417,200.466407 213.019275,185.732143 231.376882,185.732143 L421.609108,185.732143 L421.609108,197.949624 C421.609108,216.126637 406.728035,230.863095 388.372644,230.863095" id="Fill-9" fill="#DE3439" transform="translate(309.874763, 208.297619) scale(-1, 1) translate(-309.874763, -208.297619) "></path>
            <path d="M793.963947,171.130952 L793.963947,158.913472 C793.963947,140.734264 808.866893,126 827.254222,126 L1182.83203,126 L1182.83203,138.217481 C1182.83203,156.394494 1167.92908,171.130952 1149.54176,171.130952 L793.963947,171.130952 Z" id="Fill-15" fill="#F4F7F9" transform="translate(988.397989, 148.565476) scale(-1, 1) translate(-988.397989, -148.565476) "></path>
            <path d="M1437.73145,173.130952 L1207.62619,173.130952 L1207.62619,160.913472 C1207.62619,142.734264 1222.52163,128 1240.89474,128 L1471,128 L1471,140.217481 C1471,158.394494 1456.10456,173.130952 1437.73145,173.130952" id="Fill-5" fill="#DE3439" transform="translate(1339.313093, 150.565476) scale(-1, 1) translate(-1339.313093, -150.565476) "></path>
            <path d="M1423.48705,232.130952 L1080.29222,232.130952 L1080.29222,219.913472 C1080.29222,201.734264 1095.17644,187 1113.53572,187 L1456.73055,187 L1456.73055,199.217481 C1456.73055,217.394494 1441.84633,232.130952 1423.48705,232.130952" id="Fill-7" fill="#DEE4E8" transform="translate(1268.511385, 209.565476) scale(-1, 1) translate(-1268.511385, -209.565476) "></path>
            <path d="M1025.52445,232.130952 L835.29222,232.130952 L835.29222,219.913472 C835.29222,201.734264 850.171077,187 868.528684,187 L1058.76091,187 L1058.76091,199.217481 C1058.76091,217.394494 1043.87984,232.130952 1025.52445,232.130952" id="Fill-9" fill="#F4F7F9" transform="translate(947.026565, 209.565476) scale(-1, 1) translate(-947.026565, -209.565476) "></path>
            <path d="M875.694682,45.2678571 L875.694682,33.0503765 C875.694682,14.8711689 890.585773,0.136904762 908.95352,0.136904762 L1134.34535,0.136904762 L1134.34535,12.3543855 C1134.34535,30.5313988 1119.45648,45.2678571 1101.08651,45.2678571 L875.694682,45.2678571 Z" id="Fill-13" fill="#D7DFE3" transform="translate(1005.020017, 22.702381) scale(-1, 1) translate(-1005.020017, -22.702381) "></path>
            <path d="M929.952562,105.130952 L929.952562,92.9134717 C929.952562,74.7342642 944.841607,60 963.206831,60 L1300.0466,60 L1300.0466,72.2174807 C1300.0466,90.394494 1285.15756,105.130952 1266.79233,105.130952 L929.952562,105.130952 Z" id="Fill-19" fill="#D7DFE3" transform="translate(1114.999581, 82.565476) scale(-1, 1) translate(-1114.999581, -82.565476) "></path>
        </g>
    </g>
</svg>