<?xml version="1.0" encoding="UTF-8"?>
<svg width="1337px" height="164px" viewBox="0 0 1337 164" version="1.1" xmlns="http://www.w3.org/2000/svg" xmlns:xlink="http://www.w3.org/1999/xlink">
    <!-- Generator: Sketch 51.3 (57544) - http://www.bohemiancoding.com/sketch -->
    <title>Group 6</title>
    <desc>Created with Sketch.</desc>
    <defs></defs>
    <g id="Page-1" stroke="none" stroke-width="1" fill="none" fill-rule="evenodd">
        <g id="Group-6">
            <path d="M333.911585,164 L137.00759,164 L137.00759,151.782519 C137.00759,133.603312 151.879299,118.869048 170.22314,118.869048 L367.127135,118.869048 L367.127135,131.086528 C367.127135,149.263542 352.255426,164 333.911585,164" id="Fill-1" fill="#F4F7F9" transform="translate(252.067362, 141.434524) rotate(-180.000000) translate(-252.067362, -141.434524) "></path>
            <path d="M81.346011,164 L-4.54747351e-13,164 L-4.54747351e-13,151.782519 C-4.54747351e-13,133.603312 14.7969938,118.869048 33.0486759,118.869048 L114.394687,118.869048 L114.394687,131.086528 C114.394687,149.263542 99.5976931,164 81.346011,164" id="Fill-3" fill="#F4F7F9" transform="translate(57.197343, 141.434524) rotate(-180.000000) translate(-57.197343, -141.434524) "></path>
            <path d="M618.51513,164 L388.409867,164 L388.409867,151.782519 C388.409867,133.603312 403.305307,118.869048 421.678419,118.869048 L651.783681,118.869048 L651.783681,131.086528 C651.783681,149.263542 636.888242,164 618.51513,164" id="Fill-5" fill="#BAC3C9" transform="translate(520.096774, 141.434524) rotate(-180.000000) translate(-520.096774, -141.434524) "></path>
            <path d="M666.426328,104.267857 L323.231499,104.267857 L323.231499,92.0503765 C323.231499,73.8711689 338.115723,59.1369048 356.475001,59.1369048 L699.669829,59.1369048 L699.669829,71.3543855 C699.669829,89.5313988 684.785605,104.267857 666.426328,104.267857" id="Fill-7" fill="#DEE4E8" transform="translate(511.450664, 81.702381) rotate(-180.000000) translate(-511.450664, -81.702381) "></path>
            <path d="M271.372644,104.267857 L81.1404175,104.267857 L81.1404175,92.0503765 C81.1404175,73.8711689 96.0192746,59.1369048 114.376882,59.1369048 L304.609108,59.1369048 L304.609108,71.3543855 C304.609108,89.5313988 289.728035,104.267857 271.372644,104.267857" id="Fill-9" fill="#BAC3C9" transform="translate(192.874763, 81.702381) rotate(-180.000000) translate(-192.874763, -81.702381) "></path>
            <path d="M470.978037,45.8630952 L293.967742,45.8630952 L293.967742,33.6456145 C293.967742,15.466407 308.810886,0.732142857 327.12443,0.732142857 L504.134725,0.732142857 L504.134725,12.9496235 C504.134725,31.1266368 489.28937,45.8630952 470.978037,45.8630952" id="Fill-11" fill="#F4F7F9" transform="translate(399.051233, 23.297619) rotate(-180.000000) translate(-399.051233, -23.297619) "></path>
            <path d="M242.086513,45.8630952 L33.2542694,45.8630952 L33.2542694,33.6456145 C33.2542694,15.466407 48.1453598,0.732142857 66.5131074,0.732142857 L275.345351,0.732142857 L275.345351,12.9496235 C275.345351,31.1266368 260.456478,45.8630952 242.086513,45.8630952" id="Fill-13" fill="#F4F7F9" transform="translate(154.299810, 23.297619) rotate(-180.000000) translate(-154.299810, -23.297619) "></path>
            <path d="M614.172723,45.8630952 L522.426945,45.8630952 L522.426945,33.6456145 C522.426945,15.466407 537.329891,0.732142857 555.71722,0.732142857 L647.462998,0.732142857 L647.462998,12.9496235 C647.462998,31.1266368 632.560052,45.8630952 614.172723,45.8630952" id="Fill-15" fill="#D7DFE3" transform="translate(584.944972, 23.297619) rotate(-180.000000) translate(-584.944972, -23.297619) "></path>
            <path d="M999.911585,164 L803.00759,164 L803.00759,151.782519 C803.00759,133.603312 817.879299,118.869048 836.22314,118.869048 L1033.12713,118.869048 L1033.12713,131.086528 C1033.12713,149.263542 1018.25543,164 999.911585,164" id="Fill-1" fill="#DEE4E8" transform="translate(918.067362, 141.434524) rotate(-180.000000) translate(-918.067362, -141.434524) "></path>
            <path d="M751.346011,164 L670,164 L670,151.782519 C670,133.603312 684.796994,118.869048 703.048676,118.869048 L784.394687,118.869048 L784.394687,131.086528 C784.394687,149.263542 769.597693,164 751.346011,164" id="Fill-3" fill="#F4F7F9" transform="translate(727.197343, 141.434524) rotate(-180.000000) translate(-727.197343, -141.434524) "></path>
            <path d="M1281.51513,164 L1051.40987,164 L1051.40987,151.782519 C1051.40987,133.603312 1066.30531,118.869048 1084.67842,118.869048 L1314.78368,118.869048 L1314.78368,131.086528 C1314.78368,149.263542 1299.88824,164 1281.51513,164" id="Fill-5" fill="#FFCF3D" transform="translate(1183.096774, 141.434524) rotate(-180.000000) translate(-1183.096774, -141.434524) "></path>
            <path d="M1303.7565,104 L960.56167,104 L960.56167,91.7825193 C960.56167,73.6033118 975.445894,58.8690476 993.805171,58.8690476 L1337,58.8690476 L1337,71.0865283 C1337,89.2635416 1322.11578,104 1303.7565,104" id="Fill-7" fill="#F4F7F9" transform="translate(1148.780835, 81.434524) rotate(-180.000000) translate(-1148.780835, -81.434524) "></path>
            <path d="M908.763536,104 L718.531309,104 L718.531309,91.7825193 C718.531309,73.6033118 733.410166,58.8690476 751.767773,58.8690476 L942,58.8690476 L942,71.0865283 C942,89.2635416 927.118927,104 908.763536,104" id="Fill-9" fill="#BAC3C9" transform="translate(830.265655, 81.434524) rotate(-180.000000) translate(-830.265655, -81.434524) "></path>
            <path d="M1119.97804,45.8630952 L942.967742,45.8630952 L942.967742,33.6456145 C942.967742,15.466407 957.810886,0.732142857 976.12443,0.732142857 L1153.13472,0.732142857 L1153.13472,12.9496235 C1153.13472,31.1266368 1138.28937,45.8630952 1119.97804,45.8630952" id="Fill-11" fill="#F4F7F9" transform="translate(1048.051233, 23.297619) rotate(-180.000000) translate(-1048.051233, -23.297619) "></path>
            <path d="M665.694682,45.8630952 L665.694682,33.6456145 C665.694682,15.466407 680.585773,0.732142857 698.95352,0.732142857 L924.345351,0.732142857 L924.345351,12.9496235 C924.345351,31.1266368 909.456478,45.8630952 891.086513,45.8630952 L665.694682,45.8630952 Z" id="Fill-13" fill="#DE3439" transform="translate(795.020017, 23.297619) rotate(-180.000000) translate(-795.020017, -23.297619) "></path>
            <path d="M1262.17272,45.8630952 L1170.42694,45.8630952 L1170.42694,33.6456145 C1170.42694,15.466407 1185.32989,0.732142857 1203.71722,0.732142857 L1295.463,0.732142857 L1295.463,12.9496235 C1295.463,31.1266368 1280.56005,45.8630952 1262.17272,45.8630952" id="Fill-15" fill="#D7DFE3" transform="translate(1232.944972, 23.297619) rotate(-180.000000) translate(-1232.944972, -23.297619) "></path>
        </g>
    </g>
</svg>