<?xml version="1.0" encoding="UTF-8"?>
<svg width="1273px" height="164px" viewBox="0 0 1273 164" version="1.1" xmlns="http://www.w3.org/2000/svg" xmlns:xlink="http://www.w3.org/1999/xlink">
    <!-- Generator: Sketch 51.3 (57544) - http://www.bohemiancoding.com/sketch -->
    <title>Group 3</title>
    <desc>Created with Sketch.</desc>
    <defs></defs>
    <g id="Page-1" stroke="none" stroke-width="1" fill="none" fill-rule="evenodd">
        <g id="Group-3">
            <path d="M633.426328,45.8630952 L290.231499,45.8630952 L290.231499,33.6456145 C290.231499,15.466407 305.115723,0.732142857 323.475001,0.732142857 L666.669829,0.732142857 L666.669829,12.9496235 C666.669829,31.1266368 651.785605,45.8630952 633.426328,45.8630952" id="Fill-7" fill="#FFCF3D" transform="translate(478.450664, 23.297619) scale(-1, 1) translate(-478.450664, -23.297619) "></path>
            <path d="M238.372644,45.8630952 L48.1404175,45.8630952 L48.1404175,33.6456145 C48.1404175,15.466407 63.0192746,0.732142857 81.3768817,0.732142857 L271.609108,0.732142857 L271.609108,12.9496235 C271.609108,31.1266368 256.728035,45.8630952 238.372644,45.8630952" id="Fill-9" fill="#F4F7F9" transform="translate(159.874763, 23.297619) scale(-1, 1) translate(-159.874763, -23.297619) "></path>
            <path d="M437.978037,104.267857 L260.967742,104.267857 L260.967742,92.0503765 C260.967742,73.8711689 275.810886,59.1369048 294.12443,59.1369048 L471.134725,59.1369048 L471.134725,71.3543855 C471.134725,89.5313988 456.28937,104.267857 437.978037,104.267857" id="Fill-11" fill="#BAC3C9" transform="translate(366.051233, 81.702381) scale(-1, 1) translate(-366.051233, -81.702381) "></path>
            <path d="M209.086513,104.267857 L0.25426945,104.267857 L0.25426945,92.0503765 C0.25426945,73.8711689 15.1453598,59.1369048 33.5131074,59.1369048 L242.345351,59.1369048 L242.345351,71.3543855 C242.345351,89.5313988 227.456478,104.267857 209.086513,104.267857" id="Fill-13" fill="#F4F7F9" transform="translate(121.299810, 81.702381) scale(-1, 1) translate(-121.299810, -81.702381) "></path>
            <path d="M580.172723,104.267857 L488.426945,104.267857 L488.426945,92.0503765 C488.426945,73.8711689 503.329891,59.1369048 521.71722,59.1369048 L613.462998,59.1369048 L613.462998,71.3543855 C613.462998,89.5313988 598.560052,104.267857 580.172723,104.267857" id="Fill-15" fill="#F4F7F9" transform="translate(550.944972, 81.702381) scale(-1, 1) translate(-550.944972, -81.702381) "></path>
            <path d="M634.745731,164 L428.56926,164 L428.56926,151.782519 C428.56926,133.603312 443.458305,118.869048 461.823529,118.869048 L668,118.869048 L668,131.086528 C668,149.263542 653.110955,164 634.745731,164" id="Fill-17" fill="#F4F7F9" transform="translate(548.284630, 141.434524) scale(-1, 1) translate(-548.284630, -141.434524) "></path>
            <path d="M375.362429,164 L242.345351,164 L242.345351,151.782519 C242.345351,133.603312 257.234396,118.869048 275.59962,118.869048 L408.616698,118.869048 L408.616698,131.086528 C408.616698,149.263542 393.727653,164 375.362429,164" id="Fill-19" fill="#F4F7F9" transform="translate(325.481025, 141.434524) scale(-1, 1) translate(-325.481025, -141.434524) "></path>
            <path d="M949.231499,45.8630952 L949.231499,33.6456145 C949.231499,15.466407 964.115723,0.732142857 982.475001,0.732142857 L1211.60288,0.732142857 L1211.60288,12.9496235 C1211.60288,31.1266368 1196.71865,45.8630952 1178.35937,45.8630952 L949.231499,45.8630952 Z" id="Fill-7" fill="#F4F7F9" transform="translate(1080.417188, 23.297619) scale(-1, 1) translate(-1080.417188, -23.297619) "></path>
            <path d="M897.372644,45.8630952 L707.140417,45.8630952 L707.140417,33.6456145 C707.140417,15.466407 722.019275,0.732142857 740.376882,0.732142857 L930.609108,0.732142857 L930.609108,12.9496235 C930.609108,31.1266368 915.728035,45.8630952 897.372644,45.8630952" id="Fill-9" fill="#F4F7F9" transform="translate(818.874763, 23.297619) scale(-1, 1) translate(-818.874763, -23.297619) "></path>
            <path d="M919.967742,104.267857 L919.967742,92.0503765 C919.967742,73.8711689 934.810886,59.1369048 953.12443,59.1369048 L1130.13472,59.1369048 L1130.13472,71.3543855 C1130.13472,89.5313988 1115.28937,104.267857 1096.97804,104.267857 L919.967742,104.267857 Z" id="Fill-11" fill="#DE3439" transform="translate(1025.051233, 81.702381) scale(-1, 1) translate(-1025.051233, -81.702381) "></path>
            <path d="M642.694682,104.267857 L642.694682,92.0503765 C642.694682,73.8711689 657.585773,59.1369048 675.95352,59.1369048 L901.345351,59.1369048 L901.345351,71.3543855 C901.345351,89.5313988 886.456478,104.267857 868.086513,104.267857 L642.694682,104.267857 Z" id="Fill-13" fill="#D7DFE3" transform="translate(772.020017, 81.702381) scale(-1, 1) translate(-772.020017, -81.702381) "></path>
            <path d="M1239.17272,104.267857 L1147.42694,104.267857 L1147.42694,92.0503765 C1147.42694,73.8711689 1162.32989,59.1369048 1180.71722,59.1369048 L1272.463,59.1369048 L1272.463,71.3543855 C1272.463,89.5313988 1257.56005,104.267857 1239.17272,104.267857" id="Fill-15" fill="#F4F7F9" transform="translate(1209.944972, 81.702381) scale(-1, 1) translate(-1209.944972, -81.702381) "></path>
            <path d="M697.522659,164 L697.522659,151.782519 C697.522659,133.603312 712.411704,118.869048 730.776929,118.869048 L1067.6167,118.869048 L1067.6167,131.086528 C1067.6167,149.263542 1052.72765,164 1034.36243,164 L697.522659,164 Z" id="Fill-19" fill="#BAC3C9" transform="translate(882.569679, 141.434524) scale(-1, 1) translate(-882.569679, -141.434524) "></path>
        </g>
    </g>
</svg>