<?xml version="1.0" encoding="UTF-8"?>
<svg width="1326px" height="105px" viewBox="0 0 1326 105" version="1.1" xmlns="http://www.w3.org/2000/svg" xmlns:xlink="http://www.w3.org/1999/xlink">
    <!-- Generator: Sketch 51.3 (57544) - http://www.bohemiancoding.com/sketch -->
    <title>Group 2</title>
    <desc>Created with Sketch.</desc>
    <defs></defs>
    <g id="Page-1" stroke="none" stroke-width="1" fill="none" fill-rule="evenodd">
        <g id="Group-2">
            <path d="M633.426328,45.8630952 L290.231499,45.8630952 L290.231499,33.6456145 C290.231499,15.466407 305.115723,0.732142857 323.475001,0.732142857 L666.669829,0.732142857 L666.669829,12.9496235 C666.669829,31.1266368 651.785605,45.8630952 633.426328,45.8630952" id="Fill-7" fill="#FFCF3D" transform="translate(478.450664, 23.297619) scale(-1, 1) translate(-478.450664, -23.297619) "></path>
            <path d="M238.372644,45.8630952 L48.1404175,45.8630952 L48.1404175,33.6456145 C48.1404175,15.466407 63.0192746,0.732142857 81.3768817,0.732142857 L271.609108,0.732142857 L271.609108,12.9496235 C271.609108,31.1266368 256.728035,45.8630952 238.372644,45.8630952" id="Fill-9" fill="#F4F7F9" transform="translate(159.874763, 23.297619) scale(-1, 1) translate(-159.874763, -23.297619) "></path>
            <path d="M437.978037,104.267857 L260.967742,104.267857 L260.967742,92.0503765 C260.967742,73.8711689 275.810886,59.1369048 294.12443,59.1369048 L471.134725,59.1369048 L471.134725,71.3543855 C471.134725,89.5313988 456.28937,104.267857 437.978037,104.267857" id="Fill-11" fill="#F4F7F9" transform="translate(366.051233, 81.702381) scale(-1, 1) translate(-366.051233, -81.702381) "></path>
            <path d="M209.086513,104.267857 L0.25426945,104.267857 L0.25426945,92.0503765 C0.25426945,73.8711689 15.1453598,59.1369048 33.5131074,59.1369048 L242.345351,59.1369048 L242.345351,71.3543855 C242.345351,89.5313988 227.456478,104.267857 209.086513,104.267857" id="Fill-13" fill="#DEE4E8" transform="translate(121.299810, 81.702381) scale(-1, 1) translate(-121.299810, -81.702381) "></path>
            <path d="M488.426945,104.267857 L488.426945,92.0503765 C488.426945,73.8711689 503.329891,59.1369048 521.71722,59.1369048 L623.673087,59.1369048 L623.673087,71.3543855 C623.673087,89.5313988 608.770141,104.267857 590.382813,104.267857 L488.426945,104.267857 Z" id="Fill-15" fill="#BAC3C9" transform="translate(556.050016, 81.702381) scale(-1, 1) translate(-556.050016, -81.702381) "></path>
            <path d="M1292.42633,45.8630952 L949.231499,45.8630952 L949.231499,33.6456145 C949.231499,15.466407 964.115723,0.732142857 982.475001,0.732142857 L1325.66983,0.732142857 L1325.66983,12.9496235 C1325.66983,31.1266368 1310.78561,45.8630952 1292.42633,45.8630952" id="Fill-7" fill="#F4F7F9" transform="translate(1137.450664, 23.297619) scale(-1, 1) translate(-1137.450664, -23.297619) "></path>
            <path d="M686.294786,45.8630952 L686.294786,33.6456145 C686.294786,15.466407 701.173643,0.732142857 719.53125,0.732142857 L929.609108,0.732142857 L929.609108,12.9496235 C929.609108,31.1266368 914.728035,45.8630952 896.372644,45.8630952 L686.294786,45.8630952 Z" id="Fill-9" fill="#DEE4E8" transform="translate(807.951947, 23.297619) scale(-1, 1) translate(-807.951947, -23.297619) "></path>
            <path d="M1096.97804,104.267857 L919.967742,104.267857 L919.967742,92.0503765 C919.967742,73.8711689 934.810886,59.1369048 953.12443,59.1369048 L1130.13472,59.1369048 L1130.13472,71.3543855 C1130.13472,89.5313988 1115.28937,104.267857 1096.97804,104.267857" id="Fill-11" fill="#DE3439" transform="translate(1025.051233, 81.702381) scale(-1, 1) translate(-1025.051233, -81.702381) "></path>
            <path d="M642.694682,104.267857 L642.694682,92.0503765 C642.694682,73.8711689 657.585773,59.1369048 675.95352,59.1369048 L901.345351,59.1369048 L901.345351,71.3543855 C901.345351,89.5313988 886.456478,104.267857 868.086513,104.267857 L642.694682,104.267857 Z" id="Fill-13" fill="#F4F7F9" transform="translate(772.020017, 81.702381) scale(-1, 1) translate(-772.020017, -81.702381) "></path>
            <path d="M1239.17272,104.267857 L1147.42694,104.267857 L1147.42694,92.0503765 C1147.42694,73.8711689 1162.32989,59.1369048 1180.71722,59.1369048 L1272.463,59.1369048 L1272.463,71.3543855 C1272.463,89.5313988 1257.56005,104.267857 1239.17272,104.267857" id="Fill-15" fill="#F4F7F9" transform="translate(1209.944972, 81.702381) scale(-1, 1) translate(-1209.944972, -81.702381) "></path>
        </g>
    </g>
</svg>