<?xml version="1.0" encoding="UTF-8"?>
<svg width="1225px" height="83px" viewBox="0 0 1225 83" version="1.1" xmlns="http://www.w3.org/2000/svg" xmlns:xlink="http://www.w3.org/1999/xlink">
    <!-- Generator: Sketch 63.1 (92452) - https://sketch.com -->
    <title>Divider</title>
    <desc>Created with Sketch.</desc>
    <g id="Designs" stroke="none" stroke-width="1" fill="none" fill-rule="evenodd">
        <g id="Hyperscale-2020-07" transform="translate(-126.000000, -2557.000000)" fill="#F4F7F9">
            <g id="Divider" style="mix-blend-mode: multiply;" transform="translate(126.000000, 2557.000000)">
                <path d="M679.874065,36 L525,36 L525,26.2540095 C525,11.7546597 536.696454,0 551.125072,0 L706,0 L706,9.74599046 C706,24.2453403 694.302683,36 679.874065,36" id="Fill-1"></path>
                <path d="M904.874065,83 L750,83 L750,73.2540095 C750,58.7546597 761.696454,47 776.125072,47 L931,47 L931,56.7459905 C931,71.2453403 919.302683,83 904.874065,83" id="Fill-1-Copy"></path>
                <path d="M218.874065,83 L64,83 L64,73.2540095 C64,58.7546597 75.6964544,47 90.1250721,47 L245,47 L245,56.7459905 C245,71.2453403 233.302683,83 218.874065,83" id="Fill-1-Copy-2"></path>
                <path d="M1198.87407,83 L1044,83 L1044,73.2540095 C1044,58.7546597 1055.69645,47 1070.12507,47 L1225,47 L1225,56.7459905 C1225,71.2453403 1213.30268,83 1198.87407,83" id="Fill-1-Copy-3"></path>
                <path d="M781.709799,36 L717,36 L717,26.2540095 C717,11.7546597 728.770864,0 743.290201,0 L808,0 L808,9.74599046 C808,24.2453403 796.229136,36 781.709799,36" id="Fill-4"></path>
                <path d="M1006.7098,83 L942,83 L942,73.2540095 C942,58.7546597 953.770864,47 968.290201,47 L1033,47 L1033,56.7459905 C1033,71.2453403 1021.22914,83 1006.7098,83" id="Fill-4-Copy"></path>
                <path d="M487.852159,36 L307,36 L307,26.2540095 C307,11.7546597 318.706262,0 333.146978,0 L514,0 L514,9.74599046 C514,24.2453403 502.292875,36 487.852159,36" id="Fill-7"></path>
                <path d="M525.859758,83 L256,83 L256,73.2540095 C256,58.7546597 267.70286,47 282.139379,47 L552,47 L552,56.7459905 C552,71.2453403 540.296277,83 525.859758,83" id="Fill-10"></path>
                <path d="M1088.85976,36 L819,36 L819,26.2540095 C819,11.7546597 830.70286,0 845.139379,0 L1115,0 L1115,9.74599046 C1115,24.2453403 1103.29628,36 1088.85976,36" id="Fill-10-Copy-2"></path>
                <path d="M269.859758,36 L0,36 L0,26.2540095 C0,11.7546597 11.7028595,0 26.1393786,0 L296,0 L296,9.74599046 C296,24.2453403 284.296277,36 269.859758,36" id="Fill-10-Copy"></path>
                <path d="M563,83 L563,73.2540095 C563,58.7546597 574.7191,47 589.176518,47 L739,47 L739,56.7459905 C739,71.2453403 727.280036,83 712.823482,83 L563,83 Z" id="Fill-13"></path>
            </g>
        </g>
    </g>
</svg>