<?xml version="1.0" encoding="UTF-8"?>
<svg width="808px" height="163px" viewBox="0 0 808 163" version="1.1" xmlns="http://www.w3.org/2000/svg" xmlns:xlink="http://www.w3.org/1999/xlink">
    <!-- Generator: Sketch 51.3 (57544) - http://www.bohemiancoding.com/sketch -->
    <title>Group 5</title>
    <desc>Created with Sketch.</desc>
    <defs></defs>
    <g id="Page-1" stroke="none" stroke-width="1" fill="none" fill-rule="evenodd">
        <g id="Group-5">
            <path d="M333.801705,163 L137,163 L137,150.81797 C137,132.691511 151.863983,118 170.198295,118 L367,118 L367,130.18203 C367,148.306301 352.136017,163 333.801705,163" id="Fill-1" fill="#F4F7F9" transform="translate(252.000000, 140.500000) rotate(-180.000000) translate(-252.000000, -140.500000) "></path>
            <path d="M81.0653493,163 L0,163 L0,150.81797 C0,132.691511 14.7459409,118 32.9346507,118 L114,118 L114,130.18203 C114,148.306301 99.2540591,163 81.0653493,163" id="Fill-3" fill="#F4F7F9" transform="translate(57.000000, 140.500000) rotate(-180.000000) translate(-57.000000, -140.500000) "></path>
            <path d="M615.778668,163 L386,163 L386,150.81797 C386,132.691511 400.874298,118 419.221332,118 L649,118 L649,130.18203 C649,148.306301 634.125702,163 615.778668,163" id="Fill-5" fill="#FFCF3D" transform="translate(517.500000, 140.500000) rotate(-180.000000) translate(-517.500000, -140.500000) "></path>
            <path d="M666.795208,103 L324,103 L324,90.8179697 C324,72.6915111 338.866892,58 357.204792,58 L700,58 L700,70.1820303 C700,88.3063011 685.133108,103 666.795208,103" id="Fill-7" fill="#DEE4E8" transform="translate(512.000000, 80.500000) rotate(-180.000000) translate(-512.000000, -80.500000) "></path>
            <path d="M271.833244,103 L82,103 L82,90.8179697 C82,72.6915111 96.8476511,58 115.166756,58 L305,58 L305,70.1820303 C305,88.3063011 290.150138,103 271.833244,103" id="Fill-9" fill="#F4F7F9" transform="translate(193.500000, 80.500000) rotate(-180.000000) translate(-193.500000, -80.500000) "></path>
            <path d="M470.869656,45 L294,45 L294,32.8179697 C294,14.6915111 308.831351,2.27373675e-13 327.130344,2.27373675e-13 L504,2.27373675e-13 L504,12.1820303 C504,30.3063011 489.166441,45 470.869656,45" id="Fill-11" fill="#DE3439" transform="translate(399.000000, 22.500000) rotate(-180.000000) translate(-399.000000, -22.500000) "></path>
            <path d="M241.753675,45 L33,45 L33,32.8179697 C33,14.6915111 47.8854879,2.27373675e-13 66.246325,2.27373675e-13 L275,2.27373675e-13 L275,12.1820303 C275,30.3063011 260.116728,45 241.753675,45" id="Fill-13" fill="#BAC3C9" transform="translate(154.000000, 22.500000) rotate(-180.000000) translate(-154.000000, -22.500000) "></path>
            <path d="M667,163 L667,150.81797 C667,132.691511 681.88851,118 700.258027,118 L808,118 L808,130.18203 C808,148.306301 793.11149,163 774.741973,163 L667,163 Z" id="Fill-15" fill="#F4F7F9" transform="translate(737.500000, 140.500000) rotate(-180.000000) translate(-737.500000, -140.500000) "></path>
        </g>
    </g>
</svg>