<?xml version="1.0" encoding="UTF-8"?>
<svg width="493px" height="133px" viewBox="0 0 493 133" version="1.1" xmlns="http://www.w3.org/2000/svg" xmlns:xlink="http://www.w3.org/1999/xlink">
    <!-- Generator: Sketch 63.1 (92452) - https://sketch.com -->
    <title>Group 25</title>
    <desc>Created with Sketch.</desc>
    <g id="Designs" stroke="none" stroke-width="1" fill="none" fill-rule="evenodd">
        <g id="Hyperscale-2020-07" transform="translate(0.000000, -1178.000000)">
            <g id="Video" transform="translate(-76.000000, 895.000000)">
                <g id="Group-25" transform="translate(0.000000, 283.000000)">
                    <path d="M437.008012,37 L277,37 L277,26.9832876 C277,12.0811781 289.084182,0 303.991097,0 L464,0 L464,10.0167124 C464,24.9188219 451.914927,37 437.008012,37" id="Fill-1" fill="#019CDB"></path>
                    <path d="M541.843089,37 L475,37 L475,26.9832876 C475,12.0811781 487.158914,0 502.156911,0 L569,0 L569,10.0167124 C569,24.9188219 556.841086,37 541.843089,37" id="Fill-4" fill="#DE3439"></path>
                    <path d="M239.094251,37 L53,37 L53,26.9832876 C53,12.0811781 65.0455736,0 79.904861,0 L266,0 L266,10.0167124 C266,24.9188219 253.953538,37 239.094251,37" id="Fill-7" fill="#27588D"></path>
                    <path d="M278.064954,86 L0,86 L0,75.9832876 C0,61.0811781 12.0586897,49 26.934157,49 L305,49 L305,59.0167124 C305,73.9188219 292.940421,86 278.064954,86" id="Fill-10" fill="#FFFFFF"></path>
                    <path d="M471.079831,86 L317,86 L317,75.9832876 C317,61.0811781 329.052029,49 343.920169,49 L498,49 L498,59.0167124 C498,73.9188219 485.947082,86 471.079831,86" id="Fill-13" fill="#27588D"></path>
                    <path d="M100.109052,133 L26,133 L26,122.983288 C26,108.081178 38.0389471,96 52.8900601,96 L127,96 L127,106.016712 C127,120.919713 114.960165,133 100.109052,133" id="Fill-19" fill="#019CDB"></path>
                    <path d="M212.109052,133 L138,133 L138,122.983288 C138,108.081178 150.038947,96 164.89006,96 L239,96 L239,106.016712 C239,120.919713 226.960165,133 212.109052,133" id="Fill-19-Copy" fill="#FFCF3D"></path>
                </g>
            </g>
        </g>
    </g>
</svg>