<?xml version="1.0" encoding="UTF-8"?>
<svg width="851px" height="172px" viewBox="0 0 851 172" version="1.1" xmlns="http://www.w3.org/2000/svg" xmlns:xlink="http://www.w3.org/1999/xlink">
    <!-- Generator: Sketch 56.2 (81672) - https://sketch.com -->
    <title>motion-grid-2</title>
    <desc>Created with Sketch.</desc>
    <defs>
        <rect id="path-1" x="0" y="0" width="851" height="172"></rect>
    </defs>
    <g id="Page-1" stroke="none" stroke-width="1" fill="none" fill-rule="evenodd">
        <g id="motion-grid-2">
            <mask id="mask-2" fill="white">
                <use xlink:href="#path-1"></use>
            </mask>
            <g id="Mask" opacity="0"></g>
            <g id="sep-4" mask="url(#mask-2)" fill-rule="nonzero">
                <path d="M836.87557,45.2678571 L659.865275,45.2678571 L659.865275,33.0503765 C659.865275,14.8711689 674.708419,0.136904762 693.021963,0.136904762 L870.032258,0.136904762 L870.032258,12.3543855 C870.032258,30.5313988 855.186904,45.2678571 836.87557,45.2678571" id="Fill-11" fill="#BAC3C9"></path>
                <path d="M609.28278,45.2678571 L517.537002,45.2678571 L517.537002,33.0503765 C517.537002,14.8711689 532.439948,0.136904762 550.827277,0.136904762 L642.573055,0.136904762 L642.573055,12.3543855 C642.573055,30.5313988 627.670109,45.2678571 609.28278,45.2678571" id="Fill-15" fill="#E6EAED"></path>
                <path d="M669.176471,105 L463,105 L463,92.7825193 C463,74.6033118 477.889045,59.8690476 496.254269,59.8690476 L702.43074,59.8690476 L702.43074,72.0865283 C702.43074,90.2635416 687.541695,105 669.176471,105" id="Fill-17" fill="#DEE4E8"></path>
                <path d="M855.40038,105 L722.383302,105 L722.383302,92.7825193 C722.383302,74.6033118 737.272347,59.8690476 755.637571,59.8690476 L888.654649,59.8690476 L888.654649,72.0865283 C888.654649,90.2635416 873.765604,105 855.40038,105" id="Fill-19" fill="#E6EAED"></path>
                <path d="M807.77686,171.130952 L610.872865,171.130952 L610.872865,158.913472 C610.872865,140.734264 625.744574,126 644.088415,126 L840.99241,126 L840.99241,138.217481 C840.99241,156.394494 826.120701,171.130952 807.77686,171.130952" id="Fill-1" fill="#DE3439"></path>
                <path d="M556.321581,171.130952 L326.216319,171.130952 L326.216319,158.913472 C326.216319,140.734264 341.111758,126 359.48487,126 L589.590133,126 L589.590133,138.217481 C589.590133,156.394494 574.694693,171.130952 556.321581,171.130952" id="Fill-5" fill="#E6EAED"></path>
                <path d="M259.745778,171.130952 L168,171.130952 L168,158.913472 C168,140.734264 182.902946,126 201.290275,126 L293.036053,126 L293.036053,138.217481 C293.036053,156.394494 278.133107,171.130952 259.745778,171.130952" id="Fill-15" fill="#BAC3C9"></path>
                <path d="M177.87557,45.2678571 L0.865275142,45.2678571 L0.865275142,33.0503765 C0.865275142,14.8711689 15.7084192,0.136904762 34.0219632,0.136904762 L211.032258,0.136904762 L211.032258,12.3543855 C211.032258,30.5313988 196.186904,45.2678571 177.87557,45.2678571" id="Fill-11" fill="#DEE4E8"></path>
                <path d="M229.654649,45.2678571 L229.654649,33.0503765 C229.654649,14.8711689 244.545739,0.136904762 262.913487,0.136904762 L488.305318,0.136904762 L488.305318,12.3543855 C488.305318,30.5313988 473.416444,45.2678571 455.04648,45.2678571 L229.654649,45.2678571 Z" id="Fill-13" fill="#FFCF3D"></path>
                <path d="M63.3833017,105 L63.3833017,92.7825193 C63.3833017,74.6033118 78.2723466,59.8690476 96.6375712,59.8690476 L433.477341,59.8690476 L433.477341,72.0865283 C433.477341,90.2635416 418.588296,105 400.223071,105 L63.3833017,105 Z" id="Fill-19" fill="#E6EAED"></path>
            </g>
        </g>
    </g>
</svg>