<?xml version="1.0" encoding="UTF-8"?>
<svg width="850px" height="171px" viewBox="0 0 850 171" version="1.1" xmlns="http://www.w3.org/2000/svg" xmlns:xlink="http://www.w3.org/1999/xlink">
    <!-- Generator: Sketch 56.2 (81672) - https://sketch.com -->
    <title>motion-grid-4</title>
    <desc>Created with Sketch.</desc>
    <defs>
        <rect id="path-1" x="0" y="0.792572016" width="851" height="172"></rect>
    </defs>
    <g id="Page-1" stroke="none" stroke-width="1" fill="none" fill-rule="evenodd">
        <g id="motion-grid-4" transform="translate(-1.000000, -1.792572)">
            <mask id="mask-2" fill="white">
                <use xlink:href="#path-1"></use>
            </mask>
            <g id="Mask"></g>
            <path d="M363.852374,48.792572 L1,48.792572 L1,36.0691181 C1,17.1370391 16.7367637,1.79257202 36.1476259,1.79257202 L399,1.79257202 L399,14.5160259 C399,33.4458198 383.263236,48.792572 363.852374,48.792572" id="Fill-7" fill="#D7DFE3" mask="url(#mask-2)"></path>
            <path d="M619.751026,48.792572 L418,48.792572 L418,36.0691181 C418,17.1370391 433.779791,1.79257202 453.248974,1.79257202 L655,1.79257202 L655,14.5160259 C655,33.4458198 639.217859,48.792572 619.751026,48.792572" id="Fill-9" fill="#EBEEF1" mask="url(#mask-2)"></path>
            <path d="M875.623378,48.5152677 L674,48.5152677 L674,35.8668833 C674,17.0465054 689.769807,1.79257202 709.226672,1.79257202 L1028,2.06987633 L1028,14.7182607 C1028,33.536367 1012.22784,48.792572 992.773328,48.792572" id="Fill-9-Copy-4" fill="#BAC3C9" mask="url(#mask-2)"></path>
            <path d="M499,172.792572 L499,160.069118 C499,141.137039 514.773953,125.792572 534.235934,125.792572 L966,125.792572 L966,138.516026 C966,157.44582 950.223698,172.792572 930.764066,172.792572 L499,172.792572 Z" id="Fill-9-Copy" fill="#DE3439" mask="url(#mask-2)"></path>
            <path d="M249,172.792572 L249,160.069118 C249,141.137039 264.776631,125.792572 284.241915,125.792572 C310.690495,125.792572 344.664782,125.792572 386.164775,125.792572 C406.572603,125.792572 437.184344,125.792572 478,125.792572 L478,138.516026 C478,157.44582 462.22102,172.792572 442.758085,172.792572 L249,172.792572 Z" id="Fill-9-Copy-2" fill="#DEE4E8" mask="url(#mask-2)"></path>
            <path d="M394.976493,110.792572 L208,110.792572 L208,98.0691181 C208,79.1370391 223.678857,63.792572 243.023507,63.792572 L430,63.792572 L430,76.5160259 C430,95.4458198 414.318809,110.792572 394.976493,110.792572" id="Fill-11" fill="#E6EAED" mask="url(#mask-2)"></path>
            <path d="M912.976493,110.792572 L726,110.792572 L726,98.0691181 C726,79.1370391 741.678857,63.792572 761.023507,63.792572 L948,63.792572 L948,76.5160259 C948,95.4458198 932.318809,110.792572 912.976493,110.792572" id="Fill-11-Copy" fill="#E6EAED" mask="url(#mask-2)"></path>
            <path d="M670.830334,110.792572 L450,110.792572 L450,98.0691181 C450,79.1370391 465.746632,63.792572 485.169666,63.792572 L706,63.792572 L706,76.5160259 C706,95.4458198 690.255713,110.792572 670.830334,110.792572" id="Fill-13" fill="#EBEEF1" mask="url(#mask-2)"></path>
            <path d="M46,110.792572 L46,98.0691181 C46,79.1370391 61.7573539,63.792572 81.1988547,63.792572 L189,63.792572 L189,76.5160259 C189,95.4458198 173.242646,110.792572 153.801145,110.792572 L46,110.792572 Z" id="Fill-15" fill="#FFCF3D" mask="url(#mask-2)"></path>
        </g>
    </g>
</svg>