<?xml version="1.0" encoding="UTF-8"?>
<svg width="851px" height="172px" viewBox="0 0 851 172" version="1.1" xmlns="http://www.w3.org/2000/svg" xmlns:xlink="http://www.w3.org/1999/xlink">
    <!-- Generator: Sketch 56.2 (81672) - https://sketch.com -->
    <title>motion-grid-3</title>
    <desc>Created with Sketch.</desc>
    <defs>
        <rect id="path-1" x="0" y="0" width="851" height="172"></rect>
    </defs>
    <g id="Page-1" stroke="none" stroke-width="1" fill="none" fill-rule="evenodd">
        <g id="motion-grid-3">
            <mask id="mask-2" fill="white">
                <use xlink:href="#path-1"></use>
            </mask>
            <g id="Mask" opacity="0"></g>
            <g id="sep-6" mask="url(#mask-2)" fill-rule="nonzero">
                <path d="M300.911584,171.130952 L104.007589,171.130952 L104.007589,158.913471 C104.007589,140.734264 118.879298,126 137.223139,126 L334.127134,126 L334.127134,138.21748 C334.127134,156.394494 319.255425,171.130952 300.911584,171.130952" id="Fill-1" fill="#E6EAED" transform="translate(219.067362, 148.565476) rotate(-180.000000) translate(-219.067362, -148.565476) "></path>
                <path d="M585.51513,171.130952 L355.409867,171.130952 L355.409867,158.913471 C355.409867,140.734264 370.305307,126 388.678419,126 L618.783681,126 L618.783681,138.21748 C618.783681,156.394494 603.888242,171.130952 585.51513,171.130952" id="Fill-5" fill="#FFCF3D" transform="translate(487.096774, 148.565476) rotate(-180.000000) translate(-487.096774, -148.565476) "></path>
                <path d="M633.426328,106.267857 L290.231499,106.267857 L290.231499,94.0503767 C290.231499,75.8711691 305.115723,61.136905 323.475001,61.136905 L666.669829,61.136905 L666.669829,73.3543857 C666.669829,91.531399 651.785605,106.267857 633.426328,106.267857" id="Fill-7" fill="#DEE4E8" transform="translate(478.450664, 83.702381) rotate(-180.000000) translate(-478.450664, -83.702381) "></path>
                <path d="M238.372644,106.267857 L48.140418,106.267857 L48.140418,94.0503767 C48.140418,75.8711691 63.0192751,61.136905 81.3768825,61.136905 L271.609108,61.136905 L271.609108,73.3543857 C271.609108,91.531399 256.728035,106.267857 238.372644,106.267857" id="Fill-9" fill="#BAC3C9" transform="translate(159.874763, 83.702381) rotate(-180.000000) translate(-159.874763, -83.702381) "></path>
                <path d="M437.978036,45.1309523 L260.967741,45.1309523 L260.967741,32.9134716 C260.967741,14.7342641 275.810885,0 294.124429,0 L471.134724,0 L471.134724,12.2174806 C471.134724,30.3944939 456.289369,45.1309523 437.978036,45.1309523" id="Fill-11" fill="#DE3439" transform="translate(366.051232, 22.565476) rotate(-180.000000) translate(-366.051232, -22.565476) "></path>
                <path d="M209.086513,45.8630951 L0.254269,45.8630951 L0.254269,33.6456144 C0.254269,15.4664069 15.1453594,0.7321428 33.513107,0.7321428 L242.345351,0.7321428 L242.345351,12.9496234 C242.345351,31.1266367 227.456478,45.8630951 209.086513,45.8630951" id="Fill-13" fill="#E6EAED" transform="translate(121.299810, 23.297619) rotate(-180.000000) translate(-121.299810, -23.297619) "></path>
                <path d="M581.172724,45.1309523 L489.426946,45.1309523 L489.426946,32.9134716 C489.426946,14.7342641 504.329892,0 522.717221,0 L614.462999,0 L614.462999,12.2174806 C614.462999,30.3944939 599.560053,45.1309523 581.172724,45.1309523" id="Fill-15" fill="#D7DFE3" transform="translate(551.944972, 22.565476) rotate(-180.000000) translate(-551.944972, -22.565476) "></path>
                <path d="M966.911589,171.130952 L770.007594,171.130952 L770.007594,158.913471 C770.007594,140.734264 784.879303,126 803.223144,126 L1000.12713,126 L1000.12713,138.21748 C1000.12713,156.394494 985.255434,171.130952 966.911589,171.130952" id="Fill-1" fill="#DEE4E8" transform="translate(885.067364, 148.565476) rotate(-180.000000) translate(-885.067364, -148.565476) "></path>
                <path d="M718.34601,171.130952 L636.999999,171.130952 L636.999999,158.913471 C636.999999,140.734264 651.796993,126 670.048675,126 L751.394686,126 L751.394686,138.21748 C751.394686,156.394494 736.597692,171.130952 718.34601,171.130952" id="Fill-3" fill="#E6EAED" transform="translate(694.197343, 148.565476) rotate(-180.000000) translate(-694.197343, -148.565476) "></path>
                <path d="M875.763537,106 L685.53131,106 L685.53131,93.7825197 C685.53131,75.6033122 700.410167,60.869048 718.767774,60.869048 L909.000001,60.869048 L909.000001,73.0865287 C909.000001,91.263542 894.118928,106 875.763537,106" id="Fill-9" fill="#BAC3C9" transform="translate(797.265656, 83.434524) rotate(-180.000000) translate(-797.265656, -83.434524) "></path>
                <path d="M632.694683,45.1309523 L632.694683,32.9134716 C632.694683,14.7342641 647.585774,0 665.953521,0 L891.345352,0 L891.345352,12.2174806 C891.345352,30.3944939 876.456479,45.1309523 858.086514,45.1309523 L632.694683,45.1309523 Z" id="Fill-13" fill="#DEE4E8" transform="translate(762.020018, 22.565476) rotate(-180.000000) translate(-762.020018, -22.565476) "></path>
            </g>
        </g>
    </g>
</svg>