<?xml version="1.0" encoding="UTF-8"?>
<svg width="851px" height="172px" viewBox="0 0 851 172" version="1.1" xmlns="http://www.w3.org/2000/svg" xmlns:xlink="http://www.w3.org/1999/xlink">
    <!-- Generator: Sketch 56.2 (81672) - https://sketch.com -->
    <title>motrion-grid-1</title>
    <desc>Created with Sketch.</desc>
    <defs>
        <rect id="path-1" x="0" y="0" width="851" height="172"></rect>
    </defs>
    <g id="Page-1" stroke="none" stroke-width="1" fill="none" fill-rule="evenodd">
        <g id="motrion-grid-1">
            <mask id="mask-2" fill="white">
                <use xlink:href="#path-1"></use>
            </mask>
            <g id="Mask"></g>
            <g id="sep-1" mask="url(#mask-2)" fill-rule="nonzero">
                <path d="M527.978036,45.2678571 L350.967741,45.2678571 L350.967741,33.0503765 C350.967741,14.8711689 365.810885,0.136904762 384.124429,0.136904762 L561.134724,0.136904762 L561.134724,12.3543855 C561.134724,30.5313988 546.289369,45.2678571 527.978036,45.2678571" id="Fill-11" fill="#FFCF3D" transform="translate(456.051232, 22.702381) scale(-1, 1) translate(-456.051232, -22.702381) "></path>
                <path d="M299.086513,45.2678571 L90.254269,45.2678571 L90.254269,33.0503765 C90.254269,14.8711689 105.14536,0.136904762 123.513107,0.136904762 L332.345351,0.136904762 L332.345351,12.3543855 C332.345351,30.5313988 317.456478,45.2678571 299.086513,45.2678571" id="Fill-13" fill="#D7DFE3" transform="translate(211.299810, 22.702381) scale(-1, 1) translate(-211.299810, -22.702381) "></path>
                <path d="M671.1917,45.1309524 L579.445921,45.1309524 L579.445921,32.9134717 C579.445921,14.7342642 594.348868,0 612.736196,0 L704.481974,0 L704.481974,12.2174807 C704.481974,30.394494 689.579028,45.1309524 671.1917,45.1309524" id="Fill-15" fill="#E6EAED" transform="translate(641.963948, 22.565476) scale(-1, 1) translate(-641.963948, -22.565476) "></path>
                <path d="M724.745731,105 L518.56926,105 L518.56926,92.7825193 C518.56926,74.6033118 533.458305,59.8690476 551.823529,59.8690476 L758,59.8690476 L758,72.0865283 C758,90.2635416 743.110955,105 724.745731,105" id="Fill-17" fill="#E6EAED" transform="translate(638.284630, 82.434524) scale(-1, 1) translate(-638.284630, -82.434524) "></path>
                <path d="M0.042606,105 L0.042606,92.7825193 C0.042606,74.6033118 14.93165,59.8690476 33.296875,59.8690476 L498.616698,59.8690476 L498.616698,72.0865283 C498.616698,90.2635416 483.727653,105 465.362429,105 L0.042606,105 Z" id="Fill-19" fill="#BAC3C9" transform="translate(249.329652, 82.434524) scale(-1, 1) translate(-249.329652, -82.434524) "></path>
                <path d="M298.911584,171.130952 L102.007589,171.130952 L102.007589,158.913472 C102.007589,140.734264 116.879298,126 135.223139,126 L332.127134,126 L332.127134,138.217481 C332.127134,156.394494 317.255425,171.130952 298.911584,171.130952" id="Fill-1" fill="#E6EAED" transform="translate(217.067361, 148.565476) scale(-1, 1) translate(-217.067361, -148.565476) "></path>
                <path d="M583.51513,171.130952 L353.409867,171.130952 L353.409867,158.913472 C353.409867,140.734264 368.305307,126 386.678419,126 L616.783681,126 L616.783681,138.217481 C616.783681,156.394494 601.888242,171.130952 583.51513,171.130952" id="Fill-5" fill="#BAC3C9" transform="translate(485.096774, 148.565476) scale(-1, 1) translate(-485.096774, -148.565476) "></path>
                <path d="M641.963948,171.130952 L641.963948,158.913472 C641.963948,140.734264 656.866894,126 675.254223,126 L1030.83203,126 L1030.83203,138.217481 C1030.83203,156.394494 1015.92908,171.130952 997.541761,171.130952 L641.963948,171.130952 Z" id="Fill-15" fill="#DE3439" transform="translate(836.397990, 148.565476) scale(-1, 1) translate(-836.397990, -148.565476) "></path>
                <path d="M723.694684,45.2678571 L723.694684,33.0503765 C723.694684,14.8711689 738.585775,0.136904762 756.953522,0.136904762 L982.345352,0.136904762 L982.345352,12.3543855 C982.345352,30.5313988 967.456482,45.2678571 949.086512,45.2678571 L723.694684,45.2678571 Z" id="Fill-13" fill="#D7DFE3" transform="translate(853.020018, 22.702381) scale(-1, 1) translate(-853.020018, -22.702381) "></path>
                <path d="M777.952562,105.130952 L777.952562,92.9134717 C777.952562,74.7342642 792.841607,60 811.206831,60 L1148.0466,60 L1148.0466,72.2174807 C1148.0466,90.394494 1133.15756,105.130952 1114.79233,105.130952 L777.952562,105.130952 Z" id="Fill-19" fill="#D7DFE3" transform="translate(962.999581, 82.565476) scale(-1, 1) translate(-962.999581, -82.565476) "></path>
            </g>
        </g>
    </g>
</svg>