<?xml version="1.0" encoding="UTF-8"?>
<svg width="20px" height="20px" viewBox="0 0 20 20" version="1.1" xmlns="http://www.w3.org/2000/svg" xmlns:xlink="http://www.w3.org/1999/xlink">
    <title>Fill Color</title>
    <g id="r" stroke="none" stroke-width="1" fill="none" fill-rule="evenodd">
        <g id="Location-Page-Desktop-R2" transform="translate(-1827, -2396)" fill="#00275C">
            <g id="Search-Copy-2" transform="translate(1713, 2384)">
                <path d="M133.560948,31.5521792 C133.842047,31.2714805 134,30.8905313 134,30.4932805 C134,30.0960297 133.842047,29.7150805 133.560948,29.4343819 L129.764896,25.6383301 C129.601187,25.4726962 129.57305,25.2161544 129.696967,25.0189743 C131.997737,21.3549758 131.17889,16.5473282 127.794914,13.8515658 C124.410938,11.1558034 119.541902,11.4323367 116.484909,14.493909 C113.427917,17.5554813 113.158673,22.4249262 115.859498,25.8048629 C118.560323,29.1847995 123.369191,29.9964486 127.029741,27.690196 C127.227196,27.5660313 127.484297,27.5950589 127.649097,27.7601233 L131.445149,31.556175 C131.725586,31.8377654 132.106633,31.9960585 132.504047,31.9960585 C132.901462,31.9960585 133.282509,31.8377654 133.562946,31.556175 L133.560948,31.5521792 Z M117.018154,20.5036706 C117.018154,17.4692605 119.478029,15.0093852 122.512439,15.0093852 C125.54685,15.0093852 128.006725,17.4692605 128.006725,20.5036706 C128.006725,23.5380807 125.54685,25.9979561 122.512439,25.9979561 C119.478943,25.9957523 117.020358,23.5371674 117.018154,20.5036706 Z" id="Fill-Color"></path>
            </g>
        </g>
    </g>
</svg>